<svg xmlns="http://www.w3.org/2000/svg" xmlns:xlink="http://www.w3.org/1999/xlink" width="157" height="157" viewBox="0 0 157 157">
    <defs>
        <circle id="b" cx="78.5" cy="68.5" r="58.5"/>
        <filter id="a" width="159.8%" height="159.8%" x="-29.9%" y="-21.4%" filterUnits="objectBoundingBox">
            <feOffset dy="10" in="SourceAlpha" result="shadowOffsetOuter1"/>
            <feGaussianBlur in="shadowOffsetOuter1" result="shadowBlurOuter1" stdDeviation="10"/>
            <feColorMatrix in="shadowBlurOuter1" values="0 0 0 0 0 0 0 0 0 0 0 0 0 0 0 0 0 0 0.245131341 0"/>
        </filter>
    </defs>
    <g fill="none" fill-rule="evenodd">
        <g fill="#000">
            <use filter="url(#a)" xlink:href="#b"/>
            <use xlink:href="#b"/>
        </g>
        <path fill="#FFF" d="M50.442 60.908h-3.136V69H45.36v-8.092h-3.136v-1.834h8.218v1.834zm1.246 3.864h3.08a1.43 1.43 0 0 0-.413-.966c-.257-.261-.632-.392-1.127-.392-.448 0-.812.14-1.092.42-.28.28-.43.593-.448.938zm3.262 1.792l1.554.462a2.97 2.97 0 0 1-1.099 1.568c-.546.41-1.225.616-2.037.616-.99 0-1.83-.334-2.52-1.001-.69-.667-1.036-1.561-1.036-2.681 0-1.064.336-1.934 1.008-2.611.672-.677 1.465-1.015 2.38-1.015 1.064 0 1.897.317 2.499.952.602.635.903 1.507.903 2.618 0 .075-.002.159-.007.252a4.711 4.711 0 0 0-.007.224l-.014.098h-4.928c.019.448.196.821.532 1.12.336.299.737.448 1.204.448.793 0 1.316-.35 1.568-1.05zm6.216-2.94c-.495 0-.91.173-1.246.518-.336.345-.504.817-.504 1.414s.17 1.071.511 1.421c.34.35.758.525 1.253.525.439 0 .789-.114 1.05-.343.261-.229.439-.502.532-.819l1.638.546c-.168.635-.532 1.18-1.092 1.638-.56.457-1.27.686-2.128.686-1.027 0-1.888-.348-2.583-1.043-.695-.695-1.043-1.566-1.043-2.611 0-1.055.343-1.927 1.029-2.618.686-.69 1.533-1.036 2.541-1.036.877 0 1.596.226 2.156.679.56.453.92 1.001 1.078 1.645l-1.666.56c-.224-.775-.733-1.162-1.526-1.162zm6.468 1.33V69h-1.862V58.864h1.862v3.822c.42-.504 1.04-.756 1.862-.756.84 0 1.477.254 1.911.763.434.509.651 1.164.651 1.967V69h-1.862v-4.018c0-.41-.105-.742-.315-.994-.21-.252-.53-.378-.959-.378-.383 0-.688.126-.917.378-.229.252-.352.574-.371.966zm8.176.084V69h-1.862v-6.888h1.806v.854a1.92 1.92 0 0 1 .84-.77 2.589 2.589 0 0 1 1.148-.266c.812 0 1.43.254 1.855.763.425.509.637 1.164.637 1.967V69h-1.862v-4.018c0-.41-.105-.742-.315-.994-.21-.252-.53-.378-.959-.378-.392 0-.705.135-.938.406-.233.27-.35.611-.35 1.022zm9.408 2.478c.485 0 .898-.173 1.239-.518.34-.345.511-.826.511-1.442s-.17-1.097-.511-1.442a1.676 1.676 0 0 0-1.239-.518c-.485 0-.898.173-1.239.518-.34.345-.511.826-.511 1.442s.17 1.097.511 1.442c.34.345.754.518 1.239.518zm0-5.614c1.036 0 1.897.345 2.583 1.036.686.69 1.029 1.563 1.029 2.618s-.343 1.927-1.029 2.618c-.686.69-1.547 1.036-2.583 1.036-1.036 0-1.897-.345-2.583-1.036-.686-.69-1.029-1.563-1.029-2.618s.343-1.927 1.029-2.618c.686-.69 1.547-1.036 2.583-1.036zM92.162 69H90.3V58.864h1.862V69zm5.082-1.484c.485 0 .898-.173 1.239-.518.34-.345.511-.826.511-1.442s-.17-1.097-.511-1.442a1.676 1.676 0 0 0-1.239-.518c-.485 0-.898.173-1.239.518-.34.345-.511.826-.511 1.442s.17 1.097.511 1.442c.34.345.754.518 1.239.518zm0-5.614c1.036 0 1.897.345 2.583 1.036.686.69 1.029 1.563 1.029 2.618s-.343 1.927-1.029 2.618c-.686.69-1.547 1.036-2.583 1.036-1.036 0-1.897-.345-2.583-1.036-.686-.69-1.029-1.563-1.029-2.618s.343-1.927 1.029-2.618c.686-.69 1.547-1.036 2.583-1.036zm4.592 7.476l1.68-.448c.065.383.243.695.532.938.29.243.649.364 1.078.364 1.223 0 1.834-.64 1.834-1.918v-.504c-.159.252-.401.462-.728.63-.327.168-.723.252-1.19.252-.915 0-1.678-.317-2.289-.952-.611-.635-.917-1.433-.917-2.394 0-.933.303-1.727.91-2.38.607-.653 1.372-.98 2.296-.98.504 0 .924.091 1.26.273.336.182.57.404.7.665v-.812h1.792v6.146c0 1.036-.299 1.897-.896 2.583-.597.686-1.503 1.029-2.716 1.029-.905 0-1.664-.243-2.275-.728s-.968-1.073-1.071-1.764zm3.528-2.282c.476 0 .866-.159 1.169-.476.303-.317.455-.742.455-1.274 0-.523-.156-.943-.469-1.26a1.558 1.558 0 0 0-1.155-.476c-.476 0-.87.159-1.183.476-.313.317-.469.737-.469 1.26 0 .532.154.957.462 1.274.308.317.705.476 1.19.476zm7.63 4.62h-1.974l1.624-3.584-2.926-6.02h2.086l1.834 4.032 1.694-4.032h1.988l-4.326 9.604zM49.812 79.44l-1.736.532c-.065-.355-.243-.677-.532-.966-.29-.29-.714-.434-1.274-.434-.457 0-.83.124-1.12.371-.29.247-.434.544-.434.889 0 .607.36.98 1.078 1.12l1.386.266c.877.168 1.559.518 2.044 1.05.485.532.728 1.157.728 1.876 0 .821-.324 1.538-.973 2.149s-1.519.917-2.611.917a4.85 4.85 0 0 1-1.694-.28c-.504-.187-.91-.436-1.218-.749a3.844 3.844 0 0 1-.721-.994 3.143 3.143 0 0 1-.315-1.085l1.792-.476c.047.532.254.975.623 1.33.369.355.884.532 1.547.532.504 0 .898-.112 1.183-.336.285-.224.427-.518.427-.882 0-.29-.105-.539-.315-.749-.21-.21-.506-.352-.889-.427l-1.386-.28c-.803-.168-1.437-.5-1.904-.994-.467-.495-.7-1.11-.7-1.848 0-.877.338-1.615 1.015-2.212.677-.597 1.491-.896 2.443-.896.57 0 1.078.08 1.526.238.448.159.807.371 1.078.637.27.266.48.539.63.819.15.28.257.574.322.882zm4.004-1.386v2.058h1.386v1.652h-1.386v2.884c0 .29.065.495.196.616.13.121.336.182.616.182.252 0 .443-.019.574-.056v1.54c-.27.112-.62.168-1.05.168-.672 0-1.204-.189-1.596-.567-.392-.378-.588-.898-.588-1.561v-3.206h-1.246v-1.652h.35c.345 0 .609-.1.791-.301.182-.2.273-.464.273-.791v-.966h1.68zm2.59 7.07c0-.588.191-1.06.574-1.414.383-.355.877-.579 1.484-.672l1.694-.252c.345-.047.518-.21.518-.49 0-.261-.1-.476-.301-.644-.2-.168-.488-.252-.861-.252-.392 0-.702.107-.931.322-.229.215-.357.48-.385.798l-1.652-.35c.065-.597.36-1.125.882-1.582.523-.457 1.213-.686 2.072-.686 1.027 0 1.783.245 2.268.735.485.49.728 1.118.728 1.883v3.388c0 .41.028.775.084 1.092h-1.708a3.88 3.88 0 0 1-.07-.826c-.439.681-1.115 1.022-2.03 1.022-.71 0-1.281-.205-1.715-.616-.434-.41-.651-.896-.651-1.456zm2.758.686c.439 0 .8-.124 1.085-.371.285-.247.427-.656.427-1.225v-.308l-1.554.238c-.57.084-.854.373-.854.868 0 .224.08.413.238.567.159.154.378.231.658.231zm8.274-4.186c-.495 0-.91.173-1.246.518-.336.345-.504.817-.504 1.414s.17 1.071.511 1.421c.34.35.758.525 1.253.525.439 0 .789-.114 1.05-.343.261-.229.439-.502.532-.819l1.638.546c-.168.635-.532 1.18-1.092 1.638-.56.457-1.27.686-2.128.686-1.027 0-1.888-.348-2.583-1.043-.695-.695-1.043-1.566-1.043-2.611 0-1.055.343-1.927 1.029-2.618.686-.69 1.533-1.036 2.541-1.036.877 0 1.596.226 2.156.679.56.453.92 1.001 1.078 1.645l-1.666.56c-.224-.775-.733-1.162-1.526-1.162zm11.284-1.512l-2.758 2.898L78.778 87h-2.282l-1.82-2.632-.77.812V87h-1.862V76.864h1.862v5.81l2.38-2.562h2.436z"/>
    </g>
</svg>
