<svg xmlns="http://www.w3.org/2000/svg" xmlns:xlink="http://www.w3.org/1999/xlink" width="192" height="192" viewBox="0 0 192 192">
    <defs>
        <circle id="b" cx="76" cy="76" r="76"/>
        <filter id="a" width="146.1%" height="146.1%" x="-23%" y="-16.4%" filterUnits="objectBoundingBox">
            <feOffset dy="10" in="SourceAlpha" result="shadowOffsetOuter1"/>
            <feGaussianBlur in="shadowOffsetOuter1" result="shadowBlurOuter1" stdDeviation="10"/>
            <feColorMatrix in="shadowBlurOuter1" values="0 0 0 0 0 0 0 0 0 0 0 0 0 0 0 0 0 0 0.245131341 0"/>
        </filter>
    </defs>
    <g fill="none" fill-rule="evenodd">
        <g fill="#000" transform="translate(20 10)">
            <use filter="url(#a)" xlink:href="#b"/>
            <use xlink:href="#b"/>
        </g>
        <path fill="#FFF" d="M56.96 75.052h1.962c.612 0 1.098-.165 1.458-.495.36-.33.54-.771.54-1.323 0-.564-.177-1.011-.531-1.341-.354-.33-.843-.495-1.467-.495H56.96v3.654zm2.268 2.142h-2.286V82h-2.484V69.238h4.77c1.248 0 2.259.372 3.033 1.116.774.744 1.161 1.698 1.161 2.862 0 1.164-.387 2.118-1.161 2.862-.774.744-1.785 1.116-3.033 1.116zM67.454 82H65.06V68.968h2.394V82zm1.962-2.412c0-.756.246-1.362.738-1.818.492-.456 1.128-.744 1.908-.864l2.178-.324c.444-.06.666-.27.666-.63 0-.336-.129-.612-.387-.828-.258-.216-.627-.324-1.107-.324-.504 0-.903.138-1.197.414a1.547 1.547 0 0 0-.495 1.026l-2.124-.45c.084-.768.462-1.446 1.134-2.034.672-.588 1.56-.882 2.664-.882 1.32 0 2.292.315 2.916.945.624.63.936 1.437.936 2.421v4.356c0 .528.036.996.108 1.404h-2.196c-.06-.264-.09-.618-.09-1.062-.564.876-1.434 1.314-2.61 1.314-.912 0-1.647-.264-2.205-.792s-.837-1.152-.837-1.872zm3.546.882c.564 0 1.029-.159 1.395-.477.366-.318.549-.843.549-1.575v-.396l-1.998.306c-.732.108-1.098.48-1.098 1.116 0 .288.102.531.306.729.204.198.486.297.846.297zm9.594-9.972v2.646h1.782v2.124h-1.782v3.708c0 .372.084.636.252.792.168.156.432.234.792.234.324 0 .57-.024.738-.072v1.98c-.348.144-.798.216-1.35.216-.864 0-1.548-.243-2.052-.729s-.756-1.155-.756-2.007v-4.122h-1.602v-2.124h.45c.444 0 .783-.129 1.017-.387.234-.258.351-.597.351-1.017v-1.242h2.16zm7.866.45c-.336 0-.627.093-.873.279-.246.186-.369.501-.369.945v.972h1.998v2.052H89.18V82h-2.412v-6.804h-1.476v-2.052h1.476v-1.008c0-.996.291-1.794.873-2.394.582-.6 1.365-.9 2.349-.9.528 0 .924.06 1.188.18v2.016a2.717 2.717 0 0 0-.756-.09zm6.084 9.144c.624 0 1.155-.222 1.593-.666.438-.444.657-1.062.657-1.854s-.219-1.41-.657-1.854a2.155 2.155 0 0 0-1.593-.666c-.624 0-1.155.222-1.593.666-.438.444-.657 1.062-.657 1.854s.219 1.41.657 1.854c.438.444.969.666 1.593.666zm0-7.218c1.332 0 2.439.444 3.321 1.332.882.888 1.323 2.01 1.323 3.366 0 1.356-.441 2.478-1.323 3.366-.882.888-1.989 1.332-3.321 1.332s-2.439-.444-3.321-1.332c-.882-.888-1.323-2.01-1.323-3.366 0-1.356.441-2.478 1.323-3.366.882-.888 1.989-1.332 3.321-1.332zm11.934.234v2.412a3.663 3.663 0 0 0-.72-.072c-.684 0-1.236.195-1.656.585-.42.39-.63 1.029-.63 1.917V82h-2.394v-8.856h2.322v1.314c.432-.924 1.272-1.386 2.52-1.386.132 0 .318.012.558.036zM112.526 82h-2.394v-8.856h2.286v1.08c.228-.408.588-.732 1.08-.972.492-.24.996-.36 1.512-.36 1.284 0 2.16.492 2.628 1.476.636-.984 1.572-1.476 2.808-1.476.9 0 1.659.282 2.277.846.618.564.927 1.404.927 2.52V82h-2.322v-5.256c0-.504-.129-.909-.387-1.215-.258-.306-.651-.459-1.179-.459-.492 0-.888.168-1.188.504-.3.336-.45.75-.45 1.242V82h-2.376v-5.256c0-.504-.132-.909-.396-1.215-.264-.306-.654-.459-1.17-.459-.504 0-.906.165-1.206.495-.3.33-.45.747-.45 1.251V82zM56.96 98.052h1.962c.612 0 1.098-.165 1.458-.495.36-.33.54-.771.54-1.323 0-.564-.177-1.011-.531-1.341-.354-.33-.843-.495-1.467-.495H56.96v3.654zm2.268 2.142h-2.286V105h-2.484V92.238h4.77c1.248 0 2.259.372 3.033 1.116.774.744 1.161 1.698 1.161 2.862 0 1.164-.387 2.118-1.161 2.862-.774.744-1.785 1.116-3.033 1.116zm11.142-4.086v2.412a3.663 3.663 0 0 0-.72-.072c-.684 0-1.236.195-1.656.585-.42.39-.63 1.029-.63 1.917V105H64.97v-8.856h2.322v1.314c.432-.924 1.272-1.386 2.52-1.386.132 0 .318.012.558.036zm3.348 3.456h3.96a1.839 1.839 0 0 0-.531-1.242c-.33-.336-.813-.504-1.449-.504-.576 0-1.044.18-1.404.54-.36.36-.552.762-.576 1.206zm4.194 2.304l1.998.594a3.818 3.818 0 0 1-1.413 2.016c-.702.528-1.575.792-2.619.792-1.272 0-2.352-.429-3.24-1.287-.888-.858-1.332-2.007-1.332-3.447 0-1.368.432-2.487 1.296-3.357.864-.87 1.884-1.305 3.06-1.305 1.368 0 2.439.408 3.213 1.224.774.816 1.161 1.938 1.161 3.366 0 .096-.003.204-.009.324-.006.12-.009.216-.009.288l-.018.126h-6.336c.024.576.252 1.056.684 1.44.432.384.948.576 1.548.576 1.02 0 1.692-.45 2.016-1.35zm3.258.666l2.052-.45c.024.384.177.705.459.963.282.258.669.387 1.161.387.372 0 .66-.084.864-.252a.784.784 0 0 0 .306-.63c0-.444-.318-.732-.954-.864l-1.17-.27c-.828-.18-1.449-.504-1.863-.972a2.442 2.442 0 0 1-.621-1.674c0-.804.315-1.488.945-2.052.63-.564 1.419-.846 2.367-.846.6 0 1.128.087 1.584.261.456.174.81.396 1.062.666a3.3 3.3 0 0 1 .576.819c.132.276.216.546.252.81l-1.998.45a1.49 1.49 0 0 0-.423-.828c-.234-.24-.579-.36-1.035-.36-.312 0-.579.084-.801.252-.222.168-.333.378-.333.63 0 .432.27.696.81.792l1.26.27c.852.18 1.503.51 1.953.99.45.48.675 1.056.675 1.728 0 .792-.3 1.476-.9 2.052-.6.576-1.446.864-2.538.864-.624 0-1.182-.093-1.674-.279-.492-.186-.873-.426-1.143-.72a3.553 3.553 0 0 1-.612-.882 2.899 2.899 0 0 1-.261-.855zm10.764-2.97h3.96a1.839 1.839 0 0 0-.531-1.242c-.33-.336-.813-.504-1.449-.504-.576 0-1.044.18-1.404.54-.36.36-.552.762-.576 1.206zm4.194 2.304l1.998.594a3.818 3.818 0 0 1-1.413 2.016c-.702.528-1.575.792-2.619.792-1.272 0-2.352-.429-3.24-1.287-.888-.858-1.332-2.007-1.332-3.447 0-1.368.432-2.487 1.296-3.357.864-.87 1.884-1.305 3.06-1.305 1.368 0 2.439.408 3.213 1.224.774.816 1.161 1.938 1.161 3.366 0 .096-.003.204-.009.324-.006.12-.009.216-.009.288l-.018.126H91.88c.024.576.252 1.056.684 1.44.432.384.948.576 1.548.576 1.02 0 1.692-.45 2.016-1.35zm6.408-1.962V105h-2.394v-8.856h2.322v1.098a2.47 2.47 0 0 1 1.08-.99c.468-.228.96-.342 1.476-.342 1.044 0 1.839.327 2.385.981.546.654.819 1.497.819 2.529V105h-2.394v-5.166c0-.528-.135-.954-.405-1.278-.27-.324-.681-.486-1.233-.486-.504 0-.906.174-1.206.522-.3.348-.45.786-.45 1.314zm12.096-1.818c-.636 0-1.17.222-1.602.666-.432.444-.648 1.05-.648 1.818s.219 1.377.657 1.827c.438.45.975.675 1.611.675.564 0 1.014-.147 1.35-.441.336-.294.564-.645.684-1.053l2.106.702c-.216.816-.684 1.518-1.404 2.106-.72.588-1.632.882-2.736.882-1.32 0-2.427-.447-3.321-1.341-.894-.894-1.341-2.013-1.341-3.357 0-1.356.441-2.478 1.323-3.366.882-.888 1.971-1.332 3.267-1.332 1.128 0 2.052.291 2.772.873.72.582 1.182 1.287 1.386 2.115l-2.142.72c-.288-.996-.942-1.494-1.962-1.494zm7.578 1.476h3.96a1.839 1.839 0 0 0-.531-1.242c-.33-.336-.813-.504-1.449-.504-.576 0-1.044.18-1.404.54-.36.36-.552.762-.576 1.206zm4.194 2.304l1.998.594a3.818 3.818 0 0 1-1.413 2.016c-.702.528-1.575.792-2.619.792-1.272 0-2.352-.429-3.24-1.287-.888-.858-1.332-2.007-1.332-3.447 0-1.368.432-2.487 1.296-3.357.864-.87 1.884-1.305 3.06-1.305 1.368 0 2.439.408 3.213 1.224.774.816 1.161 1.938 1.161 3.366 0 .096-.003.204-.009.324-.006.12-.009.216-.009.288l-.018.126h-6.336c.024.576.252 1.056.684 1.44.432.384.948.576 1.548.576 1.02 0 1.692-.45 2.016-1.35z"/>
    </g>
</svg>
