<svg xmlns="http://www.w3.org/2000/svg" xmlns:xlink="http://www.w3.org/1999/xlink" width="290" height="290" viewBox="0 0 290 290">
    <defs>
        <circle id="b" cx="125" cy="125" r="125"/>
        <filter id="a" width="128.4%" height="128.4%" x="-14.2%" y="-10.2%" filterUnits="objectBoundingBox">
            <feMorphology in="SourceAlpha" operator="dilate" radius=".5" result="shadowSpreadOuter1"/>
            <feOffset dy="10" in="shadowSpreadOuter1" result="shadowOffsetOuter1"/>
            <feGaussianBlur in="shadowOffsetOuter1" result="shadowBlurOuter1" stdDeviation="10"/>
            <feComposite in="shadowBlurOuter1" in2="SourceAlpha" operator="out" result="shadowBlurOuter1"/>
            <feColorMatrix in="shadowBlurOuter1" values="0 0 0 0 0 0 0 0 0 0 0 0 0 0 0 0 0 0 0.245131341 0"/>
        </filter>
    </defs>
    <g fill="none" fill-rule="evenodd">
        <g fill="#000" transform="translate(20 10)">
            <use filter="url(#a)" xlink:href="#b"/>
            <use stroke="#979797" xlink:href="#b"/>
        </g>
        <path fill="#FFF" d="M84.648 144.36c-2.448 0-4.512-.816-6.192-2.448-1.68-1.632-2.52-3.768-2.52-6.408 0-2.624.852-4.76 2.556-6.408 1.704-1.648 3.74-2.472 6.108-2.472 2.176 0 3.924.552 5.244 1.656 1.32 1.104 2.172 2.432 2.556 3.984l-3.12.984a4.644 4.644 0 0 0-1.512-2.436c-.768-.664-1.824-.996-3.168-.996-1.392 0-2.612.496-3.66 1.488s-1.572 2.392-1.572 4.2c0 1.728.516 3.096 1.548 4.104s2.276 1.512 3.732 1.512c1.328 0 2.388-.344 3.18-1.032.792-.688 1.324-1.504 1.596-2.448l3.096.936a7.59 7.59 0 0 1-.852 2.016 8.357 8.357 0 0 1-1.524 1.848c-.624.576-1.412 1.04-2.364 1.392-.952.352-1.996.528-3.132.528zm15.288-2.904c.832 0 1.54-.296 2.124-.888.584-.592.876-1.416.876-2.472s-.292-1.88-.876-2.472a2.873 2.873 0 0 0-2.124-.888c-.832 0-1.54.296-2.124.888-.584.592-.876 1.416-.876 2.472s.292 1.88.876 2.472a2.873 2.873 0 0 0 2.124.888zm0-9.624c1.776 0 3.252.592 4.428 1.776 1.176 1.184 1.764 2.68 1.764 4.488 0 1.808-.588 3.304-1.764 4.488-1.176 1.184-2.652 1.776-4.428 1.776-1.776 0-3.252-.592-4.428-1.776-1.176-1.184-1.764-2.68-1.764-4.488 0-1.808.588-3.304 1.764-4.488 1.176-1.184 2.652-1.776 4.428-1.776zM111.84 144h-3.192v-11.808h3.048v1.44c.304-.544.784-.976 1.44-1.296a4.55 4.55 0 0 1 2.016-.48c1.712 0 2.88.656 3.504 1.968.848-1.312 2.096-1.968 3.744-1.968 1.2 0 2.212.376 3.036 1.128.824.752 1.236 1.872 1.236 3.36V144h-3.096v-7.008c0-.672-.172-1.212-.516-1.62-.344-.408-.868-.612-1.572-.612-.656 0-1.184.224-1.584.672-.4.448-.6 1-.6 1.656V144h-3.168v-7.008c0-.672-.176-1.212-.528-1.62-.352-.408-.872-.612-1.56-.612-.672 0-1.208.22-1.608.66-.4.44-.6.996-.6 1.668V144zm21.264 4.56h-3.192v-16.368h3.096v1.44c.288-.48.752-.884 1.392-1.212.64-.328 1.384-.492 2.232-.492 1.68 0 3.008.572 3.984 1.716.976 1.144 1.464 2.62 1.464 4.428 0 1.808-.516 3.296-1.548 4.464-1.032 1.168-2.372 1.752-4.02 1.752-1.568 0-2.704-.48-3.408-1.44v5.712zm5.832-10.464c0-1.024-.276-1.832-.828-2.424-.552-.592-1.252-.888-2.1-.888-.848 0-1.552.3-2.112.9-.56.6-.84 1.404-.84 2.412s.28 1.816.84 2.424c.56.608 1.264.912 2.112.912.848 0 1.548-.3 2.1-.9.552-.6.828-1.412.828-2.436zm7.992-1.344h5.28c-.032-.656-.268-1.208-.708-1.656-.44-.448-1.084-.672-1.932-.672-.768 0-1.392.24-1.872.72-.48.48-.736 1.016-.768 1.608zm5.592 3.072l2.664.792c-.32 1.088-.948 1.984-1.884 2.688-.936.704-2.1 1.056-3.492 1.056-1.696 0-3.136-.572-4.32-1.716-1.184-1.144-1.776-2.676-1.776-4.596 0-1.824.576-3.316 1.728-4.476 1.152-1.16 2.512-1.74 4.08-1.74 1.824 0 3.252.544 4.284 1.632 1.032 1.088 1.548 2.584 1.548 4.488 0 .128-.004.272-.012.432-.008.16-.012.288-.012.384l-.024.168h-8.448c.032.768.336 1.408.912 1.92.576.512 1.264.768 2.064.768 1.36 0 2.256-.6 2.688-1.8zm9.288-11.16v3.528h2.376v2.832h-2.376v4.944c0 .496.112.848.336 1.056.224.208.576.312 1.056.312.432 0 .76-.032.984-.096v2.64c-.464.192-1.064.288-1.8.288-1.152 0-2.064-.324-2.736-.972-.672-.648-1.008-1.54-1.008-2.676v-5.496h-2.136v-2.832h.6c.592 0 1.044-.172 1.356-.516.312-.344.468-.796.468-1.356v-1.656h2.88zm8.28 15.336h-3.192v-11.808h3.192V144zm-3.576-15.672c0-.544.192-1.012.576-1.404a1.877 1.877 0 0 1 1.392-.588c.544 0 1.008.192 1.392.576.384.384.576.856.576 1.416 0 .528-.192.984-.576 1.368a1.896 1.896 0 0 1-1.392.576 1.896 1.896 0 0 1-1.392-.576 1.869 1.869 0 0 1-.576-1.368zm10.92.336v3.528h2.376v2.832h-2.376v4.944c0 .496.112.848.336 1.056.224.208.576.312 1.056.312.432 0 .76-.032.984-.096v2.64c-.464.192-1.064.288-1.8.288-1.152 0-2.064-.324-2.736-.972-.672-.648-1.008-1.54-1.008-2.676v-5.496h-2.136v-2.832h.6c.592 0 1.044-.172 1.356-.516.312-.344.468-.796.468-1.356v-1.656h2.88zm10.272 12.792c.832 0 1.54-.296 2.124-.888.584-.592.876-1.416.876-2.472s-.292-1.88-.876-2.472a2.873 2.873 0 0 0-2.124-.888c-.832 0-1.54.296-2.124.888-.584.592-.876 1.416-.876 2.472s.292 1.88.876 2.472a2.873 2.873 0 0 0 2.124.888zm0-9.624c1.776 0 3.252.592 4.428 1.776 1.176 1.184 1.764 2.68 1.764 4.488 0 1.808-.588 3.304-1.764 4.488-1.176 1.184-2.652 1.776-4.428 1.776-1.776 0-3.252-.592-4.428-1.776-1.176-1.184-1.764-2.68-1.764-4.488 0-1.808.588-3.304 1.764-4.488 1.176-1.184 2.652-1.776 4.428-1.776zm15.912.312v3.216a4.884 4.884 0 0 0-.96-.096c-.912 0-1.648.26-2.208.78-.56.52-.84 1.372-.84 2.556v5.4h-3.192v-11.808h3.096v1.752c.576-1.232 1.696-1.848 3.36-1.848.176 0 .424.016.744.048zm1.32 8.568l2.736-.6c.032.512.236.94.612 1.284.376.344.892.516 1.548.516.496 0 .88-.112 1.152-.336.272-.224.408-.504.408-.84 0-.592-.424-.976-1.272-1.152l-1.56-.36c-1.104-.24-1.932-.672-2.484-1.296s-.828-1.368-.828-2.232c0-1.072.42-1.984 1.26-2.736.84-.752 1.892-1.128 3.156-1.128.8 0 1.504.116 2.112.348.608.232 1.08.528 1.416.888a4.4 4.4 0 0 1 .768 1.092c.176.368.288.728.336 1.08l-2.664.6a1.986 1.986 0 0 0-.564-1.104c-.312-.32-.772-.48-1.38-.48-.416 0-.772.112-1.068.336-.296.224-.444.504-.444.84 0 .576.36.928 1.08 1.056l1.68.36c1.136.24 2.004.68 2.604 1.32.6.64.9 1.408.9 2.304 0 1.056-.4 1.968-1.2 2.736-.8.768-1.928 1.152-3.384 1.152-.832 0-1.576-.124-2.232-.372-.656-.248-1.164-.568-1.524-.96a4.737 4.737 0 0 1-.816-1.176 3.865 3.865 0 0 1-.348-1.14z"/>
    </g>
</svg>
