<svg xmlns="http://www.w3.org/2000/svg" xmlns:xlink="http://www.w3.org/1999/xlink" width="221" height="224" viewBox="0 0 221 224">
    <defs>
        <ellipse id="b" cx="90.5" cy="92" rx="90.5" ry="92"/>
        <filter id="a" width="138.7%" height="138%" x="-19.3%" y="-13.6%" filterUnits="objectBoundingBox">
            <feOffset dy="10" in="SourceAlpha" result="shadowOffsetOuter1"/>
            <feGaussianBlur in="shadowOffsetOuter1" result="shadowBlurOuter1" stdDeviation="10"/>
            <feColorMatrix in="shadowBlurOuter1" values="0 0 0 0 0 0 0 0 0 0 0 0 0 0 0 0 0 0 0.245131341 0"/>
        </filter>
    </defs>
    <g fill="none" fill-rule="evenodd">
        <g fill="#000" transform="translate(20 10)">
            <use filter="url(#a)" xlink:href="#b"/>
            <use xlink:href="#b"/>
        </g>
        <path fill="#FFF" d="M68.228 98.288c-1.416 0-2.586-.423-3.51-1.269-.924-.846-1.386-2.025-1.386-3.537v-8.244h2.484v8.064c0 .828.213 1.461.639 1.899.426.438 1.017.657 1.773.657.768 0 1.365-.219 1.791-.657.426-.438.639-1.071.639-1.899v-8.064h2.484v8.244c0 1.512-.462 2.691-1.386 3.537-.924.846-2.1 1.269-3.528 1.269zm6.714-2.754l2.052-.45c.024.384.177.705.459.963.282.258.669.387 1.161.387.372 0 .66-.084.864-.252a.784.784 0 0 0 .306-.63c0-.444-.318-.732-.954-.864l-1.17-.27c-.828-.18-1.449-.504-1.863-.972a2.442 2.442 0 0 1-.621-1.674c0-.804.315-1.488.945-2.052.63-.564 1.419-.846 2.367-.846.6 0 1.128.087 1.584.261.456.174.81.396 1.062.666a3.3 3.3 0 0 1 .576.819c.132.276.216.546.252.81l-1.998.45a1.49 1.49 0 0 0-.423-.828c-.234-.24-.579-.36-1.035-.36-.312 0-.579.084-.801.252-.222.168-.333.378-.333.63 0 .432.27.696.81.792l1.26.27c.852.18 1.503.51 1.953.99.45.48.675 1.056.675 1.728 0 .792-.3 1.476-.9 2.052-.6.576-1.446.864-2.538.864-.624 0-1.182-.093-1.674-.279-.492-.186-.873-.426-1.143-.72a3.553 3.553 0 0 1-.612-.882 2.899 2.899 0 0 1-.261-.855zm10.764-2.97h3.96a1.839 1.839 0 0 0-.531-1.242c-.33-.336-.813-.504-1.449-.504-.576 0-1.044.18-1.404.54-.36.36-.552.762-.576 1.206zm4.194 2.304l1.998.594a3.818 3.818 0 0 1-1.413 2.016c-.702.528-1.575.792-2.619.792-1.272 0-2.352-.429-3.24-1.287-.888-.858-1.332-2.007-1.332-3.447 0-1.368.432-2.487 1.296-3.357.864-.87 1.884-1.305 3.06-1.305 1.368 0 2.439.408 3.213 1.224.774.816 1.161 1.938 1.161 3.366 0 .096-.003.204-.009.324-.006.12-.009.216-.009.288l-.018.126h-6.336c.024.576.252 1.056.684 1.44.432.384.948.576 1.548.576 1.02 0 1.692-.45 2.016-1.35zm9.414-5.76v2.412a3.663 3.663 0 0 0-.72-.072c-.684 0-1.236.195-1.656.585-.42.39-.63 1.029-.63 1.917V98h-2.394v-8.856h2.322v1.314c.432-.924 1.272-1.386 2.52-1.386.132 0 .318.012.558.036zM71.45 121h-7.992v-12.762h7.992v2.34h-5.508v2.916h4.986v2.214h-4.986v2.952h5.508V121zm1.242 0l3.15-4.446-3.15-4.41h2.844c.108.156.405.591.891 1.305s.777 1.155.873 1.323l1.746-2.628h2.718l-3.096 4.338L81.872 121h-2.808l-1.854-2.718c-.06.096-.231.354-.513.774A2946.435 2946.435 0 0 1 75.392 121h-2.7zm13.032 3.42H83.33v-12.276h2.322v1.08c.216-.36.564-.663 1.044-.909.48-.246 1.038-.369 1.674-.369 1.26 0 2.256.429 2.988 1.287.732.858 1.098 1.965 1.098 3.321s-.387 2.472-1.161 3.348c-.774.876-1.779 1.314-3.015 1.314-1.176 0-2.028-.36-2.556-1.08v4.284zm4.374-7.848c0-.768-.207-1.374-.621-1.818-.414-.444-.939-.666-1.575-.666s-1.164.225-1.584.675c-.42.45-.63 1.053-.63 1.809s.21 1.362.63 1.818c.42.456.948.684 1.584.684.636 0 1.161-.225 1.575-.675.414-.45.621-1.059.621-1.827zm5.994-1.008h3.96a1.839 1.839 0 0 0-.531-1.242c-.33-.336-.813-.504-1.449-.504-.576 0-1.044.18-1.404.54-.36.36-.552.762-.576 1.206zm4.194 2.304l1.998.594a3.818 3.818 0 0 1-1.413 2.016c-.702.528-1.575.792-2.619.792-1.272 0-2.352-.429-3.24-1.287-.888-.858-1.332-2.007-1.332-3.447 0-1.368.432-2.487 1.296-3.357.864-.87 1.884-1.305 3.06-1.305 1.368 0 2.439.408 3.213 1.224.774.816 1.161 1.938 1.161 3.366 0 .096-.003.204-.009.324-.006.12-.009.216-.009.288l-.018.126h-6.336c.024.576.252 1.056.684 1.44.432.384.948.576 1.548.576 1.02 0 1.692-.45 2.016-1.35zm9.414-5.76v2.412a3.663 3.663 0 0 0-.72-.072c-.684 0-1.236.195-1.656.585-.42.39-.63 1.029-.63 1.917V121H104.3v-8.856h2.322v1.314c.432-.924 1.272-1.386 2.52-1.386.132 0 .318.012.558.036zm4.086 8.892h-2.394v-8.856h2.394V121zm-2.682-11.754c0-.408.144-.759.432-1.053a1.408 1.408 0 0 1 1.044-.441c.408 0 .756.144 1.044.432.288.288.432.642.432 1.062 0 .396-.144.738-.432 1.026a1.422 1.422 0 0 1-1.044.432c-.408 0-.756-.144-1.044-.432a1.402 1.402 0 0 1-.432-1.026zm6.984 6.318h3.96a1.839 1.839 0 0 0-.531-1.242c-.33-.336-.813-.504-1.449-.504-.576 0-1.044.18-1.404.54-.36.36-.552.762-.576 1.206zm4.194 2.304l1.998.594a3.818 3.818 0 0 1-1.413 2.016c-.702.528-1.575.792-2.619.792-1.272 0-2.352-.429-3.24-1.287-.888-.858-1.332-2.007-1.332-3.447 0-1.368.432-2.487 1.296-3.357.864-.87 1.884-1.305 3.06-1.305 1.368 0 2.439.408 3.213 1.224.774.816 1.161 1.938 1.161 3.366 0 .096-.003.204-.009.324-.006.12-.009.216-.009.288l-.018.126h-6.336c.024.576.252 1.056.684 1.44.432.384.948.576 1.548.576 1.02 0 1.692-.45 2.016-1.35zm6.408-1.962V121h-2.394v-8.856h2.322v1.098a2.47 2.47 0 0 1 1.08-.99c.468-.228.96-.342 1.476-.342 1.044 0 1.839.327 2.385.981.546.654.819 1.497.819 2.529V121h-2.394v-5.166c0-.528-.135-.954-.405-1.278-.27-.324-.681-.486-1.233-.486-.504 0-.906.174-1.206.522-.3.348-.45.786-.45 1.314zm12.096-1.818c-.636 0-1.17.222-1.602.666-.432.444-.648 1.05-.648 1.818s.219 1.377.657 1.827c.438.45.975.675 1.611.675.564 0 1.014-.147 1.35-.441.336-.294.564-.645.684-1.053l2.106.702c-.216.816-.684 1.518-1.404 2.106-.72.588-1.632.882-2.736.882-1.32 0-2.427-.447-3.321-1.341-.894-.894-1.341-2.013-1.341-3.357 0-1.356.441-2.478 1.323-3.366.882-.888 1.971-1.332 3.267-1.332 1.128 0 2.052.291 2.772.873.72.582 1.182 1.287 1.386 2.115l-2.142.72c-.288-.996-.942-1.494-1.962-1.494zm7.578 1.476h3.96a1.839 1.839 0 0 0-.531-1.242c-.33-.336-.813-.504-1.449-.504-.576 0-1.044.18-1.404.54-.36.36-.552.762-.576 1.206zm4.194 2.304l1.998.594a3.818 3.818 0 0 1-1.413 2.016c-.702.528-1.575.792-2.619.792-1.272 0-2.352-.429-3.24-1.287-.888-.858-1.332-2.007-1.332-3.447 0-1.368.432-2.487 1.296-3.357.864-.87 1.884-1.305 3.06-1.305 1.368 0 2.439.408 3.213 1.224.774.816 1.161 1.938 1.161 3.366 0 .096-.003.204-.009.324-.006.12-.009.216-.009.288l-.018.126h-6.336c.024.576.252 1.056.684 1.44.432.384.948.576 1.548.576 1.02 0 1.692-.45 2.016-1.35z"/>
    </g>
</svg>
