<svg xmlns="http://www.w3.org/2000/svg" xmlns:xlink="http://www.w3.org/1999/xlink" width="206" height="206" viewBox="0 0 206 206">
    <defs>
        <circle id="b" cx="83" cy="83" r="83"/>
        <filter id="a" width="142.2%" height="142.2%" x="-21.1%" y="-15.1%" filterUnits="objectBoundingBox">
            <feOffset dy="10" in="SourceAlpha" result="shadowOffsetOuter1"/>
            <feGaussianBlur in="shadowOffsetOuter1" result="shadowBlurOuter1" stdDeviation="10"/>
            <feColorMatrix in="shadowBlurOuter1" values="0 0 0 0 0 0 0 0 0 0 0 0 0 0 0 0 0 0 0.245131341 0"/>
        </filter>
    </defs>
    <g fill="none" fill-rule="evenodd">
        <g fill="#000" transform="translate(20 10)">
            <use filter="url(#a)" xlink:href="#b"/>
            <use xlink:href="#b"/>
        </g>
        <path fill="#FFF" d="M58.228 88.724l3.33-9.486h2.628L59.452 92h-2.556L52.18 79.238h2.718l3.33 9.486zm5.778.864c0-.756.246-1.362.738-1.818.492-.456 1.128-.744 1.908-.864l2.178-.324c.444-.06.666-.27.666-.63 0-.336-.129-.612-.387-.828-.258-.216-.627-.324-1.107-.324-.504 0-.903.138-1.197.414a1.547 1.547 0 0 0-.495 1.026l-2.124-.45c.084-.768.462-1.446 1.134-2.034.672-.588 1.56-.882 2.664-.882 1.32 0 2.292.315 2.916.945.624.63.936 1.437.936 2.421v4.356c0 .528.036.996.108 1.404h-2.196c-.06-.264-.09-.618-.09-1.062-.564.876-1.434 1.314-2.61 1.314-.912 0-1.647-.264-2.205-.792s-.837-1.152-.837-1.872zm3.546.882c.564 0 1.029-.159 1.395-.477.366-.318.549-.843.549-1.575v-.396l-1.998.306c-.732.108-1.098.48-1.098 1.116 0 .288.102.531.306.729.204.198.486.297.846.297zm9.09 1.53h-2.394V78.968h2.394V92zm8.316 0a5.058 5.058 0 0 1-.072-.954 2.119 2.119 0 0 1-1.017.891c-.45.198-.927.297-1.431.297-1.044 0-1.866-.333-2.466-.999-.6-.666-.9-1.497-.9-2.493v-5.598h2.394v5.112c0 .528.138.957.414 1.287.276.33.678.495 1.206.495.516 0 .924-.159 1.224-.477.3-.318.45-.741.45-1.269v-5.148h2.394v7.254c0 .564.03 1.098.09 1.602h-2.286zm6.462-5.436h3.96a1.839 1.839 0 0 0-.531-1.242c-.33-.336-.813-.504-1.449-.504-.576 0-1.044.18-1.404.54-.36.36-.552.762-.576 1.206zm4.194 2.304l1.998.594a3.818 3.818 0 0 1-1.413 2.016c-.702.528-1.575.792-2.619.792-1.272 0-2.352-.429-3.24-1.287-.888-.858-1.332-2.007-1.332-3.447 0-1.368.432-2.487 1.296-3.357.864-.87 1.884-1.305 3.06-1.305 1.368 0 2.439.408 3.213 1.224.774.816 1.161 1.938 1.161 3.366 0 .096-.003.204-.009.324-.006.12-.009.216-.009.288l-.018.126h-6.336c.024.576.252 1.056.684 1.44.432.384.948.576 1.548.576 1.02 0 1.692-.45 2.016-1.35zM55.96 108.052h1.962c.612 0 1.098-.165 1.458-.495.36-.33.54-.771.54-1.323 0-.564-.177-1.011-.531-1.341-.354-.33-.843-.495-1.467-.495H55.96v3.654zm2.268 2.142h-2.286V115h-2.484v-12.762h4.77c1.248 0 2.259.372 3.033 1.116.774.744 1.161 1.698 1.161 2.862 0 1.164-.387 2.118-1.161 2.862-.774.744-1.785 1.116-3.033 1.116zm11.142-4.086v2.412a3.663 3.663 0 0 0-.72-.072c-.684 0-1.236.195-1.656.585-.42.39-.63 1.029-.63 1.917V115H63.97v-8.856h2.322v1.314c.432-.924 1.272-1.386 2.52-1.386.132 0 .318.012.558.036zm5.58 6.984c.624 0 1.155-.222 1.593-.666.438-.444.657-1.062.657-1.854s-.219-1.41-.657-1.854a2.155 2.155 0 0 0-1.593-.666c-.624 0-1.155.222-1.593.666-.438.444-.657 1.062-.657 1.854s.219 1.41.657 1.854c.438.444.969.666 1.593.666zm0-7.218c1.332 0 2.439.444 3.321 1.332.882.888 1.323 2.01 1.323 3.366 0 1.356-.441 2.478-1.323 3.366-.882.888-1.989 1.332-3.321 1.332s-2.439-.444-3.321-1.332c-.882-.888-1.323-2.01-1.323-3.366 0-1.356.441-2.478 1.323-3.366.882-.888 1.989-1.332 3.321-1.332zm8.928 12.546h-2.394v-12.276h2.322v1.08c.216-.36.564-.663 1.044-.909.48-.246 1.038-.369 1.674-.369 1.26 0 2.256.429 2.988 1.287.732.858 1.098 1.965 1.098 3.321s-.387 2.472-1.161 3.348c-.774.876-1.779 1.314-3.015 1.314-1.176 0-2.028-.36-2.556-1.08v4.284zm4.374-7.848c0-.768-.207-1.374-.621-1.818-.414-.444-.939-.666-1.575-.666s-1.164.225-1.584.675c-.42.45-.63 1.053-.63 1.809s.21 1.362.63 1.818c.42.456.948.684 1.584.684.636 0 1.161-.225 1.575-.675.414-.45.621-1.059.621-1.827zm8.226 2.52c.624 0 1.155-.222 1.593-.666.438-.444.657-1.062.657-1.854s-.219-1.41-.657-1.854a2.155 2.155 0 0 0-1.593-.666c-.624 0-1.155.222-1.593.666-.438.444-.657 1.062-.657 1.854s.219 1.41.657 1.854c.438.444.969.666 1.593.666zm0-7.218c1.332 0 2.439.444 3.321 1.332.882.888 1.323 2.01 1.323 3.366 0 1.356-.441 2.478-1.323 3.366-.882.888-1.989 1.332-3.321 1.332s-2.439-.444-3.321-1.332c-.882-.888-1.323-2.01-1.323-3.366 0-1.356.441-2.478 1.323-3.366.882-.888 1.989-1.332 3.321-1.332zm5.778 6.66l2.052-.45c.024.384.177.705.459.963.282.258.669.387 1.161.387.372 0 .66-.084.864-.252a.784.784 0 0 0 .306-.63c0-.444-.318-.732-.954-.864l-1.17-.27c-.828-.18-1.449-.504-1.863-.972a2.442 2.442 0 0 1-.621-1.674c0-.804.315-1.488.945-2.052.63-.564 1.419-.846 2.367-.846.6 0 1.128.087 1.584.261.456.174.81.396 1.062.666a3.3 3.3 0 0 1 .576.819c.132.276.216.546.252.81l-1.998.45a1.49 1.49 0 0 0-.423-.828c-.234-.24-.579-.36-1.035-.36-.312 0-.579.084-.801.252-.222.168-.333.378-.333.63 0 .432.27.696.81.792l1.26.27c.852.18 1.503.51 1.953.99.45.48.675 1.056.675 1.728 0 .792-.3 1.476-.9 2.052-.6.576-1.446.864-2.538.864-.624 0-1.182-.093-1.674-.279-.492-.186-.873-.426-1.143-.72a3.553 3.553 0 0 1-.612-.882 2.899 2.899 0 0 1-.261-.855zM113.704 115h-2.394v-8.856h2.394V115zm-2.682-11.754c0-.408.144-.759.432-1.053a1.408 1.408 0 0 1 1.044-.441c.408 0 .756.144 1.044.432.288.288.432.642.432 1.062 0 .396-.144.738-.432 1.026a1.422 1.422 0 0 1-1.044.432c-.408 0-.756-.144-1.044-.432a1.402 1.402 0 0 1-.432-1.026zm8.19.252v2.646h1.782v2.124h-1.782v3.708c0 .372.084.636.252.792.168.156.432.234.792.234.324 0 .57-.024.738-.072v1.98c-.348.144-.798.216-1.35.216-.864 0-1.548-.243-2.052-.729s-.756-1.155-.756-2.007v-4.122h-1.602v-2.124h.45c.444 0 .783-.129 1.017-.387.234-.258.351-.597.351-1.017v-1.242h2.16zm6.21 11.502h-2.394v-8.856h2.394V115zm-2.682-11.754c0-.408.144-.759.432-1.053a1.408 1.408 0 0 1 1.044-.441c.408 0 .756.144 1.044.432.288.288.432.642.432 1.062 0 .396-.144.738-.432 1.026a1.422 1.422 0 0 1-1.044.432c-.408 0-.756-.144-1.044-.432a1.402 1.402 0 0 1-.432-1.026zm9.216 9.846c.624 0 1.155-.222 1.593-.666.438-.444.657-1.062.657-1.854s-.219-1.41-.657-1.854a2.155 2.155 0 0 0-1.593-.666c-.624 0-1.155.222-1.593.666-.438.444-.657 1.062-.657 1.854s.219 1.41.657 1.854c.438.444.969.666 1.593.666zm0-7.218c1.332 0 2.439.444 3.321 1.332.882.888 1.323 2.01 1.323 3.366 0 1.356-.441 2.478-1.323 3.366-.882.888-1.989 1.332-3.321 1.332s-2.439-.444-3.321-1.332c-.882-.888-1.323-2.01-1.323-3.366 0-1.356.441-2.478 1.323-3.366.882-.888 1.989-1.332 3.321-1.332zm8.928 4.032V115h-2.394v-8.856h2.322v1.098a2.47 2.47 0 0 1 1.08-.99c.468-.228.96-.342 1.476-.342 1.044 0 1.839.327 2.385.981.546.654.819 1.497.819 2.529V115h-2.394v-5.166c0-.528-.135-.954-.405-1.278-.27-.324-.681-.486-1.233-.486-.504 0-.906.174-1.206.522-.3.348-.45.786-.45 1.314zm7.362 2.628l2.052-.45c.024.384.177.705.459.963.282.258.669.387 1.161.387.372 0 .66-.084.864-.252a.784.784 0 0 0 .306-.63c0-.444-.318-.732-.954-.864l-1.17-.27c-.828-.18-1.449-.504-1.863-.972a2.442 2.442 0 0 1-.621-1.674c0-.804.315-1.488.945-2.052.63-.564 1.419-.846 2.367-.846.6 0 1.128.087 1.584.261.456.174.81.396 1.062.666a3.3 3.3 0 0 1 .576.819c.132.276.216.546.252.81l-1.998.45a1.49 1.49 0 0 0-.423-.828c-.234-.24-.579-.36-1.035-.36-.312 0-.579.084-.801.252-.222.168-.333.378-.333.63 0 .432.27.696.81.792l1.26.27c.852.18 1.503.51 1.953.99.45.48.675 1.056.675 1.728 0 .792-.3 1.476-.9 2.052-.6.576-1.446.864-2.538.864-.624 0-1.182-.093-1.674-.279-.492-.186-.873-.426-1.143-.72a3.553 3.553 0 0 1-.612-.882 2.899 2.899 0 0 1-.261-.855z"/>
    </g>
</svg>
