<svg xmlns="http://www.w3.org/2000/svg" xmlns:xlink="http://www.w3.org/1999/xlink" width="154" height="154" viewBox="0 0 154 154">
    <defs>
        <circle id="b" cx="77" cy="67" r="57"/>
        <filter id="a" width="161.4%" height="161.4%" x="-30.7%" y="-21.9%" filterUnits="objectBoundingBox">
            <feOffset dy="10" in="SourceAlpha" result="shadowOffsetOuter1"/>
            <feGaussianBlur in="shadowOffsetOuter1" result="shadowBlurOuter1" stdDeviation="10"/>
            <feColorMatrix in="shadowBlurOuter1" values="0 0 0 0 0 0 0 0 0 0 0 0 0 0 0 0 0 0 0.245131341 0"/>
        </filter>
    </defs>
    <g fill="none" fill-rule="evenodd">
        <g fill="#000">
            <use filter="url(#a)" xlink:href="#b"/>
            <use xlink:href="#b"/>
        </g>
        <path fill="#FFF" d="M52.812 57.44l-1.736.532c-.065-.355-.243-.677-.532-.966-.29-.29-.714-.434-1.274-.434-.457 0-.83.124-1.12.371-.29.247-.434.544-.434.889 0 .607.36.98 1.078 1.12l1.386.266c.877.168 1.559.518 2.044 1.05.485.532.728 1.157.728 1.876 0 .821-.324 1.538-.973 2.149s-1.519.917-2.611.917a4.85 4.85 0 0 1-1.694-.28c-.504-.187-.91-.436-1.218-.749a3.844 3.844 0 0 1-.721-.994 3.143 3.143 0 0 1-.315-1.085l1.792-.476c.047.532.254.975.623 1.33.369.355.884.532 1.547.532.504 0 .898-.112 1.183-.336.285-.224.427-.518.427-.882 0-.29-.105-.539-.315-.749-.21-.21-.506-.352-.889-.427l-1.386-.28c-.803-.168-1.437-.5-1.904-.994-.467-.495-.7-1.11-.7-1.848 0-.877.338-1.615 1.015-2.212.677-.597 1.491-.896 2.443-.896.57 0 1.078.08 1.526.238.448.159.807.371 1.078.637.27.266.48.539.63.819.15.28.257.574.322.882zM60.806 65H54.59v-9.926h6.216v1.82h-4.284v2.268H60.4v1.722h-3.878v2.296h4.284V65zm3.318-4.97c0 1.055.308 1.869.924 2.443a3.08 3.08 0 0 0 2.17.861c.84 0 1.568-.287 2.184-.861.616-.574.924-1.388.924-2.443 0-1.055-.308-1.869-.924-2.443a3.097 3.097 0 0 0-2.184-.861 3.08 3.08 0 0 0-2.17.861c-.616.574-.924 1.388-.924 2.443zm-2.002.014c0-1.55.5-2.8 1.498-3.752.999-.952 2.198-1.428 3.598-1.428 1.41 0 2.613.476 3.612 1.428.999.952 1.498 2.203 1.498 3.752 0 1.54-.5 2.786-1.498 3.738-.999.952-2.203 1.428-3.612 1.428-1.4 0-2.6-.476-3.598-1.428-.999-.952-1.498-2.198-1.498-3.738zm-9.31 15.396l-1.736.532c-.065-.355-.243-.677-.532-.966-.29-.29-.714-.434-1.274-.434-.457 0-.83.124-1.12.371-.29.247-.434.544-.434.889 0 .607.36.98 1.078 1.12l1.386.266c.877.168 1.559.518 2.044 1.05.485.532.728 1.157.728 1.876 0 .821-.324 1.538-.973 2.149s-1.519.917-2.611.917a4.85 4.85 0 0 1-1.694-.28c-.504-.187-.91-.436-1.218-.749a3.844 3.844 0 0 1-.721-.994 3.143 3.143 0 0 1-.315-1.085l1.792-.476c.047.532.254.975.623 1.33.369.355.884.532 1.547.532.504 0 .898-.112 1.183-.336.285-.224.427-.518.427-.882 0-.29-.105-.539-.315-.749-.21-.21-.506-.352-.889-.427l-1.386-.28c-.803-.168-1.437-.5-1.904-.994-.467-.495-.7-1.11-.7-1.848 0-.877.338-1.615 1.015-2.212.677-.597 1.491-.896 2.443-.896.57 0 1.078.08 1.526.238.448.159.807.371 1.078.637.27.266.48.539.63.819.15.28.257.574.322.882zm4.004-1.386v2.058h1.386v1.652h-1.386v2.884c0 .29.065.495.196.616.13.121.336.182.616.182.252 0 .443-.019.574-.056v1.54c-.27.112-.62.168-1.05.168-.672 0-1.204-.189-1.596-.567-.392-.378-.588-.898-.588-1.561v-3.206h-1.246v-1.652h.35c.345 0 .609-.1.791-.301.182-.2.273-.464.273-.791v-.966h1.68zm7.07 2.03v1.876a2.849 2.849 0 0 0-.56-.056c-.532 0-.961.152-1.288.455-.327.303-.49.8-.49 1.491V83h-1.862v-6.888h1.806v1.022c.336-.719.99-1.078 1.96-1.078.103 0 .247.01.434.028zm12.34 1.54c-.495 0-.91.173-1.246.518-.336.345-.504.817-.504 1.414s.17 1.071.511 1.421c.34.35.758.525 1.253.525.439 0 .789-.114 1.05-.343.261-.229.439-.502.532-.819l1.638.546c-.168.635-.532 1.18-1.092 1.638-.56.457-1.27.686-2.128.686-1.027 0-1.888-.348-2.583-1.043-.695-.695-1.043-1.566-1.043-2.611 0-1.055.343-1.927 1.029-2.618.686-.69 1.533-1.036 2.541-1.036.877 0 1.596.226 2.156.679.56.453.92 1.001 1.078 1.645l-1.666.56c-.224-.775-.733-1.162-1.526-1.162zM69.228 83a3.934 3.934 0 0 1-.056-.742 1.648 1.648 0 0 1-.791.693c-.35.154-.721.231-1.113.231-.812 0-1.451-.259-1.918-.777-.467-.518-.7-1.164-.7-1.939v-4.354h1.862v3.976c0 .41.107.744.322 1.001.215.257.527.385.938.385.401 0 .719-.124.952-.371.233-.247.35-.576.35-.987v-4.004h1.862v5.642c0 .439.023.854.07 1.246h-1.778zm13.992-8.946v2.058h1.386v1.652H83.22v2.884c0 .29.065.495.196.616.13.121.336.182.616.182.252 0 .443-.019.574-.056v1.54c-.27.112-.62.168-1.05.168-.672 0-1.204-.189-1.596-.567-.392-.378-.588-.898-.588-1.561v-3.206h-1.246v-1.652h.35c.345 0 .609-.1.791-.301.182-.2.273-.464.273-.791v-.966h1.68zM90.738 83a3.934 3.934 0 0 1-.056-.742 1.648 1.648 0 0 1-.791.693c-.35.154-.721.231-1.113.231-.812 0-1.451-.259-1.918-.777-.467-.518-.7-1.164-.7-1.939v-4.354h1.862v3.976c0 .41.107.744.322 1.001.215.257.527.385.938.385.401 0 .719-.124.952-.371.233-.247.35-.576.35-.987v-4.004h1.862v5.642c0 .439.023.854.07 1.246h-1.778zm7.896-6.916v1.876a2.849 2.849 0 0 0-.56-.056c-.532 0-.961.152-1.288.455-.327.303-.49.8-.49 1.491V83h-1.862v-6.888h1.806v1.022c.336-.719.99-1.078 1.96-1.078.103 0 .247.01.434.028zm2.604 2.688h3.08a1.43 1.43 0 0 0-.413-.966c-.257-.261-.632-.392-1.127-.392-.448 0-.812.14-1.092.42-.28.28-.43.593-.448.938zm3.262 1.792l1.554.462a2.97 2.97 0 0 1-1.099 1.568c-.546.41-1.225.616-2.037.616-.99 0-1.83-.334-2.52-1.001-.69-.667-1.036-1.561-1.036-2.681 0-1.064.336-1.934 1.008-2.611.672-.677 1.465-1.015 2.38-1.015 1.064 0 1.897.317 2.499.952.602.635.903 1.507.903 2.618 0 .075-.002.159-.007.252a4.71 4.71 0 0 0-.007.224l-.014.098h-4.928c.019.448.196.821.532 1.12.336.299.737.448 1.204.448.793 0 1.316-.35 1.568-1.05z"/>
    </g>
</svg>
