<svg xmlns="http://www.w3.org/2000/svg" xmlns:xlink="http://www.w3.org/1999/xlink" width="678" height="708" viewBox="0 0 678 708">
    <defs>
        <circle id="b" cx="125" cy="125" r="125"/>
        <filter id="a" width="128.4%" height="128.4%" x="-14.2%" y="-10.2%" filterUnits="objectBoundingBox">
            <feMorphology in="SourceAlpha" operator="dilate" radius=".5" result="shadowSpreadOuter1"/>
            <feOffset dy="10" in="shadowSpreadOuter1" result="shadowOffsetOuter1"/>
            <feGaussianBlur in="shadowOffsetOuter1" result="shadowBlurOuter1" stdDeviation="10"/>
            <feComposite in="shadowBlurOuter1" in2="SourceAlpha" operator="out" result="shadowBlurOuter1"/>
            <feColorMatrix in="shadowBlurOuter1" values="0 0 0 0 0 0 0 0 0 0 0 0 0 0 0 0 0 0 0.245131341 0"/>
        </filter>
        <circle id="d" cx="103" cy="93" r="83"/>
        <filter id="c" width="142.2%" height="142.2%" x="-21.1%" y="-15.1%" filterUnits="objectBoundingBox">
            <feOffset dy="10" in="SourceAlpha" result="shadowOffsetOuter1"/>
            <feGaussianBlur in="shadowOffsetOuter1" result="shadowBlurOuter1" stdDeviation="10"/>
            <feColorMatrix in="shadowBlurOuter1" values="0 0 0 0 0 0 0 0 0 0 0 0 0 0 0 0 0 0 0.245131341 0"/>
        </filter>
        <circle id="f" cx="76" cy="76" r="76"/>
        <filter id="e" width="146.1%" height="146.1%" x="-23%" y="-16.4%" filterUnits="objectBoundingBox">
            <feOffset dy="10" in="SourceAlpha" result="shadowOffsetOuter1"/>
            <feGaussianBlur in="shadowOffsetOuter1" result="shadowBlurOuter1" stdDeviation="10"/>
            <feColorMatrix in="shadowBlurOuter1" values="0 0 0 0 0 0 0 0 0 0 0 0 0 0 0 0 0 0 0.245131341 0"/>
        </filter>
        <circle id="h" cx="63" cy="63" r="63"/>
        <filter id="g" width="155.6%" height="155.6%" x="-27.8%" y="-19.8%" filterUnits="objectBoundingBox">
            <feOffset dy="10" in="SourceAlpha" result="shadowOffsetOuter1"/>
            <feGaussianBlur in="shadowOffsetOuter1" result="shadowBlurOuter1" stdDeviation="10"/>
            <feColorMatrix in="shadowBlurOuter1" values="0 0 0 0 0 0 0 0 0 0 0 0 0 0 0 0 0 0 0.245131341 0"/>
        </filter>
        <ellipse id="j" cx="90.5" cy="92" rx="90.5" ry="92"/>
        <filter id="i" width="138.7%" height="138%" x="-19.3%" y="-13.6%" filterUnits="objectBoundingBox">
            <feOffset dy="10" in="SourceAlpha" result="shadowOffsetOuter1"/>
            <feGaussianBlur in="shadowOffsetOuter1" result="shadowBlurOuter1" stdDeviation="10"/>
            <feColorMatrix in="shadowBlurOuter1" values="0 0 0 0 0 0 0 0 0 0 0 0 0 0 0 0 0 0 0.245131341 0"/>
        </filter>
        <ellipse id="l" cx="90.5" cy="92" rx="90.5" ry="92"/>
        <filter id="k" width="138.7%" height="138%" x="-19.3%" y="-13.6%" filterUnits="objectBoundingBox">
            <feOffset dy="10" in="SourceAlpha" result="shadowOffsetOuter1"/>
            <feGaussianBlur in="shadowOffsetOuter1" result="shadowBlurOuter1" stdDeviation="10"/>
            <feColorMatrix in="shadowBlurOuter1" values="0 0 0 0 0 0 0 0 0 0 0 0 0 0 0 0 0 0 0.245131341 0"/>
        </filter>
        <circle id="n" cx="67" cy="67" r="67"/>
        <filter id="m" width="152.2%" height="152.2%" x="-26.1%" y="-18.7%" filterUnits="objectBoundingBox">
            <feOffset dy="10" in="SourceAlpha" result="shadowOffsetOuter1"/>
            <feGaussianBlur in="shadowOffsetOuter1" result="shadowBlurOuter1" stdDeviation="10"/>
            <feColorMatrix in="shadowBlurOuter1" values="0 0 0 0 0 0 0 0 0 0 0 0 0 0 0 0 0 0 0.245131341 0"/>
        </filter>
        <circle id="p" cx="77" cy="67" r="57"/>
        <filter id="o" width="161.4%" height="161.4%" x="-30.7%" y="-21.9%" filterUnits="objectBoundingBox">
            <feOffset dy="10" in="SourceAlpha" result="shadowOffsetOuter1"/>
            <feGaussianBlur in="shadowOffsetOuter1" result="shadowBlurOuter1" stdDeviation="10"/>
            <feColorMatrix in="shadowBlurOuter1" values="0 0 0 0 0 0 0 0 0 0 0 0 0 0 0 0 0 0 0.245131341 0"/>
        </filter>
        <circle id="r" cx="78.5" cy="68.5" r="58.5"/>
        <filter id="q" width="159.8%" height="159.8%" x="-29.9%" y="-21.4%" filterUnits="objectBoundingBox">
            <feOffset dy="10" in="SourceAlpha" result="shadowOffsetOuter1"/>
            <feGaussianBlur in="shadowOffsetOuter1" result="shadowBlurOuter1" stdDeviation="10"/>
            <feColorMatrix in="shadowBlurOuter1" values="0 0 0 0 0 0 0 0 0 0 0 0 0 0 0 0 0 0 0.245131341 0"/>
        </filter>
    </defs>
    <g fill="none" fill-rule="evenodd">
        <g fill="#000" transform="translate(247 181)">
            <use filter="url(#a)" xlink:href="#b"/>
            <use stroke="#979797" xlink:href="#b"/>
        </g>
        <path fill="#FFF" d="M311.648 315.36c-2.448 0-4.512-.816-6.192-2.448-1.68-1.632-2.52-3.768-2.52-6.408 0-2.624.852-4.76 2.556-6.408 1.704-1.648 3.74-2.472 6.108-2.472 2.176 0 3.924.552 5.244 1.656 1.32 1.104 2.172 2.432 2.556 3.984l-3.12.984a4.644 4.644 0 0 0-1.512-2.436c-.768-.664-1.824-.996-3.168-.996-1.392 0-2.612.496-3.66 1.488s-1.572 2.392-1.572 4.2c0 1.728.516 3.096 1.548 4.104s2.276 1.512 3.732 1.512c1.328 0 2.388-.344 3.18-1.032.792-.688 1.324-1.504 1.596-2.448l3.096.936a7.59 7.59 0 0 1-.852 2.016 8.357 8.357 0 0 1-1.524 1.848c-.624.576-1.412 1.04-2.364 1.392-.952.352-1.996.528-3.132.528zm15.288-2.904c.832 0 1.54-.296 2.124-.888.584-.592.876-1.416.876-2.472s-.292-1.88-.876-2.472a2.873 2.873 0 0 0-2.124-.888c-.832 0-1.54.296-2.124.888-.584.592-.876 1.416-.876 2.472s.292 1.88.876 2.472a2.873 2.873 0 0 0 2.124.888zm0-9.624c1.776 0 3.252.592 4.428 1.776 1.176 1.184 1.764 2.68 1.764 4.488 0 1.808-.588 3.304-1.764 4.488-1.176 1.184-2.652 1.776-4.428 1.776-1.776 0-3.252-.592-4.428-1.776-1.176-1.184-1.764-2.68-1.764-4.488 0-1.808.588-3.304 1.764-4.488 1.176-1.184 2.652-1.776 4.428-1.776zM338.84 315h-3.192v-11.808h3.048v1.44c.304-.544.784-.976 1.44-1.296a4.55 4.55 0 0 1 2.016-.48c1.712 0 2.88.656 3.504 1.968.848-1.312 2.096-1.968 3.744-1.968 1.2 0 2.212.376 3.036 1.128.824.752 1.236 1.872 1.236 3.36V315h-3.096v-7.008c0-.672-.172-1.212-.516-1.62-.344-.408-.868-.612-1.572-.612-.656 0-1.184.224-1.584.672-.4.448-.6 1-.6 1.656V315h-3.168v-7.008c0-.672-.176-1.212-.528-1.62-.352-.408-.872-.612-1.56-.612-.672 0-1.208.22-1.608.66-.4.44-.6.996-.6 1.668V315zm21.264 4.56h-3.192v-16.368h3.096v1.44c.288-.48.752-.884 1.392-1.212.64-.328 1.384-.492 2.232-.492 1.68 0 3.008.572 3.984 1.716.976 1.144 1.464 2.62 1.464 4.428 0 1.808-.516 3.296-1.548 4.464-1.032 1.168-2.372 1.752-4.02 1.752-1.568 0-2.704-.48-3.408-1.44v5.712zm5.832-10.464c0-1.024-.276-1.832-.828-2.424-.552-.592-1.252-.888-2.1-.888-.848 0-1.552.3-2.112.9-.56.6-.84 1.404-.84 2.412s.28 1.816.84 2.424c.56.608 1.264.912 2.112.912.848 0 1.548-.3 2.1-.9.552-.6.828-1.412.828-2.436zm7.992-1.344h5.28c-.032-.656-.268-1.208-.708-1.656-.44-.448-1.084-.672-1.932-.672-.768 0-1.392.24-1.872.72-.48.48-.736 1.016-.768 1.608zm5.592 3.072l2.664.792c-.32 1.088-.948 1.984-1.884 2.688-.936.704-2.1 1.056-3.492 1.056-1.696 0-3.136-.572-4.32-1.716-1.184-1.144-1.776-2.676-1.776-4.596 0-1.824.576-3.316 1.728-4.476 1.152-1.16 2.512-1.74 4.08-1.74 1.824 0 3.252.544 4.284 1.632 1.032 1.088 1.548 2.584 1.548 4.488 0 .128-.004.272-.012.432-.008.16-.012.288-.012.384l-.024.168h-8.448c.032.768.336 1.408.912 1.92.576.512 1.264.768 2.064.768 1.36 0 2.256-.6 2.688-1.8zm9.288-11.16v3.528h2.376v2.832h-2.376v4.944c0 .496.112.848.336 1.056.224.208.576.312 1.056.312.432 0 .76-.032.984-.096v2.64c-.464.192-1.064.288-1.8.288-1.152 0-2.064-.324-2.736-.972-.672-.648-1.008-1.54-1.008-2.676v-5.496h-2.136v-2.832h.6c.592 0 1.044-.172 1.356-.516.312-.344.468-.796.468-1.356v-1.656h2.88zm8.28 15.336h-3.192v-11.808h3.192V315zm-3.576-15.672c0-.544.192-1.012.576-1.404a1.877 1.877 0 0 1 1.392-.588c.544 0 1.008.192 1.392.576.384.384.576.856.576 1.416 0 .528-.192.984-.576 1.368a1.896 1.896 0 0 1-1.392.576 1.896 1.896 0 0 1-1.392-.576 1.869 1.869 0 0 1-.576-1.368zm10.92.336v3.528h2.376v2.832h-2.376v4.944c0 .496.112.848.336 1.056.224.208.576.312 1.056.312.432 0 .76-.032.984-.096v2.64c-.464.192-1.064.288-1.8.288-1.152 0-2.064-.324-2.736-.972-.672-.648-1.008-1.54-1.008-2.676v-5.496h-2.136v-2.832h.6c.592 0 1.044-.172 1.356-.516.312-.344.468-.796.468-1.356v-1.656h2.88zm10.272 12.792c.832 0 1.54-.296 2.124-.888.584-.592.876-1.416.876-2.472s-.292-1.88-.876-2.472a2.873 2.873 0 0 0-2.124-.888c-.832 0-1.54.296-2.124.888-.584.592-.876 1.416-.876 2.472s.292 1.88.876 2.472a2.873 2.873 0 0 0 2.124.888zm0-9.624c1.776 0 3.252.592 4.428 1.776 1.176 1.184 1.764 2.68 1.764 4.488 0 1.808-.588 3.304-1.764 4.488-1.176 1.184-2.652 1.776-4.428 1.776-1.776 0-3.252-.592-4.428-1.776-1.176-1.184-1.764-2.68-1.764-4.488 0-1.808.588-3.304 1.764-4.488 1.176-1.184 2.652-1.776 4.428-1.776zm15.912.312v3.216a4.884 4.884 0 0 0-.96-.096c-.912 0-1.648.26-2.208.78-.56.52-.84 1.372-.84 2.556v5.4h-3.192v-11.808h3.096v1.752c.576-1.232 1.696-1.848 3.36-1.848.176 0 .424.016.744.048zm1.32 8.568l2.736-.6c.032.512.236.94.612 1.284.376.344.892.516 1.548.516.496 0 .88-.112 1.152-.336.272-.224.408-.504.408-.84 0-.592-.424-.976-1.272-1.152l-1.56-.36c-1.104-.24-1.932-.672-2.484-1.296s-.828-1.368-.828-2.232c0-1.072.42-1.984 1.26-2.736.84-.752 1.892-1.128 3.156-1.128.8 0 1.504.116 2.112.348.608.232 1.08.528 1.416.888a4.4 4.4 0 0 1 .768 1.092c.176.368.288.728.336 1.08l-2.664.6a1.986 1.986 0 0 0-.564-1.104c-.312-.32-.772-.48-1.38-.48-.416 0-.772.112-1.068.336-.296.224-.444.504-.444.84 0 .576.36.928 1.08 1.056l1.68.36c1.136.24 2.004.68 2.604 1.32.6.64.9 1.408.9 2.304 0 1.056-.4 1.968-1.2 2.736-.8.768-1.928 1.152-3.384 1.152-.832 0-1.576-.124-2.232-.372-.656-.248-1.164-.568-1.524-.96a4.737 4.737 0 0 1-.816-1.176 3.865 3.865 0 0 1-.348-1.14z"/>
        <g fill="#000" transform="translate(44 238)">
            <use filter="url(#c)" xlink:href="#d"/>
            <use xlink:href="#d"/>
        </g>
        <path fill="#FFF" d="M102.228 326.724l3.33-9.486h2.628L103.452 330h-2.556l-4.716-12.762h2.718l3.33 9.486zm5.778.864c0-.756.246-1.362.738-1.818.492-.456 1.128-.744 1.908-.864l2.178-.324c.444-.06.666-.27.666-.63 0-.336-.129-.612-.387-.828-.258-.216-.627-.324-1.107-.324-.504 0-.903.138-1.197.414a1.547 1.547 0 0 0-.495 1.026l-2.124-.45c.084-.768.462-1.446 1.134-2.034.672-.588 1.56-.882 2.664-.882 1.32 0 2.292.315 2.916.945.624.63.936 1.437.936 2.421v4.356c0 .528.036.996.108 1.404h-2.196c-.06-.264-.09-.618-.09-1.062-.564.876-1.434 1.314-2.61 1.314-.912 0-1.647-.264-2.205-.792s-.837-1.152-.837-1.872zm3.546.882c.564 0 1.029-.159 1.395-.477.366-.318.549-.843.549-1.575v-.396l-1.998.306c-.732.108-1.098.48-1.098 1.116 0 .288.102.531.306.729.204.198.486.297.846.297zm9.09 1.53h-2.394v-13.032h2.394V330zm8.316 0a5.058 5.058 0 0 1-.072-.954 2.119 2.119 0 0 1-1.017.891c-.45.198-.927.297-1.431.297-1.044 0-1.866-.333-2.466-.999-.6-.666-.9-1.497-.9-2.493v-5.598h2.394v5.112c0 .528.138.957.414 1.287.276.33.678.495 1.206.495.516 0 .924-.159 1.224-.477.3-.318.45-.741.45-1.269v-5.148h2.394v7.254c0 .564.03 1.098.09 1.602h-2.286zm6.462-5.436h3.96a1.839 1.839 0 0 0-.531-1.242c-.33-.336-.813-.504-1.449-.504-.576 0-1.044.18-1.404.54-.36.36-.552.762-.576 1.206zm4.194 2.304l1.998.594a3.818 3.818 0 0 1-1.413 2.016c-.702.528-1.575.792-2.619.792-1.272 0-2.352-.429-3.24-1.287-.888-.858-1.332-2.007-1.332-3.447 0-1.368.432-2.487 1.296-3.357.864-.87 1.884-1.305 3.06-1.305 1.368 0 2.439.408 3.213 1.224.774.816 1.161 1.938 1.161 3.366 0 .096-.003.204-.009.324-.006.12-.009.216-.009.288l-.018.126h-6.336c.024.576.252 1.056.684 1.44.432.384.948.576 1.548.576 1.02 0 1.692-.45 2.016-1.35zM99.96 346.052h1.962c.612 0 1.098-.165 1.458-.495.36-.33.54-.771.54-1.323 0-.564-.177-1.011-.531-1.341-.354-.33-.843-.495-1.467-.495H99.96v3.654zm2.268 2.142h-2.286V353h-2.484v-12.762h4.77c1.248 0 2.259.372 3.033 1.116.774.744 1.161 1.698 1.161 2.862 0 1.164-.387 2.118-1.161 2.862-.774.744-1.785 1.116-3.033 1.116zm11.142-4.086v2.412a3.663 3.663 0 0 0-.72-.072c-.684 0-1.236.195-1.656.585-.42.39-.63 1.029-.63 1.917V353h-2.394v-8.856h2.322v1.314c.432-.924 1.272-1.386 2.52-1.386.132 0 .318.012.558.036zm5.58 6.984c.624 0 1.155-.222 1.593-.666.438-.444.657-1.062.657-1.854s-.219-1.41-.657-1.854a2.155 2.155 0 0 0-1.593-.666c-.624 0-1.155.222-1.593.666-.438.444-.657 1.062-.657 1.854s.219 1.41.657 1.854c.438.444.969.666 1.593.666zm0-7.218c1.332 0 2.439.444 3.321 1.332.882.888 1.323 2.01 1.323 3.366 0 1.356-.441 2.478-1.323 3.366-.882.888-1.989 1.332-3.321 1.332s-2.439-.444-3.321-1.332c-.882-.888-1.323-2.01-1.323-3.366 0-1.356.441-2.478 1.323-3.366.882-.888 1.989-1.332 3.321-1.332zm8.928 12.546h-2.394v-12.276h2.322v1.08c.216-.36.564-.663 1.044-.909.48-.246 1.038-.369 1.674-.369 1.26 0 2.256.429 2.988 1.287.732.858 1.098 1.965 1.098 3.321s-.387 2.472-1.161 3.348c-.774.876-1.779 1.314-3.015 1.314-1.176 0-2.028-.36-2.556-1.08v4.284zm4.374-7.848c0-.768-.207-1.374-.621-1.818-.414-.444-.939-.666-1.575-.666s-1.164.225-1.584.675c-.42.45-.63 1.053-.63 1.809s.21 1.362.63 1.818c.42.456.948.684 1.584.684.636 0 1.161-.225 1.575-.675.414-.45.621-1.059.621-1.827zm8.226 2.52c.624 0 1.155-.222 1.593-.666.438-.444.657-1.062.657-1.854s-.219-1.41-.657-1.854a2.155 2.155 0 0 0-1.593-.666c-.624 0-1.155.222-1.593.666-.438.444-.657 1.062-.657 1.854s.219 1.41.657 1.854c.438.444.969.666 1.593.666zm0-7.218c1.332 0 2.439.444 3.321 1.332.882.888 1.323 2.01 1.323 3.366 0 1.356-.441 2.478-1.323 3.366-.882.888-1.989 1.332-3.321 1.332s-2.439-.444-3.321-1.332c-.882-.888-1.323-2.01-1.323-3.366 0-1.356.441-2.478 1.323-3.366.882-.888 1.989-1.332 3.321-1.332zm5.778 6.66l2.052-.45c.024.384.177.705.459.963.282.258.669.387 1.161.387.372 0 .66-.084.864-.252a.784.784 0 0 0 .306-.63c0-.444-.318-.732-.954-.864l-1.17-.27c-.828-.18-1.449-.504-1.863-.972a2.442 2.442 0 0 1-.621-1.674c0-.804.315-1.488.945-2.052.63-.564 1.419-.846 2.367-.846.6 0 1.128.087 1.584.261.456.174.81.396 1.062.666a3.3 3.3 0 0 1 .576.819c.132.276.216.546.252.81l-1.998.45a1.49 1.49 0 0 0-.423-.828c-.234-.24-.579-.36-1.035-.36-.312 0-.579.084-.801.252-.222.168-.333.378-.333.63 0 .432.27.696.81.792l1.26.27c.852.18 1.503.51 1.953.99.45.48.675 1.056.675 1.728 0 .792-.3 1.476-.9 2.052-.6.576-1.446.864-2.538.864-.624 0-1.182-.093-1.674-.279-.492-.186-.873-.426-1.143-.72a3.553 3.553 0 0 1-.612-.882 2.899 2.899 0 0 1-.261-.855zM157.704 353h-2.394v-8.856h2.394V353zm-2.682-11.754c0-.408.144-.759.432-1.053a1.408 1.408 0 0 1 1.044-.441c.408 0 .756.144 1.044.432.288.288.432.642.432 1.062 0 .396-.144.738-.432 1.026a1.422 1.422 0 0 1-1.044.432c-.408 0-.756-.144-1.044-.432a1.402 1.402 0 0 1-.432-1.026zm8.19.252v2.646h1.782v2.124h-1.782v3.708c0 .372.084.636.252.792.168.156.432.234.792.234.324 0 .57-.024.738-.072v1.98c-.348.144-.798.216-1.35.216-.864 0-1.548-.243-2.052-.729s-.756-1.155-.756-2.007v-4.122h-1.602v-2.124h.45c.444 0 .783-.129 1.017-.387.234-.258.351-.597.351-1.017v-1.242h2.16zm6.21 11.502h-2.394v-8.856h2.394V353zm-2.682-11.754c0-.408.144-.759.432-1.053a1.408 1.408 0 0 1 1.044-.441c.408 0 .756.144 1.044.432.288.288.432.642.432 1.062 0 .396-.144.738-.432 1.026a1.422 1.422 0 0 1-1.044.432c-.408 0-.756-.144-1.044-.432a1.402 1.402 0 0 1-.432-1.026zm9.216 9.846c.624 0 1.155-.222 1.593-.666.438-.444.657-1.062.657-1.854s-.219-1.41-.657-1.854a2.155 2.155 0 0 0-1.593-.666c-.624 0-1.155.222-1.593.666-.438.444-.657 1.062-.657 1.854s.219 1.41.657 1.854c.438.444.969.666 1.593.666zm0-7.218c1.332 0 2.439.444 3.321 1.332.882.888 1.323 2.01 1.323 3.366 0 1.356-.441 2.478-1.323 3.366-.882.888-1.989 1.332-3.321 1.332s-2.439-.444-3.321-1.332c-.882-.888-1.323-2.01-1.323-3.366 0-1.356.441-2.478 1.323-3.366.882-.888 1.989-1.332 3.321-1.332zm8.928 4.032V353h-2.394v-8.856h2.322v1.098a2.47 2.47 0 0 1 1.08-.99c.468-.228.96-.342 1.476-.342 1.044 0 1.839.327 2.385.981.546.654.819 1.497.819 2.529V353h-2.394v-5.166c0-.528-.135-.954-.405-1.278-.27-.324-.681-.486-1.233-.486-.504 0-.906.174-1.206.522-.3.348-.45.786-.45 1.314zm7.362 2.628l2.052-.45c.024.384.177.705.459.963.282.258.669.387 1.161.387.372 0 .66-.084.864-.252a.784.784 0 0 0 .306-.63c0-.444-.318-.732-.954-.864l-1.17-.27c-.828-.18-1.449-.504-1.863-.972a2.442 2.442 0 0 1-.621-1.674c0-.804.315-1.488.945-2.052.63-.564 1.419-.846 2.367-.846.6 0 1.128.087 1.584.261.456.174.81.396 1.062.666a3.3 3.3 0 0 1 .576.819c.132.276.216.546.252.81l-1.998.45a1.49 1.49 0 0 0-.423-.828c-.234-.24-.579-.36-1.035-.36-.312 0-.579.084-.801.252-.222.168-.333.378-.333.63 0 .432.27.696.81.792l1.26.27c.852.18 1.503.51 1.953.99.45.48.675 1.056.675 1.728 0 .792-.3 1.476-.9 2.052-.6.576-1.446.864-2.538.864-.624 0-1.182-.093-1.674-.279-.492-.186-.873-.426-1.143-.72a3.553 3.553 0 0 1-.612-.882 2.899 2.899 0 0 1-.261-.855z"/>
        <g fill="#000" transform="translate(506 157)">
            <use filter="url(#e)" xlink:href="#f"/>
            <use xlink:href="#f"/>
        </g>
        <path fill="#FFF" d="M542.96 222.052h1.962c.612 0 1.098-.165 1.458-.495.36-.33.54-.771.54-1.323 0-.564-.177-1.011-.531-1.341-.354-.33-.843-.495-1.467-.495h-1.962v3.654zm2.268 2.142h-2.286V229h-2.484v-12.762h4.77c1.248 0 2.259.372 3.033 1.116.774.744 1.161 1.698 1.161 2.862 0 1.164-.387 2.118-1.161 2.862-.774.744-1.785 1.116-3.033 1.116zm8.226 4.806h-2.394v-13.032h2.394V229zm1.962-2.412c0-.756.246-1.362.738-1.818.492-.456 1.128-.744 1.908-.864l2.178-.324c.444-.06.666-.27.666-.63 0-.336-.129-.612-.387-.828-.258-.216-.627-.324-1.107-.324-.504 0-.903.138-1.197.414a1.547 1.547 0 0 0-.495 1.026l-2.124-.45c.084-.768.462-1.446 1.134-2.034.672-.588 1.56-.882 2.664-.882 1.32 0 2.292.315 2.916.945.624.63.936 1.437.936 2.421v4.356c0 .528.036.996.108 1.404h-2.196c-.06-.264-.09-.618-.09-1.062-.564.876-1.434 1.314-2.61 1.314-.912 0-1.647-.264-2.205-.792s-.837-1.152-.837-1.872zm3.546.882c.564 0 1.029-.159 1.395-.477.366-.318.549-.843.549-1.575v-.396l-1.998.306c-.732.108-1.098.48-1.098 1.116 0 .288.102.531.306.729.204.198.486.297.846.297zm9.594-9.972v2.646h1.782v2.124h-1.782v3.708c0 .372.084.636.252.792.168.156.432.234.792.234.324 0 .57-.024.738-.072v1.98c-.348.144-.798.216-1.35.216-.864 0-1.548-.243-2.052-.729s-.756-1.155-.756-2.007v-4.122h-1.602v-2.124h.45c.444 0 .783-.129 1.017-.387.234-.258.351-.597.351-1.017v-1.242h2.16zm7.866.45c-.336 0-.627.093-.873.279-.246.186-.369.501-.369.945v.972h1.998v2.052h-1.998V229h-2.412v-6.804h-1.476v-2.052h1.476v-1.008c0-.996.291-1.794.873-2.394.582-.6 1.365-.9 2.349-.9.528 0 .924.06 1.188.18v2.016a2.717 2.717 0 0 0-.756-.09zm6.084 9.144c.624 0 1.155-.222 1.593-.666.438-.444.657-1.062.657-1.854s-.219-1.41-.657-1.854a2.155 2.155 0 0 0-1.593-.666c-.624 0-1.155.222-1.593.666-.438.444-.657 1.062-.657 1.854s.219 1.41.657 1.854c.438.444.969.666 1.593.666zm0-7.218c1.332 0 2.439.444 3.321 1.332.882.888 1.323 2.01 1.323 3.366 0 1.356-.441 2.478-1.323 3.366-.882.888-1.989 1.332-3.321 1.332s-2.439-.444-3.321-1.332c-.882-.888-1.323-2.01-1.323-3.366 0-1.356.441-2.478 1.323-3.366.882-.888 1.989-1.332 3.321-1.332zm11.934.234v2.412a3.663 3.663 0 0 0-.72-.072c-.684 0-1.236.195-1.656.585-.42.39-.63 1.029-.63 1.917V229h-2.394v-8.856h2.322v1.314c.432-.924 1.272-1.386 2.52-1.386.132 0 .318.012.558.036zm4.086 8.892h-2.394v-8.856h2.286v1.08c.228-.408.588-.732 1.08-.972.492-.24.996-.36 1.512-.36 1.284 0 2.16.492 2.628 1.476.636-.984 1.572-1.476 2.808-1.476.9 0 1.659.282 2.277.846.618.564.927 1.404.927 2.52V229h-2.322v-5.256c0-.504-.129-.909-.387-1.215-.258-.306-.651-.459-1.179-.459-.492 0-.888.168-1.188.504-.3.336-.45.75-.45 1.242V229h-2.376v-5.256c0-.504-.132-.909-.396-1.215-.264-.306-.654-.459-1.17-.459-.504 0-.906.165-1.206.495-.3.33-.45.747-.45 1.251V229zm-55.566 16.052h1.962c.612 0 1.098-.165 1.458-.495.36-.33.54-.771.54-1.323 0-.564-.177-1.011-.531-1.341-.354-.33-.843-.495-1.467-.495h-1.962v3.654zm2.268 2.142h-2.286V252h-2.484v-12.762h4.77c1.248 0 2.259.372 3.033 1.116.774.744 1.161 1.698 1.161 2.862 0 1.164-.387 2.118-1.161 2.862-.774.744-1.785 1.116-3.033 1.116zm11.142-4.086v2.412a3.663 3.663 0 0 0-.72-.072c-.684 0-1.236.195-1.656.585-.42.39-.63 1.029-.63 1.917V252h-2.394v-8.856h2.322v1.314c.432-.924 1.272-1.386 2.52-1.386.132 0 .318.012.558.036zm3.348 3.456h3.96a1.839 1.839 0 0 0-.531-1.242c-.33-.336-.813-.504-1.449-.504-.576 0-1.044.18-1.404.54-.36.36-.552.762-.576 1.206zm4.194 2.304l1.998.594a3.818 3.818 0 0 1-1.413 2.016c-.702.528-1.575.792-2.619.792-1.272 0-2.352-.429-3.24-1.287-.888-.858-1.332-2.007-1.332-3.447 0-1.368.432-2.487 1.296-3.357.864-.87 1.884-1.305 3.06-1.305 1.368 0 2.439.408 3.213 1.224.774.816 1.161 1.938 1.161 3.366 0 .096-.003.204-.009.324-.006.12-.009.216-.009.288l-.018.126h-6.336c.024.576.252 1.056.684 1.44.432.384.948.576 1.548.576 1.02 0 1.692-.45 2.016-1.35zm3.258.666l2.052-.45c.024.384.177.705.459.963.282.258.669.387 1.161.387.372 0 .66-.084.864-.252a.784.784 0 0 0 .306-.63c0-.444-.318-.732-.954-.864l-1.17-.27c-.828-.18-1.449-.504-1.863-.972a2.442 2.442 0 0 1-.621-1.674c0-.804.315-1.488.945-2.052.63-.564 1.419-.846 2.367-.846.6 0 1.128.087 1.584.261.456.174.81.396 1.062.666a3.3 3.3 0 0 1 .576.819c.132.276.216.546.252.81l-1.998.45a1.49 1.49 0 0 0-.423-.828c-.234-.24-.579-.36-1.035-.36-.312 0-.579.084-.801.252-.222.168-.333.378-.333.63 0 .432.27.696.81.792l1.26.27c.852.18 1.503.51 1.953.99.45.48.675 1.056.675 1.728 0 .792-.3 1.476-.9 2.052-.6.576-1.446.864-2.538.864-.624 0-1.182-.093-1.674-.279-.492-.186-.873-.426-1.143-.72a3.553 3.553 0 0 1-.612-.882 2.899 2.899 0 0 1-.261-.855zm10.764-2.97h3.96a1.839 1.839 0 0 0-.531-1.242c-.33-.336-.813-.504-1.449-.504-.576 0-1.044.18-1.404.54-.36.36-.552.762-.576 1.206zm4.194 2.304l1.998.594a3.818 3.818 0 0 1-1.413 2.016c-.702.528-1.575.792-2.619.792-1.272 0-2.352-.429-3.24-1.287-.888-.858-1.332-2.007-1.332-3.447 0-1.368.432-2.487 1.296-3.357.864-.87 1.884-1.305 3.06-1.305 1.368 0 2.439.408 3.213 1.224.774.816 1.161 1.938 1.161 3.366 0 .096-.003.204-.009.324-.006.12-.009.216-.009.288l-.018.126h-6.336c.024.576.252 1.056.684 1.44.432.384.948.576 1.548.576 1.02 0 1.692-.45 2.016-1.35zm6.408-1.962V252h-2.394v-8.856h2.322v1.098a2.47 2.47 0 0 1 1.08-.99c.468-.228.96-.342 1.476-.342 1.044 0 1.839.327 2.385.981.546.654.819 1.497.819 2.529V252h-2.394v-5.166c0-.528-.135-.954-.405-1.278-.27-.324-.681-.486-1.233-.486-.504 0-.906.174-1.206.522-.3.348-.45.786-.45 1.314zm12.096-1.818c-.636 0-1.17.222-1.602.666-.432.444-.648 1.05-.648 1.818s.219 1.377.657 1.827c.438.45.975.675 1.611.675.564 0 1.014-.147 1.35-.441.336-.294.564-.645.684-1.053l2.106.702c-.216.816-.684 1.518-1.404 2.106-.72.588-1.632.882-2.736.882-1.32 0-2.427-.447-3.321-1.341-.894-.894-1.341-2.013-1.341-3.357 0-1.356.441-2.478 1.323-3.366.882-.888 1.971-1.332 3.267-1.332 1.128 0 2.052.291 2.772.873.72.582 1.182 1.287 1.386 2.115l-2.142.72c-.288-.996-.942-1.494-1.962-1.494zm7.578 1.476h3.96a1.839 1.839 0 0 0-.531-1.242c-.33-.336-.813-.504-1.449-.504-.576 0-1.044.18-1.404.54-.36.36-.552.762-.576 1.206zm4.194 2.304l1.998.594a3.818 3.818 0 0 1-1.413 2.016c-.702.528-1.575.792-2.619.792-1.272 0-2.352-.429-3.24-1.287-.888-.858-1.332-2.007-1.332-3.447 0-1.368.432-2.487 1.296-3.357.864-.87 1.884-1.305 3.06-1.305 1.368 0 2.439.408 3.213 1.224.774.816 1.161 1.938 1.161 3.366 0 .096-.003.204-.009.324-.006.12-.009.216-.009.288l-.018.126h-6.336c.024.576.252 1.056.684 1.44.432.384.948.576 1.548.576 1.02 0 1.692-.45 2.016-1.35z"/>
        <g fill="#000" transform="translate(381 47)">
            <use filter="url(#g)" xlink:href="#h"/>
            <use xlink:href="#h"/>
        </g>
        <path fill="#FFF" d="M409.52 105h-2.224V93.656h7.168v2.096h-4.96v2.8h4.416v2.032h-4.4V105zm11.136 0a4.496 4.496 0 0 1-.064-.848 1.883 1.883 0 0 1-.904.792c-.4.176-.824.264-1.272.264-.928 0-1.659-.296-2.192-.888-.533-.592-.8-1.33-.8-2.216v-4.976h2.128v4.544c0 .47.123.85.368 1.144.245.293.603.44 1.072.44.459 0 .821-.141 1.088-.424.267-.283.4-.659.4-1.128v-4.576h2.128v6.448c0 .501.027.976.08 1.424h-2.032zm6.352-4.528V105h-2.128v-7.872h2.064v.976c.224-.384.544-.677.96-.88a2.959 2.959 0 0 1 1.312-.304c.928 0 1.635.29 2.12.872.485.581.728 1.33.728 2.248V105h-2.128v-4.592c0-.47-.12-.848-.36-1.136-.24-.288-.605-.432-1.096-.432-.448 0-.805.155-1.072.464-.267.31-.4.699-.4 1.168zm10.752-1.616c-.565 0-1.04.197-1.424.592-.384.395-.576.933-.576 1.616s.195 1.224.584 1.624c.39.4.867.6 1.432.6.501 0 .901-.13 1.2-.392a1.96 1.96 0 0 0 .608-.936l1.872.624c-.192.725-.608 1.35-1.248 1.872-.64.523-1.45.784-2.432.784-1.173 0-2.157-.397-2.952-1.192-.795-.795-1.192-1.79-1.192-2.984 0-1.205.392-2.203 1.176-2.992.784-.79 1.752-1.184 2.904-1.184 1.003 0 1.824.259 2.464.776.64.517 1.05 1.144 1.232 1.88l-1.904.64c-.256-.885-.837-1.328-1.744-1.328zm7.888-4.08v2.352h1.584v1.888h-1.584v3.296c0 .33.075.565.224.704.15.139.384.208.704.208.288 0 .507-.021.656-.064v1.76c-.31.128-.71.192-1.2.192-.768 0-1.376-.216-1.824-.648-.448-.432-.672-1.027-.672-1.784v-3.664h-1.424v-1.888h.4c.395 0 .696-.115.904-.344.208-.23.312-.53.312-.904v-1.104h1.92zm5.52 10.224h-2.128v-7.872h2.128V105zm-2.384-10.448c0-.363.128-.675.384-.936s.565-.392.928-.392c.363 0 .672.128.928.384s.384.57.384.944c0 .352-.128.656-.384.912a1.264 1.264 0 0 1-.928.384c-.363 0-.672-.128-.928-.384a1.246 1.246 0 0 1-.384-.912zm8.192 8.752c.555 0 1.027-.197 1.416-.592.39-.395.584-.944.584-1.648s-.195-1.253-.584-1.648a1.915 1.915 0 0 0-1.416-.592c-.555 0-1.027.197-1.416.592-.39.395-.584.944-.584 1.648s.195 1.253.584 1.648c.39.395.861.592 1.416.592zm0-6.416c1.184 0 2.168.395 2.952 1.184.784.79 1.176 1.787 1.176 2.992s-.392 2.203-1.176 2.992c-.784.79-1.768 1.184-2.952 1.184s-2.168-.395-2.952-1.184c-.784-.79-1.176-1.787-1.176-2.992s.392-2.203 1.176-2.992c.784-.79 1.768-1.184 2.952-1.184zm7.936 3.584V105h-2.128v-7.872h2.064v.976c.224-.384.544-.677.96-.88a2.959 2.959 0 0 1 1.312-.304c.928 0 1.635.29 2.12.872.485.581.728 1.33.728 2.248V105h-2.128v-4.592c0-.47-.12-.848-.36-1.136-.24-.288-.605-.432-1.096-.432-.448 0-.805.155-1.072.464-.267.31-.4.699-.4 1.168zm6.736 2.384c0-.672.219-1.21.656-1.616.437-.405 1.003-.661 1.696-.768l1.936-.288c.395-.053.592-.24.592-.56a.917.917 0 0 0-.344-.736c-.23-.192-.557-.288-.984-.288-.448 0-.803.123-1.064.368s-.408.55-.44.912l-1.888-.4c.075-.683.41-1.285 1.008-1.808.597-.523 1.387-.784 2.368-.784 1.173 0 2.037.28 2.592.84.555.56.832 1.277.832 2.152v3.872c0 .47.032.885.096 1.248h-1.952a4.434 4.434 0 0 1-.08-.944c-.501.779-1.275 1.168-2.32 1.168-.81 0-1.464-.235-1.96-.704-.496-.47-.744-1.024-.744-1.664zm3.152.784c.501 0 .915-.141 1.24-.424.325-.283.488-.75.488-1.4v-.352l-1.776.272c-.65.096-.976.427-.976.992 0 .256.09.472.272.648.181.176.432.264.752.264zm8.08 1.36h-2.128V93.416h2.128V105zm-68.48 20h-7.104v-11.344h7.104v2.08h-4.896v2.592h4.432v1.968h-4.432v2.624h4.896V125zm4.176 0h-2.128v-11.584h2.128V125zm3.824-4.832h3.52a1.634 1.634 0 0 0-.472-1.104c-.293-.299-.723-.448-1.288-.448-.512 0-.928.16-1.248.48-.32.32-.49.677-.512 1.072zm3.728 2.048l1.776.528a3.394 3.394 0 0 1-1.256 1.792c-.624.47-1.4.704-2.328.704-1.13 0-2.09-.381-2.88-1.144-.79-.763-1.184-1.784-1.184-3.064 0-1.216.384-2.21 1.152-2.984.768-.773 1.675-1.16 2.72-1.16 1.216 0 2.168.363 2.856 1.088.688.725 1.032 1.723 1.032 2.992 0 .085-.003.181-.008.288a5.384 5.384 0 0 0-.008.256l-.016.112h-5.632c.021.512.224.939.608 1.28.384.341.843.512 1.376.512.907 0 1.504-.4 1.792-1.2zm5.696 2.784h-2.128v-7.872h2.032v.96c.203-.363.523-.65.96-.864.437-.213.885-.32 1.344-.32 1.141 0 1.92.437 2.336 1.312.565-.875 1.397-1.312 2.496-1.312.8 0 1.475.25 2.024.752.55.501.824 1.248.824 2.24V125h-2.064v-4.672c0-.448-.115-.808-.344-1.08-.23-.272-.579-.408-1.048-.408-.437 0-.79.15-1.056.448-.267.299-.4.667-.4 1.104V125h-2.112v-4.672c0-.448-.117-.808-.352-1.08s-.581-.408-1.04-.408c-.448 0-.805.147-1.072.44-.267.293-.4.664-.4 1.112V125zm13.6-4.832h3.52a1.634 1.634 0 0 0-.472-1.104c-.293-.299-.723-.448-1.288-.448-.512 0-.928.16-1.248.48-.32.32-.49.677-.512 1.072zm3.728 2.048l1.776.528a3.394 3.394 0 0 1-1.256 1.792c-.624.47-1.4.704-2.328.704-1.13 0-2.09-.381-2.88-1.144-.79-.763-1.184-1.784-1.184-3.064 0-1.216.384-2.21 1.152-2.984.768-.773 1.675-1.16 2.72-1.16 1.216 0 2.168.363 2.856 1.088.688.725 1.032 1.723 1.032 2.992 0 .085-.003.181-.008.288a5.384 5.384 0 0 0-.008.256l-.016.112h-5.632c.021.512.224.939.608 1.28.384.341.843.512 1.376.512.907 0 1.504-.4 1.792-1.2zm5.696-1.744V125h-2.128v-7.872h2.064v.976c.224-.384.544-.677.96-.88a2.959 2.959 0 0 1 1.312-.304c.928 0 1.635.29 2.12.872.485.581.728 1.33.728 2.248V125h-2.128v-4.592c0-.47-.12-.848-.36-1.136-.24-.288-.605-.432-1.096-.432-.448 0-.805.155-1.072.464-.267.31-.4.699-.4 1.168zm9.84-5.696v2.352h1.584v1.888h-1.584v3.296c0 .33.075.565.224.704.15.139.384.208.704.208.288 0 .507-.021.656-.064v1.76c-.31.128-.71.192-1.2.192-.768 0-1.376-.216-1.824-.648-.448-.432-.672-1.027-.672-1.784v-3.664h-1.424v-1.888h.4c.395 0 .696-.115.904-.344.208-.23.312-.53.312-.904v-1.104h1.92zm2.896 8.032l1.824-.4c.021.341.157.627.408.856.25.23.595.344 1.032.344.33 0 .587-.075.768-.224a.697.697 0 0 0 .272-.56c0-.395-.283-.65-.848-.768l-1.04-.24c-.736-.16-1.288-.448-1.656-.864a2.17 2.17 0 0 1-.552-1.488c0-.715.28-1.323.84-1.824.56-.501 1.261-.752 2.104-.752.533 0 1.003.077 1.408.232.405.155.72.352.944.592.224.24.395.483.512.728.117.245.192.485.224.72l-1.776.4a1.324 1.324 0 0 0-.376-.736c-.208-.213-.515-.32-.92-.32-.277 0-.515.075-.712.224-.197.15-.296.336-.296.56 0 .384.24.619.72.704l1.12.24c.757.16 1.336.453 1.736.88.4.427.6.939.6 1.536 0 .704-.267 1.312-.8 1.824s-1.285.768-2.256.768c-.555 0-1.05-.083-1.488-.248-.437-.165-.776-.379-1.016-.64a3.158 3.158 0 0 1-.544-.784 2.577 2.577 0 0 1-.232-.76z"/>
        <g fill="#000" transform="translate(154 10)">
            <use filter="url(#i)" xlink:href="#j"/>
            <use xlink:href="#j"/>
        </g>
        <path fill="#FFF" d="M197.62 83.82h5.1c1.347 0 2.403.353 3.17 1.06.767.707 1.15 1.627 1.15 2.76 0 .72-.193 1.357-.58 1.91-.387.553-.88.93-1.48 1.13.72.173 1.317.563 1.79 1.17.473.607.71 1.337.71 2.19 0 1.16-.4 2.11-1.2 2.85-.8.74-1.86 1.11-3.18 1.11h-5.48V83.82zm2.72 5.86h1.96c.627 0 1.12-.16 1.48-.48.36-.32.54-.753.54-1.3s-.177-.977-.53-1.29c-.353-.313-.857-.47-1.51-.47h-1.94v3.54zm0 6.02h2.24c.667 0 1.19-.163 1.57-.49.38-.327.57-.777.57-1.35 0-.573-.183-1.033-.55-1.38-.367-.347-.883-.52-1.55-.52h-2.28v3.74zM215.9 98a5.62 5.62 0 0 1-.08-1.06c-.253.44-.63.77-1.13.99-.5.22-1.03.33-1.59.33-1.16 0-2.073-.37-2.74-1.11-.667-.74-1-1.663-1-2.77v-6.22h2.66v5.68c0 .587.153 1.063.46 1.43.307.367.753.55 1.34.55.573 0 1.027-.177 1.36-.53.333-.353.5-.823.5-1.41v-5.72h2.66v8.06c0 .627.033 1.22.1 1.78h-2.54zm4.44-2.74l2.28-.5c.027.427.197.783.51 1.07.313.287.743.43 1.29.43.413 0 .733-.093.96-.28a.87.87 0 0 0 .34-.7c0-.493-.353-.813-1.06-.96l-1.3-.3c-.92-.2-1.61-.56-2.07-1.08-.46-.52-.69-1.14-.69-1.86 0-.893.35-1.653 1.05-2.28.7-.627 1.577-.94 2.63-.94.667 0 1.253.097 1.76.29.507.193.9.44 1.18.74.28.3.493.603.64.91.147.307.24.607.28.9l-2.22.5a1.655 1.655 0 0 0-.47-.92c-.26-.267-.643-.4-1.15-.4-.347 0-.643.093-.89.28-.247.187-.37.42-.37.7 0 .48.3.773.9.88l1.4.3c.947.2 1.67.567 2.17 1.1.5.533.75 1.173.75 1.92 0 .88-.333 1.64-1 2.28-.667.64-1.607.96-2.82.96-.693 0-1.313-.103-1.86-.31-.547-.207-.97-.473-1.27-.8a3.948 3.948 0 0 1-.68-.98 3.221 3.221 0 0 1-.29-.95zM233.06 98h-2.66v-9.84h2.66V98zm-2.98-13.06c0-.453.16-.843.48-1.17.32-.327.707-.49 1.16-.49.453 0 .84.16 1.16.48.32.32.48.713.48 1.18 0 .44-.16.82-.48 1.14-.32.32-.707.48-1.16.48-.453 0-.84-.16-1.16-.48-.32-.32-.48-.7-.48-1.14zm8.48 7.4V98h-2.66v-9.84h2.58v1.22c.28-.48.68-.847 1.2-1.1a3.698 3.698 0 0 1 1.64-.38c1.16 0 2.043.363 2.65 1.09.607.727.91 1.663.91 2.81V98h-2.66v-5.74c0-.587-.15-1.06-.45-1.42-.3-.36-.757-.54-1.37-.54-.56 0-1.007.193-1.34.58-.333.387-.5.873-.5 1.46zm10.96-.38h4.4a2.043 2.043 0 0 0-.59-1.38c-.367-.373-.903-.56-1.61-.56-.64 0-1.16.2-1.56.6-.4.4-.613.847-.64 1.34zm4.66 2.56l2.22.66c-.267.907-.79 1.653-1.57 2.24-.78.587-1.75.88-2.91.88-1.413 0-2.613-.477-3.6-1.43-.987-.953-1.48-2.23-1.48-3.83 0-1.52.48-2.763 1.44-3.73.96-.967 2.093-1.45 3.4-1.45 1.52 0 2.71.453 3.57 1.36.86.907 1.29 2.153 1.29 3.74 0 .107-.003.227-.01.36a6.73 6.73 0 0 0-.01.32l-.02.14h-7.04c.027.64.28 1.173.76 1.6.48.427 1.053.64 1.72.64 1.133 0 1.88-.5 2.24-1.5zm3.62.74l2.28-.5c.027.427.197.783.51 1.07.313.287.743.43 1.29.43.413 0 .733-.093.96-.28a.87.87 0 0 0 .34-.7c0-.493-.353-.813-1.06-.96l-1.3-.3c-.92-.2-1.61-.56-2.07-1.08-.46-.52-.69-1.14-.69-1.86 0-.893.35-1.653 1.05-2.28.7-.627 1.577-.94 2.63-.94.667 0 1.253.097 1.76.29.507.193.9.44 1.18.74.28.3.493.603.64.91.147.307.24.607.28.9l-2.22.5a1.655 1.655 0 0 0-.47-.92c-.26-.267-.643-.4-1.15-.4-.347 0-.643.093-.89.28-.247.187-.37.42-.37.7 0 .48.3.773.9.88l1.4.3c.947.2 1.67.567 2.17 1.1.5.533.75 1.173.75 1.92 0 .88-.333 1.64-1 2.28-.667.64-1.607.96-2.82.96-.693 0-1.313-.103-1.86-.31-.547-.207-.97-.473-1.27-.8a3.948 3.948 0 0 1-.68-.98 3.221 3.221 0 0 1-.29-.95zm9.22 0l2.28-.5c.027.427.197.783.51 1.07.313.287.743.43 1.29.43.413 0 .733-.093.96-.28a.87.87 0 0 0 .34-.7c0-.493-.353-.813-1.06-.96l-1.3-.3c-.92-.2-1.61-.56-2.07-1.08-.46-.52-.69-1.14-.69-1.86 0-.893.35-1.653 1.05-2.28.7-.627 1.577-.94 2.63-.94.667 0 1.253.097 1.76.29.507.193.9.44 1.18.74.28.3.493.603.64.91.147.307.24.607.28.9l-2.22.5a1.655 1.655 0 0 0-.47-.92c-.26-.267-.643-.4-1.15-.4-.347 0-.643.093-.89.28-.247.187-.37.42-.37.7 0 .48.3.773.9.88l1.4.3c.947.2 1.67.567 2.17 1.1.5.533.75 1.173.75 1.92 0 .88-.333 1.64-1 2.28-.667.64-1.607.96-2.82.96-.693 0-1.313-.103-1.86-.31-.547-.207-.97-.473-1.27-.8a3.948 3.948 0 0 1-.68-.98 3.221 3.221 0 0 1-.29-.95zM213.44 123h-2.72v-9.94l-4.08 9.94h-2.3l-4.08-9.86V123h-2.64v-14.18h3.64l4.26 10.24 4.16-10.24h3.76V123zm7.4-2.12c.693 0 1.283-.247 1.77-.74.487-.493.73-1.18.73-2.06 0-.88-.243-1.567-.73-2.06a2.394 2.394 0 0 0-1.77-.74c-.693 0-1.283.247-1.77.74-.487.493-.73 1.18-.73 2.06 0 .88.243 1.567.73 2.06.487.493 1.077.74 1.77.74zm0-8.02c1.48 0 2.71.493 3.69 1.48s1.47 2.233 1.47 3.74c0 1.507-.49 2.753-1.47 3.74-.98.987-2.21 1.48-3.69 1.48s-2.71-.493-3.69-1.48-1.47-2.233-1.47-3.74c0-1.507.49-2.753 1.47-3.74.98-.987 2.21-1.48 3.69-1.48zm16.64-4.34v12.7c0 .653.027 1.247.08 1.78h-2.54a5.85 5.85 0 0 1-.1-1.14c-.227.413-.583.747-1.07 1-.487.253-1.05.38-1.69.38-1.4 0-2.55-.49-3.45-1.47-.9-.98-1.35-2.217-1.35-3.71 0-1.453.443-2.673 1.33-3.66.887-.987 2.017-1.48 3.39-1.48 1.413 0 2.34.407 2.78 1.22v-5.62h2.62zm-7.44 9.54c0 .867.227 1.55.68 2.05.453.5 1.04.75 1.76.75.707 0 1.287-.253 1.74-.76.453-.507.68-1.193.68-2.06 0-.853-.227-1.523-.68-2.01-.453-.487-1.033-.73-1.74-.73-.707 0-1.29.247-1.75.74-.46.493-.69 1.167-.69 2.02zm12.26-1.1h4.4a2.043 2.043 0 0 0-.59-1.38c-.367-.373-.903-.56-1.61-.56-.64 0-1.16.2-1.56.6-.4.4-.613.847-.64 1.34zm4.66 2.56l2.22.66c-.267.907-.79 1.653-1.57 2.24-.78.587-1.75.88-2.91.88-1.413 0-2.613-.477-3.6-1.43-.987-.953-1.48-2.23-1.48-3.83 0-1.52.48-2.763 1.44-3.73.96-.967 2.093-1.45 3.4-1.45 1.52 0 2.71.453 3.57 1.36.86.907 1.29 2.153 1.29 3.74 0 .107-.003.227-.01.36a6.73 6.73 0 0 0-.01.32l-.02.14h-7.04c.027.64.28 1.173.76 1.6.48.427 1.053.64 1.72.64 1.133 0 1.88-.5 2.24-1.5zm7.12 3.48h-2.66v-14.48h2.66V123z"/>
        <g>
            <g fill="#000" transform="translate(459 423)">
                <use filter="url(#k)" xlink:href="#l"/>
                <use xlink:href="#l"/>
            </g>
            <path fill="#FFF" d="M507.228 511.288c-1.416 0-2.586-.423-3.51-1.269-.924-.846-1.386-2.025-1.386-3.537v-8.244h2.484v8.064c0 .828.213 1.461.639 1.899.426.438 1.017.657 1.773.657.768 0 1.365-.219 1.791-.657.426-.438.639-1.071.639-1.899v-8.064h2.484v8.244c0 1.512-.462 2.691-1.386 3.537-.924.846-2.1 1.269-3.528 1.269zm6.714-2.754l2.052-.45c.024.384.177.705.459.963.282.258.669.387 1.161.387.372 0 .66-.084.864-.252a.784.784 0 0 0 .306-.63c0-.444-.318-.732-.954-.864l-1.17-.27c-.828-.18-1.449-.504-1.863-.972a2.442 2.442 0 0 1-.621-1.674c0-.804.315-1.488.945-2.052.63-.564 1.419-.846 2.367-.846.6 0 1.128.087 1.584.261.456.174.81.396 1.062.666a3.3 3.3 0 0 1 .576.819c.132.276.216.546.252.81l-1.998.45a1.49 1.49 0 0 0-.423-.828c-.234-.24-.579-.36-1.035-.36-.312 0-.579.084-.801.252-.222.168-.333.378-.333.63 0 .432.27.696.81.792l1.26.27c.852.18 1.503.51 1.953.99.45.48.675 1.056.675 1.728 0 .792-.3 1.476-.9 2.052-.6.576-1.446.864-2.538.864-.624 0-1.182-.093-1.674-.279-.492-.186-.873-.426-1.143-.72a3.553 3.553 0 0 1-.612-.882 2.899 2.899 0 0 1-.261-.855zm10.764-2.97h3.96a1.839 1.839 0 0 0-.531-1.242c-.33-.336-.813-.504-1.449-.504-.576 0-1.044.18-1.404.54-.36.36-.552.762-.576 1.206zm4.194 2.304l1.998.594a3.818 3.818 0 0 1-1.413 2.016c-.702.528-1.575.792-2.619.792-1.272 0-2.352-.429-3.24-1.287-.888-.858-1.332-2.007-1.332-3.447 0-1.368.432-2.487 1.296-3.357.864-.87 1.884-1.305 3.06-1.305 1.368 0 2.439.408 3.213 1.224.774.816 1.161 1.938 1.161 3.366 0 .096-.003.204-.009.324-.006.12-.009.216-.009.288l-.018.126h-6.336c.024.576.252 1.056.684 1.44.432.384.948.576 1.548.576 1.02 0 1.692-.45 2.016-1.35zm9.414-5.76v2.412a3.663 3.663 0 0 0-.72-.072c-.684 0-1.236.195-1.656.585-.42.39-.63 1.029-.63 1.917V511h-2.394v-8.856h2.322v1.314c.432-.924 1.272-1.386 2.52-1.386.132 0 .318.012.558.036zM510.45 534h-7.992v-12.762h7.992v2.34h-5.508v2.916h4.986v2.214h-4.986v2.952h5.508V534zm1.242 0l3.15-4.446-3.15-4.41h2.844c.108.156.405.591.891 1.305s.777 1.155.873 1.323l1.746-2.628h2.718l-3.096 4.338 3.204 4.518h-2.808l-1.854-2.718c-.06.096-.231.354-.513.774a2946.435 2946.435 0 0 1-1.305 1.944h-2.7zm13.032 3.42h-2.394v-12.276h2.322v1.08c.216-.36.564-.663 1.044-.909.48-.246 1.038-.369 1.674-.369 1.26 0 2.256.429 2.988 1.287.732.858 1.098 1.965 1.098 3.321s-.387 2.472-1.161 3.348c-.774.876-1.779 1.314-3.015 1.314-1.176 0-2.028-.36-2.556-1.08v4.284zm4.374-7.848c0-.768-.207-1.374-.621-1.818-.414-.444-.939-.666-1.575-.666s-1.164.225-1.584.675c-.42.45-.63 1.053-.63 1.809s.21 1.362.63 1.818c.42.456.948.684 1.584.684.636 0 1.161-.225 1.575-.675.414-.45.621-1.059.621-1.827zm5.994-1.008h3.96a1.839 1.839 0 0 0-.531-1.242c-.33-.336-.813-.504-1.449-.504-.576 0-1.044.18-1.404.54-.36.36-.552.762-.576 1.206zm4.194 2.304l1.998.594a3.818 3.818 0 0 1-1.413 2.016c-.702.528-1.575.792-2.619.792-1.272 0-2.352-.429-3.24-1.287-.888-.858-1.332-2.007-1.332-3.447 0-1.368.432-2.487 1.296-3.357.864-.87 1.884-1.305 3.06-1.305 1.368 0 2.439.408 3.213 1.224.774.816 1.161 1.938 1.161 3.366 0 .096-.003.204-.009.324-.006.12-.009.216-.009.288l-.018.126h-6.336c.024.576.252 1.056.684 1.44.432.384.948.576 1.548.576 1.02 0 1.692-.45 2.016-1.35zm9.414-5.76v2.412a3.663 3.663 0 0 0-.72-.072c-.684 0-1.236.195-1.656.585-.42.39-.63 1.029-.63 1.917V534H543.3v-8.856h2.322v1.314c.432-.924 1.272-1.386 2.52-1.386.132 0 .318.012.558.036zm4.086 8.892h-2.394v-8.856h2.394V534zm-2.682-11.754c0-.408.144-.759.432-1.053a1.408 1.408 0 0 1 1.044-.441c.408 0 .756.144 1.044.432.288.288.432.642.432 1.062 0 .396-.144.738-.432 1.026a1.422 1.422 0 0 1-1.044.432c-.408 0-.756-.144-1.044-.432a1.402 1.402 0 0 1-.432-1.026zm6.984 6.318h3.96a1.839 1.839 0 0 0-.531-1.242c-.33-.336-.813-.504-1.449-.504-.576 0-1.044.18-1.404.54-.36.36-.552.762-.576 1.206zm4.194 2.304l1.998.594a3.818 3.818 0 0 1-1.413 2.016c-.702.528-1.575.792-2.619.792-1.272 0-2.352-.429-3.24-1.287-.888-.858-1.332-2.007-1.332-3.447 0-1.368.432-2.487 1.296-3.357.864-.87 1.884-1.305 3.06-1.305 1.368 0 2.439.408 3.213 1.224.774.816 1.161 1.938 1.161 3.366 0 .096-.003.204-.009.324-.006.12-.009.216-.009.288l-.018.126h-6.336c.024.576.252 1.056.684 1.44.432.384.948.576 1.548.576 1.02 0 1.692-.45 2.016-1.35zm6.408-1.962V534h-2.394v-8.856h2.322v1.098a2.47 2.47 0 0 1 1.08-.99c.468-.228.96-.342 1.476-.342 1.044 0 1.839.327 2.385.981.546.654.819 1.497.819 2.529V534h-2.394v-5.166c0-.528-.135-.954-.405-1.278-.27-.324-.681-.486-1.233-.486-.504 0-.906.174-1.206.522-.3.348-.45.786-.45 1.314zm12.096-1.818c-.636 0-1.17.222-1.602.666-.432.444-.648 1.05-.648 1.818s.219 1.377.657 1.827c.438.45.975.675 1.611.675.564 0 1.014-.147 1.35-.441.336-.294.564-.645.684-1.053l2.106.702c-.216.816-.684 1.518-1.404 2.106-.72.588-1.632.882-2.736.882-1.32 0-2.427-.447-3.321-1.341-.894-.894-1.341-2.013-1.341-3.357 0-1.356.441-2.478 1.323-3.366.882-.888 1.971-1.332 3.267-1.332 1.128 0 2.052.291 2.772.873.72.582 1.182 1.287 1.386 2.115l-2.142.72c-.288-.996-.942-1.494-1.962-1.494zm7.578 1.476h3.96a1.839 1.839 0 0 0-.531-1.242c-.33-.336-.813-.504-1.449-.504-.576 0-1.044.18-1.404.54-.36.36-.552.762-.576 1.206zm4.194 2.304l1.998.594a3.818 3.818 0 0 1-1.413 2.016c-.702.528-1.575.792-2.619.792-1.272 0-2.352-.429-3.24-1.287-.888-.858-1.332-2.007-1.332-3.447 0-1.368.432-2.487 1.296-3.357.864-.87 1.884-1.305 3.06-1.305 1.368 0 2.439.408 3.213 1.224.774.816 1.161 1.938 1.161 3.366 0 .096-.003.204-.009.324-.006.12-.009.216-.009.288l-.018.126h-6.336c.024.576.252 1.056.684 1.44.432.384.948.576 1.548.576 1.02 0 1.692-.45 2.016-1.35z"/>
        </g>
        <g>
            <g fill="#000" transform="translate(180 413)">
                <use filter="url(#m)" xlink:href="#n"/>
                <use xlink:href="#n"/>
            </g>
            <path fill="#FFF" d="M224.208 478h-1.904v-6.958L219.448 478h-1.61l-2.856-6.902V478h-1.848v-9.926h2.548l2.982 7.168 2.912-7.168h2.632V478zm1.68-1.876c0-.588.191-1.06.574-1.414.383-.355.877-.579 1.484-.672l1.694-.252c.345-.047.518-.21.518-.49 0-.261-.1-.476-.301-.644-.2-.168-.488-.252-.861-.252-.392 0-.702.107-.931.322-.229.215-.357.48-.385.798l-1.652-.35c.065-.597.36-1.125.882-1.582.523-.457 1.213-.686 2.072-.686 1.027 0 1.783.245 2.268.735.485.49.728 1.118.728 1.883v3.388c0 .41.028.775.084 1.092h-1.708a3.88 3.88 0 0 1-.07-.826c-.439.681-1.115 1.022-2.03 1.022-.71 0-1.281-.205-1.715-.616-.434-.41-.651-.896-.651-1.456zm2.758.686c.439 0 .8-.124 1.085-.371.285-.247.427-.656.427-1.225v-.308l-1.554.238c-.57.084-.854.373-.854.868 0 .224.08.413.238.567.159.154.378.231.658.231zm9.408-5.726v1.876a2.849 2.849 0 0 0-.56-.056c-.532 0-.961.152-1.288.455-.327.303-.49.8-.49 1.491V478h-1.862v-6.888h1.806v1.022c.336-.719.99-1.078 1.96-1.078.103 0 .247.01.434.028zm7.994.028l-2.758 2.898 2.814 3.99h-2.282l-1.82-2.632-.77.812V478h-1.862v-10.136h1.862v5.81l2.38-2.562h2.436zm2.198 2.66h3.08a1.43 1.43 0 0 0-.413-.966c-.257-.261-.632-.392-1.127-.392-.448 0-.812.14-1.092.42-.28.28-.43.593-.448.938zm3.262 1.792l1.554.462a2.97 2.97 0 0 1-1.099 1.568c-.546.41-1.225.616-2.037.616-.99 0-1.83-.334-2.52-1.001-.69-.667-1.036-1.561-1.036-2.681 0-1.064.336-1.934 1.008-2.611.672-.677 1.465-1.015 2.38-1.015 1.064 0 1.897.317 2.499.952.602.635.903 1.507.903 2.618 0 .075-.002.159-.007.252a4.711 4.711 0 0 0-.007.224l-.014.098h-4.928c.019.448.196.821.532 1.12.336.299.737.448 1.204.448.793 0 1.316-.35 1.568-1.05zm5.418-6.51v2.058h1.386v1.652h-1.386v2.884c0 .29.065.495.196.616.13.121.336.182.616.182.252 0 .443-.019.574-.056v1.54c-.27.112-.62.168-1.05.168-.672 0-1.204-.189-1.596-.567-.392-.378-.588-.898-.588-1.561v-3.206h-1.246v-1.652h.35c.345 0 .609-.1.791-.301.182-.2.273-.464.273-.791v-.966h1.68zm4.83 8.946h-1.862v-6.888h1.862V478zm-2.086-9.142c0-.317.112-.59.336-.819.224-.229.495-.343.812-.343.317 0 .588.112.812.336.224.224.336.5.336.826 0 .308-.112.574-.336.798a1.106 1.106 0 0 1-.812.336c-.317 0-.588-.112-.812-.336a1.09 1.09 0 0 1-.336-.798zm5.936 5.18V478h-1.862v-6.888h1.806v.854a1.92 1.92 0 0 1 .84-.77 2.589 2.589 0 0 1 1.148-.266c.812 0 1.43.254 1.855.763.425.509.637 1.164.637 1.967V478h-1.862v-4.018c0-.41-.105-.742-.315-.994-.21-.252-.53-.378-.959-.378-.392 0-.705.135-.938.406-.233.27-.35.611-.35 1.022zm5.824 4.34l1.68-.448c.065.383.243.695.532.938.29.243.649.364 1.078.364 1.223 0 1.834-.64 1.834-1.918v-.504c-.159.252-.401.462-.728.63-.327.168-.723.252-1.19.252-.915 0-1.678-.317-2.289-.952-.611-.635-.917-1.433-.917-2.394 0-.933.303-1.727.91-2.38.607-.653 1.372-.98 2.296-.98.504 0 .924.091 1.26.273.336.182.57.404.7.665v-.812h1.792v6.146c0 1.036-.299 1.897-.896 2.583-.597.686-1.503 1.029-2.716 1.029-.905 0-1.664-.243-2.275-.728s-.968-1.073-1.071-1.764zm3.528-2.282c.476 0 .866-.159 1.169-.476.303-.317.455-.742.455-1.274 0-.523-.156-.943-.469-1.26a1.558 1.558 0 0 0-1.155-.476c-.476 0-.87.159-1.183.476-.313.317-.469.737-.469 1.26 0 .532.154.957.462 1.274.308.317.705.476 1.19.476zm-57.33 20.114c-1.428 0-2.632-.476-3.612-1.428s-1.47-2.198-1.47-3.738c0-1.53.497-2.777 1.491-3.738.994-.961 2.182-1.442 3.563-1.442 1.27 0 2.289.322 3.059.966.77.644 1.267 1.419 1.491 2.324l-1.82.574a2.71 2.71 0 0 0-.882-1.421c-.448-.387-1.064-.581-1.848-.581-.812 0-1.524.29-2.135.868-.611.579-.917 1.395-.917 2.45 0 1.008.301 1.806.903 2.394a3.003 3.003 0 0 0 2.177.882c.775 0 1.393-.2 1.855-.602.462-.401.772-.877.931-1.428l1.806.546a4.427 4.427 0 0 1-.497 1.176 4.875 4.875 0 0 1-.889 1.078c-.364.336-.824.607-1.379.812a5.23 5.23 0 0 1-1.827.308zm7.784-4.256V496h-1.862v-10.136h1.862v3.822c.42-.504 1.04-.756 1.862-.756.84 0 1.477.254 1.911.763.434.509.651 1.164.651 1.967V496h-1.862v-4.018c0-.41-.105-.742-.315-.994-.21-.252-.53-.378-.959-.378-.383 0-.688.126-.917.378-.229.252-.352.574-.371.966zm5.894 2.17c0-.588.191-1.06.574-1.414.383-.355.877-.579 1.484-.672l1.694-.252c.345-.047.518-.21.518-.49 0-.261-.1-.476-.301-.644-.2-.168-.488-.252-.861-.252-.392 0-.702.107-.931.322-.229.215-.357.48-.385.798l-1.652-.35c.065-.597.36-1.125.882-1.582.523-.457 1.213-.686 2.072-.686 1.027 0 1.783.245 2.268.735.485.49.728 1.118.728 1.883v3.388c0 .41.028.775.084 1.092h-1.708a3.88 3.88 0 0 1-.07-.826c-.439.681-1.115 1.022-2.03 1.022-.71 0-1.281-.205-1.715-.616-.434-.41-.651-.896-.651-1.456zm2.758.686c.439 0 .8-.124 1.085-.371.285-.247.427-.656.427-1.225v-.308l-1.554.238c-.57.084-.854.373-.854.868 0 .224.08.413.238.567.159.154.378.231.658.231zm7.07-2.772V496h-1.862v-6.888h1.806v.854a1.92 1.92 0 0 1 .84-.77 2.589 2.589 0 0 1 1.148-.266c.812 0 1.43.254 1.855.763.425.509.637 1.164.637 1.967V496h-1.862v-4.018c0-.41-.105-.742-.315-.994-.21-.252-.53-.378-.959-.378-.392 0-.705.135-.938.406-.233.27-.35.611-.35 1.022zm8.176 0V496h-1.862v-6.888h1.806v.854a1.92 1.92 0 0 1 .84-.77 2.589 2.589 0 0 1 1.148-.266c.812 0 1.43.254 1.855.763.425.509.637 1.164.637 1.967V496h-1.862v-4.018c0-.41-.105-.742-.315-.994-.21-.252-.53-.378-.959-.378-.392 0-.705.135-.938.406-.233.27-.35.611-.35 1.022zm7.672-.266h3.08a1.43 1.43 0 0 0-.413-.966c-.257-.261-.632-.392-1.127-.392-.448 0-.812.14-1.092.42-.28.28-.43.593-.448.938zm3.262 1.792l1.554.462a2.97 2.97 0 0 1-1.099 1.568c-.546.41-1.225.616-2.037.616-.99 0-1.83-.334-2.52-1.001-.69-.667-1.036-1.561-1.036-2.681 0-1.064.336-1.934 1.008-2.611.672-.677 1.465-1.015 2.38-1.015 1.064 0 1.897.317 2.499.952.602.635.903 1.507.903 2.618 0 .075-.002.159-.007.252a4.711 4.711 0 0 0-.007.224l-.014.098h-4.928c.019.448.196.821.532 1.12.336.299.737.448 1.204.448.793 0 1.316-.35 1.568-1.05zm4.984 2.436h-1.862v-10.136h1.862V496zm1.4-1.918l1.596-.35c.019.299.138.548.357.749.22.2.52.301.903.301.29 0 .513-.065.672-.196a.61.61 0 0 0 .238-.49c0-.345-.247-.57-.742-.672l-.91-.21c-.644-.14-1.127-.392-1.449-.756a1.9 1.9 0 0 1-.483-1.302c0-.625.245-1.157.735-1.596.49-.439 1.104-.658 1.841-.658.467 0 .877.068 1.232.203s.63.308.826.518c.196.21.345.422.448.637.103.215.168.425.196.63l-1.554.35a1.158 1.158 0 0 0-.329-.644c-.182-.187-.45-.28-.805-.28-.243 0-.45.065-.623.196a.593.593 0 0 0-.259.49c0 .336.21.541.63.616l.98.21c.663.14 1.169.397 1.519.77.35.373.525.821.525 1.344 0 .616-.233 1.148-.7 1.596-.467.448-1.125.672-1.974.672-.485 0-.92-.072-1.302-.217-.383-.145-.679-.331-.889-.56a2.763 2.763 0 0 1-.476-.686 2.255 2.255 0 0 1-.203-.665z"/>
        </g>
        <g>
            <g fill="#000" transform="translate(300 554)">
                <use filter="url(#o)" xlink:href="#p"/>
                <use xlink:href="#p"/>
            </g>
            <path fill="#FFF" d="M352.812 611.44l-1.736.532c-.065-.355-.243-.677-.532-.966-.29-.29-.714-.434-1.274-.434-.457 0-.83.124-1.12.371-.29.247-.434.544-.434.889 0 .607.36.98 1.078 1.12l1.386.266c.877.168 1.559.518 2.044 1.05.485.532.728 1.157.728 1.876 0 .821-.324 1.538-.973 2.149s-1.519.917-2.611.917a4.85 4.85 0 0 1-1.694-.28c-.504-.187-.91-.436-1.218-.749a3.844 3.844 0 0 1-.721-.994 3.143 3.143 0 0 1-.315-1.085l1.792-.476c.047.532.254.975.623 1.33.369.355.884.532 1.547.532.504 0 .898-.112 1.183-.336.285-.224.427-.518.427-.882 0-.29-.105-.539-.315-.749-.21-.21-.506-.352-.889-.427l-1.386-.28c-.803-.168-1.437-.5-1.904-.994-.467-.495-.7-1.11-.7-1.848 0-.877.338-1.615 1.015-2.212.677-.597 1.491-.896 2.443-.896.57 0 1.078.08 1.526.238.448.159.807.371 1.078.637.27.266.48.539.63.819.15.28.257.574.322.882zm7.994 7.56h-6.216v-9.926h6.216v1.82h-4.284v2.268h3.878v1.722h-3.878v2.296h4.284V619zm3.318-4.97c0 1.055.308 1.869.924 2.443a3.08 3.08 0 0 0 2.17.861c.84 0 1.568-.287 2.184-.861.616-.574.924-1.388.924-2.443 0-1.055-.308-1.869-.924-2.443a3.097 3.097 0 0 0-2.184-.861 3.08 3.08 0 0 0-2.17.861c-.616.574-.924 1.388-.924 2.443zm-2.002.014c0-1.55.5-2.8 1.498-3.752.999-.952 2.198-1.428 3.598-1.428 1.41 0 2.613.476 3.612 1.428.999.952 1.498 2.203 1.498 3.752 0 1.54-.5 2.786-1.498 3.738-.999.952-2.203 1.428-3.612 1.428-1.4 0-2.6-.476-3.598-1.428-.999-.952-1.498-2.198-1.498-3.738zm-9.31 15.396l-1.736.532c-.065-.355-.243-.677-.532-.966-.29-.29-.714-.434-1.274-.434-.457 0-.83.124-1.12.371-.29.247-.434.544-.434.889 0 .607.36.98 1.078 1.12l1.386.266c.877.168 1.559.518 2.044 1.05.485.532.728 1.157.728 1.876 0 .821-.324 1.538-.973 2.149s-1.519.917-2.611.917a4.85 4.85 0 0 1-1.694-.28c-.504-.187-.91-.436-1.218-.749a3.844 3.844 0 0 1-.721-.994 3.143 3.143 0 0 1-.315-1.085l1.792-.476c.047.532.254.975.623 1.33.369.355.884.532 1.547.532.504 0 .898-.112 1.183-.336.285-.224.427-.518.427-.882 0-.29-.105-.539-.315-.749-.21-.21-.506-.352-.889-.427l-1.386-.28c-.803-.168-1.437-.5-1.904-.994-.467-.495-.7-1.11-.7-1.848 0-.877.338-1.615 1.015-2.212.677-.597 1.491-.896 2.443-.896.57 0 1.078.08 1.526.238.448.159.807.371 1.078.637.27.266.48.539.63.819.15.28.257.574.322.882zm4.004-1.386v2.058h1.386v1.652h-1.386v2.884c0 .29.065.495.196.616.13.121.336.182.616.182.252 0 .443-.019.574-.056v1.54c-.27.112-.62.168-1.05.168-.672 0-1.204-.189-1.596-.567-.392-.378-.588-.898-.588-1.561v-3.206h-1.246v-1.652h.35c.345 0 .609-.1.791-.301.182-.2.273-.464.273-.791v-.966h1.68zm7.07 2.03v1.876a2.849 2.849 0 0 0-.56-.056c-.532 0-.961.152-1.288.455-.327.303-.49.8-.49 1.491V637h-1.862v-6.888h1.806v1.022c.336-.719.99-1.078 1.96-1.078.103 0 .247.01.434.028zm12.34 1.54c-.495 0-.91.173-1.246.518-.336.345-.504.817-.504 1.414s.17 1.071.511 1.421c.34.35.758.525 1.253.525.439 0 .789-.114 1.05-.343.261-.229.439-.502.532-.819l1.638.546c-.168.635-.532 1.18-1.092 1.638-.56.457-1.27.686-2.128.686-1.027 0-1.888-.348-2.583-1.043-.695-.695-1.043-1.566-1.043-2.611 0-1.055.343-1.927 1.029-2.618.686-.69 1.533-1.036 2.541-1.036.877 0 1.596.226 2.156.679.56.453.92 1.001 1.078 1.645l-1.666.56c-.224-.775-.733-1.162-1.526-1.162zM369.228 637a3.934 3.934 0 0 1-.056-.742 1.648 1.648 0 0 1-.791.693c-.35.154-.721.231-1.113.231-.812 0-1.451-.259-1.918-.777-.467-.518-.7-1.164-.7-1.939v-4.354h1.862v3.976c0 .41.107.744.322 1.001.215.257.527.385.938.385.401 0 .719-.124.952-.371.233-.247.35-.576.35-.987v-4.004h1.862v5.642c0 .439.023.854.07 1.246h-1.778zm13.992-8.946v2.058h1.386v1.652h-1.386v2.884c0 .29.065.495.196.616.13.121.336.182.616.182.252 0 .443-.019.574-.056v1.54c-.27.112-.62.168-1.05.168-.672 0-1.204-.189-1.596-.567-.392-.378-.588-.898-.588-1.561v-3.206h-1.246v-1.652h.35c.345 0 .609-.1.791-.301.182-.2.273-.464.273-.791v-.966h1.68zm7.518 8.946a3.934 3.934 0 0 1-.056-.742 1.648 1.648 0 0 1-.791.693c-.35.154-.721.231-1.113.231-.812 0-1.451-.259-1.918-.777-.467-.518-.7-1.164-.7-1.939v-4.354h1.862v3.976c0 .41.107.744.322 1.001.215.257.527.385.938.385.401 0 .719-.124.952-.371.233-.247.35-.576.35-.987v-4.004h1.862v5.642c0 .439.023.854.07 1.246h-1.778zm7.896-6.916v1.876a2.849 2.849 0 0 0-.56-.056c-.532 0-.961.152-1.288.455-.327.303-.49.8-.49 1.491V637h-1.862v-6.888h1.806v1.022c.336-.719.99-1.078 1.96-1.078.103 0 .247.01.434.028zm2.604 2.688h3.08a1.43 1.43 0 0 0-.413-.966c-.257-.261-.632-.392-1.127-.392-.448 0-.812.14-1.092.42-.28.28-.43.593-.448.938zm3.262 1.792l1.554.462a2.97 2.97 0 0 1-1.099 1.568c-.546.41-1.225.616-2.037.616-.99 0-1.83-.334-2.52-1.001-.69-.667-1.036-1.561-1.036-2.681 0-1.064.336-1.934 1.008-2.611.672-.677 1.465-1.015 2.38-1.015 1.064 0 1.897.317 2.499.952.602.635.903 1.507.903 2.618 0 .075-.002.159-.007.252a4.71 4.71 0 0 0-.007.224l-.014.098h-4.928c.019.448.196.821.532 1.12.336.299.737.448 1.204.448.793 0 1.316-.35 1.568-1.05z"/>
        </g>
        <g>
            <g fill="#000" transform="translate(0 494)">
                <use filter="url(#q)" xlink:href="#r"/>
                <use xlink:href="#r"/>
            </g>
            <path fill="#FFF" d="M50.442 554.908h-3.136V563H45.36v-8.092h-3.136v-1.834h8.218v1.834zm1.246 3.864h3.08a1.43 1.43 0 0 0-.413-.966c-.257-.261-.632-.392-1.127-.392-.448 0-.812.14-1.092.42-.28.28-.43.593-.448.938zm3.262 1.792l1.554.462a2.97 2.97 0 0 1-1.099 1.568c-.546.41-1.225.616-2.037.616-.99 0-1.83-.334-2.52-1.001-.69-.667-1.036-1.561-1.036-2.681 0-1.064.336-1.934 1.008-2.611.672-.677 1.465-1.015 2.38-1.015 1.064 0 1.897.317 2.499.952.602.635.903 1.507.903 2.618 0 .075-.002.159-.007.252a4.711 4.711 0 0 0-.007.224l-.014.098h-4.928c.019.448.196.821.532 1.12.336.299.737.448 1.204.448.793 0 1.316-.35 1.568-1.05zm6.216-2.94c-.495 0-.91.173-1.246.518-.336.345-.504.817-.504 1.414s.17 1.071.511 1.421c.34.35.758.525 1.253.525.439 0 .789-.114 1.05-.343.261-.229.439-.502.532-.819l1.638.546c-.168.635-.532 1.18-1.092 1.638-.56.457-1.27.686-2.128.686-1.027 0-1.888-.348-2.583-1.043-.695-.695-1.043-1.566-1.043-2.611 0-1.055.343-1.927 1.029-2.618.686-.69 1.533-1.036 2.541-1.036.877 0 1.596.226 2.156.679.56.453.92 1.001 1.078 1.645l-1.666.56c-.224-.775-.733-1.162-1.526-1.162zm6.468 1.33V563h-1.862v-10.136h1.862v3.822c.42-.504 1.04-.756 1.862-.756.84 0 1.477.254 1.911.763.434.509.651 1.164.651 1.967V563h-1.862v-4.018c0-.41-.105-.742-.315-.994-.21-.252-.53-.378-.959-.378-.383 0-.688.126-.917.378-.229.252-.352.574-.371.966zm8.176.084V563h-1.862v-6.888h1.806v.854a1.92 1.92 0 0 1 .84-.77 2.589 2.589 0 0 1 1.148-.266c.812 0 1.43.254 1.855.763.425.509.637 1.164.637 1.967V563h-1.862v-4.018c0-.41-.105-.742-.315-.994-.21-.252-.53-.378-.959-.378-.392 0-.705.135-.938.406-.233.27-.35.611-.35 1.022zm9.408 2.478c.485 0 .898-.173 1.239-.518.34-.345.511-.826.511-1.442s-.17-1.097-.511-1.442a1.676 1.676 0 0 0-1.239-.518c-.485 0-.898.173-1.239.518-.34.345-.511.826-.511 1.442s.17 1.097.511 1.442c.34.345.754.518 1.239.518zm0-5.614c1.036 0 1.897.345 2.583 1.036.686.69 1.029 1.563 1.029 2.618s-.343 1.927-1.029 2.618c-.686.69-1.547 1.036-2.583 1.036-1.036 0-1.897-.345-2.583-1.036-.686-.69-1.029-1.563-1.029-2.618s.343-1.927 1.029-2.618c.686-.69 1.547-1.036 2.583-1.036zM92.162 563H90.3v-10.136h1.862V563zm5.082-1.484c.485 0 .898-.173 1.239-.518.34-.345.511-.826.511-1.442s-.17-1.097-.511-1.442a1.676 1.676 0 0 0-1.239-.518c-.485 0-.898.173-1.239.518-.34.345-.511.826-.511 1.442s.17 1.097.511 1.442c.34.345.754.518 1.239.518zm0-5.614c1.036 0 1.897.345 2.583 1.036.686.69 1.029 1.563 1.029 2.618s-.343 1.927-1.029 2.618c-.686.69-1.547 1.036-2.583 1.036-1.036 0-1.897-.345-2.583-1.036-.686-.69-1.029-1.563-1.029-2.618s.343-1.927 1.029-2.618c.686-.69 1.547-1.036 2.583-1.036zm4.592 7.476l1.68-.448c.065.383.243.695.532.938.29.243.649.364 1.078.364 1.223 0 1.834-.64 1.834-1.918v-.504c-.159.252-.401.462-.728.63-.327.168-.723.252-1.19.252-.915 0-1.678-.317-2.289-.952-.611-.635-.917-1.433-.917-2.394 0-.933.303-1.727.91-2.38.607-.653 1.372-.98 2.296-.98.504 0 .924.091 1.26.273.336.182.57.404.7.665v-.812h1.792v6.146c0 1.036-.299 1.897-.896 2.583-.597.686-1.503 1.029-2.716 1.029-.905 0-1.664-.243-2.275-.728s-.968-1.073-1.071-1.764zm3.528-2.282c.476 0 .866-.159 1.169-.476.303-.317.455-.742.455-1.274 0-.523-.156-.943-.469-1.26a1.558 1.558 0 0 0-1.155-.476c-.476 0-.87.159-1.183.476-.313.317-.469.737-.469 1.26 0 .532.154.957.462 1.274.308.317.705.476 1.19.476zm7.63 4.62h-1.974l1.624-3.584-2.926-6.02h2.086l1.834 4.032 1.694-4.032h1.988l-4.326 9.604zm-63.182 7.724l-1.736.532c-.065-.355-.243-.677-.532-.966-.29-.29-.714-.434-1.274-.434-.457 0-.83.124-1.12.371-.29.247-.434.544-.434.889 0 .607.36.98 1.078 1.12l1.386.266c.877.168 1.559.518 2.044 1.05.485.532.728 1.157.728 1.876 0 .821-.324 1.538-.973 2.149s-1.519.917-2.611.917a4.85 4.85 0 0 1-1.694-.28c-.504-.187-.91-.436-1.218-.749a3.844 3.844 0 0 1-.721-.994 3.143 3.143 0 0 1-.315-1.085l1.792-.476c.047.532.254.975.623 1.33.369.355.884.532 1.547.532.504 0 .898-.112 1.183-.336.285-.224.427-.518.427-.882 0-.29-.105-.539-.315-.749-.21-.21-.506-.352-.889-.427l-1.386-.28c-.803-.168-1.437-.5-1.904-.994-.467-.495-.7-1.11-.7-1.848 0-.877.338-1.615 1.015-2.212.677-.597 1.491-.896 2.443-.896.57 0 1.078.08 1.526.238.448.159.807.371 1.078.637.27.266.48.539.63.819.15.28.257.574.322.882zm4.004-1.386v2.058h1.386v1.652h-1.386v2.884c0 .29.065.495.196.616.13.121.336.182.616.182.252 0 .443-.019.574-.056v1.54c-.27.112-.62.168-1.05.168-.672 0-1.204-.189-1.596-.567-.392-.378-.588-.898-.588-1.561v-3.206h-1.246v-1.652h.35c.345 0 .609-.1.791-.301.182-.2.273-.464.273-.791v-.966h1.68zm2.59 7.07c0-.588.191-1.06.574-1.414.383-.355.877-.579 1.484-.672l1.694-.252c.345-.047.518-.21.518-.49 0-.261-.1-.476-.301-.644-.2-.168-.488-.252-.861-.252-.392 0-.702.107-.931.322-.229.215-.357.48-.385.798l-1.652-.35c.065-.597.36-1.125.882-1.582.523-.457 1.213-.686 2.072-.686 1.027 0 1.783.245 2.268.735.485.49.728 1.118.728 1.883v3.388c0 .41.028.775.084 1.092h-1.708a3.88 3.88 0 0 1-.07-.826c-.439.681-1.115 1.022-2.03 1.022-.71 0-1.281-.205-1.715-.616-.434-.41-.651-.896-.651-1.456zm2.758.686c.439 0 .8-.124 1.085-.371.285-.247.427-.656.427-1.225v-.308l-1.554.238c-.57.084-.854.373-.854.868 0 .224.08.413.238.567.159.154.378.231.658.231zm8.274-4.186c-.495 0-.91.173-1.246.518-.336.345-.504.817-.504 1.414s.17 1.071.511 1.421c.34.35.758.525 1.253.525.439 0 .789-.114 1.05-.343.261-.229.439-.502.532-.819l1.638.546c-.168.635-.532 1.18-1.092 1.638-.56.457-1.27.686-2.128.686-1.027 0-1.888-.348-2.583-1.043-.695-.695-1.043-1.566-1.043-2.611 0-1.055.343-1.927 1.029-2.618.686-.69 1.533-1.036 2.541-1.036.877 0 1.596.226 2.156.679.56.453.92 1.001 1.078 1.645l-1.666.56c-.224-.775-.733-1.162-1.526-1.162zm11.284-1.512l-2.758 2.898 2.814 3.99h-2.282l-1.82-2.632-.77.812V581h-1.862v-10.136h1.862v5.81l2.38-2.562h2.436z"/>
        </g>
    </g>
</svg>
