<svg xmlns="http://www.w3.org/2000/svg" xmlns:xlink="http://www.w3.org/1999/xlink" width="166" height="166" viewBox="0 0 166 166">
    <defs>
        <circle id="b" cx="63" cy="63" r="63"/>
        <filter id="a" width="155.6%" height="155.6%" x="-27.8%" y="-19.8%" filterUnits="objectBoundingBox">
            <feOffset dy="10" in="SourceAlpha" result="shadowOffsetOuter1"/>
            <feGaussianBlur in="shadowOffsetOuter1" result="shadowBlurOuter1" stdDeviation="10"/>
            <feColorMatrix in="shadowBlurOuter1" values="0 0 0 0 0 0 0 0 0 0 0 0 0 0 0 0 0 0 0.245131341 0"/>
        </filter>
    </defs>
    <g fill="none" fill-rule="evenodd">
        <g fill="#000" transform="translate(20 10)">
            <use filter="url(#a)" xlink:href="#b"/>
            <use xlink:href="#b"/>
        </g>
        <path fill="#FFF" d="M48.52 68h-2.224V56.656h7.168v2.096h-4.96v2.8h4.416v2.032h-4.4V68zm11.136 0a4.496 4.496 0 0 1-.064-.848 1.883 1.883 0 0 1-.904.792c-.4.176-.824.264-1.272.264-.928 0-1.659-.296-2.192-.888-.533-.592-.8-1.33-.8-2.216v-4.976h2.128v4.544c0 .47.123.85.368 1.144.245.293.603.44 1.072.44.459 0 .821-.141 1.088-.424.267-.283.4-.659.4-1.128v-4.576h2.128v6.448c0 .501.027.976.08 1.424h-2.032zm6.352-4.528V68H63.88v-7.872h2.064v.976c.224-.384.544-.677.96-.88a2.959 2.959 0 0 1 1.312-.304c.928 0 1.635.29 2.12.872.485.581.728 1.33.728 2.248V68h-2.128v-4.592c0-.47-.12-.848-.36-1.136-.24-.288-.605-.432-1.096-.432-.448 0-.805.155-1.072.464-.267.31-.4.699-.4 1.168zm10.752-1.616c-.565 0-1.04.197-1.424.592-.384.395-.576.933-.576 1.616s.195 1.224.584 1.624c.39.4.867.6 1.432.6.501 0 .901-.13 1.2-.392a1.96 1.96 0 0 0 .608-.936l1.872.624c-.192.725-.608 1.35-1.248 1.872-.64.523-1.45.784-2.432.784-1.173 0-2.157-.397-2.952-1.192-.795-.795-1.192-1.79-1.192-2.984 0-1.205.392-2.203 1.176-2.992.784-.79 1.752-1.184 2.904-1.184 1.003 0 1.824.259 2.464.776.64.517 1.05 1.144 1.232 1.88l-1.904.64c-.256-.885-.837-1.328-1.744-1.328zm7.888-4.08v2.352h1.584v1.888h-1.584v3.296c0 .33.075.565.224.704.15.139.384.208.704.208.288 0 .507-.021.656-.064v1.76c-.31.128-.71.192-1.2.192-.768 0-1.376-.216-1.824-.648-.448-.432-.672-1.027-.672-1.784v-3.664h-1.424v-1.888h.4c.395 0 .696-.115.904-.344.208-.23.312-.53.312-.904v-1.104h1.92zM90.168 68H88.04v-7.872h2.128V68zm-2.384-10.448c0-.363.128-.675.384-.936s.565-.392.928-.392c.363 0 .672.128.928.384s.384.57.384.944c0 .352-.128.656-.384.912a1.264 1.264 0 0 1-.928.384c-.363 0-.672-.128-.928-.384a1.246 1.246 0 0 1-.384-.912zm8.192 8.752c.555 0 1.027-.197 1.416-.592.39-.395.584-.944.584-1.648s-.195-1.253-.584-1.648a1.915 1.915 0 0 0-1.416-.592c-.555 0-1.027.197-1.416.592-.39.395-.584.944-.584 1.648s.195 1.253.584 1.648c.39.395.861.592 1.416.592zm0-6.416c1.184 0 2.168.395 2.952 1.184.784.79 1.176 1.787 1.176 2.992s-.392 2.203-1.176 2.992c-.784.79-1.768 1.184-2.952 1.184s-2.168-.395-2.952-1.184c-.784-.79-1.176-1.787-1.176-2.992s.392-2.203 1.176-2.992c.784-.79 1.768-1.184 2.952-1.184zm7.936 3.584V68h-2.128v-7.872h2.064v.976c.224-.384.544-.677.96-.88a2.959 2.959 0 0 1 1.312-.304c.928 0 1.635.29 2.12.872.485.581.728 1.33.728 2.248V68h-2.128v-4.592c0-.47-.12-.848-.36-1.136-.24-.288-.605-.432-1.096-.432-.448 0-.805.155-1.072.464-.267.31-.4.699-.4 1.168zm6.736 2.384c0-.672.219-1.21.656-1.616.437-.405 1.003-.661 1.696-.768l1.936-.288c.395-.053.592-.24.592-.56a.917.917 0 0 0-.344-.736c-.23-.192-.557-.288-.984-.288-.448 0-.803.123-1.064.368s-.408.55-.44.912l-1.888-.4c.075-.683.41-1.285 1.008-1.808.597-.523 1.387-.784 2.368-.784 1.173 0 2.037.28 2.592.84.555.56.832 1.277.832 2.152v3.872c0 .47.032.885.096 1.248h-1.952a4.434 4.434 0 0 1-.08-.944c-.501.779-1.275 1.168-2.32 1.168-.81 0-1.464-.235-1.96-.704-.496-.47-.744-1.024-.744-1.664zm3.152.784c.501 0 .915-.141 1.24-.424.325-.283.488-.75.488-1.4v-.352l-1.776.272c-.65.096-.976.427-.976.992 0 .256.09.472.272.648.181.176.432.264.752.264zm8.08 1.36h-2.128V56.416h2.128V68zM53.4 88h-7.104V76.656H53.4v2.08h-4.896v2.592h4.432v1.968h-4.432v2.624H53.4V88zm4.176 0h-2.128V76.416h2.128V88zm3.824-4.832h3.52a1.634 1.634 0 0 0-.472-1.104c-.293-.299-.723-.448-1.288-.448-.512 0-.928.16-1.248.48-.32.32-.49.677-.512 1.072zm3.728 2.048l1.776.528a3.394 3.394 0 0 1-1.256 1.792c-.624.47-1.4.704-2.328.704-1.13 0-2.09-.381-2.88-1.144-.79-.763-1.184-1.784-1.184-3.064 0-1.216.384-2.21 1.152-2.984.768-.773 1.675-1.16 2.72-1.16 1.216 0 2.168.363 2.856 1.088.688.725 1.032 1.723 1.032 2.992 0 .085-.003.181-.008.288a5.384 5.384 0 0 0-.008.256l-.016.112h-5.632c.021.512.224.939.608 1.28.384.341.843.512 1.376.512.907 0 1.504-.4 1.792-1.2zM70.824 88h-2.128v-7.872h2.032v.96c.203-.363.523-.65.96-.864.437-.213.885-.32 1.344-.32 1.141 0 1.92.437 2.336 1.312.565-.875 1.397-1.312 2.496-1.312.8 0 1.475.25 2.024.752.55.501.824 1.248.824 2.24V88h-2.064v-4.672c0-.448-.115-.808-.344-1.08-.23-.272-.579-.408-1.048-.408-.437 0-.79.15-1.056.448-.267.299-.4.667-.4 1.104V88h-2.112v-4.672c0-.448-.117-.808-.352-1.08s-.581-.408-1.04-.408c-.448 0-.805.147-1.072.44-.267.293-.4.664-.4 1.112V88zm13.6-4.832h3.52a1.634 1.634 0 0 0-.472-1.104c-.293-.299-.723-.448-1.288-.448-.512 0-.928.16-1.248.48-.32.32-.49.677-.512 1.072zm3.728 2.048l1.776.528a3.394 3.394 0 0 1-1.256 1.792c-.624.47-1.4.704-2.328.704-1.13 0-2.09-.381-2.88-1.144-.79-.763-1.184-1.784-1.184-3.064 0-1.216.384-2.21 1.152-2.984.768-.773 1.675-1.16 2.72-1.16 1.216 0 2.168.363 2.856 1.088.688.725 1.032 1.723 1.032 2.992 0 .085-.003.181-.008.288a5.384 5.384 0 0 0-.008.256l-.016.112h-5.632c.021.512.224.939.608 1.28.384.341.843.512 1.376.512.907 0 1.504-.4 1.792-1.2zm5.696-1.744V88H91.72v-7.872h2.064v.976c.224-.384.544-.677.96-.88a2.959 2.959 0 0 1 1.312-.304c.928 0 1.635.29 2.12.872.485.581.728 1.33.728 2.248V88h-2.128v-4.592c0-.47-.12-.848-.36-1.136-.24-.288-.605-.432-1.096-.432-.448 0-.805.155-1.072.464-.267.31-.4.699-.4 1.168zm9.84-5.696v2.352h1.584v1.888h-1.584v3.296c0 .33.075.565.224.704.15.139.384.208.704.208.288 0 .507-.021.656-.064v1.76c-.31.128-.71.192-1.2.192-.768 0-1.376-.216-1.824-.648-.448-.432-.672-1.027-.672-1.784v-3.664h-1.424v-1.888h.4c.395 0 .696-.115.904-.344.208-.23.312-.53.312-.904v-1.104h1.92zm2.896 8.032l1.824-.4c.021.341.157.627.408.856.25.23.595.344 1.032.344.33 0 .587-.075.768-.224a.697.697 0 0 0 .272-.56c0-.395-.283-.65-.848-.768l-1.04-.24c-.736-.16-1.288-.448-1.656-.864a2.17 2.17 0 0 1-.552-1.488c0-.715.28-1.323.84-1.824.56-.501 1.261-.752 2.104-.752.533 0 1.003.077 1.408.232.405.155.72.352.944.592.224.24.395.483.512.728.117.245.192.485.224.72l-1.776.4a1.324 1.324 0 0 0-.376-.736c-.208-.213-.515-.32-.92-.32-.277 0-.515.075-.712.224-.197.15-.296.336-.296.56 0 .384.24.619.72.704l1.12.24c.757.16 1.336.453 1.736.88.4.427.6.939.6 1.536 0 .704-.267 1.312-.8 1.824s-1.285.768-2.256.768c-.555 0-1.05-.083-1.488-.248-.437-.165-.776-.379-1.016-.64a3.158 3.158 0 0 1-.544-.784 2.577 2.577 0 0 1-.232-.76z"/>
    </g>
</svg>
