<svg xmlns="http://www.w3.org/2000/svg" xmlns:xlink="http://www.w3.org/1999/xlink" width="174" height="174" viewBox="0 0 174 174">
    <defs>
        <circle id="b" cx="67" cy="67" r="67"/>
        <filter id="a" width="152.2%" height="152.2%" x="-26.1%" y="-18.7%" filterUnits="objectBoundingBox">
            <feOffset dy="10" in="SourceAlpha" result="shadowOffsetOuter1"/>
            <feGaussianBlur in="shadowOffsetOuter1" result="shadowBlurOuter1" stdDeviation="10"/>
            <feColorMatrix in="shadowBlurOuter1" values="0 0 0 0 0 0 0 0 0 0 0 0 0 0 0 0 0 0 0.245131341 0"/>
        </filter>
    </defs>
    <g fill="none" fill-rule="evenodd">
        <g fill="#000" transform="translate(20 10)">
            <use filter="url(#a)" xlink:href="#b"/>
            <use xlink:href="#b"/>
        </g>
        <path fill="#FFF" d="M64.208 75h-1.904v-6.958L59.448 75h-1.61l-2.856-6.902V75h-1.848v-9.926h2.548l2.982 7.168 2.912-7.168h2.632V75zm1.68-1.876c0-.588.191-1.06.574-1.414.383-.355.877-.579 1.484-.672l1.694-.252c.345-.047.518-.21.518-.49 0-.261-.1-.476-.301-.644-.2-.168-.488-.252-.861-.252-.392 0-.702.107-.931.322-.229.215-.357.48-.385.798l-1.652-.35c.065-.597.36-1.125.882-1.582.523-.457 1.213-.686 2.072-.686 1.027 0 1.783.245 2.268.735.485.49.728 1.118.728 1.883v3.388c0 .41.028.775.084 1.092h-1.708a3.88 3.88 0 0 1-.07-.826c-.439.681-1.115 1.022-2.03 1.022-.71 0-1.281-.205-1.715-.616-.434-.41-.651-.896-.651-1.456zm2.758.686c.439 0 .8-.124 1.085-.371.285-.247.427-.656.427-1.225v-.308l-1.554.238c-.57.084-.854.373-.854.868 0 .224.08.413.238.567.159.154.378.231.658.231zm9.408-5.726v1.876a2.849 2.849 0 0 0-.56-.056c-.532 0-.961.152-1.288.455-.327.303-.49.8-.49 1.491V75h-1.862v-6.888h1.806v1.022c.336-.719.99-1.078 1.96-1.078.103 0 .247.01.434.028zm7.994.028L83.29 71.01 86.104 75h-2.282l-1.82-2.632-.77.812V75H79.37V64.864h1.862v5.81l2.38-2.562h2.436zm2.198 2.66h3.08a1.43 1.43 0 0 0-.413-.966c-.257-.261-.632-.392-1.127-.392-.448 0-.812.14-1.092.42-.28.28-.43.593-.448.938zm3.262 1.792l1.554.462a2.97 2.97 0 0 1-1.099 1.568c-.546.41-1.225.616-2.037.616-.99 0-1.83-.334-2.52-1.001-.69-.667-1.036-1.561-1.036-2.681 0-1.064.336-1.934 1.008-2.611.672-.677 1.465-1.015 2.38-1.015 1.064 0 1.897.317 2.499.952.602.635.903 1.507.903 2.618 0 .075-.002.159-.007.252a4.711 4.711 0 0 0-.007.224l-.014.098h-4.928c.019.448.196.821.532 1.12.336.299.737.448 1.204.448.793 0 1.316-.35 1.568-1.05zm5.418-6.51v2.058h1.386v1.652h-1.386v2.884c0 .29.065.495.196.616.13.121.336.182.616.182.252 0 .443-.019.574-.056v1.54c-.27.112-.62.168-1.05.168-.672 0-1.204-.189-1.596-.567-.392-.378-.588-.898-.588-1.561v-3.206h-1.246v-1.652h.35c.345 0 .609-.1.791-.301.182-.2.273-.464.273-.791v-.966h1.68zm4.83 8.946h-1.862v-6.888h1.862V75zm-2.086-9.142c0-.317.112-.59.336-.819.224-.229.495-.343.812-.343.317 0 .588.112.812.336.224.224.336.5.336.826 0 .308-.112.574-.336.798a1.106 1.106 0 0 1-.812.336c-.317 0-.588-.112-.812-.336a1.09 1.09 0 0 1-.336-.798zm5.936 5.18V75h-1.862v-6.888h1.806v.854a1.92 1.92 0 0 1 .84-.77 2.589 2.589 0 0 1 1.148-.266c.812 0 1.43.254 1.855.763.425.509.637 1.164.637 1.967V75h-1.862v-4.018c0-.41-.105-.742-.315-.994-.21-.252-.53-.378-.959-.378-.392 0-.705.135-.938.406-.233.27-.35.611-.35 1.022zm5.824 4.34l1.68-.448c.065.383.243.695.532.938.29.243.649.364 1.078.364 1.223 0 1.834-.64 1.834-1.918v-.504c-.159.252-.401.462-.728.63-.327.168-.723.252-1.19.252-.915 0-1.678-.317-2.289-.952-.611-.635-.917-1.433-.917-2.394 0-.933.303-1.727.91-2.38.607-.653 1.372-.98 2.296-.98.504 0 .924.091 1.26.273.336.182.57.404.7.665v-.812h1.792v6.146c0 1.036-.299 1.897-.896 2.583-.597.686-1.503 1.029-2.716 1.029-.905 0-1.664-.243-2.275-.728s-.968-1.073-1.071-1.764zm3.528-2.282c.476 0 .866-.159 1.169-.476.303-.317.455-.742.455-1.274 0-.523-.156-.943-.469-1.26a1.558 1.558 0 0 0-1.155-.476c-.476 0-.87.159-1.183.476-.313.317-.469.737-.469 1.26 0 .532.154.957.462 1.274.308.317.705.476 1.19.476zM57.628 93.21c-1.428 0-2.632-.476-3.612-1.428s-1.47-2.198-1.47-3.738c0-1.53.497-2.777 1.491-3.738.994-.961 2.182-1.442 3.563-1.442 1.27 0 2.289.322 3.059.966.77.644 1.267 1.419 1.491 2.324l-1.82.574a2.71 2.71 0 0 0-.882-1.421c-.448-.387-1.064-.581-1.848-.581-.812 0-1.524.29-2.135.868-.611.579-.917 1.395-.917 2.45 0 1.008.301 1.806.903 2.394a3.003 3.003 0 0 0 2.177.882c.775 0 1.393-.2 1.855-.602.462-.401.772-.877.931-1.428l1.806.546a4.427 4.427 0 0 1-.497 1.176 4.875 4.875 0 0 1-.889 1.078c-.364.336-.824.607-1.379.812a5.23 5.23 0 0 1-1.827.308zm7.784-4.256V93H63.55V82.864h1.862v3.822c.42-.504 1.04-.756 1.862-.756.84 0 1.477.254 1.911.763.434.509.651 1.164.651 1.967V93h-1.862v-4.018c0-.41-.105-.742-.315-.994-.21-.252-.53-.378-.959-.378-.383 0-.688.126-.917.378-.229.252-.352.574-.371.966zm5.894 2.17c0-.588.191-1.06.574-1.414.383-.355.877-.579 1.484-.672l1.694-.252c.345-.047.518-.21.518-.49 0-.261-.1-.476-.301-.644-.2-.168-.488-.252-.861-.252-.392 0-.702.107-.931.322-.229.215-.357.48-.385.798l-1.652-.35c.065-.597.36-1.125.882-1.582.523-.457 1.213-.686 2.072-.686 1.027 0 1.783.245 2.268.735.485.49.728 1.118.728 1.883v3.388c0 .41.028.775.084 1.092h-1.708a3.88 3.88 0 0 1-.07-.826c-.439.681-1.115 1.022-2.03 1.022-.71 0-1.281-.205-1.715-.616-.434-.41-.651-.896-.651-1.456zm2.758.686c.439 0 .8-.124 1.085-.371.285-.247.427-.656.427-1.225v-.308l-1.554.238c-.57.084-.854.373-.854.868 0 .224.08.413.238.567.159.154.378.231.658.231zm7.07-2.772V93h-1.862v-6.888h1.806v.854a1.92 1.92 0 0 1 .84-.77 2.589 2.589 0 0 1 1.148-.266c.812 0 1.43.254 1.855.763.425.509.637 1.164.637 1.967V93h-1.862v-4.018c0-.41-.105-.742-.315-.994-.21-.252-.53-.378-.959-.378-.392 0-.705.135-.938.406-.233.27-.35.611-.35 1.022zm8.176 0V93h-1.862v-6.888h1.806v.854a1.92 1.92 0 0 1 .84-.77 2.589 2.589 0 0 1 1.148-.266c.812 0 1.43.254 1.855.763.425.509.637 1.164.637 1.967V93h-1.862v-4.018c0-.41-.105-.742-.315-.994-.21-.252-.53-.378-.959-.378-.392 0-.705.135-.938.406-.233.27-.35.611-.35 1.022zm7.672-.266h3.08a1.43 1.43 0 0 0-.413-.966c-.257-.261-.632-.392-1.127-.392-.448 0-.812.14-1.092.42-.28.28-.43.593-.448.938zm3.262 1.792l1.554.462a2.97 2.97 0 0 1-1.099 1.568c-.546.41-1.225.616-2.037.616-.99 0-1.83-.334-2.52-1.001-.69-.667-1.036-1.561-1.036-2.681 0-1.064.336-1.934 1.008-2.611.672-.677 1.465-1.015 2.38-1.015 1.064 0 1.897.317 2.499.952.602.635.903 1.507.903 2.618 0 .075-.002.159-.007.252a4.711 4.711 0 0 0-.007.224l-.014.098H96.94c.019.448.196.821.532 1.12.336.299.737.448 1.204.448.793 0 1.316-.35 1.568-1.05zM105.228 93h-1.862V82.864h1.862V93zm1.4-1.918l1.596-.35c.019.299.138.548.357.749.22.2.52.301.903.301.29 0 .513-.065.672-.196a.61.61 0 0 0 .238-.49c0-.345-.247-.57-.742-.672l-.91-.21c-.644-.14-1.127-.392-1.449-.756a1.9 1.9 0 0 1-.483-1.302c0-.625.245-1.157.735-1.596.49-.439 1.104-.658 1.841-.658.467 0 .877.068 1.232.203s.63.308.826.518c.196.21.345.422.448.637.103.215.168.425.196.63l-1.554.35a1.158 1.158 0 0 0-.329-.644c-.182-.187-.45-.28-.805-.28-.243 0-.45.065-.623.196a.593.593 0 0 0-.259.49c0 .336.21.541.63.616l.98.21c.663.14 1.169.397 1.519.77.35.373.525.821.525 1.344 0 .616-.233 1.148-.7 1.596-.467.448-1.125.672-1.974.672-.485 0-.92-.072-1.302-.217-.383-.145-.679-.331-.889-.56a2.763 2.763 0 0 1-.476-.686 2.255 2.255 0 0 1-.203-.665z"/>
    </g>
</svg>
