<svg xmlns="http://www.w3.org/2000/svg" xmlns:xlink="http://www.w3.org/1999/xlink" width="221" height="224" viewBox="0 0 221 224">
    <defs>
        <ellipse id="b" cx="90.5" cy="92" rx="90.5" ry="92"/>
        <filter id="a" width="138.7%" height="138%" x="-19.3%" y="-13.6%" filterUnits="objectBoundingBox">
            <feOffset dy="10" in="SourceAlpha" result="shadowOffsetOuter1"/>
            <feGaussianBlur in="shadowOffsetOuter1" result="shadowBlurOuter1" stdDeviation="10"/>
            <feColorMatrix in="shadowBlurOuter1" values="0 0 0 0 0 0 0 0 0 0 0 0 0 0 0 0 0 0 0.245131341 0"/>
        </filter>
    </defs>
    <g fill="none" fill-rule="evenodd">
        <g fill="#000" transform="translate(20 10)">
            <use filter="url(#a)" xlink:href="#b"/>
            <use xlink:href="#b"/>
        </g>
        <path fill="#FFF" d="M63.62 83.82h5.1c1.347 0 2.403.353 3.17 1.06.767.707 1.15 1.627 1.15 2.76 0 .72-.193 1.357-.58 1.91-.387.553-.88.93-1.48 1.13.72.173 1.317.563 1.79 1.17.473.607.71 1.337.71 2.19 0 1.16-.4 2.11-1.2 2.85-.8.74-1.86 1.11-3.18 1.11h-5.48V83.82zm2.72 5.86h1.96c.627 0 1.12-.16 1.48-.48.36-.32.54-.753.54-1.3s-.177-.977-.53-1.29c-.353-.313-.857-.47-1.51-.47h-1.94v3.54zm0 6.02h2.24c.667 0 1.19-.163 1.57-.49.38-.327.57-.777.57-1.35 0-.573-.183-1.033-.55-1.38-.367-.347-.883-.52-1.55-.52h-2.28v3.74zM81.9 98a5.62 5.62 0 0 1-.08-1.06c-.253.44-.63.77-1.13.99-.5.22-1.03.33-1.59.33-1.16 0-2.073-.37-2.74-1.11-.667-.74-1-1.663-1-2.77v-6.22h2.66v5.68c0 .587.153 1.063.46 1.43.307.367.753.55 1.34.55.573 0 1.027-.177 1.36-.53.333-.353.5-.823.5-1.41v-5.72h2.66v8.06c0 .627.033 1.22.1 1.78H81.9zm4.44-2.74l2.28-.5c.027.427.197.783.51 1.07.313.287.743.43 1.29.43.413 0 .733-.093.96-.28a.87.87 0 0 0 .34-.7c0-.493-.353-.813-1.06-.96l-1.3-.3c-.92-.2-1.61-.56-2.07-1.08-.46-.52-.69-1.14-.69-1.86 0-.893.35-1.653 1.05-2.28.7-.627 1.577-.94 2.63-.94.667 0 1.253.097 1.76.29.507.193.9.44 1.18.74.28.3.493.603.64.91.147.307.24.607.28.9l-2.22.5a1.655 1.655 0 0 0-.47-.92c-.26-.267-.643-.4-1.15-.4-.347 0-.643.093-.89.28-.247.187-.37.42-.37.7 0 .48.3.773.9.88l1.4.3c.947.2 1.67.567 2.17 1.1.5.533.75 1.173.75 1.92 0 .88-.333 1.64-1 2.28-.667.64-1.607.96-2.82.96-.693 0-1.313-.103-1.86-.31-.547-.207-.97-.473-1.27-.8a3.948 3.948 0 0 1-.68-.98 3.221 3.221 0 0 1-.29-.95zM99.06 98H96.4v-9.84h2.66V98zm-2.98-13.06c0-.453.16-.843.48-1.17.32-.327.707-.49 1.16-.49.453 0 .84.16 1.16.48.32.32.48.713.48 1.18 0 .44-.16.82-.48 1.14-.32.32-.707.48-1.16.48-.453 0-.84-.16-1.16-.48-.32-.32-.48-.7-.48-1.14zm8.48 7.4V98h-2.66v-9.84h2.58v1.22c.28-.48.68-.847 1.2-1.1a3.698 3.698 0 0 1 1.64-.38c1.16 0 2.043.363 2.65 1.09.607.727.91 1.663.91 2.81V98h-2.66v-5.74c0-.587-.15-1.06-.45-1.42-.3-.36-.757-.54-1.37-.54-.56 0-1.007.193-1.34.58-.333.387-.5.873-.5 1.46zm10.96-.38h4.4a2.043 2.043 0 0 0-.59-1.38c-.367-.373-.903-.56-1.61-.56-.64 0-1.16.2-1.56.6-.4.4-.613.847-.64 1.34zm4.66 2.56l2.22.66c-.267.907-.79 1.653-1.57 2.24-.78.587-1.75.88-2.91.88-1.413 0-2.613-.477-3.6-1.43-.987-.953-1.48-2.23-1.48-3.83 0-1.52.48-2.763 1.44-3.73.96-.967 2.093-1.45 3.4-1.45 1.52 0 2.71.453 3.57 1.36.86.907 1.29 2.153 1.29 3.74 0 .107-.003.227-.01.36a6.73 6.73 0 0 0-.01.32l-.02.14h-7.04c.027.64.28 1.173.76 1.6.48.427 1.053.64 1.72.64 1.133 0 1.88-.5 2.24-1.5zm3.62.74l2.28-.5c.027.427.197.783.51 1.07.313.287.743.43 1.29.43.413 0 .733-.093.96-.28a.87.87 0 0 0 .34-.7c0-.493-.353-.813-1.06-.96l-1.3-.3c-.92-.2-1.61-.56-2.07-1.08-.46-.52-.69-1.14-.69-1.86 0-.893.35-1.653 1.05-2.28.7-.627 1.577-.94 2.63-.94.667 0 1.253.097 1.76.29.507.193.9.44 1.18.74.28.3.493.603.64.91.147.307.24.607.28.9l-2.22.5a1.655 1.655 0 0 0-.47-.92c-.26-.267-.643-.4-1.15-.4-.347 0-.643.093-.89.28-.247.187-.37.42-.37.7 0 .48.3.773.9.88l1.4.3c.947.2 1.67.567 2.17 1.1.5.533.75 1.173.75 1.92 0 .88-.333 1.64-1 2.28-.667.64-1.607.96-2.82.96-.693 0-1.313-.103-1.86-.31-.547-.207-.97-.473-1.27-.8a3.948 3.948 0 0 1-.68-.98 3.221 3.221 0 0 1-.29-.95zm9.22 0l2.28-.5c.027.427.197.783.51 1.07.313.287.743.43 1.29.43.413 0 .733-.093.96-.28a.87.87 0 0 0 .34-.7c0-.493-.353-.813-1.06-.96l-1.3-.3c-.92-.2-1.61-.56-2.07-1.08-.46-.52-.69-1.14-.69-1.86 0-.893.35-1.653 1.05-2.28.7-.627 1.577-.94 2.63-.94.667 0 1.253.097 1.76.29.507.193.9.44 1.18.74.28.3.493.603.64.91.147.307.24.607.28.9l-2.22.5a1.655 1.655 0 0 0-.47-.92c-.26-.267-.643-.4-1.15-.4-.347 0-.643.093-.89.28-.247.187-.37.42-.37.7 0 .48.3.773.9.88l1.4.3c.947.2 1.67.567 2.17 1.1.5.533.75 1.173.75 1.92 0 .88-.333 1.64-1 2.28-.667.64-1.607.96-2.82.96-.693 0-1.313-.103-1.86-.31-.547-.207-.97-.473-1.27-.8a3.948 3.948 0 0 1-.68-.98 3.221 3.221 0 0 1-.29-.95zM79.44 123h-2.72v-9.94L72.64 123h-2.3l-4.08-9.86V123h-2.64v-14.18h3.64l4.26 10.24 4.16-10.24h3.76V123zm7.4-2.12c.693 0 1.283-.247 1.77-.74.487-.493.73-1.18.73-2.06 0-.88-.243-1.567-.73-2.06a2.394 2.394 0 0 0-1.77-.74c-.693 0-1.283.247-1.77.74-.487.493-.73 1.18-.73 2.06 0 .88.243 1.567.73 2.06.487.493 1.077.74 1.77.74zm0-8.02c1.48 0 2.71.493 3.69 1.48s1.47 2.233 1.47 3.74c0 1.507-.49 2.753-1.47 3.74-.98.987-2.21 1.48-3.69 1.48s-2.71-.493-3.69-1.48-1.47-2.233-1.47-3.74c0-1.507.49-2.753 1.47-3.74.98-.987 2.21-1.48 3.69-1.48zm16.64-4.34v12.7c0 .653.027 1.247.08 1.78h-2.54a5.85 5.85 0 0 1-.1-1.14c-.227.413-.583.747-1.07 1-.487.253-1.05.38-1.69.38-1.4 0-2.55-.49-3.45-1.47-.9-.98-1.35-2.217-1.35-3.71 0-1.453.443-2.673 1.33-3.66.887-.987 2.017-1.48 3.39-1.48 1.413 0 2.34.407 2.78 1.22v-5.62h2.62zm-7.44 9.54c0 .867.227 1.55.68 2.05.453.5 1.04.75 1.76.75.707 0 1.287-.253 1.74-.76.453-.507.68-1.193.68-2.06 0-.853-.227-1.523-.68-2.01-.453-.487-1.033-.73-1.74-.73-.707 0-1.29.247-1.75.74-.46.493-.69 1.167-.69 2.02zm12.26-1.1h4.4a2.043 2.043 0 0 0-.59-1.38c-.367-.373-.903-.56-1.61-.56-.64 0-1.16.2-1.56.6-.4.4-.613.847-.64 1.34zm4.66 2.56l2.22.66c-.267.907-.79 1.653-1.57 2.24-.78.587-1.75.88-2.91.88-1.413 0-2.613-.477-3.6-1.43-.987-.953-1.48-2.23-1.48-3.83 0-1.52.48-2.763 1.44-3.73.96-.967 2.093-1.45 3.4-1.45 1.52 0 2.71.453 3.57 1.36.86.907 1.29 2.153 1.29 3.74 0 .107-.003.227-.01.36a6.73 6.73 0 0 0-.01.32l-.02.14h-7.04c.027.64.28 1.173.76 1.6.48.427 1.053.64 1.72.64 1.133 0 1.88-.5 2.24-1.5zm7.12 3.48h-2.66v-14.48h2.66V123z"/>
    </g>
</svg>
