<svg xmlns="http://www.w3.org/2000/svg" width="76" height="33" viewBox="0 0 76 33">
    <g fill="none" fill-rule="evenodd">
        <path fill="#000" d="M.44.656h3.696c1.056 0 1.89.283 2.504.848.613.565.92 1.307.92 2.224 0 .587-.155 1.093-.464 1.52-.31.427-.72.736-1.232.928.63.16 1.128.493 1.496 1 .368.507.552 1.085.552 1.736 0 .896-.325 1.635-.976 2.216-.65.581-1.493.872-2.528.872H.44V.656zm1.568 4.96H3.96c.619 0 1.11-.168 1.472-.504.363-.336.544-.77.544-1.304 0-.544-.187-.976-.56-1.296-.373-.32-.88-.48-1.52-.48H2.008v3.584zm0 5.008h2.176c.64 0 1.155-.165 1.544-.496.39-.33.584-.768.584-1.312 0-.565-.176-1.016-.528-1.352-.352-.336-.864-.504-1.536-.504h-2.24v3.664zm16.096-6.4v1.6a4.636 4.636 0 0 0-.656-.048c-1.408 0-2.112.79-2.112 2.368V12h-1.504V4.304h1.472v1.344c.47-.981 1.237-1.472 2.304-1.472.17 0 .336.016.496.048zM25.192 12h-1.488V4.304h1.488V12zM23.368 1.392c0-.299.104-.555.312-.768.208-.213.461-.32.76-.32s.555.104.768.312c.213.208.32.467.32.776 0 .299-.107.552-.32.76-.213.208-.47.312-.768.312-.299 0-.552-.104-.76-.312a1.034 1.034 0 0 1-.312-.76zm9.28 6.736c0 .81.2 1.472.6 1.984.4.512.952.768 1.656.768.672 0 1.21-.261 1.616-.784.405-.523.608-1.19.608-2 0-.8-.197-1.445-.592-1.936-.395-.49-.933-.736-1.616-.736s-1.232.25-1.648.752c-.416.501-.624 1.152-.624 1.952zm4.496 2.832v-.128c-.203.395-.51.723-.92.984-.41.261-.899.392-1.464.392-1.099 0-1.981-.387-2.648-1.16-.667-.773-1-1.747-1-2.92 0-1.12.341-2.072 1.024-2.856.683-.784 1.557-1.176 2.624-1.176.63 0 1.141.125 1.536.376.395.25.667.557.816.92V.416H38.6v10.16c0 .523.027.997.08 1.424h-1.456a5.976 5.976 0 0 1-.08-1.04zm7.456 1.456l1.456-.336c.053.544.272.995.656 1.352.384.357.864.536 1.44.536 1.568 0 2.352-.832 2.352-2.496v-1.104c-.192.373-.493.677-.904.912-.41.235-.893.352-1.448.352-1.024 0-1.87-.35-2.536-1.048-.667-.699-1-1.592-1-2.68 0-1.056.33-1.944.992-2.664.661-.72 1.51-1.08 2.544-1.08 1.173 0 1.963.405 2.368 1.216V4.304h1.488v7.12c0 .512-.067.99-.2 1.432a3.77 3.77 0 0 1-.632 1.224c-.288.373-.69.667-1.208.88-.517.213-1.123.32-1.816.32-.95 0-1.755-.27-2.416-.808-.661-.539-1.04-1.224-1.136-2.056zm3.776-2.048c.65 0 1.179-.227 1.584-.68.405-.453.608-1.048.608-1.784s-.203-1.33-.608-1.784c-.405-.453-.933-.68-1.584-.68-.661 0-1.197.224-1.608.672-.41.448-.616 1.045-.616 1.792 0 .757.2 1.357.6 1.8.4.443.941.664 1.624.664zM59.384 7.36h4.208c-.021-.576-.213-1.048-.576-1.416-.363-.368-.875-.552-1.536-.552-.597 0-1.088.195-1.472.584-.384.39-.592.85-.624 1.384zm4.432 2l1.296.448a3.408 3.408 0 0 1-1.248 1.752c-.608.453-1.344.68-2.208.68-1.077 0-1.992-.37-2.744-1.112-.752-.741-1.128-1.741-1.128-3 0-1.173.363-2.144 1.088-2.912.725-.768 1.59-1.152 2.592-1.152 1.163 0 2.07.365 2.72 1.096.65.73.976 1.71.976 2.936 0 .192-.01.352-.032.48h-5.792c.01.683.237 1.243.68 1.68.443.437.99.656 1.64.656 1.099 0 1.819-.517 2.16-1.552zm11.536-5.136v1.6a4.636 4.636 0 0 0-.656-.048c-1.408 0-2.112.79-2.112 2.368V12H71.08V4.304h1.472v1.344c.47-.981 1.237-1.472 2.304-1.472.17 0 .336.016.496.048z"/>
        <path stroke="#FC0" stroke-linecap="square" stroke-width="2" d="M1.5 31.5h47"/>
    </g>
</svg>
