<?xml version="1.0" encoding="UTF-8"?>
<svg width="257px" height="33px" viewBox="0 0 257 33" version="1.1" xmlns="http://www.w3.org/2000/svg" xmlns:xlink="http://www.w3.org/1999/xlink">
    <!-- Generator: Sketch 51.3 (57544) - http://www.bohemiancoding.com/sketch -->
    <title>citi-title</title>
    <desc>Created with Sketch.</desc>
    <defs></defs>
    <g id="Home" stroke="none" stroke-width="1" fill="none" fill-rule="evenodd">
        <g id="portfolio-name" transform="translate(-39.000000, -197.000000)">
            <g id="Group-3" transform="translate(39.000000, 193.000000)">
                <path d="M6.352,16.24 C4.8053256,16.24 3.48000552,15.706672 2.376,14.64 C1.27199448,13.573328 0.72,12.1333424 0.72,10.32 C0.72,9.10399392 0.99733056,8.03733792 1.552,7.12 C2.10666944,6.20266208 2.80532912,5.52266888 3.648,5.08 C4.49067088,4.63733112 5.3919952,4.416 6.352,4.416 C7.6320064,4.416 8.7119956,4.73866344 9.592,5.384 C10.4720044,6.02933656 11.0559986,6.90666112 11.344,8.016 L9.888,8.528 C9.6746656,7.6746624 9.26400304,7.01600232 8.656,6.552 C8.04799696,6.08799768 7.28000464,5.856 6.352,5.856 C5.24266112,5.856 4.29333728,6.24799608 3.504,7.032 C2.71466272,7.81600392 2.32,8.91199296 2.32,10.32 C2.32,11.728007 2.71466272,12.8266627 3.504,13.616 C4.29333728,14.4053373 5.24266112,14.8 6.352,14.8 C7.28000464,14.8 8.05333024,14.5520025 8.672,14.056 C9.29066976,13.5599975 9.72266544,12.9013374 9.968,12.08 L11.36,12.592 C11.0506651,13.6906722 10.4560044,14.57333 9.576,15.24 C8.6959956,15.90667 7.62133968,16.24 6.352,16.24 Z M18.768,16 L17.28,16 L17.28,8.304 L18.768,8.304 L18.768,16 Z M16.944,5.392 C16.944,5.09333184 17.047999,4.8373344 17.256,4.624 C17.464001,4.4106656 17.7173318,4.304 18.016,4.304 C18.3146682,4.304 18.5706656,4.40799896 18.784,4.616 C18.9973344,4.82400104 19.104,5.08266512 19.104,5.392 C19.104,5.69066816 18.9973344,5.94399896 18.784,6.152 C18.5706656,6.36000104 18.3146682,6.464 18.016,6.464 C17.7173318,6.464 17.464001,6.36000104 17.256,6.152 C17.047999,5.94399896 16.944,5.69066816 16.944,5.392 Z M27.344,5.872 L27.344,8.304 L29.008,8.304 L29.008,9.664 L27.344,9.664 L27.344,13.664 C27.344,14.0266685 27.4266658,14.2933325 27.592,14.464 C27.7573342,14.6346675 28.0319981,14.72 28.416,14.72 C28.6400011,14.72 28.8373325,14.6986669 29.008,14.656 L29.008,15.936 C28.7519987,16.0320005 28.4106688,16.08 27.984,16.08 C27.3226634,16.08 26.8000019,15.8880019 26.416,15.504 C26.0319981,15.1199981 25.84,14.5813368 25.84,13.888 L25.84,9.664 L24.368,9.664 L24.368,8.304 L24.784,8.304 C25.1786686,8.304 25.4746657,8.19466776 25.672,7.976 C25.8693343,7.75733224 25.968,7.47200176 25.968,7.12 L25.968,5.872 L27.344,5.872 Z M36.496,16 L35.008,16 L35.008,8.304 L36.496,8.304 L36.496,16 Z M34.672,5.392 C34.672,5.09333184 34.775999,4.8373344 34.984,4.624 C35.192001,4.4106656 35.4453318,4.304 35.744,4.304 C36.0426682,4.304 36.2986656,4.40799896 36.512,4.616 C36.7253344,4.82400104 36.832,5.08266512 36.832,5.392 C36.832,5.69066816 36.7253344,5.94399896 36.512,6.152 C36.2986656,6.36000104 36.0426682,6.464 35.744,6.464 C35.4453318,6.464 35.192001,6.36000104 34.984,6.152 C34.775999,5.94399896 34.672,5.69066816 34.672,5.392 Z M44.544,16 L43.056,16 L43.056,4.416 L44.544,4.416 L44.544,9.392 C44.7466677,9.0186648 45.0693311,8.70666792 45.512,8.456 C45.9546689,8.20533208 46.479997,8.08 47.088,8.08 C48.2080056,8.08 49.0773302,8.45866288 49.696,9.216 C50.3146698,9.97333712 50.624,10.9386608 50.624,12.112 C50.624,13.2960059 50.3040032,14.2746628 49.664,15.048 C49.0239968,15.8213372 48.1493389,16.208 47.04,16.208 C45.8879942,16.208 45.0560026,15.7653378 44.544,14.88 L44.544,16 Z M49.088,12.112 C49.088,11.2799958 48.8826687,10.6213358 48.472,10.136 C48.0613313,9.65066424 47.5093368,9.408 46.816,9.408 C46.1439966,9.408 45.5946688,9.65333088 45.168,10.144 C44.7413312,10.6346691 44.528,11.2906626 44.528,12.112 C44.528,12.9333374 44.7413312,13.5973308 45.168,14.104 C45.5946688,14.6106692 46.1439966,14.864 46.816,14.864 C47.4986701,14.864 48.0479979,14.6133358 48.464,14.112 C48.8800021,13.6106642 49.088,12.9440042 49.088,12.112 Z M56.064,13.936 C56.064,13.2746634 56.2773312,12.744002 56.704,12.344 C57.1306688,11.943998 57.6959965,11.6960005 58.4,11.6 L60.48,11.296 C60.8746686,11.2426664 61.072,11.0506683 61.072,10.72 C61.072,10.3146646 60.9333347,9.98400128 60.656,9.728 C60.3786653,9.47199872 59.9626694,9.344 59.408,9.344 C58.8959974,9.344 58.4906682,9.48533192 58.192,9.768 C57.8933318,10.0506681 57.7173336,10.4266643 57.664,10.896 L56.224,10.56 C56.298667,9.82399632 56.6346637,9.22400232 57.232,8.76 C57.8293363,8.29599768 58.5439958,8.064 59.376,8.064 C60.4640054,8.064 61.2693307,8.32799736 61.792,8.856 C62.3146693,9.38400264 62.576,10.0586626 62.576,10.88 L62.576,14.736 C62.576,15.194669 62.6079997,15.6159981 62.672,16 L61.2,16 C61.1466664,15.6799984 61.12,15.3333352 61.12,14.96 C60.9066656,15.301335 60.5946687,15.5999987 60.184,15.856 C59.7733313,16.1120013 59.2586698,16.24 58.64,16.24 C57.8826629,16.24 57.2640024,16.0133356 56.784,15.56 C56.3039976,15.1066644 56.064,14.5653365 56.064,13.936 Z M58.848,14.976 C59.5200034,14.976 60.0586646,14.7946685 60.464,14.432 C60.8693354,14.0693315 61.072,13.4933373 61.072,12.704 L61.072,12.352 L58.72,12.704 C58.378665,12.7573336 58.1066677,12.879999 57.904,13.072 C57.7013323,13.264001 57.6,13.5253317 57.6,13.856 C57.6,14.1546682 57.7146655,14.4159989 57.944,14.64 C58.1733345,14.8640011 58.4746648,14.976 58.848,14.976 Z M70.416,11.552 L70.416,16 L68.912,16 L68.912,8.304 L70.384,8.304 L70.384,9.408 C70.8960026,8.52266224 71.685328,8.08 72.752,8.08 C73.6373378,8.08 74.317331,8.36266384 74.792,8.928 C75.266669,9.49333616 75.504,10.2239955 75.504,11.12 L75.504,16 L74,16 L74,11.376 C74,10.0853269 73.4026726,9.44 72.208,9.44 C71.6426638,9.44 71.2026682,9.639998 70.888,10.04 C70.5733318,10.440002 70.416,10.943997 70.416,11.552 Z M88.8,8.304 L85.52,11.552 L88.864,16 L86.976,16 L84.464,12.608 L83.392,13.68 L83.392,16 L81.904,16 L81.904,4.416 L83.392,4.416 L83.392,11.712 L86.72,8.304 L88.8,8.304 Z M109.696,7.232 L108.288,7.728 C108.213333,7.23733088 107.973335,6.792002 107.568,6.392 C107.162665,5.991998 106.60267,5.792 105.888,5.792 C105.258664,5.792 104.736002,5.97333152 104.32,6.336 C103.903998,6.69866848 103.696,7.146664 103.696,7.68 C103.696,8.09600208 103.821332,8.44799856 104.072,8.736 C104.322668,9.02400144 104.682664,9.2213328 105.152,9.328 L106.848,9.696 C107.786671,9.89866768 108.511997,10.2799972 109.024,10.84 C109.536003,11.4000028 109.792,12.079996 109.792,12.88 C109.792,13.7973379 109.429337,14.5866634 108.704,15.248 C107.978663,15.9093366 107.034672,16.24 105.872,16.24 C104.60266,16.24 103.608004,15.90667 102.888,15.24 C102.167996,14.57333 101.749334,13.7813379 101.632,12.864 L103.136,12.384 C103.2,13.0666701 103.466664,13.6426643 103.936,14.112 C104.405336,14.5813357 105.045329,14.816 105.856,14.816 C106.60267,14.816 107.178665,14.645335 107.584,14.304 C107.989335,13.962665 108.192,13.5306693 108.192,13.008 C108.192,12.5813312 108.048001,12.2106682 107.76,11.896 C107.471999,11.5813318 107.050669,11.3653339 106.496,11.248 L104.88,10.896 C104.037329,10.7146658 103.365336,10.357336 102.864,9.824 C102.362664,9.290664 102.112,8.61333744 102.112,7.792 C102.112,6.89599552 102.47733,6.10933672 103.208,5.432 C103.93867,4.75466328 104.821328,4.416 105.856,4.416 C107.018672,4.416 107.90933,4.69866384 108.528,5.264 C109.14667,5.82933616 109.535999,6.4853296 109.696,7.232 Z M117.2,16 L115.712,16 L115.712,8.304 L117.2,8.304 L117.2,16 Z M115.376,5.392 C115.376,5.09333184 115.479999,4.8373344 115.688,4.624 C115.896001,4.4106656 116.149332,4.304 116.448,4.304 C116.746668,4.304 117.002666,4.40799896 117.216,4.616 C117.429334,4.82400104 117.536,5.08266512 117.536,5.392 C117.536,5.69066816 117.429334,5.94399896 117.216,6.152 C117.002666,6.36000104 116.746668,6.464 116.448,6.464 C116.149332,6.464 115.896001,6.36000104 115.688,6.152 C115.479999,5.94399896 115.376,5.69066816 115.376,5.392 Z M125.264,11.552 L125.264,16 L123.76,16 L123.76,8.304 L125.232,8.304 L125.232,9.408 C125.744003,8.52266224 126.533328,8.08 127.6,8.08 C128.485338,8.08 129.165331,8.36266384 129.64,8.928 C130.114669,9.49333616 130.352,10.2239955 130.352,11.12 L130.352,16 L128.848,16 L128.848,11.376 C128.848,10.0853269 128.250673,9.44 127.056,9.44 C126.490664,9.44 126.050668,9.639998 125.736,10.04 C125.421332,10.440002 125.264,10.943997 125.264,11.552 Z M136.192,16.416 L137.648,16.08 C137.701334,16.6240027 137.919998,17.0746649 138.304,17.432 C138.688002,17.7893351 139.167997,17.968 139.744,17.968 C141.312008,17.968 142.096,17.1360083 142.096,15.472 L142.096,14.368 C141.903999,14.7413352 141.602669,15.0453322 141.192,15.28 C140.781331,15.5146678 140.298669,15.632 139.744,15.632 C138.719995,15.632 137.87467,15.2826702 137.208,14.584 C136.54133,13.8853298 136.208,12.9920054 136.208,11.904 C136.208,10.8479947 136.538663,9.9600036 137.2,9.24 C137.861337,8.5199964 138.709328,8.16 139.744,8.16 C140.917339,8.16 141.706665,8.56532928 142.112,9.376 L142.112,8.304 L143.6,8.304 L143.6,15.424 C143.6,15.9360026 143.533334,16.4133311 143.4,16.856 C143.266666,17.2986689 143.056001,17.7066648 142.768,18.08 C142.479999,18.4533352 142.077336,18.7466656 141.56,18.96 C141.042664,19.1733344 140.437337,19.28 139.744,19.28 C138.794662,19.28 137.989337,19.0106694 137.328,18.472 C136.666663,17.9333306 136.288,17.2480042 136.192,16.416 Z M139.968,14.368 C140.61867,14.368 141.146665,14.1413356 141.552,13.688 C141.957335,13.2346644 142.16,12.6400037 142.16,11.904 C142.16,11.1679963 141.957335,10.5733356 141.552,10.12 C141.146665,9.6666644 140.61867,9.44 139.968,9.44 C139.306663,9.44 138.770669,9.66399776 138.36,10.112 C137.949331,10.5600022 137.744,11.1573296 137.744,11.904 C137.744,12.6613371 137.943998,13.2613311 138.344,13.704 C138.744002,14.1466689 139.28533,14.368 139.968,14.368 Z M149.44,13.936 C149.44,13.2746634 149.653331,12.744002 150.08,12.344 C150.506669,11.943998 151.071996,11.6960005 151.776,11.6 L153.856,11.296 C154.250669,11.2426664 154.448,11.0506683 154.448,10.72 C154.448,10.3146646 154.309335,9.98400128 154.032,9.728 C153.754665,9.47199872 153.338669,9.344 152.784,9.344 C152.271997,9.344 151.866668,9.48533192 151.568,9.768 C151.269332,10.0506681 151.093334,10.4266643 151.04,10.896 L149.6,10.56 C149.674667,9.82399632 150.010664,9.22400232 150.608,8.76 C151.205336,8.29599768 151.919996,8.064 152.752,8.064 C153.840005,8.064 154.645331,8.32799736 155.168,8.856 C155.690669,9.38400264 155.952,10.0586626 155.952,10.88 L155.952,14.736 C155.952,15.194669 155.984,15.6159981 156.048,16 L154.576,16 C154.522666,15.6799984 154.496,15.3333352 154.496,14.96 C154.282666,15.301335 153.970669,15.5999987 153.56,15.856 C153.149331,16.1120013 152.63467,16.24 152.016,16.24 C151.258663,16.24 150.640002,16.0133356 150.16,15.56 C149.679998,15.1066644 149.44,14.5653365 149.44,13.936 Z M152.224,14.976 C152.896003,14.976 153.434665,14.7946685 153.84,14.432 C154.245335,14.0693315 154.448,13.4933373 154.448,12.704 L154.448,12.352 L152.096,12.704 C151.754665,12.7573336 151.482668,12.879999 151.28,13.072 C151.077332,13.264001 150.976,13.5253317 150.976,13.856 C150.976,14.1546682 151.090666,14.4159989 151.32,14.64 C151.549334,14.8640011 151.850665,14.976 152.224,14.976 Z M163.776,19.04 L162.288,19.04 L162.288,8.304 L163.744,8.304 L163.744,9.504 C163.968001,9.09866464 164.303998,8.76800128 164.752,8.512 C165.200002,8.25599872 165.722664,8.128 166.32,8.128 C167.429339,8.128 168.295997,8.50666288 168.92,9.264 C169.544003,10.0213371 169.856,10.9813275 169.856,12.144 C169.856,13.3173392 169.533337,14.2879962 168.888,15.056 C168.242663,15.8240038 167.370672,16.208 166.272,16.208 C165.706664,16.208 165.205336,16.0906678 164.768,15.856 C164.330664,15.6213322 164.000001,15.3226685 163.776,14.96 L163.776,19.04 Z M168.32,12.144 C168.32,11.3653294 168.114669,10.7226692 167.704,10.216 C167.293331,9.7093308 166.741337,9.456 166.048,9.456 C165.36533,9.456 164.813335,9.7093308 164.392,10.216 C163.970665,10.7226692 163.76,11.3653294 163.76,12.144 C163.76,12.944004 163.970665,13.5973308 164.392,14.104 C164.813335,14.6106692 165.36533,14.864 166.048,14.864 C166.73067,14.864 167.279998,14.6106692 167.696,14.104 C168.112002,13.5973308 168.32,12.944004 168.32,12.144 Z M179.072,14.896 C179.744003,14.896 180.311998,14.6533358 180.776,14.168 C181.240002,13.6826642 181.472,13.0080043 181.472,12.144 C181.472,11.2906624 181.240002,10.6213358 180.776,10.136 C180.311998,9.65066424 179.744003,9.408 179.072,9.408 C178.399997,9.408 177.832002,9.65066424 177.368,10.136 C176.903998,10.6213358 176.672,11.2906624 176.672,12.144 C176.672,13.0080043 176.903998,13.6826642 177.368,14.168 C177.832002,14.6533358 178.399997,14.896 179.072,14.896 Z M179.072,8.064 C180.213339,8.064 181.154663,8.4506628 181.896,9.224 C182.637337,9.9973372 183.008,10.9706608 183.008,12.144 C183.008,13.3280059 182.640004,14.3066628 181.904,15.08 C181.167996,15.8533372 180.224006,16.24 179.072,16.24 C177.919994,16.24 176.976004,15.8533372 176.24,15.08 C175.503996,14.3066628 175.136,13.3280059 175.136,12.144 C175.136,10.9706608 175.506663,9.9973372 176.248,9.224 C176.989337,8.4506628 177.930661,8.064 179.072,8.064 Z M193.2,8.224 L193.2,9.824 C192.975999,9.79199984 192.757334,9.776 192.544,9.776 C191.135993,9.776 190.432,10.5653254 190.432,12.144 L190.432,16 L188.928,16 L188.928,8.304 L190.4,8.304 L190.4,9.648 C190.869336,8.66666176 191.637328,8.176 192.704,8.176 C192.874668,8.176 193.039999,8.19199984 193.2,8.224 Z M199.696,11.36 L203.904,11.36 C203.882667,10.7839971 203.690668,10.3120018 203.328,9.944 C202.965332,9.57599816 202.453337,9.392 201.792,9.392 C201.194664,9.392 200.704002,9.58666472 200.32,9.976 C199.935998,10.3653353 199.728,10.826664 199.696,11.36 Z M204.128,13.36 L205.424,13.808 C205.199999,14.5226702 204.784003,15.1066644 204.176,15.56 C203.567997,16.0133356 202.832004,16.24 201.968,16.24 C200.890661,16.24 199.976004,15.869337 199.224,15.128 C198.471996,14.386663 198.096,13.386673 198.096,12.128 C198.096,10.9546608 198.458663,9.98400384 199.184,9.216 C199.909337,8.44799616 200.773328,8.064 201.776,8.064 C202.938672,8.064 203.84533,8.42932968 204.496,9.16 C205.14667,9.89067032 205.472,10.8693272 205.472,12.096 C205.472,12.288001 205.461333,12.4479994 205.44,12.576 L199.648,12.576 C199.658667,13.2586701 199.885331,13.8186645 200.328,14.256 C200.770669,14.6933355 201.31733,14.912 201.968,14.912 C203.066672,14.912 203.786665,14.3946718 204.128,13.36 Z M226.48,16 L219.552,16 L219.552,4.656 L221.12,4.656 L221.12,14.528 L226.48,14.528 L226.48,16 Z M233.936,5.872 L233.936,8.304 L235.6,8.304 L235.6,9.664 L233.936,9.664 L233.936,13.664 C233.936,14.0266685 234.018666,14.2933325 234.184,14.464 C234.349334,14.6346675 234.623998,14.72 235.008,14.72 C235.232001,14.72 235.429332,14.6986669 235.6,14.656 L235.6,15.936 C235.343999,16.0320005 235.002669,16.08 234.576,16.08 C233.914663,16.08 233.392002,15.8880019 233.008,15.504 C232.623998,15.1199981 232.432,14.5813368 232.432,13.888 L232.432,9.664 L230.96,9.664 L230.96,8.304 L231.376,8.304 C231.770669,8.304 232.066666,8.19466776 232.264,7.976 C232.461334,7.75733224 232.56,7.47200176 232.56,7.12 L232.56,5.872 L233.936,5.872 Z M242.416,12.128 C242.416,12.9386707 242.615998,13.5999974 243.016,14.112 C243.416002,14.6240026 243.967996,14.88 244.672,14.88 C245.344003,14.88 245.882665,14.6186693 246.288,14.096 C246.693335,13.5733307 246.896,12.9066707 246.896,12.096 C246.896,11.295996 246.698669,10.6506691 246.304,10.16 C245.909331,9.66933088 245.37067,9.424 244.688,9.424 C244.00533,9.424 243.456002,9.67466416 243.04,10.176 C242.623998,10.6773358 242.416,11.327996 242.416,12.128 Z M246.912,14.96 L246.912,14.832 C246.709332,15.2266686 246.402669,15.5546654 245.992,15.816 C245.581331,16.0773346 245.093336,16.208 244.528,16.208 C243.429328,16.208 242.54667,15.8213372 241.88,15.048 C241.21333,14.2746628 240.88,13.3013392 240.88,12.128 C240.88,11.0079944 241.22133,10.0560039 241.904,9.272 C242.58667,8.48799608 243.461328,8.096 244.528,8.096 C245.157336,8.096 245.669331,8.22133208 246.064,8.472 C246.458669,8.72266792 246.730666,9.02933152 246.88,9.392 L246.88,4.416 L248.368,4.416 L248.368,14.576 C248.368,15.0986693 248.394666,15.5733312 248.448,16 L246.992,16 C246.938666,15.7013318 246.912,15.3546686 246.912,14.96 Z M254.768,14.976 C254.768,14.6666651 254.874666,14.4026678 255.088,14.184 C255.301334,13.9653322 255.562665,13.856 255.872,13.856 C256.181335,13.856 256.445332,13.9653322 256.664,14.184 C256.882668,14.4026678 256.992,14.6666651 256.992,14.976 C256.992,15.2853349 256.882668,15.5466656 256.664,15.76 C256.445332,15.9733344 256.181335,16.08 255.872,16.08 C255.562665,16.08 255.301334,15.9733344 255.088,15.76 C254.874666,15.5466656 254.768,15.2853349 254.768,14.976 Z" id="Citibank-Singapore-L" fill="#000000"></path>
                <path d="M1.5,35.5 L54.5,35.5" id="Line-2" stroke="#00578B" stroke-width="2" stroke-linecap="square"></path>
            </g>
        </g>
    </g>
</svg>