<?xml version="1.0" encoding="UTF-8"?>
<svg width="96px" height="35px" viewBox="0 0 96 35" version="1.1" xmlns="http://www.w3.org/2000/svg" xmlns:xlink="http://www.w3.org/1999/xlink">
    <!-- Generator: Sketch 57.1 (83088) - https://sketch.com -->
    <title>Group 19</title>
    <desc>Created with Sketch.</desc>
    <g id="Services" stroke="none" stroke-width="1" fill="none" fill-rule="evenodd">
        <g id="Mobile-App-Development-Company" transform="translate(-849.000000, -7183.000000)">
            <g id="3" transform="translate(0.000000, 6792.000000)">
                <g id="portfolio">
                    <g id="1">
                        <g id="Group-9" transform="translate(730.000000, 51.000000)">
                            <g id="Group-18-Copy" transform="translate(120.000000, 340.000000)">
                                <g id="Group-19" transform="translate(0.000000, 0.842000)">
                                    <path d="M3.384,13.158 L1.62,13.158 L1.62,0.396 L9.378,0.396 L9.378,2.034 L3.384,2.034 L3.384,6.138 L8.82,6.138 L8.82,7.794 L3.384,7.794 L3.384,13.158 Z M16.164,4.41 L16.164,6.21 C15.9119987,6.17399982 15.6660012,6.156 15.426,6.156 C13.8419921,6.156 13.05,7.04399112 13.05,8.82 L13.05,13.158 L11.358,13.158 L11.358,4.5 L13.014,4.5 L13.014,6.012 C13.5420026,4.90799448 14.405994,4.356 15.606,4.356 C15.798001,4.356 15.9839991,4.37399982 16.164,4.41 Z M19.062,7.938 L23.796,7.938 C23.7719999,7.28999676 23.556002,6.75900207 23.148,6.345 C22.739998,5.93099793 22.1640037,5.724 21.42,5.724 C20.7479966,5.724 20.1960022,5.94299781 19.764,6.381 C19.3319978,6.81900219 19.0980002,7.337997 19.062,7.938 Z M24.048,10.188 L25.506,10.692 C25.2539987,11.496004 24.7860034,12.1529974 24.102,12.663 C23.4179966,13.1730025 22.5900049,13.428 21.618,13.428 C20.4059939,13.428 19.3770042,13.0110042 18.531,12.177 C17.6849958,11.3429958 17.262,10.2180071 17.262,8.802 C17.262,7.4819934 17.6699959,6.39000432 18.486,5.526 C19.3020041,4.66199568 20.2739944,4.23 21.402,4.23 C22.7100065,4.23 23.7299963,4.64099589 24.462,5.463 C25.1940037,6.28500411 25.56,7.3859931 25.56,8.766 C25.56,8.98200108 25.5480001,9.16199928 25.524,9.306 L19.008,9.306 C19.0200001,10.0740038 19.2749975,10.7039975 19.773,11.196 C20.2710025,11.6880025 20.8859963,11.934 21.618,11.934 C22.8540062,11.934 23.6639981,11.3520058 24.048,10.188 Z M26.91,10.908 L28.44,10.368 C28.5000003,10.8360023 28.7039983,11.2229985 29.052,11.529 C29.4000017,11.8350015 29.8679971,11.988 30.456,11.988 C30.9120023,11.988 31.2719987,11.8770011 31.536,11.655 C31.8000013,11.4329989 31.932,11.1600016 31.932,10.836 C31.932,10.2599971 31.5600037,9.88800084 30.816,9.72 L29.34,9.396 C28.6679966,9.25199928 28.1400019,8.96400216 27.756,8.532 C27.3719981,8.09999784 27.18,7.57800306 27.18,6.966 C27.18,6.22199628 27.482997,5.5800027 28.089,5.04 C28.695003,4.4999973 29.4179958,4.23 30.258,4.23 C30.8100028,4.23 31.3019978,4.31099919 31.734,4.473 C32.1660022,4.63500081 32.5019988,4.84799868 32.742,5.112 C32.9820012,5.37600132 33.1619994,5.62199886 33.282,5.85 C33.4020006,6.07800114 33.4919997,6.3119988 33.552,6.552 L32.058,7.11 C32.0339999,6.96599928 31.9920003,6.82500069 31.932,6.687 C31.8719997,6.54899931 31.7790006,6.39600084 31.653,6.228 C31.5269994,6.05999916 31.3440012,5.92500051 31.104,5.823 C30.8639988,5.72099949 30.5820016,5.67 30.258,5.67 C29.8379979,5.67 29.4930013,5.78399886 29.223,6.012 C28.9529986,6.24000114 28.818,6.50999844 28.818,6.822 C28.818,7.37400276 29.1479967,7.72199928 29.808,7.866 L31.212,8.172 C31.9800038,8.34000084 32.5709979,8.64899775 32.985,9.099 C33.3990021,9.54900225 33.606,10.0979968 33.606,10.746 C33.606,11.4300034 33.3270028,12.0479972 32.769,12.6 C32.2109972,13.1520028 31.434005,13.428 30.438,13.428 C29.3699947,13.428 28.536003,13.1610027 27.936,12.627 C27.335997,12.0929973 26.9940004,11.5200031 26.91,10.908 Z M37.548,8.064 L37.548,13.158 L35.856,13.158 L35.856,0.126 L37.548,0.126 L37.548,5.508 C38.1240029,4.6679958 38.9999941,4.248 40.176,4.248 C41.172005,4.248 41.9369973,4.56599682 42.471,5.202 C43.0050027,5.83800318 43.272,6.65999496 43.272,7.668 L43.272,13.158 L41.58,13.158 L41.58,7.956 C41.58,6.50399274 40.9080067,5.778 39.564,5.778 C38.9399969,5.778 38.4540017,5.99099787 38.106,6.417 C37.7579983,6.84300213 37.5720001,7.39199664 37.548,8.064 Z M49.608,5.796 C48.8759963,5.796 48.2550025,6.05999736 47.745,6.588 C47.2349974,7.11600264 46.98,7.8599952 46.98,8.82 C46.98,9.76800474 47.2349974,10.5119973 47.745,11.052 C48.2550025,11.5920027 48.8819963,11.862 49.626,11.862 C50.3460036,11.862 50.8949981,11.6820018 51.273,11.322 C51.6510019,10.9619982 51.9059993,10.5480023 52.038,10.08 L53.532,10.728 C53.2919988,11.4480036 52.8390033,12.0779973 52.173,12.618 C51.5069967,13.1580027 50.6580052,13.428 49.626,13.428 C48.3659937,13.428 47.3220041,12.9900044 46.494,12.114 C45.6659959,11.2379956 45.252,10.1400066 45.252,8.82 C45.252,7.47599328 45.6659959,6.37500429 46.494,5.517 C47.3220041,4.65899571 48.3599938,4.23 49.608,4.23 C50.6640053,4.23 51.5189967,4.4999973 52.173,5.04 C52.8270033,5.5800027 53.255999,6.22799622 53.46,6.984 L51.93,7.632 C51.7979993,7.12799748 51.5460019,6.6960018 51.174,6.336 C50.8019981,5.9759982 50.2800034,5.796 49.608,5.796 Z M57.204,13.158 L55.512,13.158 L55.512,0.126 L57.204,0.126 L57.204,13.158 Z M61.758,13.158 L60.084,13.158 L60.084,4.5 L61.758,4.5 L61.758,13.158 Z M60.048,2.088 C59.8199989,1.8479988 59.706,1.56000168 59.706,1.224 C59.706,0.88799832 59.8229988,0.6000012 60.057,0.36 C60.2910012,0.1199988 60.5759983,-5.13367127e-13 60.912,-5.13367127e-13 C61.2480017,-5.13367127e-13 61.5359988,0.11699883 61.776,0.351 C62.0160012,0.58500117 62.136,0.87599826 62.136,1.224 C62.136,1.56000168 62.0160012,1.84499883 61.776,2.079 C61.5359988,2.31300117 61.2480017,2.43 60.912,2.43 C60.5759983,2.43 60.2880012,2.31600114 60.048,2.088 Z M66.33,8.154 L66.33,13.158 L64.638,13.158 L64.638,4.5 L66.294,4.5 L66.294,5.742 C66.8700029,4.74599502 67.757994,4.248 68.958,4.248 C69.954005,4.248 70.7189973,4.56599682 71.253,5.202 C71.7870027,5.83800318 72.054,6.65999496 72.054,7.668 L72.054,13.158 L70.362,13.158 L70.362,7.956 C70.362,6.50399274 69.6900067,5.778 68.346,5.778 C67.7099968,5.778 67.2150018,6.00299775 66.861,6.453 C66.5069982,6.90300225 66.33,7.46999658 66.33,8.154 Z M76.428,13.158 L74.754,13.158 L74.754,4.5 L76.428,4.5 L76.428,13.158 Z M74.718,2.088 C74.4899989,1.8479988 74.376,1.56000168 74.376,1.224 C74.376,0.88799832 74.4929988,0.6000012 74.727,0.36 C74.9610012,0.1199988 75.2459983,-5.13367127e-13 75.582,-5.13367127e-13 C75.9180017,-5.13367127e-13 76.2059988,0.11699883 76.446,0.351 C76.6860012,0.58500117 76.806,0.87599826 76.806,1.224 C76.806,1.56000168 76.6860012,1.84499883 76.446,2.079 C76.2059988,2.31300117 75.9180017,2.43 75.582,2.43 C75.2459983,2.43 74.9580012,2.31600114 74.718,2.088 Z M82.944,5.796 C82.2119963,5.796 81.5910025,6.05999736 81.081,6.588 C80.5709974,7.11600264 80.316,7.8599952 80.316,8.82 C80.316,9.76800474 80.5709974,10.5119973 81.081,11.052 C81.5910025,11.5920027 82.2179963,11.862 82.962,11.862 C83.6820036,11.862 84.2309981,11.6820018 84.609,11.322 C84.9870019,10.9619982 85.2419993,10.5480023 85.374,10.08 L86.868,10.728 C86.6279988,11.4480036 86.1750033,12.0779973 85.509,12.618 C84.8429967,13.1580027 83.9940052,13.428 82.962,13.428 C81.7019937,13.428 80.6580041,12.9900044 79.83,12.114 C79.0019959,11.2379956 78.588,10.1400066 78.588,8.82 C78.588,7.47599328 79.0019959,6.37500429 79.83,5.517 C80.6580041,4.65899571 81.6959938,4.23 82.944,4.23 C84.0000053,4.23 84.8549967,4.4999973 85.509,5.04 C86.1630033,5.5800027 86.591999,6.22799622 86.796,6.984 L85.266,7.632 C85.1339993,7.12799748 84.8820019,6.6960018 84.51,6.336 C84.1379981,5.9759982 83.6160034,5.796 82.944,5.796 Z M88.038,10.908 L89.568,10.368 C89.6280003,10.8360023 89.8319983,11.2229985 90.18,11.529 C90.5280017,11.8350015 90.9959971,11.988 91.584,11.988 C92.0400023,11.988 92.3999987,11.8770011 92.664,11.655 C92.9280013,11.4329989 93.06,11.1600016 93.06,10.836 C93.06,10.2599971 92.6880037,9.88800084 91.944,9.72 L90.468,9.396 C89.7959966,9.25199928 89.2680019,8.96400216 88.884,8.532 C88.4999981,8.09999784 88.308,7.57800306 88.308,6.966 C88.308,6.22199628 88.610997,5.5800027 89.217,5.04 C89.823003,4.4999973 90.5459958,4.23 91.386,4.23 C91.9380028,4.23 92.4299978,4.31099919 92.862,4.473 C93.2940022,4.63500081 93.6299988,4.84799868 93.87,5.112 C94.1100012,5.37600132 94.2899994,5.62199886 94.41,5.85 C94.5300006,6.07800114 94.6199997,6.3119988 94.68,6.552 L93.186,7.11 C93.1619999,6.96599928 93.1200003,6.82500069 93.06,6.687 C92.9999997,6.54899931 92.9070006,6.39600084 92.781,6.228 C92.6549994,6.05999916 92.4720012,5.92500051 92.232,5.823 C91.9919988,5.72099949 91.7100016,5.67 91.386,5.67 C90.9659979,5.67 90.6210013,5.78399886 90.351,6.012 C90.0809986,6.24000114 89.946,6.50999844 89.946,6.822 C89.946,7.37400276 90.2759967,7.72199928 90.936,7.866 L92.34,8.172 C93.1080038,8.34000084 93.6989979,8.64899775 94.113,9.099 C94.5270021,9.54900225 94.734,10.0979968 94.734,10.746 C94.734,11.4300034 94.4550028,12.0479972 93.897,12.6 C93.3389972,13.1520028 92.562005,13.428 91.566,13.428 C90.4979947,13.428 89.664003,13.1610027 89.064,12.627 C88.463997,12.0929973 88.1220004,11.5200031 88.038,10.908 Z" id="Freshclinics" fill="#000000" fill-rule="nonzero"></path>
                                    <path d="M0.5,32.658 L53.5,32.658" id="Line-2" stroke="#00578B" stroke-width="2" stroke-linecap="square"></path>
                                </g>
                            </g>
                        </g>
                    </g>
                </g>
            </g>
        </g>
    </g>
</svg>