<svg xmlns="http://www.w3.org/2000/svg" xmlns:xlink="http://www.w3.org/1999/xlink" width="94" height="81" viewBox="0 0 94 81">
    <defs>
        <path id="a" d="M46.544 76.66c20.16 0 36.505-16.344 36.505-36.505 0-20.16-16.344-36.505-36.505-36.505S10.039 19.994 10.039 40.155 26.383 76.66 46.544 76.66z"/>
        <mask id="b" width="73.01" height="73.01" x="0" y="0" fill="#fff">
            <use xlink:href="#a"/>
        </mask>
    </defs>
    <g fill="none" fill-rule="evenodd">
        <path fill="#4B4B4B" fill-rule="nonzero" d="M46.273 17.146s-.822-.082-.822.65v3.252h5.426v.976s.016.488-.493.488H45.45v4.228h5.92s3.583-.554 3.616-4.228v-5.366h-8.714zm8.878-4.935H44.465c-3.864.91-3.946 4.081-3.946 4.081v10.716h4.11v-9.756c0-.83.822-.975.822-.975h9.701V12.21zM31.806 36.18a9.086 9.086 0 0 1-.327.213c-.27.167-.527.296-.766.399-.345.141-.653.212-.93.212-.948 0-1.734-.29-2.369-.875-.635-.586-.948-1.32-.948-2.208 0-.855.283-1.596.854-2.227.572-.63 1.263-.94 2.08-.94.34 0 .704.059 1.08.181.49.155.886.386 1.2.689l-.546.605a2.11 2.11 0 0 0-.886-.496 3.086 3.086 0 0 0-.873-.115c-.572 0-1.056.23-1.439.688-.383.463-.578 1.01-.578 1.654 0 .637.22 1.158.66 1.577.44.418.999.63 1.677.63.283 0 .572-.09.867-.263.245-.187.371-.277.377-.284v-1.319h-1.834l.263-.824h2.438v2.703zm5.542-1.609a2.29 2.29 0 0 1-.679 1.654 2.257 2.257 0 0 1-1.677.702c-.616 0-1.156-.232-1.621-.689a2.235 2.235 0 0 1-.692-1.66c0-.644.22-1.198.66-1.674a2.11 2.11 0 0 1 1.615-.708c.704 0 1.275.226 1.721.683.447.444.673 1.01.673 1.692zm-.861.013a1.51 1.51 0 0 0-.434-1.094 1.423 1.423 0 0 0-1.074-.45c-.402 0-.741.154-1.024.463a1.524 1.524 0 0 0-.421 1.062c0 .418.144.772.427 1.068.283.296.635.45 1.062.45.396 0 .735-.148 1.024-.444.295-.296.44-.65.44-1.055zm6.326-.013a2.29 2.29 0 0 1-.678 1.654 2.257 2.257 0 0 1-1.677.702c-.616 0-1.156-.232-1.622-.689a2.237 2.237 0 0 1-.69-1.66c0-.644.22-1.198.66-1.674a2.11 2.11 0 0 1 1.614-.708c.703 0 1.275.226 1.721.683.446.444.672 1.01.672 1.692zm-.86.013a1.51 1.51 0 0 0-.434-1.094 1.423 1.423 0 0 0-1.074-.45c-.402 0-.741.154-1.024.463A1.524 1.524 0 0 0 39 34.566c0 .418.144.772.427 1.068.283.296.635.45 1.062.45.396 0 .735-.148 1.024-.444.295-.296.44-.65.44-1.055zM47.87 36.8l-.791.122v-.766l-.17.193c-.15.14-.319.257-.503.348a2.03 2.03 0 0 1-.86.187 2.07 2.07 0 0 1-1.571-.683 2.3 2.3 0 0 1-.64-1.628c0-.65.213-1.21.634-1.673.42-.464.936-.695 1.552-.695.352 0 .66.057.917.173.182.084.34.193.471.329.044.058.088.122.132.18v-2.008l.842-.123-.013 6.044zm-.741-2.17c0-.45-.151-.83-.459-1.138-.307-.316-.653-.47-1.049-.47-.44 0-.791.148-1.061.444-.252.283-.384.63-.384 1.036 0 .457.132.837.396 1.133.263.296.597.444 1.005.444.402 0 .754-.135 1.068-.412.32-.283.484-.63.484-1.036zm5.183-2.914h-2.356v1.602h1.828v.824h-1.828v2.652l-.917.135v-6.044h3.09l.183.83zm1.891-.47l-.565.714-.54-.714.571-.708.534.708zm-.17 5.554l-.841.116v-4.473l.842-.129V36.8zm3.802-4.53l-.396.913a1.11 1.11 0 0 0-.157-.013c-.082 0-.163.007-.245.02a.964.964 0 0 0-.264.09c-.176.077-.327.244-.459.495-.146.285-.221.6-.22.92v2.099l-.841.135v-4.486l.779-.142v.933c.1-.16.207-.321.307-.489.145-.167.314-.29.503-.36.1-.039.283-.071.559-.097.264-.019.415-.032.434-.019zm6.27 4.53l-.842.122v-3.07c0-.283-.063-.489-.189-.618-.126-.128-.314-.193-.56-.193a.742.742 0 0 0-.671.367c-.101.167-.157.348-.157.528v2.857l-.842.155V33.87c0-.27-.063-.476-.183-.617a.632.632 0 0 0-.502-.213h-.082c-.295 0-.509.123-.64.374-.101.186-.151.424-.151.714v2.664l-.874.155v-4.505l.786-.135v.573c.088-.136.175-.245.257-.322.226-.213.49-.316.785-.316.333 0 .578.052.748.161.144.09.283.27.421.528.289-.457.697-.689 1.238-.689.515 0 .898.161 1.15.49.207.27.307.669.307 1.19V36.8zm3.845-1.358c0 .412-.144.753-.433 1.017-.289.27-.654.399-1.094.399-.332 0-.628-.077-.898-.232-.27-.154-.47-.328-.603-.534l.59-.528a1.07 1.07 0 0 0 .91.495c.215 0 .385-.057.504-.166.126-.11.183-.264.183-.464 0-.225-.145-.38-.434-.463-.572-.174-.88-.27-.924-.29-.264-.135-.452-.277-.572-.438-.131-.186-.2-.43-.2-.746 0-.386.144-.708.427-.965.283-.258.622-.38 1.011-.38.296 0 .572.064.823.2.252.134.434.276.54.444l-.502.546a1.845 1.845 0 0 0-.245-.205c-.201-.142-.396-.213-.578-.213a.755.755 0 0 0-.433.116.496.496 0 0 0-.202.425c0 .18.063.315.195.399.113.07.352.148.73.231.376.09.665.245.872.464.233.231.333.521.333.888z"/>
        <circle cx="46.544" cy="40.155" r="39.155" stroke="#4D4D4D" stroke-width="2"/>
        <use fill-rule="nonzero" stroke="#4D4D4D" stroke-dasharray="2" mask="url(#b)" xlink:href="#a"/>
        <path fill="#2A2A2A" fill-rule="nonzero" d="M5.476 47.456H0l3.65 9.127-3.65 7.3h10.951V47.456zM88.524 47.456H94l-3.65 9.127 3.65 7.3H83.049V47.456z"/>
        <path fill="#000" fill-rule="nonzero" d="M5.476 58.408h5.475v5.475c-4.258-3.65-6.084-5.475-5.475-5.475zM88.41 58.408h-5.476v5.475c4.26-3.65 6.085-5.475 5.476-5.475z"/>
        <path fill="#4C4C4C" fill-rule="nonzero" d="M5.476 41.981h83.049v16.427H5.476z"/>
        <path fill="#000" d="M34.926 66.659l.376-.087a.532.532 0 0 0 .542.488c.405 0 .608-.215.608-.645v-.286a.573.573 0 0 1-.234.236.741.741 0 0 1-.374.091.867.867 0 0 1-.655-.27.962.962 0 0 1-.259-.693.98.98 0 0 1 .257-.689c.17-.186.39-.279.657-.279.303 0 .507.105.612.314v-.277h.385v1.84c0 .133-.018.256-.052.37a.974.974 0 0 1-.163.317.74.74 0 0 1-.313.227c-.133.055-.29.083-.469.083a.957.957 0 0 1-.624-.209.777.777 0 0 1-.294-.531zm.976-.53a.523.523 0 0 0 .41-.175.666.666 0 0 0 .156-.461.666.666 0 0 0-.157-.461.523.523 0 0 0-.41-.176c-.17 0-.309.058-.415.174a.659.659 0 0 0-.159.463c0 .195.052.35.155.465a.537.537 0 0 0 .42.171zm2.41.137c.174 0 .321-.063.441-.188.12-.126.18-.3.18-.523 0-.22-.06-.394-.18-.52a.586.586 0 0 0-.44-.187.586.586 0 0 0-.44.188c-.12.125-.18.298-.18.519 0 .223.06.397.18.523.12.125.266.188.44.188zm0-1.766c.296 0 .539.1.73.3.192.2.288.451.288.755 0 .306-.095.559-.286.758-.19.2-.434.3-.731.3a.966.966 0 0 1-.732-.3c-.19-.2-.286-.452-.286-.758 0-.304.096-.555.288-.755.191-.2.435-.3.73-.3zm2.366 1.766c.173 0 .32-.063.44-.188.12-.126.18-.3.18-.523 0-.22-.06-.394-.18-.52a.586.586 0 0 0-.44-.187.586.586 0 0 0-.44.188c-.12.125-.18.298-.18.519 0 .223.06.397.18.523.12.125.266.188.44.188zm0-1.766c.295 0 .538.1.73.3.191.2.287.451.287.755 0 .306-.095.559-.285.758-.19.2-.434.3-.732.3a.966.966 0 0 1-.732-.3c-.19-.2-.285-.452-.285-.758 0-.304.095-.555.287-.755.192-.2.435-.3.73-.3zm1.745 1.05c0 .21.051.381.155.513a.513.513 0 0 0 .428.199.502.502 0 0 0 .417-.203.819.819 0 0 0 .158-.517c0-.206-.051-.373-.153-.5a.507.507 0 0 0-.418-.19.526.526 0 0 0-.426.194.764.764 0 0 0-.161.505zm1.162.732v-.033a.655.655 0 0 1-.238.255.69.69 0 0 1-.378.101.859.859 0 0 1-.685-.3c-.172-.2-.258-.451-.258-.754 0-.29.088-.536.264-.739a.859.859 0 0 1 .679-.303.73.73 0 0 1 .397.097.517.517 0 0 1 .21.237v-1.286h.385v2.626c0 .135.007.258.02.368h-.376a1.544 1.544 0 0 1-.02-.269zm1.81-2.737c.12 0 .197.014.232.041v.348a.469.469 0 0 0-.17-.025.343.343 0 0 0-.22.074c-.062.05-.093.137-.093.26v.32h1.315v1.988h-.385v-1.637h-.93v1.637h-.401v-1.637h-.368v-.352h.368v-.335c0-.212.062-.379.186-.5a.641.641 0 0 1 .467-.182zm.592.256c0-.077.027-.143.08-.198a.264.264 0 0 1 .197-.083c.08 0 .147.027.2.08.055.055.081.122.081.201a.264.264 0 0 1-.082.197.274.274 0 0 1-.199.08.267.267 0 0 1-.196-.08.267.267 0 0 1-.08-.197zm2.237.74v.414a1.198 1.198 0 0 0-.17-.012c-.363 0-.545.204-.545.612v.996h-.389v-1.989h.38v.348a.616.616 0 0 1 .596-.38c.044 0 .087.003.128.012zm.798 2.01h-.384v-1.989h.372v.265a.599.599 0 0 1 .256-.24.767.767 0 0 1 .348-.083c.13 0 .248.032.355.096a.575.575 0 0 1 .24.28c.138-.25.36-.376.666-.376.19 0 .352.065.486.195.133.13.2.317.2.562v1.29h-.384v-1.249a.494.494 0 0 0-.106-.33c-.07-.083-.176-.124-.316-.124a.424.424 0 0 0-.331.142.515.515 0 0 0-.128.358v1.203h-.389v-1.249a.494.494 0 0 0-.105-.33c-.07-.083-.176-.124-.317-.124a.432.432 0 0 0-.335.14.52.52 0 0 0-.128.364v1.2zm2.973-.517l.352-.124c.014.108.06.197.14.267.08.07.188.105.323.105a.373.373 0 0 0 .248-.076.237.237 0 0 0 .091-.188c0-.133-.085-.218-.256-.257l-.34-.074a.653.653 0 0 1-.363-.198.523.523 0 0 1-.133-.36c0-.171.07-.319.21-.443a.724.724 0 0 1 .497-.186c.127 0 .24.019.34.056.099.037.176.086.231.147a.72.72 0 0 1 .186.33l-.343.129a.413.413 0 0 0-.093-.203.3.3 0 0 0-.126-.093.494.494 0 0 0-.195-.035.356.356 0 0 0-.237.079.237.237 0 0 0-.093.186c0 .127.075.206.227.24l.323.07c.176.038.312.11.407.213.095.103.143.23.143.378 0 .157-.065.3-.193.426-.128.127-.306.19-.535.19-.246 0-.437-.061-.575-.184-.138-.122-.216-.254-.236-.395zm2.014.253c0-.08.028-.149.083-.205a.272.272 0 0 1 .202-.085c.08 0 .149.028.205.085a.279.279 0 0 1 .085.205c0 .08-.028.147-.085.202a.282.282 0 0 1-.205.083.276.276 0 0 1-.202-.083.276.276 0 0 1-.083-.202zm2.03-1.427c-.168 0-.31.06-.428.182-.117.121-.175.292-.175.513 0 .217.058.388.175.512a.571.571 0 0 0 .433.187c.165 0 .291-.042.378-.125a.624.624 0 0 0 .176-.285l.343.149a.939.939 0 0 1-.312.434.9.9 0 0 1-.585.186c-.29 0-.53-.1-.72-.302a1.058 1.058 0 0 1-.285-.756c0-.31.095-.562.285-.76a.953.953 0 0 1 .715-.295c.243 0 .44.062.59.186.15.124.248.273.295.447l-.351.149a.628.628 0 0 0-.174-.298.496.496 0 0 0-.36-.124zm2.208 1.406c.174 0 .32-.063.44-.188.12-.126.18-.3.18-.523 0-.22-.06-.394-.18-.52a.586.586 0 0 0-.44-.187.586.586 0 0 0-.44.188c-.12.125-.18.298-.18.519 0 .223.06.397.18.523.12.125.267.188.44.188zm0-1.766c.295 0 .539.1.73.3.192.2.288.451.288.755 0 .306-.095.559-.286.758-.19.2-.434.3-.732.3a.966.966 0 0 1-.731-.3c-.19-.2-.286-.452-.286-.758 0-.304.096-.555.288-.755.191-.2.435-.3.73-.3z"/>
        <path fill="#FFF" d="M13.306 49.303H12.06v3.418h-.773v-3.418h-1.247v-.774h3.267v.774zm1.22 2.573a.656.656 0 0 0 .494.218.648.648 0 0 0 .493-.218c.135-.146.203-.35.203-.61s-.068-.463-.203-.609a.648.648 0 0 0-.493-.218.648.648 0 0 0-.492.218c-.136.146-.203.35-.203.61s.066.463.2.609zm-.535-1.715a1.355 1.355 0 0 1 1.03-.438c.411 0 .754.146 1.026.438.273.291.41.66.41 1.105 0 .446-.137.815-.41 1.106a1.347 1.347 0 0 1-1.027.438c-.411 0-.754-.146-1.026-.438-.273-.291-.41-.66-.41-1.106 0-.445.136-.814.407-1.105zm3.79 3.684h-.74v-4.033h.718v.355a.79.79 0 0 1 .323-.299c.148-.08.32-.121.517-.121.39 0 .698.14.924.423.227.281.34.645.34 1.09 0 .446-.12.813-.36 1.1-.238.288-.55.432-.931.432-.364 0-.628-.118-.79-.355v1.408zm1.158-1.975c.13-.15.195-.351.195-.604 0-.252-.064-.45-.192-.597a.62.62 0 0 0-.487-.219.624.624 0 0 0-.49.222c-.13.148-.195.346-.195.594 0 .249.065.448.195.598.13.15.293.224.49.224a.612.612 0 0 0 .484-.218zm7.342.851h-.757v-2.939l-1.136 2.94h-.64l-1.135-2.916v2.915h-.735V48.53h1.013l1.185 3.027 1.158-3.027h1.047v4.192zm1.58-.845a.656.656 0 0 0 .496.218.648.648 0 0 0 .492-.218c.136-.146.203-.35.203-.61s-.067-.463-.203-.609a.648.648 0 0 0-.492-.218.648.648 0 0 0-.493.218c-.135.146-.203.35-.203.61s.067.463.2.609zm-.534-1.715a1.355 1.355 0 0 1 1.03-.438c.412 0 .754.146 1.027.438.272.291.409.66.409 1.105 0 .446-.137.815-.41 1.106a1.347 1.347 0 0 1-1.026.438c-.412 0-.754-.146-1.027-.438-.273-.291-.41-.66-.41-1.106 0-.445.136-.814.407-1.105zm3.768 2.56h-.718V48.44h.73v1.691a.788.788 0 0 1 .32-.28 1.08 1.08 0 0 1 .509-.116c.39 0 .697.142.924.426.226.284.34.648.34 1.094 0 .445-.12.813-.357 1.102a1.15 1.15 0 0 1-.935.435c-.375 0-.646-.142-.813-.426v.355zm1.17-.851c.129-.15.194-.353.194-.61 0-.256-.064-.457-.192-.603a.62.62 0 0 0-.487-.218.628.628 0 0 0-.49.218c-.13.146-.195.347-.195.604 0 .256.066.458.198.606a.627.627 0 0 0 .487.221.612.612 0 0 0 .484-.218zm2.259.851h-.74v-2.91h.74v2.91zm-.83-3.861c0-.134.045-.25.134-.346a.423.423 0 0 1 .323-.145c.126 0 .234.047.323.142a.49.49 0 0 1 .133.349c0 .13-.044.242-.133.337a.427.427 0 0 1-.323.142.427.427 0 0 1-.323-.142.475.475 0 0 1-.133-.337zm2.36 3.861h-.74V48.44h.74v4.281zm1.33-1.786h1.225a.623.623 0 0 0-.164-.408c-.102-.11-.251-.165-.448-.165a.569.569 0 0 0-.434.177.612.612 0 0 0-.178.396zm1.298.757l.618.195c-.075.268-.22.49-.437.663-.217.173-.487.26-.81.26-.394 0-.728-.141-1.002-.423-.275-.282-.412-.66-.412-1.132 0-.45.134-.817.4-1.103.268-.286.583-.429.947-.429.423 0 .754.134.994.402.239.268.359.637.359 1.106l-.003.106-.003.095-.006.041h-1.959c.008.19.078.347.212.473.133.127.293.19.478.19.316 0 .524-.148.624-.444zm5.349 1.03l-.329-.959H42.1l-.328.958h-.813l1.514-4.192h.89l1.504 4.192h-.835zm-1.13-3.289l-.546 1.585h1.091l-.545-1.585zm3.156 4.412h-.74v-4.033h.718v.355a.79.79 0 0 1 .322-.299c.149-.08.321-.121.518-.121.39 0 .698.14.924.423.226.281.34.645.34 1.09 0 .446-.12.813-.36 1.1-.239.288-.55.432-.932.432-.364 0-.627-.118-.79-.355v1.408zm1.158-1.975c.13-.15.194-.351.194-.604 0-.252-.064-.45-.192-.597a.62.62 0 0 0-.487-.219.624.624 0 0 0-.49.222c-.13.148-.194.346-.194.594 0 .249.065.448.194.598.13.15.294.224.49.224a.612.612 0 0 0 .485-.218zm2.248 1.975h-.74v-4.033h.718v.355a.79.79 0 0 1 .323-.299c.148-.08.32-.121.517-.121.39 0 .698.14.924.423.227.281.34.645.34 1.09 0 .446-.12.813-.36 1.1-.238.288-.55.432-.931.432-.364 0-.628-.118-.79-.355v1.408zm1.158-1.975c.13-.15.195-.351.195-.604 0-.252-.064-.45-.192-.597a.62.62 0 0 0-.487-.219.624.624 0 0 0-.49.222c-.13.148-.195.346-.195.594 0 .249.065.448.195.598.13.15.293.224.49.224a.612.612 0 0 0 .484-.218zm3.707.094h.612c.345 0 .63-.114.852-.343.222-.228.334-.56.334-.993 0-.434-.112-.766-.334-.997a1.126 1.126 0 0 0-.846-.346h-.618v2.68zm.64.757H53.56V48.53h1.414c.575 0 1.043.187 1.405.561.362.375.543.887.543 1.538 0 .646-.182 1.157-.546 1.531-.363.375-.833.562-1.408.562zm3.106-1.786h1.224a.623.623 0 0 0-.164-.408c-.102-.11-.251-.165-.448-.165a.569.569 0 0 0-.434.177.612.612 0 0 0-.178.396zm1.297.757l.618.195c-.075.268-.22.49-.437.663-.217.173-.487.26-.81.26-.394 0-.727-.141-1.002-.423-.275-.282-.412-.66-.412-1.132 0-.45.134-.817.4-1.103.268-.286.583-.429.947-.429.423 0 .754.134.994.402.239.268.359.637.359 1.106l-.003.106-.003.095-.006.041h-1.959c.008.19.078.347.212.473.133.127.293.19.478.19.316 0 .524-.148.624-.444zm3.824-1.88l-1.063 2.91h-.74l-1.12-2.91h.813l.68 1.951.65-1.951h.78zm.99 1.123h1.225a.623.623 0 0 0-.164-.408c-.102-.11-.252-.165-.448-.165a.569.569 0 0 0-.434.177.612.612 0 0 0-.179.396zm1.297.757l.618.195c-.074.268-.22.49-.437.663-.217.173-.487.26-.81.26-.393 0-.727-.141-1.002-.423-.274-.282-.411-.66-.411-1.132 0-.45.133-.817.4-1.103.267-.286.583-.429.947-.429.423 0 .754.134.993.402.24.268.36.637.36 1.106 0 .032-.002.067-.004.106-.002.04-.002.071-.002.095l-.006.041h-1.96c.008.19.079.347.212.473.134.127.293.19.479.19.315 0 .523-.148.623-.444zm1.982 1.03h-.74V48.44h.74v4.281zm1.525-.846a.656.656 0 0 0 .495.218.648.648 0 0 0 .493-.218c.135-.146.203-.35.203-.61s-.068-.463-.203-.609a.648.648 0 0 0-.493-.218.648.648 0 0 0-.492.218c-.136.146-.203.35-.203.61s.066.463.2.609zm-.534-1.715a1.355 1.355 0 0 1 1.03-.438c.411 0 .753.146 1.026.438.273.291.41.66.41 1.105 0 .446-.137.815-.41 1.106a1.347 1.347 0 0 1-1.027.438c-.412 0-.754-.146-1.027-.438-.272-.291-.409-.66-.409-1.106 0-.445.136-.814.407-1.105zm3.79 3.684h-.74v-4.033h.718v.355a.79.79 0 0 1 .323-.299c.148-.08.32-.121.517-.121.39 0 .698.14.924.423.227.281.34.645.34 1.09 0 .446-.12.813-.36 1.1-.239.288-.55.432-.932.432-.363 0-.627-.118-.79-.355v1.408zm1.158-1.975c.13-.15.195-.351.195-.604 0-.252-.064-.45-.192-.597a.62.62 0 0 0-.487-.219.624.624 0 0 0-.49.222c-.13.148-.195.346-.195.594 0 .249.065.448.195.598.13.15.293.224.49.224a.612.612 0 0 0 .484-.218zm2.048-.935h1.225a.623.623 0 0 0-.165-.408c-.102-.11-.251-.165-.448-.165a.569.569 0 0 0-.434.177.612.612 0 0 0-.178.396zm1.297.757l.618.195c-.074.268-.22.49-.437.663-.217.173-.487.26-.81.26-.393 0-.727-.141-1.002-.423-.274-.282-.412-.66-.412-1.132 0-.45.134-.817.401-1.103.267-.286.583-.429.946-.429.423 0 .754.134.994.402s.359.637.359 1.106l-.003.106-.003.095-.005.041h-1.96c.008.19.078.347.212.473.133.127.293.19.479.19.315 0 .523-.148.623-.444zm2.911-1.892v.792a1.069 1.069 0 0 0-.223-.023.698.698 0 0 0-.512.192c-.13.128-.195.338-.195.63v1.33h-.74v-2.91h.718v.432c.134-.303.394-.455.78-.455.04 0 .098.004.172.012zm.273 2.111l.634-.148a.463.463 0 0 0 .142.317.493.493 0 0 0 .36.127.393.393 0 0 0 .266-.083.264.264 0 0 0 .095-.207c0-.146-.098-.24-.295-.284l-.362-.089c-.256-.059-.448-.165-.576-.319a.832.832 0 0 1-.192-.55c0-.264.098-.489.292-.674a1.02 1.02 0 0 1 .732-.278c.186 0 .35.029.49.086.141.057.25.13.328.219.078.088.138.178.179.269.04.09.066.179.078.266l-.618.148a.5.5 0 0 0-.131-.272c-.072-.08-.18-.119-.32-.119a.383.383 0 0 0-.248.083.255.255 0 0 0-.103.207c0 .142.084.229.25.26l.39.089c.264.06.465.168.604.325.14.158.209.347.209.568a.93.93 0 0 1-.278.674c-.186.19-.448.284-.785.284a1.38 1.38 0 0 1-.518-.092.9.9 0 0 1-.353-.236 1.172 1.172 0 0 1-.19-.29.997.997 0 0 1-.08-.281z"/>
    </g>
</svg>
