<svg xmlns="http://www.w3.org/2000/svg" width="24" height="16" viewBox="0 0 24 16">
    <g fill="none" fill-rule="nonzero">
        <path fill="#FAB446" d="M23.953 5.244H0V.426C0 .198.185.013.413.013H23.54c.228 0 .413.185.413.413v4.818z"/>
        <path fill="#73AF00" d="M23.54 15.706H.413A.413.413 0 0 1 0 15.293v-4.818h23.953v4.818a.413.413 0 0 1-.413.413z"/>
        <path fill="#F5F5F5" d="M0 5.244h23.953v5.231H0z"/>
        <g fill="#41479B" transform="translate(9.731 5.614)">
            <path d="M2.246 4.465a2.222 2.222 0 0 1-2.22-2.22c0-1.223.996-2.22 2.22-2.22 1.224 0 2.22.997 2.22 2.22 0 1.225-.996 2.22-2.22 2.22zm0-4.026c-.997 0-1.807.81-1.807 1.807 0 .996.81 1.806 1.807 1.806.996 0 1.806-.81 1.806-1.806 0-.997-.81-1.807-1.806-1.807z"/>
            <circle cx="2.246" cy="2.246" r="1"/>
            <path d="M2.246 2.486l-.64.157-1.374-.157V2.3l1.374-.158.64.158z"/>
            <path d="M2.246 2.486l.64.157 1.373-.157V2.3l-1.374-.158-.64.158z"/>
            <path d="M2.301 2.246l-.158-.64.158-1.374h.185l.157 1.374-.157.64z"/>
            <path d="M2.301 2.246l-.158.64.158 1.373h.185l.157-1.374-.157-.64zM2.219 2.272l-.498-.406L.795.849.85.795l1.017.926.406.498z"/>
            <path d="M2.219 2.272l.406.498 1.018.926.053-.053-.926-1.018-.498-.406z"/>
            <path d="M2.219 2.219l.406-.498L3.643.795l.053.054-.926 1.017-.498.406z"/>
            <path d="M2.219 2.219l-.498.406-.926 1.018.054.053 1.017-.926.406-.498z"/>
            <path d="M2.26 2.28l-.566.305L.4 3.05l-.029-.07 1.245-.585.615-.185z"/>
            <path d="M2.26 2.28l.616-.185L4.12 1.51l-.029-.07-1.294.466-.566.305z"/>
            <path d="M2.21 2.26l-.304-.566L1.44.4l.07-.029.585 1.245.186.615zM2.21 2.26l.186.616.585 1.244.07-.029-.466-1.294-.304-.566z"/>
            <path d="M2.231 2.28l-.615-.185L.37 1.51.4 1.44l1.294.466.566.305z"/>
            <path d="M2.231 2.28l.566.305 1.294.466.03-.07-1.245-.585-.616-.185z"/>
            <path d="M2.21 2.231l.186-.615L2.98.37l.07.03-.466 1.293-.304.566zM2.21 2.231l-.304.566-.466 1.294.07.03.585-1.245.186-.616z"/>
        </g>
        <circle cx="11.977" cy="7.86" r="1" fill="#F5F5F5"/>
        <circle cx="12.023" cy="7.906" r="1" fill="#41479B"/>
    </g>
</svg>
