<svg xmlns="http://www.w3.org/2000/svg" width="95" height="33" viewBox="0 0 95 33">
    <g fill="none" fill-rule="evenodd">
        <path fill="#000" d="M.32 8.624v-.736l1.568-.352v1.072c0 .725.176 1.27.528 1.632.352.363.827.544 1.424.544.576 0 1.03-.181 1.36-.544.33-.363.496-.87.496-1.52V.656h1.568v7.952c0 1.024-.312 1.885-.936 2.584-.624.699-1.448 1.048-2.472 1.048-1.099 0-1.963-.328-2.592-.984C.634 10.6.32 9.723.32 8.624zm16.72 2.272c.672 0 1.24-.243 1.704-.728.464-.485.696-1.16.696-2.024 0-.853-.232-1.523-.696-2.008a2.267 2.267 0 0 0-1.704-.728c-.672 0-1.24.243-1.704.728-.464.485-.696 1.155-.696 2.008 0 .864.232 1.539.696 2.024a2.267 2.267 0 0 0 1.704.728zm0-6.832c1.141 0 2.083.387 2.824 1.16.741.773 1.112 1.747 1.112 2.92 0 1.184-.368 2.163-1.104 2.936-.736.773-1.68 1.16-2.832 1.16s-2.096-.387-2.832-1.16c-.736-.773-1.104-1.752-1.104-2.936 0-1.173.37-2.147 1.112-2.92.741-.773 1.683-1.16 2.824-1.16zm11.456 11.152h-1.648l1.92-4.064-3.312-6.848h1.728l2.4 5.312 2.304-5.312h1.616l-5.008 10.912zM38.064 10l1.36-.48a1.6 1.6 0 0 0 .544 1.032c.31.272.725.408 1.248.408.405 0 .725-.099.96-.296a.916.916 0 0 0 .352-.728c0-.512-.33-.843-.992-.992l-1.312-.288c-.597-.128-1.067-.384-1.408-.768-.341-.384-.512-.848-.512-1.392 0-.661.27-1.232.808-1.712.539-.48 1.181-.72 1.928-.72.49 0 .928.072 1.312.216.384.144.683.333.896.568.213.235.373.453.48.656.107.203.187.41.24.624l-1.328.496a1.6 1.6 0 0 0-.112-.376 2.087 2.087 0 0 0-.248-.408 1.158 1.158 0 0 0-.488-.36 1.912 1.912 0 0 0-.752-.136c-.373 0-.68.101-.92.304-.24.203-.36.443-.36.72 0 .49.293.8.88.928l1.248.272c.683.15 1.208.424 1.576.824.368.4.552.888.552 1.464 0 .608-.248 1.157-.744 1.648-.496.49-1.187.736-2.072.736-.95 0-1.69-.237-2.224-.712-.533-.475-.837-.984-.912-1.528zm15.104-4.544c-.65 0-1.203.235-1.656.704-.453.47-.68 1.13-.68 1.984 0 .843.227 1.504.68 1.984.453.48 1.01.72 1.672.72.64 0 1.128-.16 1.464-.48.336-.32.563-.688.68-1.104l1.328.576c-.213.64-.616 1.2-1.208 1.68s-1.347.72-2.264.72c-1.12 0-2.048-.39-2.784-1.168-.736-.779-1.104-1.755-1.104-2.928 0-1.195.368-2.173 1.104-2.936.736-.763 1.659-1.144 2.768-1.144.939 0 1.699.24 2.28.72.581.48.963 1.056 1.144 1.728l-1.36.576a2.43 2.43 0 0 0-.672-1.152c-.33-.32-.795-.48-1.392-.48zm8.688 4.48c0-.661.213-1.192.64-1.592.427-.4.992-.648 1.696-.744l2.08-.304c.395-.053.592-.245.592-.576 0-.405-.139-.736-.416-.992-.277-.256-.693-.384-1.248-.384-.512 0-.917.141-1.216.424-.299.283-.475.659-.528 1.128l-1.44-.336c.075-.736.41-1.336 1.008-1.8.597-.464 1.312-.696 2.144-.696 1.088 0 1.893.264 2.416.792.523.528.784 1.203.784 2.024v3.856c0 .459.032.88.096 1.264h-1.472a6.336 6.336 0 0 1-.08-1.04c-.213.341-.525.64-.936.896-.41.256-.925.384-1.544.384-.757 0-1.376-.227-1.856-.68-.48-.453-.72-.995-.72-1.624zm2.784 1.04c.672 0 1.21-.181 1.616-.544.405-.363.608-.939.608-1.728v-.352l-2.352.352c-.341.053-.613.176-.816.368-.203.192-.304.453-.304.784 0 .299.115.56.344.784.23.224.53.336.904.336zm11.552 4.064h-1.488V4.304h1.456v1.2c.224-.405.56-.736 1.008-.992.448-.256.97-.384 1.568-.384 1.11 0 1.976.379 2.6 1.136.624.757.936 1.717.936 2.88 0 1.173-.323 2.144-.968 2.912-.645.768-1.517 1.152-2.616 1.152-.565 0-1.067-.117-1.504-.352-.437-.235-.768-.533-.992-.896v4.08zm4.544-6.896c0-.779-.205-1.421-.616-1.928-.41-.507-.963-.76-1.656-.76-.683 0-1.235.253-1.656.76-.421.507-.632 1.15-.632 1.928 0 .8.21 1.453.632 1.96.421.507.973.76 1.656.76.683 0 1.232-.253 1.648-.76.416-.507.624-1.16.624-1.96zm8.432-.784h4.208c-.021-.576-.213-1.048-.576-1.416-.363-.368-.875-.552-1.536-.552-.597 0-1.088.195-1.472.584-.384.39-.592.85-.624 1.384zm4.432 2l1.296.448a3.408 3.408 0 0 1-1.248 1.752c-.608.453-1.344.68-2.208.68-1.077 0-1.992-.37-2.744-1.112-.752-.741-1.128-1.741-1.128-3 0-1.173.363-2.144 1.088-2.912.725-.768 1.59-1.152 2.592-1.152 1.163 0 2.07.365 2.72 1.096.65.73.976 1.71.976 2.936 0 .192-.01.352-.032.48H89.12c.01.683.237 1.243.68 1.68.443.437.99.656 1.64.656 1.099 0 1.819-.517 2.16-1.552z"/>
        <path stroke="#EB4E7E" stroke-linecap="square" stroke-width="2" d="M1.5 31.5h47"/>
    </g>
</svg>
