<svg xmlns="http://www.w3.org/2000/svg" width="110" height="54" viewBox="0 0 110 54">
    <g fill="none" fill-rule="evenodd">
        <g fill-rule="nonzero">
            <path fill="#E4E5E4" d="M67.7 35.163c3.624 0 11.621-.313 13.934-1.856 2.162-1.442 3.716-4.04 3.716-6.186 0-2.03 1.96-5.39 0-6.804-2.327-1.68-13.844-1.238-17.65-1.238-7.01 0-12.695 3.6-12.695 8.042s5.684 8.042 12.696 8.042z"/>
            <path fill="#E5E5E5" d="M58.1 24.293a1.14 1.14 0 0 1-1.854 1.326l-9.29-12.99a1.14 1.14 0 0 1 1.855-1.327l9.29 12.991zM62.599 22.813a1.14 1.14 0 0 1-2.182-.662L66.61 1.737a1.14 1.14 0 1 1 2.181.662L62.6 22.813zM66.586 21.49a1.14 1.14 0 0 1-1.487-1.728L87.393.585a1.14 1.14 0 0 1 1.487 1.728L66.586 21.49zM70.807 21.41a1.14 1.14 0 1 1-.64-2.187l30.654-8.97a1.14 1.14 0 1 1 .64 2.188l-30.654 8.97z"/>
            <path fill="#E5E5E5" d="M78.283 20.94a1.14 1.14 0 1 1 .57-2.207l22.853 5.91a1.14 1.14 0 0 1-.571 2.206l-22.852-5.91zM76.744 28.173a1.14 1.14 0 0 1 1.73-1.485l11.147 12.99a1.14 1.14 0 1 1-1.73 1.485l-11.147-12.99zM75.915 31.998a1.14 1.14 0 0 1 2.149.763l-6.812 19.177a1.14 1.14 0 1 1-2.149-.764l6.812-19.176zM70.06 33.366a1.14 1.14 0 0 1 1.474 1.739l-20.436 17.32a1.14 1.14 0 0 1-1.474-1.739l20.436-17.32zM65.21 32.833a1.14 1.14 0 1 1 .647 2.186l-28.177 8.35a1.14 1.14 0 0 1-.648-2.185l28.177-8.351z"/>
        </g>
        <path fill="#000" d="M68.832 43.272l.887-6.242h.096l2.538 5.12 2.52-5.12h.097l.895 6.242h-.617l-.609-4.469-2.208 4.469h-.156l-2.234-4.504-.609 4.504h-.6zm9.58-6.242h3.582v.617h-2.956v1.947h2.93v.609h-2.93v2.451h2.93v.618h-3.556V37.03zm5.677 6.242l.886-6.242h.096l2.538 5.12 2.521-5.12h.096l.895 6.242h-.617l-.608-4.469-2.208 4.469h-.157l-2.234-4.504-.609 4.504h-.6zm9.588-6.242h1.235c.654 0 1.151.132 1.49.395.34.264.509.642.509 1.135 0 .272-.068.523-.204.752a1.487 1.487 0 0 1-.596.552c.43.139.755.348.978.626.223.278.335.608.335.99 0 .517-.188.944-.565 1.283-.377.339-.864.509-1.46.509h-1.722V37.03zm.617.608v2h.357c.545 0 .95-.087 1.217-.261.266-.174.4-.446.4-.817 0-.614-.418-.922-1.252-.922h-.722zm0 2.626v2.399h.774c.446 0 .775-.045.987-.135.211-.09.384-.229.517-.417a.99.99 0 0 0 .2-.578c0-.197-.038-.371-.113-.522a1.178 1.178 0 0 0-.335-.4 1.513 1.513 0 0 0-.53-.26c-.206-.058-.59-.087-1.152-.087h-.348zm5.668-3.234h3.582v.617h-2.956v1.947h2.93v.609h-2.93v2.451h2.93v.618h-3.556V37.03zm5.99 0h1.243c.695 0 1.17.03 1.426.091.255.061.473.161.656.3.183.14.326.319.43.539.105.22.157.464.157.73 0 .533-.189.952-.565 1.256-.377.305-.91.445-1.6.422l2.252 2.904h-.774l-2.243-2.904h-.356v2.904h-.626V37.03zm.626.608v2.121h1.078c.533.006.926-.076 1.178-.247.252-.171.378-.442.378-.813 0-.371-.125-.64-.374-.809-.25-.168-.635-.252-1.156-.252h-1.104z"/>
        <g fill="#3A3A3A">
            <path d="M0 33.835v-14.13h3.707l5.287 7.31c.11.11.273.437.49.873.273.437.491.983.764 1.582a66.91 66.91 0 0 0-.164-1.527c0-.491-.054-.873-.054-1.255v-6.983h3.706v14.13H10.03l-5.288-7.256a6.104 6.104 0 0 1-.49-.927c-.273-.437-.49-.983-.763-1.582.054.6.109 1.145.163 1.582 0 .49.055.872.055 1.254v6.929H0M20.44 28.598h3.816l-1.418-4.692c-.054-.11-.108-.382-.163-.655a13.41 13.41 0 0 1-.327-1.255c-.055.382-.163.71-.218 1.037-.109.273-.163.6-.273.873l-1.417 4.692zM15.1 33.835l4.851-14.13h4.796l4.851 14.13h-3.815l-.709-2.51h-5.45l-.71 2.51H15.1zM31.56 29.307c.545.655 1.144 1.146 1.69 1.418.545.327 1.09.49 1.635.49.545 0 .926-.108 1.253-.38.327-.274.49-.655.49-1.092 0-.436-.108-.819-.381-1.037-.327-.272-.927-.545-1.962-.818-1.363-.381-2.344-.872-2.89-1.473-.598-.6-.871-1.418-.871-2.455 0-1.364.436-2.455 1.363-3.273.872-.872 2.071-1.309 3.488-1.309.763 0 1.526.109 2.18.327a8.11 8.11 0 0 1 1.963.928l-1.2 2.782c-.435-.382-.872-.654-1.308-.819-.49-.218-.927-.327-1.362-.327-.436 0-.818.109-1.145.382-.273.218-.436.491-.436.818 0 .382.163.655.381.874.273.218.764.381 1.472.6l.163.054c1.581.437 2.617.873 3.108 1.364.327.382.599.763.763 1.254.163.492.272 1.037.272 1.637 0 1.527-.49 2.728-1.472 3.6-.98.928-2.29 1.365-3.924 1.365-.981 0-1.853-.164-2.671-.492-.817-.326-1.58-.872-2.343-1.582l1.744-2.836M42.952 29.307c.599.655 1.145 1.146 1.69 1.418.598.327 1.143.49 1.69.49.49 0 .926-.108 1.253-.38.327-.274.49-.655.49-1.092 0-.436-.163-.819-.435-1.037-.273-.272-.927-.545-1.908-.818-1.418-.381-2.345-.872-2.944-1.473-.545-.6-.872-1.418-.872-2.455 0-1.364.49-2.455 1.363-3.273.926-.872 2.071-1.309 3.488-1.309.818 0 1.526.109 2.235.327a8.127 8.127 0 0 1 1.962.928l-1.2 2.782c-.436-.382-.871-.654-1.362-.819a2.897 2.897 0 0 0-1.308-.327c-.49 0-.872.109-1.144.382-.273.218-.437.491-.437.818 0 .382.109.655.382.874.272.218.763.381 1.472.6l.163.054c1.581.437 2.561.873 3.053 1.364.381.382.6.763.763 1.254.218.492.272 1.037.272 1.637 0 1.527-.49 2.728-1.472 3.6-.981.928-2.29 1.365-3.924 1.365-.982 0-1.853-.164-2.671-.492-.763-.326-1.58-.872-2.289-1.582l1.69-2.836M63.936 20.251v4.255a5.428 5.428 0 0 0-1.525-1.31c-.546-.272-1.091-.435-1.69-.435-1.09 0-2.017.381-2.671 1.145-.708.763-1.036 1.746-1.036 2.946 0 1.146.328 2.072 1.036 2.837.708.764 1.58 1.145 2.671 1.145.599 0 1.144-.163 1.69-.436a5.444 5.444 0 0 0 1.525-1.31v4.256c-.599.273-1.198.491-1.798.654-.6.164-1.2.219-1.799.219-.763 0-1.472-.11-2.126-.273-.654-.164-1.253-.492-1.798-.818a7.482 7.482 0 0 1-2.4-2.673c-.544-1.092-.816-2.292-.816-3.656 0-1.09.163-2.073.49-2.946.382-.872.873-1.691 1.581-2.4.654-.709 1.417-1.2 2.235-1.583.872-.326 1.798-.49 2.834-.49a6.74 6.74 0 0 1 1.799.218c.6.164 1.2.382 1.798.655M80.56 26.797a7.216 7.216 0 0 1-.598 2.892c-.328.872-.873 1.691-1.581 2.4a8.215 8.215 0 0 1-2.453 1.582c-.927.382-1.908.546-2.889.546-.98 0-1.962-.164-2.889-.546a7.328 7.328 0 0 1-2.398-1.582 7.135 7.135 0 0 1-1.69-2.4c-.326-.928-.545-1.855-.545-2.892 0-.982.219-1.964.545-2.837a7.145 7.145 0 0 1 1.69-2.4 7.343 7.343 0 0 1 2.398-1.582c.927-.382 1.908-.6 2.89-.6.98 0 1.961.218 2.888.6a8.233 8.233 0 0 1 2.453 1.582c.708.71 1.2 1.527 1.58 2.4.382.873.6 1.855.6 2.837zm-7.52 4.2a3.397 3.397 0 0 0 2.616-1.2c.708-.763 1.035-1.8 1.035-3 0-1.145-.327-2.128-1.035-2.946-.71-.764-1.581-1.2-2.617-1.2-1.09 0-1.962.436-2.616 1.2-.71.764-1.036 1.8-1.036 2.946 0 1.255.327 2.237.981 3 .709.764 1.581 1.2 2.671 1.2zM99.04 33.835h-3.544l-.818-6.11a36.096 36.096 0 0 1-.163-1.419c-.055-.546-.11-1.09-.163-1.745-.055.6-.273 1.364-.492 2.236-.053.219-.108.327-.163.437l-1.908 6.601h-2.561l-1.908-6.601c0-.11-.054-.218-.109-.437-.273-.872-.436-1.636-.49-2.182-.055.49-.11 1.037-.165 1.582-.053.49-.108 1.037-.163 1.528l-.817 6.11h-3.598l2.18-14.13h3.816l2.125 7.31c0 .055 0 .11.055.274.218.6.327 1.2.382 1.635 0-.218.054-.545.11-.817.108-.328.216-.655.326-1.091l2.125-7.311h3.816l2.126 14.13"/>
        </g>
    </g>
</svg>
