<svg width="613" height="361" viewBox="0 0 613 361" fill="none" xmlns="http://www.w3.org/2000/svg">
<path d="M342.577 53.1792L395.169 45.1693C399.57 73.9961 379.457 101.371 350.631 105.772C321.76 110.173 294.429 90.0599 290.028 61.2331C285.627 32.3623 305.696 5.03186 334.567 0.630819C339.144 -0.073347 343.809 -0.205378 348.43 0.322746L342.577 53.1792Z" fill="#E3E3E3"/>
<path d="M393.278 33.7267L353.272 41.2525L359.654 0.498901C387.38 10.8853 393.278 33.7267 393.278 33.7267Z" fill="#0F93D3"/>
<path fill-rule="evenodd" clip-rule="evenodd" d="M63.7287 71.8834C63.4646 56.0397 76.0956 42.8806 91.8953 42.6605C107.695 42.3965 120.766 55.1155 121.03 70.9592C121.294 86.847 108.619 99.962 92.8195 100.226C77.0198 100.49 63.9927 87.7712 63.7287 71.8834ZM106.067 71.2233C105.935 63.6095 99.6851 57.536 92.1594 57.6681C84.5896 57.8001 78.5602 64.0496 78.6922 71.6634C78.7802 79.2332 85.0297 85.3066 92.5995 85.1746C100.125 85.0865 106.199 78.7931 106.067 71.2233Z" fill="#B1B1B1"/>
<path d="M63.7287 72.3237C63.4646 56.48 76.0956 43.3209 91.8953 43.1008L92.1594 58.1084C84.5896 58.2404 78.5602 64.4899 78.6922 72.1037C78.7802 79.6735 85.0297 85.7469 92.5995 85.6149L92.8195 100.666C77.0198 100.93 63.9927 88.2115 63.7287 72.3237Z" fill="#E0E0E0"/>
<path d="M89.3398 40.7682C107.824 40.4601 122.568 54.8075 122.876 73.3799L105.36 73.6879C105.228 64.7978 98.45 59.2085 89.6479 59.3406L89.3398 40.7682Z" fill="#EBEBEB"/>
<path fill-rule="evenodd" clip-rule="evenodd" d="M477.467 316.361C477.203 300.473 489.834 287.358 505.634 287.094C521.433 286.874 534.504 299.549 534.768 315.437C534.988 331.325 522.358 344.44 506.558 344.66C490.758 344.924 477.687 332.249 477.467 316.361V316.361ZM519.805 315.657C519.673 308.087 513.423 302.014 505.898 302.146C498.328 302.234 492.298 308.527 492.386 316.097C492.519 323.711 498.768 329.784 506.338 329.652C513.864 329.52 519.937 323.271 519.805 315.657Z" fill="#ACACAC"/>
<path d="M477.467 316.361C477.203 300.473 489.834 287.358 505.634 287.094L505.898 302.146C498.328 302.234 492.298 308.527 492.386 316.097C492.519 323.711 498.768 329.784 506.338 329.652L506.558 344.66C490.758 344.924 477.687 332.249 477.467 316.361V316.361Z" fill="#E0E0E0"/>
<path d="M503.082 284.806C521.566 284.498 536.31 298.845 536.574 317.417L519.102 317.681C518.97 308.835 512.192 303.246 503.346 303.378L503.082 284.806Z" fill="#EBEBEB"/>
<g filter="url(#filter0_d_43_3700)">
<path d="M572.27 169.411H453.046V33.3313H572.27V169.411Z" fill="white"/>
</g>
<path d="M572.275 169.412C572.275 169.412 572.275 169.192 572.275 168.752C572.275 168.341 572.261 167.725 572.231 166.903C572.231 165.231 572.231 162.766 572.231 159.554C572.231 153.128 572.187 143.71 572.187 131.783C572.143 107.929 572.099 73.9093 572.055 33.3317L572.275 33.5518C537.155 33.5518 496.357 33.5518 453.051 33.5518L453.271 33.3317C453.271 83.5036 453.227 130.287 453.227 169.412L453.051 169.236C488.92 169.28 518.715 169.324 539.531 169.324C549.962 169.368 558.104 169.368 563.693 169.368C566.466 169.368 568.622 169.412 570.075 169.412C571.527 169.412 572.275 169.412 572.275 169.412C572.275 169.412 571.527 169.412 570.119 169.456C568.666 169.456 566.554 169.456 563.781 169.456C558.192 169.456 550.05 169.5 539.619 169.5C518.803 169.544 488.964 169.588 453.051 169.588H452.875V169.412C452.831 130.287 452.831 83.5036 452.831 33.3317V33.1117H453.051C496.357 33.1117 537.155 33.1557 572.275 33.1557H572.451V33.3317C572.407 73.9533 572.407 108.017 572.363 131.915C572.363 143.798 572.319 153.216 572.319 159.598C572.319 162.81 572.319 165.275 572.275 166.903C572.275 167.725 572.275 168.356 572.275 168.796C572.275 169.206 572.275 169.412 572.275 169.412V169.412Z" fill="#263238"/>
<path d="M562.014 102.823C561.97 102.911 560.693 102.163 558.185 101.371C555.676 100.579 551.847 99.8307 547.182 100.535C544.894 100.931 542.385 101.635 539.92 102.867C537.456 104.1 535.123 105.948 532.791 108.017C530.458 110.085 528.126 112.418 525.485 114.574C522.8 116.731 519.72 118.711 516.111 119.635C514.306 120.119 512.414 120.252 510.653 119.987C508.849 119.723 507.133 119.151 505.548 118.403C502.423 116.951 499.739 114.97 497.098 113.386C494.458 111.714 491.773 110.393 489.088 109.777C486.448 109.161 483.851 109.029 481.519 109.205C476.809 109.601 473.289 111.273 471.044 112.638C468.8 114.002 467.699 115.014 467.655 114.97C467.655 114.926 467.919 114.662 468.403 114.222C468.932 113.738 469.724 113.078 470.868 112.374C473.069 110.921 476.677 109.117 481.475 108.633C483.851 108.413 486.492 108.501 489.264 109.117C492.037 109.733 494.81 111.097 497.494 112.726C500.179 114.354 502.864 116.291 505.9 117.699C508.937 119.151 512.458 119.811 515.891 118.843C519.323 118.007 522.316 116.027 524.957 113.958C527.597 111.846 529.93 109.513 532.307 107.445C534.683 105.376 537.06 103.528 539.612 102.295C542.165 101.019 544.717 100.315 547.094 99.9627C551.891 99.3466 555.764 100.183 558.273 101.063C559.549 101.503 560.473 101.943 561.089 102.295C561.705 102.603 562.014 102.823 562.014 102.823V102.823Z" fill="#0F93D3"/>
<path d="M496.001 121.088V148.506H485.835V121.088H496.001Z" fill="#0F93D3"/>
<path d="M538.998 121.088V148.506H528.876V121.088H538.998Z" fill="#0F93D3"/>
<path d="M553.347 105.024V148.506H543.225V105.024H553.347Z" fill="#0F93D3"/>
<path d="M482.889 139.88V149.122H472.723V139.88H482.889Z" fill="#0F93D3"/>
<path d="M510.35 133.498V148.506H500.184V133.498H510.35Z" fill="#0F93D3"/>
<path d="M524.652 130.021V148.506H514.529V130.021H524.652Z" fill="#0F93D3"/>
<path d="M496.391 151.763C496.391 151.983 493.927 152.159 490.934 152.159C487.897 152.159 485.433 151.983 485.433 151.763C485.433 151.543 487.897 151.323 490.934 151.323C493.927 151.323 496.391 151.543 496.391 151.763Z" fill="#263238"/>
<path d="M483.771 151.763C483.771 151.983 481.35 152.159 478.314 152.159C475.277 152.159 472.856 151.983 472.856 151.763C472.856 151.543 475.277 151.323 478.314 151.323C481.35 151.323 483.771 151.543 483.771 151.763Z" fill="#263238"/>
<path d="M555.329 151.763C555.329 151.983 552.556 152.159 549.167 152.159C545.735 152.159 542.962 151.983 542.962 151.763C542.962 151.543 545.735 151.323 549.167 151.323C552.556 151.323 555.329 151.543 555.329 151.763Z" fill="#263238"/>
<path d="M540.274 151.763C540.274 151.983 537.501 152.159 534.069 152.159C530.68 152.159 527.907 151.983 527.907 151.763C527.907 151.543 530.68 151.323 534.069 151.323C537.501 151.323 540.274 151.543 540.274 151.763Z" fill="#263238"/>
<path d="M524.65 151.763C524.65 151.983 522.229 152.159 519.193 152.159C516.156 152.159 513.691 151.983 513.691 151.763C513.691 151.543 516.156 151.323 519.193 151.323C522.229 151.323 524.65 151.543 524.65 151.763Z" fill="#263238"/>
<path d="M509.869 151.763C509.869 151.983 507.404 152.159 504.367 152.159C501.375 152.159 498.91 151.983 498.91 151.763C498.91 151.543 501.375 151.323 504.367 151.323C507.404 151.323 509.869 151.543 509.869 151.763Z" fill="#263238"/>
<path d="M555.33 87.5961H472.502V53.1799H555.33V87.5961Z" fill="#E0E0E0"/>
<path d="M489.708 64.0504C489.708 66.2069 487.991 67.9233 485.835 67.9233C483.722 67.9233 482.006 66.2069 482.006 64.0504C482.006 61.9379 483.722 60.1775 485.835 60.1775C487.991 60.1775 489.708 61.9379 489.708 64.0504Z" fill="#263238"/>
<path d="M520.47 62.8623H493.58V61.4099H520.47V62.8623Z" fill="#263238"/>
<path d="M545.908 66.2952H493.58V64.7988H545.908V66.2952Z" fill="white"/>
<path d="M489.708 75.933C489.708 78.0455 487.991 79.8059 485.835 79.8059C483.722 79.8059 482.006 78.0455 482.006 75.933C482.006 73.7765 483.722 72.0601 485.835 72.0601C487.991 72.0601 489.708 73.7765 489.708 75.933Z" fill="#0F93D3"/>
<path d="M507.311 74.7445H493.58V73.2482H507.311V74.7445Z" fill="#0F93D3"/>
<path d="M545.908 78.1337H493.58V76.6373H545.908V78.1337Z" fill="white"/>
<g filter="url(#filter1_d_43_3700)">
<path d="M517.647 203.959L589.208 204.576L588.328 304.787L516.767 304.171L517.647 203.959Z" fill="white"/>
</g>
<path d="M516.767 304.171C516.767 304.171 516.767 304.01 516.767 303.687C516.767 303.364 516.767 302.909 516.767 302.323C516.767 301.046 516.767 299.242 516.811 296.865C516.811 292.112 516.855 285.159 516.899 276.312C517.031 258.664 517.207 233.578 517.427 203.959V203.739H517.647C539.256 203.915 563.55 204.135 589.208 204.356H589.428V204.576C589.076 242.072 588.768 276.797 588.504 304.787V304.963H588.328C566.586 304.743 548.674 304.523 536.219 304.391C529.97 304.347 525.129 304.259 521.828 304.259C520.185 304.23 518.923 304.2 518.043 304.171C517.192 304.171 516.767 304.171 516.767 304.171C516.767 304.171 517.251 304.127 518.087 304.127C518.967 304.127 520.229 304.142 521.872 304.171C525.217 304.171 530.102 304.215 536.307 304.215C548.762 304.303 566.63 304.435 588.328 304.567L588.151 304.787C588.372 276.797 588.68 242.072 588.988 204.576L589.208 204.796C563.55 204.576 539.256 204.356 517.647 204.179L517.867 203.959C517.559 233.534 517.295 258.576 517.119 276.18C517.031 285.027 516.943 291.98 516.899 296.777C516.855 299.154 516.855 301.002 516.811 302.235C516.811 302.851 516.811 303.335 516.811 303.687C516.781 303.98 516.767 304.142 516.767 304.171V304.171Z" fill="#263238"/>
<path d="M526.758 228.385C526.758 228.121 538.641 228.033 553.252 228.165C567.863 228.297 579.702 228.605 579.702 228.825C579.702 229.045 567.863 229.133 553.208 229.001C538.597 228.869 526.758 228.605 526.758 228.385Z" fill="#263238"/>
<path d="M526.717 235.427C526.717 235.207 538.556 235.119 553.167 235.251C567.778 235.383 579.617 235.647 579.617 235.911C579.617 236.131 567.778 236.219 553.167 236.087C538.556 235.955 526.717 235.691 526.717 235.427Z" fill="#263238"/>
<path d="M526.672 242.512C526.672 242.292 538.511 242.204 553.122 242.336C567.734 242.468 579.573 242.732 579.573 242.952C579.573 243.216 567.734 243.304 553.122 243.172C538.511 243.04 526.628 242.732 526.672 242.512Z" fill="#263238"/>
<path d="M526.586 249.598C526.586 249.378 538.425 249.29 553.036 249.422C567.692 249.51 579.53 249.818 579.53 250.038C579.53 250.258 567.648 250.346 553.036 250.258C538.425 250.126 526.586 249.818 526.586 249.598Z" fill="#263238"/>
<path d="M526.542 256.684C526.542 256.419 538.381 256.331 552.992 256.463C567.604 256.596 579.442 256.904 579.442 257.124C579.442 257.344 567.604 257.432 552.992 257.3C538.381 257.168 526.542 256.904 526.542 256.684Z" fill="#263238"/>
<path d="M545.464 291.496H536.97V264.87H545.464V291.496Z" fill="#0F93D3"/>
<path d="M558.182 291.496H549.688V270.943H558.182V291.496Z" fill="#0F93D3"/>
<path d="M569.976 291.496H561.438V279.305H569.976V291.496Z" fill="#0F93D3"/>
<path d="M453.926 186.839C453.926 186.839 454.028 186.825 454.234 186.795C454.469 186.795 454.762 186.795 455.114 186.795C455.965 186.766 457.124 186.751 458.591 186.751C461.672 186.707 466.029 186.707 471.354 186.663C482.18 186.663 497.056 186.619 513.472 186.619C527.775 186.619 540.934 186.619 551.057 186.663H551.277V186.839C551.233 192.208 551.233 196.565 551.189 199.646C551.159 201.143 551.145 202.316 551.145 203.167C551.115 203.548 551.101 203.857 551.101 204.091C551.101 204.297 551.086 204.399 551.057 204.399C551.057 204.399 551.057 204.297 551.057 204.091C551.027 203.857 551.013 203.548 551.013 203.167C550.983 202.316 550.969 201.143 550.969 199.646C550.925 196.565 550.881 192.208 550.837 186.839L551.057 187.015C540.934 187.015 527.775 187.059 513.472 187.059C497.056 187.015 482.18 187.015 471.354 186.971C466.029 186.971 461.672 186.927 458.591 186.927C457.124 186.898 455.965 186.883 455.114 186.883C454.762 186.883 454.469 186.869 454.234 186.839C454.028 186.839 453.926 186.839 453.926 186.839V186.839Z" fill="#263238"/>
<path d="M452.825 56.2602C452.825 56.2602 452.634 56.2749 452.253 56.3042C451.842 56.3042 451.314 56.3189 450.668 56.3482C449.216 56.3482 447.236 56.3922 444.771 56.3922C439.71 56.4362 432.756 56.4363 424.834 56.4803L425.054 56.2602C425.098 57.7566 425.098 59.2969 425.098 60.8813C425.186 69.9034 425.186 78.0453 425.142 83.9427C425.142 86.8914 425.098 89.312 425.054 90.9404C425.025 91.7619 424.981 92.3927 424.922 92.8328C424.893 93.2729 424.864 93.493 424.834 93.493C424.834 93.493 424.878 89.8401 424.834 83.9427C424.79 78.0013 424.746 69.8594 424.658 60.8813C424.658 59.2969 424.614 57.7566 424.614 56.2602V56.0402H424.834C432.756 56.0402 439.71 56.0842 444.771 56.0842C447.236 56.1282 449.216 56.1722 450.668 56.1722C451.314 56.2015 451.842 56.2162 452.253 56.2162C452.634 56.2162 452.825 56.2309 452.825 56.2602V56.2602Z" fill="#263238"/>
<path d="M455.067 56.2605C455.067 57.4928 454.055 58.505 452.823 58.505C451.546 58.505 450.534 57.4928 450.534 56.2605C450.534 55.0282 451.546 54.016 452.823 54.016C454.055 54.016 455.067 55.0282 455.067 56.2605Z" fill="#263238"/>
<path d="M553.391 204.399C553.391 205.632 552.378 206.644 551.102 206.644C549.87 206.644 548.857 205.632 548.857 204.399C548.857 203.167 549.87 202.155 551.102 202.155C552.378 202.155 553.391 203.167 553.391 204.399Z" fill="#263238"/>
<g filter="url(#filter2_d_43_3700)">
<path d="M459.508 100.888V316.758C459.508 322.04 455.239 326.309 449.958 326.309H336.235C329.502 352.363 355.644 361.297 355.644 361.297H245.926C269.076 349.37 261.638 326.309 261.638 326.309H144.306C139.025 326.309 134.756 322.04 134.756 316.758V100.888C134.756 95.6063 139.025 91.3373 144.306 91.3373H449.958C455.239 91.3373 459.508 95.6063 459.508 100.888V100.888Z" fill="#455A64"/>
<path d="M301.202 303.599C305.383 309.54 298.87 316.054 292.928 311.873C292.708 311.741 292.532 311.565 292.4 311.389C288.263 305.447 294.777 298.934 300.718 303.071C300.894 303.203 301.07 303.379 301.202 303.599Z" fill="#263238"/>
<path d="M454.229 286.787H140.039V103.836C140.039 99.0825 143.868 95.2976 148.577 95.2976H445.691C450.4 95.2976 454.229 99.0825 454.229 103.836V286.787Z" fill="white"/>
<path d="M454.228 111.185H140.038V103.352C140.038 98.9066 143.647 95.2977 148.092 95.2977H447.626C451.279 95.2977 454.228 98.2464 454.228 101.899V111.185Z" fill="#0F93D3"/>
<path d="M152.23 103.572C152.23 104.804 151.262 105.772 150.03 105.772C148.841 105.772 147.829 104.804 147.829 103.572C147.829 102.339 148.841 101.371 150.03 101.371C151.262 101.371 152.23 102.339 152.23 103.572V103.572Z" fill="#E0E0E0"/>
<path d="M158.834 103.572C158.834 104.804 157.821 105.772 156.633 105.772C155.401 105.772 154.433 104.804 154.433 103.572C154.433 102.339 155.401 101.371 156.633 101.371C157.821 101.371 158.834 102.339 158.834 103.572V103.572Z" fill="#E0E0E0"/>
<path d="M165.081 103.571C165.081 104.804 164.112 105.772 162.88 105.772C161.648 105.772 160.68 104.804 160.68 103.571C160.68 102.339 161.648 101.371 162.88 101.371C164.112 101.371 165.081 102.339 165.081 103.571V103.571Z" fill="#E0E0E0"/>
<path d="M395.298 326.308C395.298 326.44 351.816 326.528 298.167 326.528C244.518 326.528 201.036 326.44 201.036 326.308C201.036 326.22 244.518 326.132 298.167 326.132C351.816 326.132 395.298 326.22 395.298 326.308Z" fill="#263238"/>
<path d="M241.44 279.833H236.291L226.433 279.877L153.816 280.097L153.64 219.935L241.264 219.671L241.44 279.833Z" fill="#F5F5F5"/>
<path d="M160.371 273.627C160.282 273.627 160.15 263.417 160.106 250.83C160.106 238.243 160.15 228.033 160.238 228.033C160.371 228.033 160.459 238.243 160.503 250.83C160.547 263.417 160.503 273.627 160.371 273.627Z" fill="#263238"/>
<path d="M236.42 267.158C236.42 267.246 219.3 267.378 198.219 267.422C177.139 267.51 160.062 267.466 160.062 267.378C160.062 267.246 177.139 267.114 198.219 267.07C219.3 266.982 236.42 267.026 236.42 267.158Z" fill="#EBEBEB"/>
<path d="M236.376 260.468C236.376 260.556 219.3 260.688 198.219 260.776C177.139 260.82 160.062 260.776 160.062 260.688C160.062 260.556 177.139 260.424 198.219 260.38C219.3 260.292 236.376 260.336 236.376 260.468Z" fill="#EBEBEB"/>
<path d="M236.378 253.779C236.378 253.867 219.258 253.999 198.222 254.087C177.141 254.131 160.021 254.087 160.021 253.999C160.021 253.867 177.097 253.735 198.222 253.691C219.258 253.603 236.378 253.647 236.378 253.779Z" fill="#EBEBEB"/>
<path d="M236.334 247.089C236.334 247.177 219.258 247.309 198.177 247.397C177.097 247.441 160.021 247.397 160.021 247.309C160.021 247.177 177.097 247.045 198.177 247.001C219.258 246.957 236.334 246.957 236.334 247.089Z" fill="#EBEBEB"/>
<path d="M236.333 240.399C236.333 240.487 219.257 240.619 198.176 240.707C177.095 240.751 159.975 240.707 159.975 240.619C159.975 240.487 177.095 240.355 198.176 240.311C219.257 240.267 236.333 240.267 236.333 240.399Z" fill="#EBEBEB"/>
<path d="M236.289 233.71C236.289 233.798 219.213 233.93 198.132 234.018C177.051 234.062 159.975 234.018 159.975 233.93C159.975 233.798 177.051 233.666 198.132 233.622C219.213 233.578 236.289 233.578 236.289 233.71Z" fill="#EBEBEB"/>
<path d="M236.289 227.021C236.289 227.109 219.213 227.241 198.132 227.329C177.051 227.373 159.975 227.329 159.975 227.241C159.975 227.109 177.051 226.977 198.132 226.933C219.213 226.889 236.289 226.889 236.289 227.021Z" fill="#EBEBEB"/>
<path d="M170.712 273.627H165.255L165.211 263.197H170.712V273.627Z" fill="#0F93D3"/>
<path d="M210.499 273.496H204.998V263.109L210.455 263.065L210.499 273.496Z" fill="#0F93D3"/>
<path d="M181.454 273.584H175.997L175.953 255.495H181.41L181.454 273.584Z" fill="#0F93D3"/>
<path d="M201.522 273.54H196.065L195.977 250.742H201.434L201.522 273.54Z" fill="#0F93D3"/>
<path d="M191.622 273.539L186.164 273.583L186.032 236.923H191.534L191.622 273.539Z" fill="#0F93D3"/>
<path d="M221.104 273.451L215.603 273.495L215.515 243.612H221.016L221.104 273.451Z" fill="#0F93D3"/>
<path d="M227.619 273.451C227.619 273.539 212.567 273.671 194.083 273.716C175.554 273.804 160.503 273.76 160.503 273.627C160.503 273.539 175.51 273.407 194.083 273.363C212.567 273.275 227.619 273.319 227.619 273.451Z" fill="#263238"/>
<path d="M343.941 125.444V213.817H307.104H294.693H152.848V125.444H343.941Z" fill="#F5F5F5"/>
<path d="M166.274 186.487V189.26H166.01V186.751H165.35V186.487H166.274Z" fill="#263238"/>
<path fill-rule="evenodd" clip-rule="evenodd" d="M166.979 187.895C166.979 186.971 167.42 186.443 168.08 186.443C168.74 186.443 169.18 186.971 169.18 187.895C169.18 188.775 168.74 189.303 168.08 189.303C167.42 189.303 166.979 188.775 166.979 187.895ZM168.916 187.895C168.916 187.147 168.564 186.707 168.08 186.707C167.596 186.707 167.244 187.147 167.244 187.895C167.244 188.599 167.596 189.039 168.08 189.039C168.564 189.039 168.916 188.599 168.916 187.895Z" fill="#263238"/>
<path d="M167.42 171.655V171.919H165.484V171.743L166.628 170.599C166.936 170.291 167.024 170.071 167.024 169.895C167.024 169.587 166.76 169.367 166.364 169.367C166.041 169.367 165.777 169.469 165.572 169.675L165.396 169.499C165.616 169.279 165.968 169.103 166.364 169.103C166.936 169.103 167.288 169.411 167.288 169.851C167.288 170.115 167.2 170.379 166.848 170.731L165.88 171.655H167.42Z" fill="#263238"/>
<path fill-rule="evenodd" clip-rule="evenodd" d="M167.771 170.555C167.771 169.631 168.256 169.103 168.872 169.103C169.532 169.103 170.016 169.631 170.016 170.555C170.016 171.435 169.532 171.963 168.872 171.963C168.256 171.963 167.771 171.435 167.771 170.555ZM169.708 170.555C169.708 169.807 169.356 169.367 168.872 169.367C168.388 169.367 168.08 169.807 168.08 170.555C168.08 171.259 168.388 171.699 168.872 171.699C169.356 171.699 169.708 171.259 169.708 170.555Z" fill="#263238"/>
<path d="M167.374 153.788C167.374 154.228 167.022 154.624 166.362 154.624C165.966 154.624 165.57 154.448 165.35 154.228L165.482 154.008C165.658 154.228 166.01 154.36 166.362 154.36C166.802 154.36 167.066 154.14 167.066 153.788C167.066 153.436 166.846 153.216 166.318 153.216H166.098V153.04L166.89 152.072H165.482V151.807H167.242V151.984L166.45 152.996C167.066 153.04 167.374 153.348 167.374 153.788V153.788Z" fill="#263238"/>
<path fill-rule="evenodd" clip-rule="evenodd" d="M167.771 153.171C167.771 152.291 168.255 151.763 168.871 151.763C169.531 151.763 170.015 152.291 170.015 153.171C170.015 154.095 169.531 154.624 168.871 154.624C168.255 154.624 167.771 154.095 167.771 153.171ZM169.707 153.171C169.707 152.423 169.355 152.027 168.871 152.027C168.387 152.027 168.079 152.423 168.079 153.171C168.079 153.919 168.387 154.36 168.871 154.36C169.355 154.36 169.707 153.919 169.707 153.171Z" fill="#263238"/>
<path fill-rule="evenodd" clip-rule="evenodd" d="M178.593 197.049C178.593 196.125 179.077 195.597 179.693 195.597C180.353 195.597 180.837 196.125 180.837 197.049C180.837 197.929 180.353 198.457 179.693 198.457C179.077 198.457 178.593 197.929 178.593 197.049ZM180.529 197.049C180.529 196.301 180.221 195.861 179.693 195.861C179.209 195.861 178.901 196.301 178.901 197.049C178.901 197.753 179.209 198.193 179.693 198.193C180.221 198.193 180.529 197.753 180.529 197.049Z" fill="#263238"/>
<path d="M199.237 195.641V198.413H198.973V195.905H198.312V195.641H199.237Z" fill="#263238"/>
<path d="M221.015 198.149V198.413H219.034V198.237L220.223 197.093C220.531 196.785 220.575 196.565 220.575 196.389C220.575 196.081 220.355 195.861 219.915 195.861C219.592 195.861 219.342 195.964 219.166 196.169L218.946 195.993C219.166 195.773 219.518 195.597 219.959 195.597C220.531 195.597 220.883 195.905 220.883 196.345C220.883 196.609 220.795 196.873 220.399 197.225L219.474 198.149H221.015Z" fill="#263238"/>
<path d="M241.571 197.622C241.571 198.106 241.219 198.458 240.559 198.458C240.163 198.458 239.767 198.326 239.547 198.106L239.723 197.842C239.899 198.062 240.207 198.194 240.559 198.194C241.043 198.194 241.263 197.974 241.263 197.622C241.263 197.27 241.043 197.05 240.515 197.05H240.339V196.874L241.087 195.905H239.679V195.641H241.483V195.817L240.691 196.83C241.263 196.874 241.571 197.182 241.571 197.622V197.622Z" fill="#263238"/>
<path d="M262.751 197.71H262.179V198.414H261.914V197.71H260.33V197.49L261.826 195.641H262.134L260.682 197.446H261.914V196.786H262.179V197.446H262.751V197.71Z" fill="#263238"/>
<path d="M282.892 197.622C282.892 198.062 282.54 198.458 281.879 198.458C281.483 198.458 281.087 198.326 280.867 198.106L280.999 197.842C281.175 198.062 281.527 198.194 281.879 198.194C282.32 198.194 282.584 197.974 282.584 197.622C282.584 197.27 282.364 197.05 281.659 197.05H281.043L281.219 195.641H282.716V195.906H281.439L281.351 196.786H281.703C282.584 196.786 282.892 197.094 282.892 197.622V197.622Z" fill="#263238"/>
<path fill-rule="evenodd" clip-rule="evenodd" d="M303.709 197.577C303.709 198.105 303.313 198.457 302.785 198.457C302.037 198.457 301.641 197.929 301.641 197.049C301.641 196.125 302.125 195.597 302.917 195.597C303.137 195.597 303.401 195.641 303.577 195.773L303.445 195.993C303.313 195.905 303.093 195.861 302.917 195.861C302.301 195.861 301.905 196.257 301.905 197.005C301.905 197.064 301.905 197.137 301.905 197.225C302.081 196.917 302.389 196.741 302.785 196.741C303.313 196.741 303.709 197.093 303.709 197.577V197.577ZM303.445 197.577C303.445 197.225 303.181 197.005 302.741 197.005C302.301 197.005 301.993 197.269 301.993 197.621C301.993 197.929 302.257 198.193 302.741 198.193C303.137 198.193 303.445 197.973 303.445 197.577Z" fill="#263238"/>
<path d="M324.23 195.641V195.817L323.041 198.414H322.733L323.922 195.905H322.469V196.389H322.161V195.641H324.23Z" fill="#263238"/>
<path d="M324.356 188.027C324.356 188.159 292.096 188.291 252.267 188.291C212.437 188.291 180.178 188.159 180.178 188.027C180.178 187.851 212.437 187.719 252.267 187.719C292.096 187.719 324.356 187.851 324.356 188.027Z" fill="#263238"/>
<path d="M324.356 170.598C324.356 170.731 292.096 170.863 252.267 170.863C212.437 170.863 180.178 170.731 180.178 170.598C180.178 170.422 212.437 170.29 252.267 170.29C292.096 170.29 324.356 170.422 324.356 170.598Z" fill="#263238"/>
<path d="M324.356 153.127C324.356 153.303 292.096 153.435 252.267 153.435C212.437 153.435 180.178 153.303 180.178 153.127C180.178 152.995 212.437 152.863 252.267 152.863C292.096 152.863 324.356 152.995 324.356 153.127Z" fill="#263238"/>
<path d="M180.182 187.762C180.182 188.246 179.742 188.686 179.258 188.686C178.73 188.686 178.29 188.246 178.29 187.762C178.29 187.234 178.73 186.838 179.258 186.838C179.742 186.838 180.182 187.234 180.182 187.762Z" fill="#0F93D3"/>
<path d="M200.909 187.763C200.909 188.247 200.469 188.687 199.985 188.687C199.457 188.687 199.062 188.247 199.062 187.763C199.062 187.235 199.457 186.839 199.985 186.839C200.469 186.839 200.909 187.235 200.909 187.763Z" fill="#0F93D3"/>
<path d="M221.648 187.763C221.648 188.247 221.208 188.687 220.724 188.687C220.196 188.687 219.8 188.247 219.8 187.763C219.8 187.235 220.196 186.839 220.724 186.839C221.208 186.839 221.648 187.235 221.648 187.763Z" fill="#0F93D3"/>
<path d="M242.371 187.763C242.371 188.247 241.975 188.687 241.447 188.687C240.919 188.687 240.523 188.247 240.523 187.763C240.523 187.235 240.919 186.839 241.447 186.839C241.975 186.839 242.371 187.235 242.371 187.763Z" fill="#0F93D3"/>
<path d="M263.091 187.763C263.091 188.247 262.695 188.687 262.167 188.687C261.639 188.687 261.243 188.247 261.243 187.763C261.243 187.235 261.639 186.839 262.167 186.839C262.695 186.839 263.091 187.235 263.091 187.763Z" fill="#0F93D3"/>
<path d="M304.551 187.763C304.551 188.247 304.155 188.687 303.627 188.687C303.143 188.687 302.703 188.247 302.703 187.763C302.703 187.235 303.143 186.839 303.627 186.839C304.155 186.839 304.551 187.235 304.551 187.763Z" fill="#0F93D3"/>
<path d="M283.83 187.763C283.83 188.247 283.434 188.687 282.906 188.687C282.422 188.687 281.982 188.247 281.982 187.763C281.982 187.235 282.422 186.839 282.906 186.839C283.434 186.839 283.83 187.235 283.83 187.763Z" fill="#0F93D3"/>
<path d="M325.283 187.762C325.283 188.246 324.887 188.686 324.359 188.686C323.875 188.686 323.436 188.246 323.436 187.762C323.436 187.234 323.875 186.839 324.359 186.839C324.887 186.839 325.283 187.234 325.283 187.762Z" fill="#0F93D3"/>
<path d="M189.6 188.027C189.6 188.335 189.336 188.599 188.984 188.599C188.676 188.599 188.412 188.335 188.412 188.027C188.412 187.675 188.676 187.411 188.984 187.411C189.336 187.411 189.6 187.675 189.6 188.027Z" fill="#E0E0E0"/>
<path d="M210.417 188.027C210.417 188.335 210.153 188.599 209.801 188.599C209.493 188.599 209.229 188.335 209.229 188.027C209.229 187.675 209.493 187.411 209.801 187.411C210.153 187.411 210.417 187.675 210.417 188.027Z" fill="#E0E0E0"/>
<path d="M231.227 188.027C231.227 188.335 230.963 188.599 230.611 188.599C230.303 188.599 229.995 188.335 229.995 188.027C229.995 187.675 230.303 187.411 230.611 187.411C230.963 187.411 231.227 187.675 231.227 188.027Z" fill="#E0E0E0"/>
<path d="M252.049 188.027C252.049 188.335 251.785 188.599 251.433 188.599C251.125 188.599 250.817 188.335 250.817 188.027C250.817 187.675 251.125 187.411 251.433 187.411C251.785 187.411 252.049 187.675 252.049 188.027Z" fill="#E0E0E0"/>
<path d="M272.865 188.027C272.865 188.335 272.601 188.599 272.249 188.599C271.897 188.599 271.633 188.335 271.633 188.027C271.633 187.675 271.897 187.411 272.249 187.411C272.601 187.411 272.865 187.675 272.865 188.027Z" fill="#E0E0E0"/>
<path d="M293.681 188.027C293.681 188.335 293.417 188.599 293.065 188.599C292.713 188.599 292.449 188.335 292.449 188.027C292.449 187.675 292.713 187.411 293.065 187.411C293.417 187.411 293.681 187.675 293.681 188.027Z" fill="#E0E0E0"/>
<path d="M314.5 188.027C314.5 188.335 314.192 188.599 313.884 188.599C313.533 188.599 313.269 188.335 313.269 188.027C313.269 187.675 313.533 187.411 313.884 187.411C314.192 187.411 314.5 187.675 314.5 188.027Z" fill="#E0E0E0"/>
<path d="M202.23 180.325C202.23 181.557 201.218 182.57 199.986 182.57C198.709 182.57 197.697 181.557 197.697 180.325C197.697 179.049 198.709 178.037 199.986 178.037C201.218 178.037 202.23 179.049 202.23 180.325Z" fill="#0F93D3"/>
<path d="M220.319 169.631C220.319 170.863 219.307 171.919 218.075 171.919C216.798 171.919 215.786 170.863 215.786 169.631C215.786 168.354 216.798 167.342 218.075 167.342C219.307 167.342 220.319 168.354 220.319 169.631Z" fill="#0F93D3"/>
<path d="M242.765 170.599C242.765 171.831 241.752 172.844 240.52 172.844C239.244 172.844 238.231 171.831 238.231 170.599C238.231 169.323 239.244 168.311 240.52 168.311C241.752 168.311 242.765 169.323 242.765 170.599Z" fill="#0F93D3"/>
<path d="M264.728 151.191C264.728 152.423 263.672 153.435 262.44 153.435C261.164 153.435 260.151 152.423 260.151 151.191C260.151 149.914 261.164 148.902 262.44 148.902C263.672 148.902 264.728 149.914 264.728 151.191Z" fill="#0F93D3"/>
<path d="M285.183 163.514C285.183 164.79 284.171 165.802 282.895 165.802C281.663 165.802 280.65 164.79 280.65 163.514C280.65 162.281 281.663 161.225 282.895 161.225C284.171 161.225 285.183 162.281 285.183 163.514Z" fill="#0F93D3"/>
<path d="M305.92 166.815C305.92 168.047 304.908 169.059 303.631 169.059C302.399 169.059 301.387 168.047 301.387 166.815C301.387 165.538 302.399 164.526 303.631 164.526C304.908 164.526 305.92 165.538 305.92 166.815Z" fill="#0F93D3"/>
<path d="M325.288 180.325C325.288 180.325 325.112 180.325 324.76 180.325C324.408 180.281 323.88 180.237 323.219 180.105C321.899 179.841 319.831 179.269 317.85 177.552C316.838 176.672 315.914 175.528 315.165 174.075C314.461 172.711 313.581 171.215 312.393 169.806C311.249 168.398 309.708 166.99 307.728 166.506C306.715 166.286 305.659 166.33 304.603 166.638C303.591 166.946 302.622 167.518 301.742 168.266C299.982 169.718 298.662 171.831 296.945 173.723C296.109 174.692 295.097 175.616 293.864 176.144C292.588 176.716 291.136 176.848 289.771 176.496C288.319 176.1 287.263 174.912 286.647 173.635C285.987 172.315 285.635 170.907 285.282 169.498C284.93 168.09 284.666 166.638 284.05 165.273C283.742 164.657 283.346 164.041 282.73 163.689C282.114 163.381 281.365 163.293 280.617 163.293C279.121 163.381 277.625 163.821 276.084 164.085C275.292 164.261 274.5 164.393 273.664 164.393C272.871 164.393 271.991 164.261 271.243 163.909C270.407 163.557 269.791 162.941 269.307 162.281C268.808 161.577 268.412 160.843 268.118 160.08C267.458 158.54 267.018 156.911 266.402 155.371C266.094 154.623 265.786 153.831 265.302 153.171C264.862 152.51 264.245 151.982 263.497 151.674C263.321 151.63 263.145 151.542 262.925 151.498L262.353 151.454C261.942 151.425 261.575 151.498 261.253 151.674C260.549 152.026 260.02 152.73 259.58 153.435C258.7 154.887 258.128 156.515 257.644 158.188C257.16 159.86 256.72 161.577 256.324 163.293C255.663 166.154 255.091 169.014 254.343 171.787C253.991 173.195 253.595 174.56 253.067 175.924C252.539 177.244 251.967 178.609 250.91 179.665C250.382 180.193 249.678 180.589 248.886 180.545C248.138 180.589 247.39 180.281 246.773 179.929C245.541 179.181 244.617 178.08 243.825 176.936C242.24 174.692 241.272 172.139 240.26 169.718C239.292 167.342 238.147 164.965 236.299 163.337C234.494 161.709 231.854 161.136 229.653 161.709C228.509 162.017 227.453 162.501 226.485 163.117C225.472 163.689 224.548 164.393 223.712 165.097C221.952 166.55 220.411 168.134 219.091 169.762H219.047C216.846 172.007 214.514 173.855 212.225 175.484C209.893 177.068 207.56 178.389 205.184 179.269C202.851 180.149 200.518 180.633 198.318 180.413C196.161 180.193 194.269 179.621 192.597 179.049C189.296 177.816 186.831 176.496 185.203 175.616C184.381 175.176 183.751 174.824 183.31 174.56C182.914 174.34 182.738 174.164 182.738 174.164C182.738 174.164 182.944 174.281 183.354 174.516C183.795 174.75 184.425 175.088 185.247 175.528C186.919 176.364 189.384 177.64 192.685 178.785C194.357 179.357 196.249 179.929 198.362 180.105C200.474 180.325 202.763 179.797 205.096 178.961C207.384 178.036 209.717 176.76 212.005 175.132C214.294 173.547 216.582 171.655 218.739 169.498C220.103 167.826 221.643 166.242 223.404 164.745C224.284 164.041 225.208 163.337 226.221 162.721C227.233 162.105 228.333 161.577 229.521 161.268C231.942 160.608 234.671 161.268 236.651 162.985C238.587 164.701 239.732 167.122 240.744 169.542C241.756 171.963 242.724 174.428 244.265 176.672C245.013 177.728 245.893 178.785 247.037 179.489C247.61 179.797 248.226 180.017 248.886 180.017C249.502 180.017 250.074 179.709 250.558 179.269C251.482 178.345 252.055 177.024 252.583 175.748C253.067 174.428 253.463 173.063 253.815 171.655C254.563 168.882 255.135 166.022 255.795 163.161C256.236 161.445 256.632 159.728 257.116 158.012C257.644 156.339 258.216 154.667 259.096 153.127C259.58 152.378 260.153 151.63 260.989 151.19C261.429 150.97 261.913 150.882 262.353 150.926L263.057 150.97C263.277 151.058 263.497 151.102 263.717 151.19C264.554 151.498 265.258 152.158 265.742 152.862C266.27 153.611 266.578 154.403 266.886 155.195C267.502 156.779 267.942 158.364 268.602 159.86C269.219 161.312 270.011 162.809 271.463 163.425C272.827 164.085 274.456 163.865 275.996 163.601C277.537 163.337 279.033 162.897 280.617 162.809C281.41 162.809 282.246 162.853 282.95 163.293C283.698 163.689 284.182 164.393 284.49 165.097C285.15 166.506 285.414 167.958 285.767 169.366C286.075 170.775 286.427 172.183 287.043 173.415C287.659 174.648 288.627 175.704 289.859 176.056C291.136 176.408 292.5 176.276 293.688 175.748C294.833 175.264 295.801 174.384 296.637 173.459C298.354 171.611 299.674 169.498 301.478 167.958C302.402 167.21 303.415 166.594 304.515 166.286C305.615 165.978 306.759 165.934 307.816 166.198C309.928 166.726 311.469 168.178 312.657 169.586C313.801 171.039 314.681 172.535 315.43 173.987C316.134 175.396 317.014 176.54 317.982 177.376C319.919 179.093 321.943 179.665 323.263 179.973C323.924 180.149 324.452 180.193 324.76 180.237C325.112 180.281 325.288 180.281 325.288 180.325V180.325Z" fill="#0F93D3"/>
<path d="M202.443 141.2C202.443 141.332 194.389 141.464 184.487 141.464C174.54 141.464 166.486 141.332 166.486 141.2C166.486 141.068 174.54 140.936 184.487 140.936C194.389 140.936 202.443 141.068 202.443 141.2Z" fill="#263238"/>
<path d="M443.493 126.017V212.409H376.421H362.03H351.6V126.017H443.493Z" fill="#F5F5F5"/>
<path fill-rule="evenodd" clip-rule="evenodd" d="M425.494 164.173C425.494 179.841 412.819 192.516 397.151 192.516C381.484 192.516 368.765 179.841 368.765 164.173C368.765 148.505 381.484 135.83 397.151 135.83C412.819 135.83 425.494 148.505 425.494 164.173V164.173ZM414.976 163.733C414.976 154.139 407.186 146.305 397.547 146.305C387.953 146.305 380.119 154.139 380.119 163.733C380.119 173.371 387.953 181.161 397.547 181.161C407.186 181.161 414.976 173.371 414.976 163.733Z" fill="#263238"/>
<path d="M425.488 164.173C425.488 166.814 425.136 169.366 424.431 171.831L414.177 169.014C414.705 167.342 414.969 165.582 414.969 163.733C414.969 154.139 407.179 146.305 397.541 146.305C397.541 142.916 397.585 138.823 397.585 135.831C413.033 136.051 425.488 148.638 425.488 164.173V164.173Z" fill="#0F93D3"/>
<path d="M380.207 165.363H368.809C368.779 164.981 368.765 164.585 368.765 164.174C368.765 152.423 375.938 142.345 386.105 138.032L390.462 147.846C384.388 150.531 380.119 156.648 380.119 163.734C380.149 164.292 380.178 164.834 380.207 165.363V165.363Z" fill="#455A64"/>
<path d="M414.181 169.015L424.436 171.831C421.091 183.758 410.132 192.516 397.149 192.516C395.345 192.516 393.628 192.384 391.956 192.032C392.616 188.203 393.452 183.318 393.893 180.765C395.066 181.029 396.284 181.162 397.545 181.162C405.335 181.162 411.937 176.056 414.181 169.015V169.015Z" fill="#0F93D3"/>
<g opacity="0.3">
<path d="M414.181 169.015L424.436 171.831C421.091 183.758 410.132 192.516 397.149 192.516C395.345 192.516 393.628 192.384 391.956 192.032C392.616 188.203 393.452 183.318 393.893 180.765C395.066 181.029 396.284 181.162 397.545 181.162C405.335 181.162 411.937 176.056 414.181 169.015V169.015Z" fill="black"/>
</g>
<path d="M393.807 165.142H392.75V166.507H391.298V165.142H387.821V164.13L390.858 160.081H392.442L389.626 163.954H391.342V162.722H392.75V163.954H393.807V165.142Z" fill="#263238"/>
<path fill-rule="evenodd" clip-rule="evenodd" d="M394.244 163.293C394.244 161.18 395.432 159.948 397.017 159.948C398.601 159.948 399.745 161.18 399.745 163.293C399.745 165.405 398.601 166.637 397.017 166.637C395.432 166.637 394.244 165.405 394.244 163.293ZM398.249 163.293C398.249 161.84 397.765 161.224 397.017 161.224C396.269 161.224 395.741 161.84 395.741 163.293C395.741 164.745 396.269 165.361 397.017 165.361C397.765 165.361 398.249 164.745 398.249 163.293Z" fill="#263238"/>
<path fill-rule="evenodd" clip-rule="evenodd" d="M400.362 161.753C400.362 160.697 401.022 159.992 401.991 159.992C402.915 159.992 403.575 160.653 403.575 161.753C403.575 162.853 402.915 163.557 401.991 163.557C401.022 163.557 400.362 162.853 400.362 161.753ZM402.651 161.753C402.651 161.093 402.387 160.741 401.991 160.741C401.595 160.741 401.287 161.093 401.287 161.753C401.287 162.457 401.595 162.809 401.991 162.809C402.387 162.809 402.651 162.457 402.651 161.753ZM405.82 160.08H406.92L402.519 166.506H401.419L405.82 160.08ZM404.763 164.834C404.763 163.733 405.423 163.029 406.348 163.029C407.272 163.029 407.976 163.733 407.976 164.834C407.976 165.89 407.272 166.594 406.348 166.594C405.423 166.594 404.763 165.89 404.763 164.834ZM407.008 164.834C407.008 164.129 406.744 163.821 406.348 163.821C405.952 163.821 405.688 164.129 405.688 164.834C405.688 165.494 405.952 165.846 406.348 165.846C406.744 165.846 407.008 165.494 407.008 164.834Z" fill="#263238"/>
<path d="M420.613 199.69C420.613 199.822 410.095 199.954 397.156 199.954C384.173 199.954 373.654 199.822 373.654 199.69C373.654 199.558 384.173 199.426 397.156 199.426C410.095 199.426 420.613 199.558 420.613 199.69Z" fill="#263238"/>
<path d="M410.134 204.003C410.134 204.135 404.325 204.267 397.151 204.267C389.933 204.267 384.124 204.135 384.124 204.003C384.124 203.871 389.933 203.739 397.151 203.739C404.325 203.739 410.134 203.871 410.134 204.003Z" fill="#263238"/>
<path d="M432.888 278.776H248.396V218.13H432.888V278.776Z" fill="#FAFAFA"/>
<path d="M417.305 232.477C417.305 232.609 385.969 232.697 347.284 232.697C308.643 232.697 277.264 232.609 277.264 232.477C277.264 232.389 308.643 232.301 347.284 232.301C385.969 232.301 417.305 232.389 417.305 232.477Z" fill="#EBEBEB"/>
<path d="M417.305 239.651C417.305 239.783 385.969 239.871 347.284 239.871C308.643 239.871 277.264 239.783 277.264 239.651C277.264 239.563 308.643 239.475 347.284 239.475C385.969 239.475 417.305 239.563 417.305 239.651Z" fill="#EBEBEB"/>
<path d="M417.305 246.825C417.305 246.957 385.969 247.045 347.284 247.045C308.643 247.045 277.264 246.957 277.264 246.825C277.264 246.737 308.643 246.649 347.284 246.649C385.969 246.649 417.305 246.737 417.305 246.825Z" fill="#EBEBEB"/>
<path d="M417.305 253.998C417.305 254.13 385.969 254.174 347.284 254.174C308.643 254.174 277.264 254.13 277.264 253.998C277.264 253.91 308.643 253.822 347.284 253.822C385.969 253.822 417.305 253.91 417.305 253.998Z" fill="#EBEBEB"/>
<path d="M417.305 261.172C417.305 261.26 385.969 261.348 347.284 261.348C308.643 261.348 277.264 261.26 277.264 261.172C277.264 261.084 308.643 260.996 347.284 260.996C385.969 260.996 417.305 261.084 417.305 261.172Z" fill="#EBEBEB"/>
<path d="M405.114 252.81C405.114 252.81 405.011 252.913 404.805 253.118C404.585 253.294 404.233 253.602 403.661 253.779C402.517 254.175 400.448 254.175 398.556 252.986C397.588 252.326 396.796 251.446 396.135 250.346C395.475 249.245 394.947 248.013 394.287 246.693C393.671 245.373 392.879 244.008 391.558 242.864C390.898 242.336 390.106 241.852 389.182 241.632C388.258 241.368 387.245 241.324 386.233 241.456C384.253 241.764 382.316 242.732 380.644 244.052C378.971 245.329 377.519 246.957 375.715 248.409C373.954 249.862 371.666 251.094 368.981 251.27C367.617 251.358 366.252 251.094 365.108 250.39C363.964 249.73 363.084 248.717 362.379 247.705C361.015 245.637 360.311 243.172 358.507 241.28C357.626 240.355 356.482 239.519 355.118 239.255C353.709 238.947 352.257 239.299 351.113 240.091C349.969 240.839 349.088 241.94 348.516 243.128C347.9 244.272 347.592 245.593 347.24 246.869C346.932 248.189 346.624 249.51 346.052 250.786C345.744 251.446 345.347 252.062 344.907 252.634C344.423 253.206 343.895 253.735 343.235 254.175C342.003 255.055 340.506 255.671 338.966 256.023C337.426 256.331 335.797 256.375 334.257 256.067C332.716 255.803 331.308 255.099 330.12 254.307C328.888 253.514 327.743 252.634 326.599 251.842C325.411 251.05 324.178 250.302 322.814 250.038C321.45 249.73 319.953 249.906 318.765 250.478C317.533 251.094 316.521 251.974 315.728 252.942C314.936 253.911 314.32 254.967 313.704 256.023C313.088 257.079 312.472 258.136 311.679 259.104C310.887 260.072 309.919 260.908 308.775 261.524C307.631 262.096 306.266 262.449 304.99 262.273C303.67 262.141 302.525 261.48 301.689 260.688C300.853 259.896 300.237 258.928 299.841 257.96C299.489 256.947 299.225 255.979 299.048 255.011C298.608 253.074 298.212 251.226 297.068 249.73C296.012 248.233 294.383 247.045 292.579 246.825C291.699 246.693 290.775 246.825 289.982 247.089C289.19 247.397 288.486 247.837 287.914 248.277C285.537 250.258 284.393 252.634 282.677 253.999C281.004 255.407 279.2 256.067 277.968 256.067C277.351 256.023 276.867 255.935 276.603 255.847C276.31 255.73 276.163 255.671 276.163 255.671C276.163 255.627 276.735 255.979 277.968 255.979C279.156 255.979 280.916 255.319 282.545 253.911C284.261 252.546 285.317 250.17 287.738 248.145C288.354 247.661 289.058 247.177 289.894 246.869C290.731 246.605 291.655 246.473 292.623 246.561C294.559 246.825 296.232 248.057 297.376 249.598C297.948 250.346 298.344 251.226 298.652 252.106C298.96 253.03 299.181 253.999 299.357 254.967C299.577 255.935 299.797 256.903 300.193 257.827C300.589 258.796 301.161 259.72 301.953 260.468C302.745 261.216 303.802 261.832 305.034 261.964C306.222 262.096 307.498 261.788 308.555 261.216C309.655 260.644 310.579 259.852 311.327 258.928C312.076 257.96 312.692 256.947 313.308 255.891C313.924 254.835 314.54 253.735 315.376 252.722C316.213 251.71 317.269 250.786 318.545 250.17C319.821 249.554 321.45 249.333 322.902 249.686C324.398 249.994 325.675 250.742 326.863 251.534C328.051 252.326 329.152 253.206 330.384 253.999C331.572 254.747 332.892 255.451 334.345 255.671C335.841 255.979 337.382 255.979 338.878 255.627C340.374 255.319 341.783 254.747 342.971 253.867C343.587 253.426 344.071 252.942 344.555 252.414C344.951 251.842 345.347 251.27 345.611 250.654C346.184 249.421 346.492 248.101 346.844 246.781C347.152 245.505 347.46 244.184 348.076 242.952C348.736 241.72 349.616 240.619 350.849 239.783C352.037 238.947 353.709 238.551 355.206 238.903C356.702 239.211 357.934 240.091 358.815 241.06C360.707 243.04 361.411 245.505 362.776 247.529C363.436 248.541 364.272 249.466 365.328 250.126C366.384 250.742 367.705 251.006 368.937 250.962C371.49 250.786 373.734 249.598 375.495 248.189C377.255 246.737 378.707 245.152 380.424 243.832C382.096 242.468 384.121 241.5 386.189 241.192C387.245 241.06 388.302 241.104 389.27 241.368C390.238 241.632 391.074 242.116 391.734 242.688C393.099 243.876 393.891 245.285 394.507 246.605C395.167 247.925 395.651 249.157 396.311 250.258C396.972 251.314 397.764 252.238 398.644 252.854C400.492 254.043 402.517 254.043 403.617 253.691C404.761 253.338 405.114 252.766 405.114 252.81V252.81Z" fill="#032130"/>
<path d="M414.009 251.138C414.009 251.138 413.848 251.152 413.525 251.182C413.349 251.182 413.129 251.138 412.909 251.094C412.689 251.05 412.425 251.006 412.117 250.874C410.972 250.434 409.52 249.377 407.98 247.837C407.569 247.426 407.158 247.001 406.747 246.561C406.351 246.12 405.999 245.592 405.471 245.152C404.459 244.316 403.007 243.656 401.334 243.524C400.542 243.48 399.662 243.568 398.826 243.832C397.989 244.096 397.241 244.536 396.581 245.108C395.261 246.297 394.249 247.793 392.928 249.245C392.224 249.993 391.476 250.698 390.552 251.27C389.627 251.798 388.483 252.194 387.339 252.282C384.962 252.546 382.498 251.974 380.209 251.138C377.877 250.301 375.676 249.157 373.168 248.409C371.935 248.057 370.615 247.793 369.295 247.749C367.93 247.705 366.566 247.969 365.334 248.497C362.869 249.509 360.889 251.402 358.556 252.942C357.368 253.734 356.048 254.394 354.595 254.835C353.143 255.275 351.602 255.495 350.062 255.495C346.981 255.583 343.813 254.835 341.084 253.338C338.399 251.93 336.067 249.861 334.306 247.485C332.458 245.108 331.49 242.424 330.169 239.959C329.509 238.727 328.717 237.538 327.749 236.57C326.737 235.558 325.548 234.722 324.184 234.194C322.864 233.622 321.323 233.446 319.915 233.798C318.507 234.106 317.318 234.854 316.35 235.822C315.426 236.746 314.722 237.847 314.238 238.991C313.754 240.179 313.445 241.367 313.137 242.556C312.829 243.744 312.565 244.932 312.213 246.076C311.861 247.221 311.333 248.321 310.673 249.333C309.397 251.402 307.592 253.118 305.568 254.35C303.499 255.671 301.167 256.463 298.834 256.727C296.501 256.991 294.213 256.683 292.232 256.067C288.139 254.791 285.279 252.062 284.223 249.245C283.65 247.881 283.386 246.517 282.99 245.328C282.594 244.14 282.11 243.04 281.406 242.248C279.91 240.663 277.973 240.091 276.785 240.179C275.509 240.311 275.024 240.795 275.024 240.751C275.024 240.795 275.465 240.267 276.741 240.135C278.017 240.003 279.998 240.531 281.538 242.16C282.286 242.996 282.77 244.052 283.21 245.284C283.606 246.473 283.914 247.837 284.443 249.201C285.543 251.93 288.36 254.57 292.32 255.803C294.301 256.419 296.545 256.683 298.79 256.419C301.079 256.155 303.323 255.363 305.348 254.13C307.328 252.854 309.088 251.182 310.321 249.157C311.641 247.177 312.169 244.844 312.741 242.468C313.005 241.279 313.357 240.047 313.842 238.859C314.37 237.715 315.074 236.57 316.042 235.558C317.01 234.59 318.287 233.754 319.827 233.401C321.323 233.049 322.952 233.269 324.36 233.842C325.812 234.37 327.045 235.25 328.101 236.306C329.113 237.362 329.905 238.551 330.565 239.783C331.886 242.292 332.898 244.932 334.658 247.265C336.419 249.597 338.663 251.622 341.348 253.03C343.989 254.438 347.069 255.187 350.062 255.143C351.558 255.099 353.055 254.879 354.463 254.482C355.827 254.042 357.148 253.426 358.292 252.678C360.581 251.138 362.561 249.245 365.158 248.145C366.478 247.617 367.886 247.353 369.295 247.397C370.703 247.441 372.023 247.705 373.3 248.101C375.852 248.849 378.053 250.037 380.341 250.83C382.63 251.666 385.006 252.238 387.295 252.018C388.395 251.886 389.451 251.534 390.376 251.006C391.256 250.478 392.004 249.817 392.664 249.069C393.984 247.661 394.997 246.12 396.405 244.932C397.065 244.36 397.857 243.876 398.738 243.612C399.618 243.348 400.498 243.26 401.378 243.304C403.095 243.48 404.591 244.14 405.603 245.02C406.131 245.504 406.527 245.988 406.924 246.429C407.334 246.898 407.73 247.323 408.112 247.705C409.608 249.289 411.016 250.345 412.161 250.786C413.305 251.27 414.009 251.094 414.009 251.138V251.138Z" fill="#0F93D3"/>
<path d="M267.675 232.83C267.675 232.962 266.839 233.05 265.827 233.05C264.815 233.05 263.979 232.962 263.979 232.83C263.979 232.742 264.815 232.654 265.827 232.654C266.839 232.654 267.675 232.742 267.675 232.83Z" fill="#E0E0E0"/>
<path d="M267.675 239.651C267.675 239.783 266.839 239.871 265.827 239.871C264.815 239.871 263.979 239.783 263.979 239.651C263.979 239.563 264.815 239.475 265.827 239.475C266.839 239.475 267.675 239.563 267.675 239.651Z" fill="#E0E0E0"/>
<path d="M267.675 246.473C267.675 246.561 266.839 246.649 265.827 246.649C264.815 246.649 263.979 246.561 263.979 246.473C263.979 246.385 264.815 246.297 265.827 246.297C266.839 246.297 267.675 246.385 267.675 246.473Z" fill="#E0E0E0"/>
<path d="M267.675 253.294C267.675 253.382 266.839 253.47 265.827 253.47C264.815 253.47 263.979 253.382 263.979 253.294C263.979 253.162 264.815 253.074 265.827 253.074C266.839 253.074 267.675 253.162 267.675 253.294Z" fill="#E0E0E0"/>
<path d="M267.675 260.116C267.675 260.204 266.839 260.292 265.827 260.292C264.815 260.292 263.979 260.204 263.979 260.116C263.979 259.984 264.815 259.896 265.827 259.896C266.839 259.896 267.675 259.984 267.675 260.116Z" fill="#E0E0E0"/>
<path d="M284.701 268.874C284.701 268.962 283.029 269.05 281.005 269.05C278.936 269.05 277.264 268.962 277.264 268.874C277.264 268.742 278.936 268.654 281.005 268.654C283.029 268.654 284.701 268.742 284.701 268.874Z" fill="#E0E0E0"/>
<path d="M317.36 268.874C317.36 268.962 315.687 269.05 313.619 269.05C311.594 269.05 309.922 268.962 309.922 268.874C309.922 268.742 311.594 268.654 313.619 268.654C315.687 268.654 317.36 268.742 317.36 268.874Z" fill="#E0E0E0"/>
<path d="M350.015 268.874C350.015 268.962 348.342 269.05 346.274 269.05C344.25 269.05 342.577 268.962 342.577 268.874C342.577 268.742 344.25 268.654 346.274 268.654C348.342 268.654 350.015 268.742 350.015 268.874Z" fill="#E0E0E0"/>
<path d="M382.67 268.874C382.67 268.962 380.998 269.05 378.929 269.05C376.905 269.05 375.232 268.962 375.232 268.874C375.232 268.742 376.905 268.654 378.929 268.654C380.998 268.654 382.67 268.742 382.67 268.874Z" fill="#E0E0E0"/>
<path d="M415.281 268.874C415.281 268.962 413.653 269.05 411.585 269.05C409.56 269.05 407.888 268.962 407.888 268.874C407.888 268.742 409.56 268.654 411.585 268.654C413.653 268.654 415.281 268.742 415.281 268.874Z" fill="#E0E0E0"/>
</g>
<path d="M109.497 353.638H13.2021V286.61H109.497V353.638Z" fill="#263238"/>
<path d="M99.0234 331.06H0V306.503H99.0234V331.06Z" fill="#455A64"/>
<path d="M23.8989 314.557H4.40234V311.564H23.8989V314.557Z" fill="#263238"/>
<path d="M23.8989 319.75H4.40234V316.713H23.8989V319.75Z" fill="#263238"/>
<path d="M23.8989 325.075H4.40234V322.083H23.8989V325.075Z" fill="#263238"/>
<path d="M31.601 313.368C31.601 313.984 31.1169 314.512 30.4567 314.512C29.8406 314.512 29.3564 313.984 29.3564 313.368C29.3564 312.752 29.8406 312.268 30.4567 312.268C31.1169 312.268 31.601 312.752 31.601 313.368Z" fill="#263238"/>
<path d="M36.5287 313.368C36.5287 313.984 36.0446 314.513 35.4284 314.513C34.8123 314.513 34.2842 313.984 34.2842 313.368C34.2842 312.752 34.8123 312.268 35.4284 312.268C36.0446 312.268 36.5287 312.752 36.5287 313.368Z" fill="#263238"/>
<path d="M41.4594 313.368C41.4594 313.984 40.9753 314.512 40.3591 314.512C39.743 314.512 39.2148 313.984 39.2148 313.368C39.2148 312.752 39.743 312.268 40.3591 312.268C40.9753 312.268 41.4594 312.752 41.4594 313.368Z" fill="#263238"/>
<path d="M46.3891 313.368C46.3891 313.984 45.9049 314.513 45.2888 314.513C44.6727 314.513 44.1445 313.984 44.1445 313.368C44.1445 312.752 44.6727 312.268 45.2888 312.268C45.9049 312.268 46.3891 312.752 46.3891 313.368Z" fill="#263238"/>
<path d="M84.6322 313.368C84.6322 313.984 84.148 314.512 83.5319 314.512C82.9158 314.512 82.4316 313.984 82.4316 313.368C82.4316 312.752 82.9158 312.268 83.5319 312.268C84.148 312.268 84.6322 312.752 84.6322 313.368Z" fill="#263238"/>
<path d="M89.6947 313.368C89.6947 313.984 89.1666 314.512 88.5505 314.512C87.9343 314.512 87.4502 313.984 87.4502 313.368C87.4502 312.752 87.9343 312.268 88.5505 312.268C89.1666 312.268 89.6947 312.752 89.6947 313.368Z" fill="#263238"/>
<path d="M51.3187 313.368C51.3187 313.984 50.8346 314.512 50.2184 314.512C49.6023 314.512 49.1182 313.984 49.1182 313.368C49.1182 312.752 49.6023 312.268 50.2184 312.268C50.8346 312.268 51.3187 312.752 51.3187 313.368Z" fill="#263238"/>
<path d="M75.5658 313.368C75.5658 313.984 75.0817 314.512 74.4656 314.512C73.8494 314.512 73.3213 313.984 73.3213 313.368C73.3213 312.752 73.8494 312.268 74.4656 312.268C75.0817 312.268 75.5658 312.752 75.5658 313.368Z" fill="#263238"/>
<path d="M56.2914 313.368C56.2914 313.984 55.7633 314.513 55.1471 314.513C54.531 314.513 54.0469 313.984 54.0469 313.368C54.0469 312.752 54.531 312.268 55.1471 312.268C55.7633 312.268 56.2914 312.752 56.2914 313.368Z" fill="#F5F5F5"/>
<path d="M61.2201 313.368C61.2201 313.984 60.692 314.512 60.0758 314.512C59.4597 314.512 58.9756 313.984 58.9756 313.368C58.9756 312.752 59.4597 312.268 60.0758 312.268C60.692 312.268 61.2201 312.752 61.2201 313.368Z" fill="#F5F5F5"/>
<path d="M71.2094 313.368C71.2094 313.984 70.7253 314.513 70.1091 314.513C69.493 314.513 68.9648 313.984 68.9648 313.368C68.9648 312.752 69.493 312.268 70.1091 312.268C70.7253 312.268 71.2094 312.752 71.2094 313.368Z" fill="#F5F5F5"/>
<path d="M93.7865 313.368C93.7865 313.984 93.2584 314.512 92.6423 314.512C92.0261 314.512 91.542 313.984 91.542 313.368C91.542 312.752 92.0261 312.268 92.6423 312.268C93.2584 312.268 93.7865 312.752 93.7865 313.368Z" fill="#F5F5F5"/>
<path d="M66.1469 313.368C66.1469 313.984 65.6628 314.512 65.0026 314.512C64.3865 314.512 63.9023 313.984 63.9023 313.368C63.9023 312.752 64.3865 312.268 65.0026 312.268C65.6628 312.268 66.1469 312.752 66.1469 313.368Z" fill="#FF725E"/>
<path d="M80.2748 313.368C80.2748 313.984 79.7907 314.513 79.1745 314.513C78.5584 314.513 78.0303 313.984 78.0303 313.368C78.0303 312.752 78.5584 312.268 79.1745 312.268C79.7907 312.268 80.2748 312.752 80.2748 313.368Z" fill="#FF725E"/>
<path d="M91.542 318.781C91.542 318.165 92.0261 317.637 92.6423 317.637C93.2584 317.637 93.7865 318.165 93.7865 318.781C93.7865 319.397 93.2584 319.881 92.6423 319.881C92.0261 319.881 91.542 319.397 91.542 318.781Z" fill="#263238"/>
<path d="M86.6133 318.781C86.6133 318.165 87.0974 317.637 87.7135 317.637C88.3297 317.637 88.8578 318.165 88.8578 318.781C88.8578 319.398 88.3297 319.882 87.7135 319.882C87.0974 319.882 86.6133 319.398 86.6133 318.781Z" fill="#263238"/>
<path d="M81.6816 318.782C81.6816 318.165 82.1658 317.637 82.7819 317.637C83.398 317.637 83.8822 318.165 83.8822 318.782C83.8822 319.398 83.398 319.882 82.7819 319.882C82.1658 319.882 81.6816 319.398 81.6816 318.782Z" fill="#263238"/>
<path d="M76.7559 318.781C76.7559 318.165 77.24 317.637 77.8561 317.637C78.4723 317.637 78.9564 318.165 78.9564 318.781C78.9564 319.397 78.4723 319.882 77.8561 319.882C77.24 319.882 76.7559 319.397 76.7559 318.781Z" fill="#263238"/>
<path d="M38.4648 318.781C38.4648 318.165 38.993 317.637 39.6091 317.637C40.2253 317.637 40.7094 318.165 40.7094 318.781C40.7094 319.397 40.2253 319.882 39.6091 319.882C38.993 319.882 38.4648 319.397 38.4648 318.781Z" fill="#263238"/>
<path d="M33.4482 318.781C33.4482 318.165 33.9324 317.637 34.5925 317.637C35.2087 317.637 35.6928 318.165 35.6928 318.781C35.6928 319.398 35.2087 319.882 34.5925 319.882C33.9324 319.882 33.4482 319.398 33.4482 318.781Z" fill="#263238"/>
<path d="M71.7822 318.781C71.7822 318.165 72.3103 317.637 72.9265 317.637C73.5426 317.637 74.0268 318.165 74.0268 318.781C74.0268 319.398 73.5426 319.882 72.9265 319.882C72.3103 319.882 71.7822 319.398 71.7822 318.781Z" fill="#263238"/>
<path d="M47.5752 318.781C47.5752 318.165 48.0593 317.637 48.6755 317.637C49.2916 317.637 49.7757 318.165 49.7757 318.781C49.7757 319.398 49.2916 319.882 48.6755 319.882C48.0593 319.882 47.5752 319.398 47.5752 318.781Z" fill="#263238"/>
<path d="M66.8535 318.781C66.8535 318.165 67.3816 317.637 67.9978 317.637C68.6139 317.637 69.098 318.165 69.098 318.781C69.098 319.398 68.6139 319.882 67.9978 319.882C67.3816 319.882 66.8535 319.398 66.8535 318.781Z" fill="#F5F5F5"/>
<path d="M61.9238 318.781C61.9238 318.165 62.4079 317.637 63.0241 317.637C63.6842 317.637 64.1684 318.165 64.1684 318.781C64.1684 319.397 63.6842 319.882 63.0241 319.882C62.4079 319.882 61.9238 319.397 61.9238 318.781Z" fill="#F5F5F5"/>
<path d="M51.9336 318.781C51.9336 318.165 52.4177 317.637 53.0339 317.637C53.65 317.637 54.1341 318.165 54.1341 318.781C54.1341 319.397 53.65 319.882 53.0339 319.882C52.4177 319.882 51.9336 319.397 51.9336 318.781Z" fill="#F5F5F5"/>
<path d="M29.3564 318.781C29.3564 318.165 29.8406 317.637 30.4567 317.637C31.1169 317.637 31.601 318.165 31.601 318.781C31.601 319.398 31.1169 319.882 30.4567 319.882C29.8406 319.882 29.3564 319.398 29.3564 318.781Z" fill="#F5F5F5"/>
<path d="M56.9932 318.781C56.9932 318.165 57.4773 317.637 58.0934 317.637C58.7096 317.637 59.2377 318.165 59.2377 318.781C59.2377 319.397 58.7096 319.882 58.0934 319.882C57.4773 319.882 56.9932 319.397 56.9932 318.781Z" fill="#FF725E"/>
<path d="M42.8662 318.781C42.8662 318.165 43.3503 317.637 43.9665 317.637C44.5826 317.637 45.1107 318.165 45.1107 318.781C45.1107 319.397 44.5826 319.881 43.9665 319.881C43.3503 319.881 42.8662 319.397 42.8662 318.781Z" fill="#FF725E"/>
<path d="M31.601 323.578C31.601 324.194 31.1169 324.679 30.4567 324.679C29.8406 324.679 29.3564 324.194 29.3564 323.578C29.3564 322.962 29.8406 322.434 30.4567 322.434C31.1169 322.434 31.601 322.962 31.601 323.578Z" fill="#263238"/>
<path d="M36.5287 323.578C36.5287 324.194 36.0446 324.679 35.4284 324.679C34.8123 324.679 34.2842 324.194 34.2842 323.578C34.2842 322.962 34.8123 322.434 35.4284 322.434C36.0446 322.434 36.5287 322.962 36.5287 323.578Z" fill="#263238"/>
<path d="M41.4594 323.579C41.4594 324.195 40.9753 324.679 40.3591 324.679C39.743 324.679 39.2148 324.195 39.2148 323.579C39.2148 322.963 39.743 322.434 40.3591 322.434C40.9753 322.434 41.4594 322.963 41.4594 323.579Z" fill="#263238"/>
<path d="M46.3891 323.579C46.3891 324.195 45.9049 324.679 45.2888 324.679C44.6727 324.679 44.1445 324.195 44.1445 323.579C44.1445 322.963 44.6727 322.434 45.2888 322.434C45.9049 322.434 46.3891 322.963 46.3891 323.579Z" fill="#263238"/>
<path d="M84.6322 323.579C84.6322 324.195 84.148 324.679 83.5319 324.679C82.9158 324.679 82.4316 324.195 82.4316 323.579C82.4316 322.962 82.9158 322.434 83.5319 322.434C84.148 322.434 84.6322 322.962 84.6322 323.579Z" fill="#263238"/>
<path d="M89.6947 323.578C89.6947 324.194 89.1666 324.679 88.5505 324.679C87.9343 324.679 87.4502 324.194 87.4502 323.578C87.4502 322.962 87.9343 322.434 88.5505 322.434C89.1666 322.434 89.6947 322.962 89.6947 323.578Z" fill="#263238"/>
<path d="M51.3187 323.578C51.3187 324.194 50.8346 324.679 50.2184 324.679C49.6023 324.679 49.1182 324.194 49.1182 323.578C49.1182 322.962 49.6023 322.434 50.2184 322.434C50.8346 322.434 51.3187 322.962 51.3187 323.578Z" fill="#263238"/>
<path d="M75.5658 323.579C75.5658 324.195 75.0817 324.679 74.4656 324.679C73.8494 324.679 73.3213 324.195 73.3213 323.579C73.3213 322.962 73.8494 322.434 74.4656 322.434C75.0817 322.434 75.5658 322.962 75.5658 323.579Z" fill="#263238"/>
<path d="M56.2914 323.579C56.2914 324.195 55.7633 324.679 55.1471 324.679C54.531 324.679 54.0469 324.195 54.0469 323.579C54.0469 322.962 54.531 322.434 55.1471 322.434C55.7633 322.434 56.2914 322.962 56.2914 323.579Z" fill="#F5F5F5"/>
<path d="M61.2201 323.579C61.2201 324.195 60.692 324.679 60.0758 324.679C59.4597 324.679 58.9756 324.195 58.9756 323.579C58.9756 322.963 59.4597 322.434 60.0758 322.434C60.692 322.434 61.2201 322.963 61.2201 323.579Z" fill="#F5F5F5"/>
<path d="M71.2094 323.578C71.2094 324.195 70.7253 324.679 70.1091 324.679C69.493 324.679 68.9648 324.195 68.9648 323.578C68.9648 322.962 69.493 322.434 70.1091 322.434C70.7253 322.434 71.2094 322.962 71.2094 323.578Z" fill="#F5F5F5"/>
<path d="M93.7865 323.579C93.7865 324.195 93.2584 324.679 92.6423 324.679C92.0261 324.679 91.542 324.195 91.542 323.579C91.542 322.962 92.0261 322.434 92.6423 322.434C93.2584 322.434 93.7865 322.962 93.7865 323.579Z" fill="#F5F5F5"/>
<path d="M66.1469 323.578C66.1469 324.194 65.6628 324.679 65.0026 324.679C64.3865 324.679 63.9023 324.194 63.9023 323.578C63.9023 322.962 64.3865 322.434 65.0026 322.434C65.6628 322.434 66.1469 322.962 66.1469 323.578Z" fill="#FF725E"/>
<path d="M80.2748 323.578C80.2748 324.195 79.7907 324.679 79.1745 324.679C78.5584 324.679 78.0303 324.195 78.0303 323.578C78.0303 322.962 78.5584 322.434 79.1745 322.434C79.7907 322.434 80.2748 322.962 80.2748 323.578Z" fill="#FF725E"/>
<path d="M99.0234 361.384H0V336.826H99.0234V361.384Z" fill="#455A64"/>
<path d="M31.3344 343.471C31.3344 344.088 30.8503 344.572 30.2341 344.572C29.618 344.572 29.0898 344.088 29.0898 343.471C29.0898 342.855 29.618 342.327 30.2341 342.327C30.8503 342.327 31.3344 342.855 31.3344 343.471Z" fill="#263238"/>
<path d="M36.264 343.471C36.264 344.088 35.7799 344.572 35.1637 344.572C34.5476 344.572 34.0635 344.088 34.0635 343.471C34.0635 342.855 34.5476 342.327 35.1637 342.327C35.7799 342.327 36.264 342.855 36.264 343.471Z" fill="#263238"/>
<path d="M41.2377 343.471C41.2377 344.087 40.7096 344.572 40.0934 344.572C39.4773 344.572 38.9932 344.087 38.9932 343.471C38.9932 342.855 39.4773 342.327 40.0934 342.327C40.7096 342.327 41.2377 342.855 41.2377 343.471Z" fill="#263238"/>
<path d="M46.1664 343.472C46.1664 344.088 45.6383 344.572 45.0221 344.572C44.406 344.572 43.9219 344.088 43.9219 343.472C43.9219 342.855 44.406 342.327 45.0221 342.327C45.6383 342.327 46.1664 342.855 46.1664 343.472Z" fill="#263238"/>
<path d="M84.4105 343.471C84.4105 344.087 83.8824 344.572 83.2663 344.572C82.6501 344.572 82.166 344.087 82.166 343.471C82.166 342.855 82.6501 342.327 83.2663 342.327C83.8824 342.327 84.4105 342.855 84.4105 343.471Z" fill="#263238"/>
<path d="M89.4281 343.471C89.4281 344.087 88.944 344.572 88.3279 344.572C87.7117 344.572 87.1836 344.087 87.1836 343.471C87.1836 342.855 87.7117 342.327 88.3279 342.327C88.944 342.327 89.4281 342.855 89.4281 343.471Z" fill="#263238"/>
<path d="M51.0941 343.471C51.0941 344.088 50.61 344.572 49.9499 344.572C49.3337 344.572 48.8496 344.088 48.8496 343.471C48.8496 342.855 49.3337 342.327 49.9499 342.327C50.61 342.327 51.0941 342.855 51.0941 343.471Z" fill="#263238"/>
<path d="M75.3451 343.471C75.3451 344.088 74.817 344.572 74.2008 344.572C73.5847 344.572 73.1006 344.088 73.1006 343.471C73.1006 342.855 73.5847 342.327 74.2008 342.327C74.817 342.327 75.3451 342.855 75.3451 343.471Z" fill="#263238"/>
<path d="M56.0258 343.471C56.0258 344.087 55.5417 344.571 54.9255 344.571C54.3094 344.571 53.7812 344.087 53.7812 343.471C53.7812 342.855 54.3094 342.327 54.9255 342.327C55.5417 342.327 56.0258 342.855 56.0258 343.471Z" fill="#F5F5F5"/>
<path d="M60.9535 343.471C60.9535 344.088 60.4694 344.572 59.8533 344.572C59.2371 344.572 58.709 344.088 58.709 343.471C58.709 342.855 59.2371 342.327 59.8533 342.327C60.4694 342.327 60.9535 342.855 60.9535 343.471Z" fill="#F5F5F5"/>
<path d="M70.9877 343.471C70.9877 344.087 70.4596 344.572 69.8434 344.572C69.2273 344.572 68.7432 344.087 68.7432 343.471C68.7432 342.855 69.2273 342.327 69.8434 342.327C70.4596 342.327 70.9877 342.855 70.9877 343.471Z" fill="#F5F5F5"/>
<path d="M93.5229 343.471C93.5229 344.088 93.0387 344.572 92.4226 344.572C91.8064 344.572 91.2783 344.088 91.2783 343.471C91.2783 342.855 91.8064 342.327 92.4226 342.327C93.0387 342.327 93.5229 342.855 93.5229 343.471Z" fill="#F5F5F5"/>
<path d="M65.8841 343.472C65.8841 344.088 65.4 344.572 64.7839 344.572C64.1677 344.572 63.6836 344.088 63.6836 343.472C63.6836 342.855 64.1677 342.327 64.7839 342.327C65.4 342.327 65.8841 342.855 65.8841 343.472Z" fill="#FF725E"/>
<path d="M80.0101 343.471C80.0101 344.088 79.526 344.572 78.9098 344.572C78.2937 344.572 77.8096 344.088 77.8096 343.471C77.8096 342.855 78.2937 342.327 78.9098 342.327C79.526 342.327 80.0101 342.855 80.0101 343.471Z" fill="#FF725E"/>
<path d="M91.2783 348.841C91.2783 348.225 91.8064 347.741 92.4226 347.741C93.0387 347.741 93.5229 348.225 93.5229 348.841C93.5229 349.457 93.0387 349.941 92.4226 349.941C91.8064 349.941 91.2783 349.457 91.2783 348.841Z" fill="#263238"/>
<path d="M86.3477 348.841C86.3477 348.225 86.8758 347.74 87.4919 347.74C88.1081 347.74 88.5922 348.225 88.5922 348.841C88.5922 349.457 88.1081 349.941 87.4919 349.941C86.8758 349.941 86.3477 349.457 86.3477 348.841Z" fill="#263238"/>
<path d="M81.4189 348.841C81.4189 348.225 81.9031 347.741 82.5192 347.741C83.1794 347.741 83.6635 348.225 83.6635 348.841C83.6635 349.457 83.1794 349.941 82.5192 349.941C81.9031 349.941 81.4189 349.457 81.4189 348.841Z" fill="#263238"/>
<path d="M76.4893 348.841C76.4893 348.225 76.9734 347.741 77.5895 347.741C78.2057 347.741 78.7338 348.225 78.7338 348.841C78.7338 349.457 78.2057 349.941 77.5895 349.941C76.9734 349.941 76.4893 349.457 76.4893 348.841Z" fill="#263238"/>
<path d="M38.2451 348.841C38.2451 348.225 38.7292 347.741 39.3454 347.741C39.9615 347.741 40.4896 348.225 40.4896 348.841C40.4896 349.457 39.9615 349.941 39.3454 349.941C38.7292 349.941 38.2451 349.457 38.2451 348.841Z" fill="#263238"/>
<path d="M33.2266 348.841C33.2266 348.225 33.7107 347.741 34.3268 347.741C34.943 347.741 35.4271 348.225 35.4271 348.841C35.4271 349.457 34.943 349.941 34.3268 349.941C33.7107 349.941 33.2266 349.457 33.2266 348.841Z" fill="#263238"/>
<path d="M71.5596 348.841C71.5596 348.225 72.0437 347.74 72.6598 347.74C73.276 347.74 73.8041 348.225 73.8041 348.841C73.8041 349.457 73.276 349.941 72.6598 349.941C72.0437 349.941 71.5596 349.457 71.5596 348.841Z" fill="#263238"/>
<path d="M47.3105 348.841C47.3105 348.225 47.7947 347.741 48.4108 347.741C49.027 347.741 49.5551 348.225 49.5551 348.841C49.5551 349.457 49.027 349.941 48.4108 349.941C47.7947 349.941 47.3105 349.457 47.3105 348.841Z" fill="#263238"/>
<path d="M66.6279 348.841C66.6279 348.225 67.112 347.74 67.7282 347.74C68.3443 347.74 68.8284 348.225 68.8284 348.841C68.8284 349.457 68.3443 349.941 67.7282 349.941C67.112 349.941 66.6279 349.457 66.6279 348.841Z" fill="#F5F5F5"/>
<path d="M61.6572 348.841C61.6572 348.225 62.1853 347.74 62.8015 347.74C63.4176 347.74 63.9018 348.225 63.9018 348.841C63.9018 349.457 63.4176 349.941 62.8015 349.941C62.1853 349.941 61.6572 349.457 61.6572 348.841Z" fill="#F5F5F5"/>
<path d="M51.6689 348.841C51.6689 348.225 52.1531 347.741 52.7692 347.741C53.3853 347.741 53.9135 348.225 53.9135 348.841C53.9135 349.457 53.3853 349.941 52.7692 349.941C52.1531 349.941 51.6689 349.457 51.6689 348.841Z" fill="#F5F5F5"/>
<path d="M29.0898 348.841C29.0898 348.225 29.618 347.741 30.2341 347.741C30.8503 347.741 31.3344 348.225 31.3344 348.841C31.3344 349.457 30.8503 349.941 30.2341 349.941C29.618 349.941 29.0898 349.457 29.0898 348.841Z" fill="#F5F5F5"/>
<path d="M56.7285 348.841C56.7285 348.225 57.2566 347.741 57.8728 347.741C58.4889 347.741 58.973 348.225 58.973 348.841C58.973 349.457 58.4889 349.941 57.8728 349.941C57.2566 349.941 56.7285 349.457 56.7285 348.841Z" fill="#FF725E"/>
<path d="M42.6025 348.841C42.6025 348.225 43.1307 347.741 43.7468 347.741C44.363 347.741 44.8471 348.225 44.8471 348.841C44.8471 349.457 44.363 349.941 43.7468 349.941C43.1307 349.941 42.6025 349.457 42.6025 348.841Z" fill="#FF725E"/>
<path d="M31.3344 353.638C31.3344 354.254 30.8503 354.738 30.2341 354.738C29.618 354.738 29.0898 354.254 29.0898 353.638C29.0898 353.022 29.618 352.538 30.2341 352.538C30.8503 352.538 31.3344 353.022 31.3344 353.638Z" fill="#263238"/>
<path d="M36.264 353.638C36.264 354.254 35.7799 354.738 35.1637 354.738C34.5476 354.738 34.0635 354.254 34.0635 353.638C34.0635 353.022 34.5476 352.537 35.1637 352.537C35.7799 352.537 36.264 353.022 36.264 353.638Z" fill="#263238"/>
<path d="M41.2377 353.638C41.2377 354.254 40.7096 354.738 40.0934 354.738C39.4773 354.738 38.9932 354.254 38.9932 353.638C38.9932 353.022 39.4773 352.538 40.0934 352.538C40.7096 352.538 41.2377 353.022 41.2377 353.638Z" fill="#263238"/>
<path d="M46.1664 353.638C46.1664 354.254 45.6383 354.738 45.0221 354.738C44.406 354.738 43.9219 354.254 43.9219 353.638C43.9219 353.022 44.406 352.537 45.0221 352.537C45.6383 352.537 46.1664 353.022 46.1664 353.638Z" fill="#263238"/>
<path d="M84.4105 353.638C84.4105 354.254 83.8824 354.738 83.2663 354.738C82.6501 354.738 82.166 354.254 82.166 353.638C82.166 353.022 82.6501 352.538 83.2663 352.538C83.8824 352.538 84.4105 353.022 84.4105 353.638Z" fill="#263238"/>
<path d="M89.4281 353.638C89.4281 354.254 88.944 354.738 88.3279 354.738C87.7117 354.738 87.1836 354.254 87.1836 353.638C87.1836 353.022 87.7117 352.538 88.3279 352.538C88.944 352.538 89.4281 353.022 89.4281 353.638Z" fill="#263238"/>
<path d="M51.0941 353.638C51.0941 354.254 50.61 354.738 49.9499 354.738C49.3337 354.738 48.8496 354.254 48.8496 353.638C48.8496 353.022 49.3337 352.538 49.9499 352.538C50.61 352.538 51.0941 353.022 51.0941 353.638Z" fill="#263238"/>
<path d="M75.3451 353.638C75.3451 354.254 74.817 354.738 74.2008 354.738C73.5847 354.738 73.1006 354.254 73.1006 353.638C73.1006 353.022 73.5847 352.538 74.2008 352.538C74.817 352.538 75.3451 353.022 75.3451 353.638Z" fill="#263238"/>
<path d="M56.0258 353.638C56.0258 354.254 55.5417 354.738 54.9255 354.738C54.3094 354.738 53.7812 354.254 53.7812 353.638C53.7812 353.022 54.3094 352.537 54.9255 352.537C55.5417 352.537 56.0258 353.022 56.0258 353.638Z" fill="#F5F5F5"/>
<path d="M60.9535 353.638C60.9535 354.254 60.4694 354.738 59.8533 354.738C59.2371 354.738 58.709 354.254 58.709 353.638C58.709 353.022 59.2371 352.538 59.8533 352.538C60.4694 352.538 60.9535 353.022 60.9535 353.638Z" fill="#F5F5F5"/>
<path d="M70.9877 353.638C70.9877 354.254 70.4596 354.738 69.8434 354.738C69.2273 354.738 68.7432 354.254 68.7432 353.638C68.7432 353.021 69.2273 352.537 69.8434 352.537C70.4596 352.537 70.9877 353.021 70.9877 353.638Z" fill="#F5F5F5"/>
<path d="M93.5229 353.638C93.5229 354.254 93.0387 354.738 92.4226 354.738C91.8064 354.738 91.2783 354.254 91.2783 353.638C91.2783 353.022 91.8064 352.538 92.4226 352.538C93.0387 352.538 93.5229 353.022 93.5229 353.638Z" fill="#F5F5F5"/>
<path d="M65.8841 353.638C65.8841 354.254 65.4 354.738 64.7839 354.738C64.1677 354.738 63.6836 354.254 63.6836 353.638C63.6836 353.022 64.1677 352.537 64.7839 352.537C65.4 352.537 65.8841 353.022 65.8841 353.638Z" fill="#FF725E"/>
<path d="M80.0101 353.638C80.0101 354.254 79.526 354.738 78.9098 354.738C78.2937 354.738 77.8096 354.254 77.8096 353.638C77.8096 353.022 78.2937 352.538 78.9098 352.538C79.526 352.538 80.0101 353.022 80.0101 353.638Z" fill="#FF725E"/>
<path d="M23.8989 344.88H4.40234V341.887H23.8989V344.88Z" fill="#263238"/>
<path d="M23.8989 350.029H4.40234V347.036H23.8989V350.029Z" fill="#263238"/>
<path d="M23.8989 355.399H4.40234V352.362H23.8989V355.399Z" fill="#263238"/>
<path d="M119.928 331.017L99.0234 331.061V306.503L119.928 306.459V331.017Z" fill="#263238"/>
<path d="M119.928 361.164L99.0234 361.208V336.65L119.928 336.606V361.164Z" fill="#263238"/>
<path d="M24.603 294.972H5.10645V291.979H24.603V294.972Z" fill="#263238"/>
<path d="M119.929 301.177L99.0244 301.221V276.444L119.929 276.4V301.177Z" fill="#263238"/>
<path d="M99.7294 300.957H0.706055V276.4H99.7294V300.957Z" fill="#455A64"/>
<path d="M24.604 284.454H5.10742V281.461H24.604V284.454Z" fill="#263238"/>
<path d="M24.604 289.647H5.10742V286.61H24.604V289.647Z" fill="#263238"/>
<path d="M32.307 283.265C32.307 283.881 31.8229 284.41 31.2068 284.41C30.5906 284.41 30.0625 283.881 30.0625 283.265C30.0625 282.649 30.5906 282.165 31.2068 282.165C31.8229 282.165 32.307 282.649 32.307 283.265Z" fill="#263238"/>
<path d="M37.2357 283.265C37.2357 283.882 36.7516 284.41 36.1355 284.41C35.5193 284.41 34.9912 283.882 34.9912 283.265C34.9912 282.649 35.5193 282.165 36.1355 282.165C36.7516 282.165 37.2357 282.649 37.2357 283.265Z" fill="#263238"/>
<path d="M42.1654 283.265C42.1654 283.881 41.6812 284.41 41.0651 284.41C40.449 284.41 39.9648 283.881 39.9648 283.265C39.9648 282.649 40.449 282.165 41.0651 282.165C41.6812 282.165 42.1654 282.649 42.1654 283.265Z" fill="#263238"/>
<path d="M47.1361 283.265C47.1361 283.882 46.608 284.41 45.9919 284.41C45.3757 284.41 44.8916 283.882 44.8916 283.265C44.8916 282.649 45.3757 282.165 45.9919 282.165C46.608 282.165 47.1361 282.649 47.1361 283.265Z" fill="#263238"/>
<path d="M85.3852 283.265C85.3852 283.881 84.857 284.41 84.2409 284.41C83.6247 284.41 83.1406 283.881 83.1406 283.265C83.1406 282.649 83.6247 282.165 84.2409 282.165C84.857 282.165 85.3852 282.649 85.3852 283.265Z" fill="#263238"/>
<path d="M90.4027 283.265C90.4027 283.882 89.9186 284.41 89.3025 284.41C88.6863 284.41 88.1582 283.882 88.1582 283.265C88.1582 282.649 88.6863 282.165 89.3025 282.165C89.9186 282.165 90.4027 282.649 90.4027 283.265Z" fill="#263238"/>
<path d="M52.0688 283.265C52.0688 283.882 51.5406 284.41 50.9245 284.41C50.3083 284.41 49.8242 283.882 49.8242 283.265C49.8242 282.649 50.3083 282.165 50.9245 282.165C51.5406 282.165 52.0688 282.649 52.0688 283.265Z" fill="#263238"/>
<path d="M76.3178 283.265C76.3178 283.881 75.7896 284.41 75.1735 284.41C74.5574 284.41 74.0732 283.881 74.0732 283.265C74.0732 282.649 74.5574 282.165 75.1735 282.165C75.7896 282.165 76.3178 282.649 76.3178 283.265Z" fill="#263238"/>
<path d="M56.9975 283.265C56.9975 283.881 56.5133 284.41 55.8532 284.41C55.237 284.41 54.7529 283.881 54.7529 283.265C54.7529 282.649 55.237 282.165 55.8532 282.165C56.5133 282.165 56.9975 282.649 56.9975 283.265Z" fill="#F5F5F5"/>
<path d="M61.9252 283.265C61.9252 283.881 61.4411 284.41 60.8249 284.41C60.2088 284.41 59.6807 283.881 59.6807 283.265C59.6807 282.649 60.2088 282.165 60.8249 282.165C61.4411 282.165 61.9252 282.649 61.9252 283.265Z" fill="#F5F5F5"/>
<path d="M71.9584 283.265C71.9584 283.882 71.4303 284.41 70.8141 284.41C70.198 284.41 69.7139 283.882 69.7139 283.265C69.7139 282.649 70.198 282.165 70.8141 282.165C71.4303 282.165 71.9584 282.649 71.9584 283.265Z" fill="#F5F5F5"/>
<path d="M94.4935 283.265C94.4935 283.881 94.0094 284.41 93.3933 284.41C92.7771 284.41 92.249 283.881 92.249 283.265C92.249 282.649 92.7771 282.165 93.3933 282.165C94.0094 282.165 94.4935 282.649 94.4935 283.265Z" fill="#F5F5F5"/>
<path d="M66.8549 283.265C66.8549 283.882 66.3708 284.41 65.7546 284.41C65.1385 284.41 64.6104 283.882 64.6104 283.265C64.6104 282.649 65.1385 282.165 65.7546 282.165C66.3708 282.165 66.8549 282.649 66.8549 283.265Z" fill="#FF725E"/>
<path d="M80.9809 283.265C80.9809 283.881 80.4967 284.41 79.8806 284.41C79.2645 284.41 78.7363 283.881 78.7363 283.265C78.7363 282.649 79.2645 282.165 79.8806 282.165C80.4967 282.165 80.9809 282.649 80.9809 283.265Z" fill="#FF725E"/>
<path d="M92.249 288.678C92.249 288.062 92.7771 287.534 93.3933 287.534C94.0094 287.534 94.4935 288.062 94.4935 288.678C94.4935 289.295 94.0094 289.779 93.3933 289.779C92.7771 289.779 92.249 289.295 92.249 288.678Z" fill="#263238"/>
<path d="M87.3193 288.678C87.3193 288.062 87.8035 287.534 88.4196 287.534C89.0798 287.534 89.5639 288.062 89.5639 288.678C89.5639 289.294 89.0798 289.779 88.4196 289.779C87.8035 289.779 87.3193 289.294 87.3193 288.678Z" fill="#263238"/>
<path d="M82.3877 288.678C82.3877 288.062 82.8718 287.534 83.488 287.534C84.1041 287.534 84.6322 288.062 84.6322 288.678C84.6322 289.295 84.1041 289.779 83.488 289.779C82.8718 289.779 82.3877 289.295 82.3877 288.678Z" fill="#263238"/>
<path d="M77.4609 288.678C77.4609 288.062 77.9451 287.534 78.5612 287.534C79.1773 287.534 79.7055 288.062 79.7055 288.678C79.7055 289.295 79.1773 289.779 78.5612 289.779C77.9451 289.779 77.4609 289.295 77.4609 288.678Z" fill="#263238"/>
<path d="M39.2168 288.678C39.2168 288.062 39.7009 287.534 40.3171 287.534C40.9332 287.534 41.4613 288.062 41.4613 288.678C41.4613 289.295 40.9332 289.779 40.3171 289.779C39.7009 289.779 39.2168 289.295 39.2168 288.678Z" fill="#263238"/>
<path d="M34.1562 288.678C34.1562 288.062 34.6844 287.534 35.3005 287.534C35.9167 287.534 36.4008 288.062 36.4008 288.678C36.4008 289.294 35.9167 289.779 35.3005 289.779C34.6844 289.779 34.1562 289.294 34.1562 288.678Z" fill="#263238"/>
<path d="M72.5322 288.678C72.5322 288.062 73.0163 287.534 73.6325 287.534C74.2486 287.534 74.7327 288.062 74.7327 288.678C74.7327 289.294 74.2486 289.779 73.6325 289.779C73.0163 289.779 72.5322 289.294 72.5322 288.678Z" fill="#263238"/>
<path d="M48.2812 288.678C48.2812 288.062 48.7654 287.534 49.3815 287.534C49.9977 287.534 50.5258 288.062 50.5258 288.678C50.5258 289.295 49.9977 289.779 49.3815 289.779C48.7654 289.779 48.2812 289.295 48.2812 288.678Z" fill="#263238"/>
<path d="M67.6025 288.678C67.6025 288.062 68.0867 287.534 68.7028 287.534C69.3189 287.534 69.8031 288.062 69.8031 288.678C69.8031 289.295 69.3189 289.779 68.7028 289.779C68.0867 289.779 67.6025 289.295 67.6025 288.678Z" fill="#F5F5F5"/>
<path d="M62.6299 288.678C62.6299 288.062 63.158 287.534 63.7741 287.534C64.3903 287.534 64.8744 288.062 64.8744 288.678C64.8744 289.295 64.3903 289.779 63.7741 289.779C63.158 289.779 62.6299 289.295 62.6299 288.678Z" fill="#F5F5F5"/>
<path d="M52.6367 288.678C52.6367 288.062 53.1208 287.534 53.737 287.534C54.3531 287.534 54.8812 288.062 54.8812 288.678C54.8812 289.295 54.3531 289.779 53.737 289.779C53.1208 289.779 52.6367 289.295 52.6367 288.678Z" fill="#F5F5F5"/>
<path d="M30.0625 288.678C30.0625 288.062 30.5906 287.534 31.2068 287.534C31.8229 287.534 32.307 288.062 32.307 288.678C32.307 289.294 31.8229 289.779 31.2068 289.779C30.5906 289.779 30.0625 289.294 30.0625 288.678Z" fill="#F5F5F5"/>
<path d="M57.7031 288.678C57.7031 288.062 58.2312 287.534 58.8474 287.534C59.4635 287.534 59.9476 288.062 59.9476 288.678C59.9476 289.294 59.4635 289.779 58.8474 289.779C58.2312 289.779 57.7031 289.294 57.7031 288.678Z" fill="#FF725E"/>
<path d="M43.5742 288.678C43.5742 288.062 44.0583 287.534 44.7185 287.534C45.3346 287.534 45.8187 288.062 45.8187 288.678C45.8187 289.295 45.3346 289.779 44.7185 289.779C44.0583 289.779 43.5742 289.295 43.5742 288.678Z" fill="#FF725E"/>
<path d="M32.307 293.476C32.307 294.092 31.8229 294.576 31.2068 294.576C30.5906 294.576 30.0625 294.092 30.0625 293.476C30.0625 292.86 30.5906 292.332 31.2068 292.332C31.8229 292.332 32.307 292.86 32.307 293.476Z" fill="#263238"/>
<path d="M37.2357 293.476C37.2357 294.092 36.7516 294.576 36.1355 294.576C35.5193 294.576 34.9912 294.092 34.9912 293.476C34.9912 292.86 35.5193 292.332 36.1355 292.332C36.7516 292.332 37.2357 292.86 37.2357 293.476Z" fill="#263238"/>
<path d="M42.1654 293.476C42.1654 294.092 41.6812 294.576 41.0651 294.576C40.449 294.576 39.9648 294.092 39.9648 293.476C39.9648 292.86 40.449 292.332 41.0651 292.332C41.6812 292.332 42.1654 292.86 42.1654 293.476Z" fill="#263238"/>
<path d="M47.1361 293.476C47.1361 294.092 46.608 294.576 45.9919 294.576C45.3757 294.576 44.8916 294.092 44.8916 293.476C44.8916 292.859 45.3757 292.331 45.9919 292.331C46.608 292.331 47.1361 292.859 47.1361 293.476Z" fill="#263238"/>
<path d="M85.3852 293.476C85.3852 294.092 84.857 294.576 84.2409 294.576C83.6247 294.576 83.1406 294.092 83.1406 293.476C83.1406 292.86 83.6247 292.331 84.2409 292.331C84.857 292.331 85.3852 292.86 85.3852 293.476Z" fill="#263238"/>
<path d="M90.4027 293.476C90.4027 294.092 89.9186 294.576 89.3025 294.576C88.6863 294.576 88.1582 294.092 88.1582 293.476C88.1582 292.86 88.6863 292.332 89.3025 292.332C89.9186 292.332 90.4027 292.86 90.4027 293.476Z" fill="#263238"/>
<path d="M52.0688 293.476C52.0688 294.092 51.5406 294.576 50.9245 294.576C50.3083 294.576 49.8242 294.092 49.8242 293.476C49.8242 292.86 50.3083 292.332 50.9245 292.332C51.5406 292.332 52.0688 292.86 52.0688 293.476Z" fill="#263238"/>
<path d="M76.3178 293.476C76.3178 294.092 75.7896 294.576 75.1735 294.576C74.5574 294.576 74.0732 294.092 74.0732 293.476C74.0732 292.86 74.5574 292.332 75.1735 292.332C75.7896 292.332 76.3178 292.86 76.3178 293.476Z" fill="#263238"/>
<path d="M56.9975 293.476C56.9975 294.092 56.5133 294.576 55.8532 294.576C55.237 294.576 54.7529 294.092 54.7529 293.476C54.7529 292.86 55.237 292.331 55.8532 292.331C56.5133 292.331 56.9975 292.86 56.9975 293.476Z" fill="#F5F5F5"/>
<path d="M61.9252 293.476C61.9252 294.092 61.4411 294.576 60.8249 294.576C60.2088 294.576 59.6807 294.092 59.6807 293.476C59.6807 292.86 60.2088 292.332 60.8249 292.332C61.4411 292.332 61.9252 292.86 61.9252 293.476Z" fill="#F5F5F5"/>
<path d="M71.9584 293.476C71.9584 294.092 71.4303 294.576 70.8141 294.576C70.198 294.576 69.7139 294.092 69.7139 293.476C69.7139 292.86 70.198 292.332 70.8141 292.332C71.4303 292.332 71.9584 292.86 71.9584 293.476Z" fill="#F5F5F5"/>
<path d="M94.4935 293.476C94.4935 294.092 94.0094 294.576 93.3933 294.576C92.7771 294.576 92.249 294.092 92.249 293.476C92.249 292.86 92.7771 292.331 93.3933 292.331C94.0094 292.331 94.4935 292.86 94.4935 293.476Z" fill="#F5F5F5"/>
<path d="M66.8549 293.476C66.8549 294.092 66.3708 294.576 65.7546 294.576C65.1385 294.576 64.6104 294.092 64.6104 293.476C64.6104 292.86 65.1385 292.332 65.7546 292.332C66.3708 292.332 66.8549 292.86 66.8549 293.476Z" fill="#FF725E"/>
<path d="M80.9809 293.476C80.9809 294.092 80.4967 294.576 79.8806 294.576C79.2645 294.576 78.7363 294.092 78.7363 293.476C78.7363 292.86 79.2645 292.332 79.8806 292.332C80.4967 292.332 80.9809 292.86 80.9809 293.476Z" fill="#FF725E"/>
<path d="M135.29 171.831C135.29 171.831 135.158 171.831 134.894 171.831C134.6 171.86 134.189 171.875 133.661 171.875C132.561 171.875 130.977 171.875 128.908 171.919C124.815 171.919 118.874 171.963 111.524 172.007C96.7806 172.051 76.4038 172.095 53.7825 172.139L54.0025 171.919C54.0025 172.755 54.0025 173.635 54.0025 174.516C53.9585 202.462 53.9585 227.768 53.9145 246.077C53.9145 255.231 53.8705 262.624 53.8705 267.774C53.8705 270.326 53.8265 272.307 53.8265 273.671C53.8265 274.317 53.8265 274.815 53.8265 275.167C53.7972 275.519 53.7825 275.696 53.7825 275.696C53.7825 275.696 53.7825 275.519 53.7825 275.167C53.7825 274.815 53.7678 274.317 53.7385 273.671C53.7385 272.307 53.7385 270.326 53.7385 267.774C53.6945 262.624 53.6945 255.231 53.6505 246.077C53.6505 227.768 53.6064 202.462 53.6064 174.516C53.6064 173.635 53.6064 172.755 53.6064 171.919V171.699H53.7825C76.4038 171.699 96.7806 171.699 111.524 171.699C118.874 171.699 124.815 171.743 128.908 171.743C130.977 171.743 132.561 171.787 133.661 171.787C134.189 171.787 134.6 171.787 134.894 171.787C135.158 171.816 135.29 171.831 135.29 171.831V171.831Z" fill="#263238"/>
<path d="M138.017 172.711C138.017 174.515 136.565 175.968 134.761 175.968C133 175.968 131.504 174.515 131.504 172.711C131.504 170.907 133 169.454 134.761 169.454C136.565 169.454 138.017 170.907 138.017 172.711Z" fill="#263238"/>
<path d="M21.0371 200.657L37.8051 159.111C38.5532 157.263 40.7538 155.767 42.6902 155.767H63.2431C64.5194 155.767 65.9277 155.106 66.9839 154.094L68.3043 152.818C69.3605 151.806 70.7688 151.189 72.0451 151.189H88.1529C89.5613 151.189 90.4855 151.938 90.5735 153.126L90.7055 154.622C90.7936 155.811 91.7618 156.603 93.1261 156.603H96.5149C98.4954 156.603 99.4636 158.099 98.6714 159.948L81.8154 200.657H21.0371Z" fill="#0F93D3"/>
<g opacity="0.3">
<path d="M21.0371 200.657L37.8051 159.111C38.5532 157.263 40.7538 155.767 42.6902 155.767H63.2431C64.5194 155.767 65.9277 155.106 66.9839 154.094L68.3043 152.818C69.3605 151.806 70.7688 151.189 72.0451 151.189H88.1529C89.5613 151.189 90.4855 151.938 90.5735 153.126L90.7055 154.622C90.7936 155.811 91.7618 156.603 93.1261 156.603H96.5149C98.4954 156.603 99.4636 158.099 98.6714 159.948L81.8154 200.657H21.0371Z" fill="black"/>
</g>
<path d="M81.5526 198.634C81.2885 199.69 80.4523 200.438 79.4841 200.482L29.2682 200.438C27.7719 200.482 27.1557 199.47 27.5518 197.842L36.794 160.829C37.1021 159.729 37.9383 158.98 38.9505 158.98H88.8583C90.3106 158.98 91.3669 160.609 90.9708 162.237L84.5893 186.839L81.5526 198.634Z" fill="#E0E0E0"/>
<path d="M29.7969 199.558V158.276H81.4651C82.8734 158.276 83.9737 159.421 83.8416 160.785L81.157 199.558H29.7969Z" fill="#EBEBEB"/>
<path d="M29.1016 198.767L17.8349 162.194C16.9987 160.346 18.407 158.277 20.4755 158.277H72.7599C74.1242 158.277 75.3125 159.201 75.5765 160.478L81.738 200.439L29.1016 198.767Z" fill="#FAFAFA"/>
<path d="M21.0365 200.658L9.24169 164.129C8.71357 162.413 9.94586 160.608 11.6623 160.608H65.575C67.1594 160.608 68.5677 161.665 69.0958 163.249L81.8148 200.658H21.0365Z" fill="#0F93D3"/>
<defs>
<filter id="filter0_d_43_3700" x="423.046" y="7.3313" width="179.224" height="196.08" filterUnits="userSpaceOnUse" color-interpolation-filters="sRGB">
<feFlood flood-opacity="0" result="BackgroundImageFix"/>
<feColorMatrix in="SourceAlpha" type="matrix" values="0 0 0 0 0 0 0 0 0 0 0 0 0 0 0 0 0 0 127 0" result="hardAlpha"/>
<feOffset dy="4"/>
<feGaussianBlur stdDeviation="15"/>
<feComposite in2="hardAlpha" operator="out"/>
<feColorMatrix type="matrix" values="0 0 0 0 0 0 0 0 0 0 0 0 0 0 0 0 0 0 0.15 0"/>
<feBlend mode="normal" in2="BackgroundImageFix" result="effect1_dropShadow_43_3700"/>
<feBlend mode="normal" in="SourceGraphic" in2="effect1_dropShadow_43_3700" result="shape"/>
</filter>
<filter id="filter1_d_43_3700" x="486.767" y="177.959" width="132.441" height="160.828" filterUnits="userSpaceOnUse" color-interpolation-filters="sRGB">
<feFlood flood-opacity="0" result="BackgroundImageFix"/>
<feColorMatrix in="SourceAlpha" type="matrix" values="0 0 0 0 0 0 0 0 0 0 0 0 0 0 0 0 0 0 127 0" result="hardAlpha"/>
<feOffset dy="4"/>
<feGaussianBlur stdDeviation="15"/>
<feComposite in2="hardAlpha" operator="out"/>
<feColorMatrix type="matrix" values="0 0 0 0 0 0 0 0 0 0 0 0 0 0 0 0 0 0 0.15 0"/>
<feBlend mode="normal" in2="BackgroundImageFix" result="effect1_dropShadow_43_3700"/>
<feBlend mode="normal" in="SourceGraphic" in2="effect1_dropShadow_43_3700" result="shape"/>
</filter>
<filter id="filter2_d_43_3700" x="104.756" y="65.3373" width="384.753" height="329.96" filterUnits="userSpaceOnUse" color-interpolation-filters="sRGB">
<feFlood flood-opacity="0" result="BackgroundImageFix"/>
<feColorMatrix in="SourceAlpha" type="matrix" values="0 0 0 0 0 0 0 0 0 0 0 0 0 0 0 0 0 0 127 0" result="hardAlpha"/>
<feOffset dy="4"/>
<feGaussianBlur stdDeviation="15"/>
<feComposite in2="hardAlpha" operator="out"/>
<feColorMatrix type="matrix" values="0 0 0 0 0 0 0 0 0 0 0 0 0 0 0 0 0 0 0.15 0"/>
<feBlend mode="normal" in2="BackgroundImageFix" result="effect1_dropShadow_43_3700"/>
<feBlend mode="normal" in="SourceGraphic" in2="effect1_dropShadow_43_3700" result="shape"/>
</filter>
</defs>
</svg>
