<?xml version="1.0" encoding="UTF-8"?>
<svg width="709px" height="220px" viewBox="0 0 709 220" version="1.1" xmlns="http://www.w3.org/2000/svg" xmlns:xlink="http://www.w3.org/1999/xlink">
    <!-- Generator: Sketch 59.1 (86144) - https://sketch.com -->
    <title>DMVMUSICPLUG</title>
    <desc>Created with Sketch.</desc>
    <g id="DMV" stroke="none" stroke-width="1" fill="none" fill-rule="evenodd" opacity="0.0199999996">
        <g transform="translate(-83.000000, -1182.000000)" fill="#000000" fill-rule="nonzero" id="Group-10">
            <g transform="translate(-7.000000, 912.000000)">
                <g id="TEXT" transform="translate(83.000000, 0.000000)">
                    <path d="M7.744,271.848 L42.955,271.848 C52.4737143,271.848 60.6814655,273.56215 67.5785,276.9905 C74.4755345,280.41885 79.7591483,285.359634 83.4295,291.813 C87.0998517,298.266366 88.935,305.929622 88.935,314.803 C88.935,323.757045 87.1200181,331.480801 83.49,337.9745 C79.8599818,344.468199 74.5965345,349.42915 67.6995,352.8575 C60.8024655,356.28585 52.5543813,358 42.955,358 L7.744,358 L7.744,271.848 Z M41.382,339.85 C49.7713753,339.85 56.0431459,337.772854 60.1975,333.6185 C64.3518541,329.464146 66.429,323.192375 66.429,314.803 C66.429,298.266251 58.0800835,289.998 41.382,289.998 L30.492,289.998 L30.492,339.85 L41.382,339.85 Z M189.486,271.848 L189.486,358 L169.642,358 L169.521,318.554 L153.186,358 L138.787,358 L122.331,319.038 L122.331,358 L102.608,358 L102.608,271.848 L120.395,271.848 L146.168,330.654 L171.82,271.848 L189.486,271.848 Z M291.247,271.848 L252.043,358 L234.014,358 L194.81,271.848 L218.405,271.848 L243.21,329.686 L268.378,271.848 L291.247,271.848 Z M418.539,271.848 L418.539,358 L398.695,358 L398.574,318.554 L382.239,358 L367.84,358 L351.384,319.038 L351.384,358 L331.661,358 L331.661,271.848 L349.448,271.848 L375.221,330.654 L400.873,271.848 L418.539,271.848 Z M472.263,359.089 C459.678937,359.089 450.160366,355.922865 443.707,349.5905 C437.253634,343.258135 434.027,333.961395 434.027,321.7 L434.027,271.848 L456.17,271.848 L456.17,322.547 C456.17,328.758364 457.561486,333.51765 460.3445,336.825 C463.127514,340.13235 467.100308,341.786 472.263,341.786 C477.345025,341.786 481.25732,340.112183 484,336.7645 C486.74268,333.416817 488.114,328.677697 488.114,322.547 L488.114,271.848 L510.499,271.848 L510.499,321.7 C510.499,333.80006 507.211866,343.056468 500.6375,349.4695 C494.063134,355.882532 484.605062,359.089 472.263,359.089 Z M556.6,359.089 C550.146634,359.089 543.774031,358.242008 537.482,356.548 C531.189969,354.853992 526.067686,352.555015 522.115,349.651 L529.254,333.558 C533.448688,336.220013 537.905476,338.256826 542.6245,339.6685 C547.343524,341.080174 552.082643,341.786 556.842,341.786 C561.682024,341.786 565.392654,341.120507 567.974,339.7895 C570.555346,338.458493 571.846,336.583012 571.846,334.163 C571.846,331.984989 570.676345,330.190174 568.337,328.7785 C565.997655,327.366826 561.601366,325.97534 555.148,324.604 C547.000626,322.990659 540.668356,320.994179 536.151,318.6145 C531.633644,316.234821 528.467509,313.431683 526.6525,310.205 C524.837491,306.978317 523.93,303.066023 523.93,298.468 C523.93,293.22464 525.422318,288.485521 528.407,284.2505 C531.391682,280.015479 535.586306,276.708179 540.991,274.3285 C546.395694,271.948821 552.566632,270.759 559.504,270.759 C565.715364,270.759 571.745137,271.626158 577.5935,273.3605 C583.441863,275.094842 588.01965,277.373653 591.327,280.197 L584.309,296.29 C580.517648,293.627987 576.524688,291.591174 572.33,290.1795 C568.135312,288.767826 563.940688,288.062 559.746,288.062 C555.631979,288.062 552.324679,288.848492 549.824,290.4215 C547.323321,291.994508 546.073,294.111987 546.073,296.774 C546.073,298.226007 546.516662,299.435995 547.404,300.404 C548.291338,301.372005 549.944988,302.319829 552.365,303.2475 L552.944943,303.462652 C555.250391,304.291516 558.502687,305.167715 562.701906,306.091268 L563.255,306.212 C571.079706,307.906008 577.230478,309.942821 581.7075,312.3225 C586.184522,314.702179 589.350657,317.485151 591.206,320.6715 C593.061343,323.857849 593.989,327.669311 593.989,332.106 C593.989,340.495375 590.722033,347.089809 584.188,351.8895 C577.653967,356.689191 568.458059,359.089 556.6,359.089 Z M606.694,271.848 L629.442,271.848 L629.442,358 L606.694,358 L606.694,271.848 Z M686.796,359.089 C677.841955,359.089 670.037533,357.253852 663.3825,353.5835 C656.727467,349.913148 651.605185,344.730367 648.0155,338.035 C644.425815,331.339633 642.631,323.595711 642.631,314.803 C642.631,306.090956 644.425815,298.407533 648.0155,291.7525 C651.605185,285.097467 656.727467,279.934852 663.3825,276.2645 C670.037533,272.594148 677.841955,270.759 686.796,270.759 C692.442695,270.759 697.907807,271.605992 703.1915,273.3 C708.475193,274.994008 712.730317,277.292985 715.957,280.197 L709.06,296.29 C702.041965,291.207975 694.782038,288.667 687.28,288.667 C680.342632,288.667 675.018685,290.865145 671.308,295.2615 C667.597315,299.657855 665.742,306.171624 665.742,314.803 C665.742,323.515044 667.597315,330.089311 671.308,334.526 C675.018685,338.962689 680.342632,341.181 687.28,341.181 C694.782038,341.181 702.041965,338.640025 709.06,333.558 L715.957,349.651 C712.730317,352.555015 708.475193,354.853992 703.1915,356.548 C697.907807,358.242008 692.442695,359.089 686.796,359.089 Z M7.744,401.848 L48.763,401.848 C58.6043825,401.848 66.2273063,404.207476 71.632,408.9265 C77.0366937,413.645524 79.739,420.038293 79.739,428.105 C79.739,436.09104 76.9963608,442.463643 71.511,447.223 C66.0256392,451.982357 58.4430484,454.362 48.763,454.362 L30.492,454.362 L30.492,488 L7.744,488 L7.744,401.848 Z M45.738,437.422 C54.2887094,437.422 58.564,434.39703 58.564,428.347 C58.564,425.281651 57.5355103,422.962508 55.4785,421.3895 C53.4214897,419.816492 50.1746889,419.03 45.738,419.03 L30.492,419.03 L30.492,437.422 L45.738,437.422 Z M90.629,401.848 L113.377,401.848 L113.377,469.608 L149.798,469.608 L149.798,488 L90.629,488 L90.629,401.848 Z M198.561,489.089 C185.976937,489.089 176.458366,485.922865 170.005,479.5905 C163.551634,473.258135 160.325,463.961395 160.325,451.7 L160.325,401.848 L182.468,401.848 L182.468,452.547 C182.468,458.758364 183.859486,463.51765 186.6425,466.825 C189.425514,470.13235 193.398308,471.786 198.561,471.786 C203.643025,471.786 207.55532,470.112183 210.298,466.7645 C213.04068,463.416817 214.412,458.677697 214.412,452.547 L214.412,401.848 L236.797,401.848 L236.797,451.7 C236.797,463.80006 233.509866,473.056468 226.9355,479.4695 C220.361134,485.882532 210.903062,489.089 198.561,489.089 Z M328.152,439.358 L328.152,482.555 C323.553977,484.652344 318.411528,486.265661 312.7245,487.395 C307.037472,488.524339 301.209363,489.089 295.24,489.089 C285.88262,489.089 277.755534,487.314351 270.8585,483.765 C263.961466,480.215649 258.657685,475.113533 254.947,468.4585 C251.236315,461.803467 249.381,453.918379 249.381,444.803 C249.381,435.929622 251.236315,428.165533 254.947,421.5105 C258.657685,414.855467 263.900966,409.733185 270.677,406.1435 C277.453034,402.553815 285.358288,400.759 294.393,400.759 C300.604364,400.759 306.472806,401.565659 311.9985,403.179 C317.524194,404.792341 322.021316,407.010653 325.49,409.834 L318.351,425.927 C314.398314,423.345654 310.586852,421.470173 306.9165,420.3005 C303.246148,419.130827 299.313688,418.546 295.119,418.546 C287.455628,418.546 281.748519,420.703812 277.9975,425.0195 C274.246481,429.335188 272.371,435.929622 272.371,444.803 C272.371,453.999046 274.327147,460.815311 278.2395,465.252 C282.151853,469.688689 288.181626,471.907 296.329,471.907 C300.120352,471.907 303.911648,471.503671 307.703,470.697 L307.703,454.725 L292.699,454.725 L292.699,439.358 L328.152,439.358 Z" id="DMVMUSICPLUG"></path>
                </g>
            </g>
        </g>
    </g>
</svg>