<?xml version="1.0" encoding="UTF-8"?>
<svg width="624px" height="152px" viewBox="0 0 624 152" version="1.1" xmlns="http://www.w3.org/2000/svg" xmlns:xlink="http://www.w3.org/1999/xlink">
    <!-- Generator: Sketch 58 (84663) - https://sketch.com -->
    <title>OOTA</title>
    <desc>Created with Sketch.</desc>
    <g id="Page-1" stroke="none" stroke-width="1" fill="none" fill-rule="evenodd" opacity="0.00999999978">
        <g id="oota" transform="translate(-727.000000, -1446.000000)" fill="#FFFFFF" fill-rule="nonzero">
            <g id="Key-Features" transform="translate(0.000000, 1420.000000)">
                <g id="Bitmap">
                    <g id="Shape_1-2">
                        <path d="M801.824,177.872 C786.709258,177.872 773.536056,174.786698 762.304,168.616 C751.071944,162.445302 742.44003,153.605391 736.408,142.096 C730.37597,130.586609 727.36,117.136077 727.36,101.744 C727.36,86.351923 730.410636,72.9707235 736.512,61.6 C742.613364,50.2292765 751.245278,41.4586975 762.408,35.288 C773.570722,29.1173025 786.709258,26.032 801.824,26.032 C816.938742,26.032 830.077278,29.1173025 841.24,35.288 C852.402722,41.4586975 860.965304,50.2292765 866.928,61.6 C872.890696,72.9707235 875.872,86.351923 875.872,101.744 C875.872,117.136077 872.890696,130.586609 866.928,142.096 C860.965304,153.605391 852.402722,162.445302 841.24,168.616 C830.077278,174.786698 816.938742,177.872 801.824,177.872 Z M801.824,148.128 C812.917389,148.128 821.618635,144.17604 827.928,136.272 C834.237365,128.36796 837.392,116.858742 837.392,101.744 C837.392,86.7679251 834.237365,75.3627058 827.928,67.528 C821.618635,59.6932942 812.917389,55.776 801.824,55.776 C790.730611,55.776 782.064031,59.6586278 775.824,67.424 C769.583969,75.1893722 766.464,86.6292578 766.464,101.744 C766.464,116.99741 769.583969,128.541294 775.824,136.376 C782.064031,144.210706 790.730611,148.128 801.824,148.128 Z M969.264,177.872 C954.149258,177.872 940.976056,174.786698 929.744,168.616 C918.511944,162.445302 909.88003,153.605391 903.848,142.096 C897.81597,130.586609 894.8,117.136077 894.8,101.744 C894.8,86.351923 897.850636,72.9707235 903.952,61.6 C910.053364,50.2292765 918.685278,41.4586975 929.848,35.288 C941.010722,29.1173025 954.149258,26.032 969.264,26.032 C984.378742,26.032 997.517278,29.1173025 1008.68,35.288 C1019.84272,41.4586975 1028.4053,50.2292765 1034.368,61.6 C1040.3307,72.9707235 1043.312,86.351923 1043.312,101.744 C1043.312,117.136077 1040.3307,130.586609 1034.368,142.096 C1028.4053,153.605391 1019.84272,162.445302 1008.68,168.616 C997.517278,174.786698 984.378742,177.872 969.264,177.872 Z M969.264,148.128 C980.357389,148.128 989.058635,144.17604 995.368,136.272 C1001.67736,128.36796 1004.832,116.858742 1004.832,101.744 C1004.832,86.7679251 1001.67736,75.3627058 995.368,67.528 C989.058635,59.6932942 980.357389,55.776 969.264,55.776 C958.170611,55.776 949.504031,59.6586278 943.264,67.424 C937.023969,75.1893722 933.904,86.6292578 933.904,101.744 C933.904,116.99741 937.023969,128.541294 943.264,136.376 C949.504031,144.210706 958.170611,148.128 969.264,148.128 Z M1183.088,27.904 L1183.088,59.52 L1138.992,59.52 L1138.992,176 L1099.472,176 L1099.472,59.52 L1055.376,59.52 L1055.376,27.904 L1183.088,27.904 Z M1280.848,27.904 L1350.32,176 L1311.84,176 L1298.736,145.424 L1233.008,145.424 L1219.904,176 L1180.8,176 L1250.064,27.904 L1280.848,27.904 Z M1265.872,69.296 L1245.696,116.096 L1286.048,116.096 L1265.872,69.296 Z" id="OOTA"></path>
                    </g>
                </g>
            </g>
        </g>
    </g>
</svg>