<?xml version="1.0" encoding="UTF-8"?>
<svg width="1114px" height="165px" viewBox="0 0 1114 165" version="1.1" xmlns="http://www.w3.org/2000/svg" xmlns:xlink="http://www.w3.org/1999/xlink">
    <!-- Generator: Sketch 59.1 (86144) - https://sketch.com -->
    <title>WHITE</title>
    <desc>Created with Sketch.</desc>
    <g id="LOGO" stroke="none" stroke-width="1" fill="none" fill-rule="evenodd">
        <g id="LOGO-WHITE" transform="translate(0.000000, -11.000000)" fill="#FFFFFF">
            <g id="WHITE" transform="translate(0.000000, 11.000000)">
                <g id="NAME" transform="translate(318.000000, 17.000000)">
                    <path d="M0,0 L22.2,0 L22.2,68.376 L46.768,39.96 L74,39.96 L45.436,72.372 L74.74,111.888 L46.768,111.888 L22.496,75.48 L22.2,75.48 L22.2,111.888 L0,111.888 L0,0 Z M83.448,39.96 L105.648,39.96 L105.648,111.888 L83.448,111.888 L83.448,39.96 Z M81.672,17.316 C81.672,13.7639822 82.9299874,10.7300126 85.446,8.214 C87.9620126,5.69798742 90.9959822,4.44 94.548,4.44 C98.1000178,4.44 101.133987,5.69798742 103.65,8.214 C106.166013,10.7300126 107.424,13.7639822 107.424,17.316 C107.424,20.8680178 106.166013,23.9019874 103.65,26.418 C101.133987,28.9340126 98.1000178,30.192 94.548,30.192 C90.9959822,30.192 87.9620126,28.9340126 85.446,26.418 C82.9299874,23.9019874 81.672,20.8680178 81.672,17.316 Z M197.976,111.888 L177.552,111.888 L177.552,102.416 L177.256,102.416 C176.367996,103.698673 175.208674,105.005993 173.778,106.338 C172.347326,107.670007 170.67001,108.878661 168.746,109.964 C166.82199,111.049339 164.700678,111.93733 162.382,112.628 C160.063322,113.31867 157.670679,113.664 155.204,113.664 C149.875973,113.664 145.041355,112.751342 140.7,110.926 C136.358645,109.100658 132.634016,106.53535 129.526,103.23 C126.417984,99.9246501 124.025342,96.0026894 122.348,91.464 C120.670658,86.9253106 119.832,81.9426938 119.832,76.516 C119.832,71.4839748 120.596659,66.6740229 122.126,62.086 C123.655341,57.4979771 125.825986,53.4280178 128.638,49.876 C131.450014,46.3239822 134.878646,43.4873439 138.924,41.366 C142.969354,39.2446561 147.557308,38.184 152.688,38.184 C157.325357,38.184 161.64198,38.8993262 165.638,40.33 C169.63402,41.7606738 172.914654,44.2026494 175.48,47.656 L175.776,47.656 L175.776,0 L197.976,0 L197.976,111.888 Z M177.552,75.924 C177.552,70.4973062 175.998016,66.1066834 172.89,62.752 C169.781984,59.3973166 165.416028,57.72 159.792,57.72 C154.167972,57.72 149.802016,59.3973166 146.694,62.752 C143.585984,66.1066834 142.032,70.4973062 142.032,75.924 C142.032,81.3506938 143.585984,85.7413166 146.694,89.096 C149.802016,92.4506834 154.167972,94.128 159.792,94.128 C165.416028,94.128 169.781984,92.4506834 172.89,89.096 C175.998016,85.7413166 177.552,81.3506938 177.552,75.924 Z M257.3,61.124 C254.043984,57.0786464 249.752027,55.056 244.424,55.056 C242.549324,55.056 240.724009,55.4999956 238.948,56.388 C237.171991,57.2760044 236.284,58.8053225 236.284,60.976 C236.284,62.7520089 237.196658,64.0593291 239.022,64.898 C240.847342,65.7366709 243.165986,66.4766635 245.978,67.118 C248.790014,67.7593365 251.799317,68.4499963 255.006,69.19 C258.212683,69.9300037 261.221986,71.0893254 264.034,72.668 C266.846014,74.2466746 269.164658,76.3926531 270.99,79.106 C272.815342,81.8193469 273.728,85.4453106 273.728,89.984 C273.728,94.6213565 272.716677,98.4446516 270.694,101.454 C268.671323,104.463348 266.081349,106.880658 262.924,108.706 C259.766651,110.531342 256.214686,111.813996 252.268,112.554 C248.321314,113.294004 244.424019,113.664 240.576,113.664 C235.543975,113.664 230.462692,112.948674 225.332,111.518 C220.201308,110.087326 215.860018,107.546685 212.308,103.896 L225.776,88.948 C227.84801,91.5133462 230.141987,93.4619933 232.658,94.794 C235.174013,96.1260067 238.109317,96.792 241.464,96.792 C244.029346,96.792 246.34799,96.4220037 248.42,95.682 C250.49201,94.9419963 251.528,93.5853432 251.528,91.612 C251.528,89.737324 250.615342,88.331338 248.79,87.394 C246.964658,86.456662 244.646014,85.6673365 241.834,85.026 C239.021986,84.3846635 236.012683,83.6940037 232.806,82.954 C229.599317,82.2139963 226.590014,81.1040074 223.778,79.624 C220.965986,78.1439926 218.647342,76.0473469 216.822,73.334 C214.996658,70.6206531 214.084,66.9946894 214.084,62.456 C214.084,58.2133121 214.947325,54.562682 216.674,51.504 C218.400675,48.445318 220.669986,45.9293432 223.482,43.956 C226.294014,41.9826568 229.525315,40.527338 233.176,39.59 C236.826685,38.652662 240.526648,38.184 244.276,38.184 C249.012024,38.184 253.797309,38.8746598 258.632,40.256 C263.466691,41.6373402 267.561317,44.1039822 270.916,47.656 L257.3,61.124 Z M347.26,101.824 C343.905317,105.869354 340.106688,108.85399 335.864,110.778 C331.621312,112.70201 327.033358,113.664 322.1,113.664 C316.870641,113.664 312.036022,112.776009 307.596,111 C303.155978,109.223991 299.357349,106.732683 296.2,103.526 C293.042651,100.319317 290.576009,96.5206886 288.8,92.13 C287.023991,87.7393114 286.136,82.9293595 286.136,77.7 C286.136,72.4706405 287.023991,67.6606886 288.8,63.27 C290.576009,58.8793114 293.042651,55.0806827 296.2,51.874 C299.357349,48.6673173 303.155978,46.1760089 307.596,44.4 C312.036022,42.6239911 316.870641,41.736 322.1,41.736 C327.132025,41.736 331.793979,42.7719896 336.086,44.844 C340.378021,46.9160104 344.201317,49.8266479 347.556,53.576 L340.452,58.904 C337.886654,56.0426524 335.074682,53.7980081 332.016,52.17 C328.957318,50.5419919 325.652018,49.728 322.1,49.728 C317.955979,49.728 314.206683,50.4679926 310.852,51.948 C307.497317,53.4280074 304.636012,55.4259874 302.268,57.942 C299.899988,60.4580126 298.099339,63.417983 296.866,66.822 C295.63266,70.226017 295.016,73.8519808 295.016,77.7 C295.016,81.5480192 295.63266,85.173983 296.866,88.578 C298.099339,91.982017 299.899988,94.9419874 302.268,97.458 C304.636012,99.9740126 307.497317,101.971993 310.852,103.452 C314.206683,104.932007 317.955979,105.672 322.1,105.672 C325.849352,105.672 329.277984,104.808675 332.386,103.082 C335.494016,101.355325 338.182655,99.0613476 340.452,96.2 L347.26,101.824 Z M363.516,43.512 L372.396,43.512 L372.396,111.888 L363.516,111.888 L363.516,43.512 Z M361.296,16.428 C361.296,14.553324 361.937327,12.9746731 363.22,11.692 C364.502673,10.4093269 366.081324,9.768 367.956,9.768 C369.830676,9.768 371.409327,10.4093269 372.692,11.692 C373.974673,12.9746731 374.616,14.553324 374.616,16.428 C374.616,18.302676 373.974673,19.8813269 372.692,21.164 C371.409327,22.4466731 369.830676,23.088 367.956,23.088 C366.081324,23.088 364.502673,22.4466731 363.22,21.164 C361.937327,19.8813269 361.296,18.302676 361.296,16.428 Z M431.868,51.504 L412.332,51.504 L412.332,96.052 C412.332,99.110682 413.170658,101.478658 414.848,103.156 C416.525342,104.833342 418.843985,105.672 421.804,105.672 C423.481342,105.672 425.183325,105.450002 426.91,105.006 C428.636675,104.561998 430.289325,103.99467 431.868,103.304 L432.608,111.296 C430.930658,111.888003 429.006678,112.430664 426.836,112.924 C424.665322,113.417336 422.741342,113.664 421.064,113.664 C417.906651,113.664 415.193345,113.195338 412.924,112.258 C410.654655,111.320662 408.82934,110.062675 407.448,108.484 C406.06666,106.905325 405.055337,105.055344 404.414,102.934 C403.772663,100.812656 403.452,98.518679 403.452,96.052 L403.452,51.504 L388.652,51.504 L388.652,43.512 L403.452,43.512 L403.452,23.828 L412.332,23.828 L412.332,43.512 L431.868,43.512 L431.868,51.504 Z M467.808,133.052 C466.130658,137.492022 463.812015,140.994654 460.852,143.56 C457.891985,146.125346 453.945358,147.408 449.012,147.408 C447.531993,147.408 446.052007,147.284668 444.572,147.038 C443.091993,146.791332 441.66134,146.470669 440.28,146.076 L441.168,137.788 C442.450673,138.182669 443.757993,138.552665 445.09,138.898 C446.422007,139.243335 447.77866,139.416 449.16,139.416 C450.738675,139.416 452.14466,139.07067 453.378,138.38 C454.611339,137.68933 455.671996,136.801339 456.56,135.716 C457.448,134.630661 458.212663,133.422007 458.854,132.09 C459.495337,130.757993 460.062664,129.40134 460.556,128.02 L466.772,112.184 L438.948,43.512 L448.864,43.512 L471.508,101.084 L493.56,43.512 L503.032,43.512 L467.808,133.052 Z M516.032,43.512 L524.912,43.512 L524.912,55.5 L525.208,55.5 C526.58934,53.1319882 528.31599,51.0846753 530.388,49.358 C532.46001,47.6313247 534.704655,46.2006723 537.122,45.066 C539.539345,43.9313277 542.079987,43.0926694 544.744,42.55 C547.408013,42.0073306 550.022654,41.736 552.588,41.736 C557.817359,41.736 562.627311,42.6239911 567.018,44.4 C571.408689,46.1760089 575.207317,48.6673173 578.414,51.874 C581.620683,55.0806827 584.111991,58.8793114 585.888,63.27 C587.664009,67.6606886 588.552,72.4706405 588.552,77.7 C588.552,82.9293595 587.664009,87.7393114 585.888,92.13 C584.111991,96.5206886 581.620683,100.319317 578.414,103.526 C575.207317,106.732683 571.408689,109.223991 567.018,111 C562.627311,112.776009 557.817359,113.664 552.588,113.664 C550.022654,113.664 547.408013,113.392669 544.744,112.85 C542.079987,112.307331 539.539345,111.468672 537.122,110.334 C534.704655,109.199328 532.46001,107.768675 530.388,106.042 C528.31599,104.315325 526.58934,102.268012 525.208,99.9 L524.912,99.9 L524.912,145.632 L516.032,145.632 L516.032,43.512 Z M524.024,77.7 C524.024,81.5480192 524.763993,85.173983 526.244,88.578 C527.724007,91.982017 529.746654,94.9419874 532.312,97.458 C534.877346,99.9740126 537.886649,101.971993 541.34,103.452 C544.793351,104.932007 548.542646,105.672 552.588,105.672 C556.732021,105.672 560.481317,104.932007 563.836,103.452 C567.190683,101.971993 570.051988,99.9740126 572.42,97.458 C574.788012,94.9419874 576.588661,91.982017 577.822,88.578 C579.055339,85.173983 579.672,81.5480192 579.672,77.7 C579.672,73.8519808 579.055339,70.226017 577.822,66.822 C576.588661,63.417983 574.788012,60.4580126 572.42,57.942 C570.051988,55.4259874 567.190683,53.4280074 563.836,51.948 C560.481317,50.4679926 556.732021,49.728 552.588,49.728 C548.542646,49.728 544.793351,50.4679926 541.34,51.948 C537.886649,53.4280074 534.877346,55.4259874 532.312,57.942 C529.746654,60.4580126 527.724007,63.417983 526.244,66.822 C524.763993,70.226017 524.024,73.8519808 524.024,77.7 Z M662.38,83.176 C662.38,86.5306834 662.404666,89.5399867 662.454,92.204 C662.503334,94.8680133 662.577333,97.3346553 662.676,99.604 C662.774667,101.873345 662.897999,103.994657 663.046,105.968 C663.194001,107.941343 663.415999,109.914657 663.712,111.888 L655.424,111.888 C654.831997,108.533317 654.536,104.833354 654.536,100.788 L654.24,100.788 C651.674654,105.228022 648.492686,108.48399 644.694,110.556 C640.895314,112.62801 636.085362,113.664 630.264,113.664 C627.303985,113.664 624.393348,113.294004 621.532,112.554 C618.670652,111.813996 616.105345,110.630008 613.836,109.002 C611.566655,107.373992 609.716674,105.277346 608.286,102.712 C606.855326,100.146654 606.14,97.0386849 606.14,93.388 C606.14,88.1586405 607.471987,84.014682 610.136,80.956 C612.800013,77.897318 616.080647,75.603341 619.978,74.074 C623.875353,72.544659 628.019311,71.5580022 632.41,71.114 C636.800689,70.6699978 640.673317,70.448 644.028,70.448 L654.388,70.448 L654.388,66.304 C654.388,60.3839704 652.562685,56.1413462 648.912,53.576 C645.261315,51.0106538 640.673361,49.728 635.148,49.728 C627.254627,49.728 620.298697,52.2933077 614.28,57.424 L609.1,51.356 C612.356016,48.1986509 616.401309,45.8060081 621.236,44.178 C626.070691,42.5499919 630.707978,41.736 635.148,41.736 C643.436041,41.736 650.046642,43.6846472 654.98,47.582 C659.913358,51.4793528 662.38,57.7692899 662.38,66.452 L662.38,83.176 Z M644.62,77.552 C640.870648,77.552 637.244684,77.7986642 633.742,78.292 C630.239316,78.7853358 627.082014,79.6239941 624.27,80.808 C621.457986,81.9920059 619.213342,83.5706568 617.536,85.544 C615.858658,87.5173432 615.02,89.9839852 615.02,92.944 C615.02,95.0160104 615.488662,96.8659919 616.426,98.494 C617.363338,100.122008 618.571993,101.453995 620.052,102.49 C621.532007,103.526005 623.184658,104.315331 625.01,104.858 C626.835342,105.400669 628.685324,105.672 630.56,105.672 C635.296024,105.672 639.193318,104.98134 642.252,103.6 C645.310682,102.21866 647.752658,100.418011 649.578,98.198 C651.403342,95.9779889 652.66133,93.4620141 653.352,90.65 C654.04267,87.8379859 654.388,85.0013476 654.388,82.14 L654.388,77.552 L644.62,77.552 Z M687.072,94.424 C688.946676,98.0746849 691.709315,100.86199 695.36,102.786 C699.010685,104.71001 702.858646,105.672 706.904,105.672 C708.778676,105.672 710.653324,105.376003 712.528,104.784 C714.402676,104.191997 716.079993,103.353339 717.56,102.268 C719.040007,101.182661 720.248662,99.875341 721.186,98.346 C722.123338,96.816659 722.592,95.0653432 722.592,93.092 C722.592,89.9346509 721.580677,87.5666746 719.558,85.988 C717.535323,84.4093254 715.044015,83.1760044 712.084,82.288 C709.123985,81.3999956 705.868018,80.6353365 702.316,79.994 C698.763982,79.3526635 695.508015,78.3660067 692.548,77.034 C689.587985,75.7019933 687.096677,73.8520118 685.074,71.484 C683.051323,69.1159882 682.04,65.761355 682.04,61.42 C682.04,58.0653166 682.73066,55.154679 684.112,52.688 C685.49334,50.221321 687.293989,48.1740081 689.514,46.546 C691.734011,44.9179919 694.22532,43.7093373 696.988,42.92 C699.75068,42.1306627 702.562652,41.736 705.424,41.736 C711.048028,41.736 715.907313,42.7719896 720.002,44.844 C724.096687,46.9160104 727.278655,50.1719778 729.548,54.612 L721.556,59.348 C719.878658,56.1906509 717.782013,53.7980081 715.266,52.17 C712.749987,50.5419919 709.469354,49.728 705.424,49.728 C703.845325,49.728 702.192675,49.9746642 700.466,50.468 C698.739325,50.9613358 697.18534,51.6519956 695.804,52.54 C694.42266,53.4280044 693.263338,54.5626598 692.326,55.944 C691.388662,57.3253402 690.92,58.9039911 690.92,60.68 C690.92,63.738682 691.931323,66.0079926 693.954,67.488 C695.976677,68.9680074 698.467985,70.1273291 701.428,70.966 C704.388015,71.8046709 707.643982,72.519997 711.196,73.112 C714.748018,73.704003 718.003985,74.6659933 720.964,75.998 C723.924015,77.3300067 726.415323,79.2539874 728.438,81.77 C730.460677,84.2860126 731.472,87.8626435 731.472,92.5 C731.472,96.0520178 730.806007,99.1353203 729.474,101.75 C728.141993,104.36468 726.316678,106.559991 723.998,108.336 C721.679322,110.112009 719.040015,111.443996 716.08,112.332 C713.119985,113.220004 710.012016,113.664 706.756,113.664 C700.83597,113.664 695.434024,112.529345 690.55,110.26 C685.665976,107.990655 681.892013,104.488024 679.228,99.752 L687.072,94.424 Z M750.984,94.424 C752.858676,98.0746849 755.621315,100.86199 759.272,102.786 C762.922685,104.71001 766.770646,105.672 770.816,105.672 C772.690676,105.672 774.565324,105.376003 776.44,104.784 C778.314676,104.191997 779.991993,103.353339 781.472,102.268 C782.952007,101.182661 784.160662,99.875341 785.098,98.346 C786.035338,96.816659 786.504,95.0653432 786.504,93.092 C786.504,89.9346509 785.492677,87.5666746 783.47,85.988 C781.447323,84.4093254 778.956015,83.1760044 775.996,82.288 C773.035985,81.3999956 769.780018,80.6353365 766.228,79.994 C762.675982,79.3526635 759.420015,78.3660067 756.46,77.034 C753.499985,75.7019933 751.008677,73.8520118 748.986,71.484 C746.963323,69.1159882 745.952,65.761355 745.952,61.42 C745.952,58.0653166 746.64266,55.154679 748.024,52.688 C749.40534,50.221321 751.205989,48.1740081 753.426,46.546 C755.646011,44.9179919 758.13732,43.7093373 760.9,42.92 C763.66268,42.1306627 766.474652,41.736 769.336,41.736 C774.960028,41.736 779.819313,42.7719896 783.914,44.844 C788.008687,46.9160104 791.190655,50.1719778 793.46,54.612 L785.468,59.348 C783.790658,56.1906509 781.694013,53.7980081 779.178,52.17 C776.661987,50.5419919 773.381354,49.728 769.336,49.728 C767.757325,49.728 766.104675,49.9746642 764.378,50.468 C762.651325,50.9613358 761.09734,51.6519956 759.716,52.54 C758.33466,53.4280044 757.175338,54.5626598 756.238,55.944 C755.300662,57.3253402 754.832,58.9039911 754.832,60.68 C754.832,63.738682 755.843323,66.0079926 757.866,67.488 C759.888677,68.9680074 762.379985,70.1273291 765.34,70.966 C768.300015,71.8046709 771.555982,72.519997 775.108,73.112 C778.660018,73.704003 781.915985,74.6659933 784.876,75.998 C787.836015,77.3300067 790.327323,79.2539874 792.35,81.77 C794.372677,84.2860126 795.384,87.8626435 795.384,92.5 C795.384,96.0520178 794.718007,99.1353203 793.386,101.75 C792.053993,104.36468 790.228678,106.559991 787.91,108.336 C785.591322,110.112009 782.952015,111.443996 779.992,112.332 C777.031985,113.220004 773.924016,113.664 770.668,113.664 C764.74797,113.664 759.346024,112.529345 754.462,110.26 C749.577976,107.990655 745.804013,104.488024 743.14,99.752 L750.984,94.424 Z" id="kidscitypass"></path>
                </g>
                <g id="KIDS">
                    <g id="GIRL">
                        <path d="M163.555947,95.5528846 C163.555947,125.875255 138.88656,150.543952 108.563342,150.543952 C78.2401244,150.543952 53.5699733,125.875255 53.5699733,95.5528846 C53.5699733,89.9909423 54.40704,84.6216346 55.9496889,79.5573317 C58.9852978,76.2504375 66.8315556,70.2092019 84.8089956,68.0336538 L88.9767467,54.2740385 L91.7921956,67.1094663 C91.7921956,67.1094663 134.294542,57.7857981 161.546222,80.856851 C163.264693,82.3123125 164.925067,83.8916106 166.508231,85.6153846 C164.925067,83.8916106 163.264693,82.3123125 161.546222,80.856851 C162.845778,85.5381779 163.555947,90.4625913 163.555947,95.5528846 M108.563342,32.1531635 C104.725831,32.1531635 100.973938,32.5147356 97.3229511,33.1706106 C97.1303111,24.9056683 93.7682844,8.40483173 71.0168889,2.24128846 C40.2158933,-6.10238942 21.21792,19.5891058 22.7139378,47.2650433 C23.7123022,65.7189808 7.62456889,68.7193413 0.249973333,61.4978365 C0.249973333,61.4978365 1.23916444,71.3183798 13.8433244,78.0590625 C24.5868267,83.8037019 46.8023467,85.1185096 53.4346667,49.0071635 C56.5192,32.2158462 73.3988978,23.6122644 81.4928356,38.2364423 C60.0379378,48.410149 45.1610844,70.2734135 45.1610844,95.5528846 C45.1610844,130.511481 73.6030044,158.95337 108.563342,158.95337 C143.522916,158.95337 171.964836,130.511481 171.964836,95.5528846 C171.964836,60.5942885 143.522916,32.1531635 108.563342,32.1531635" id="Fill-64"></path>
                        <path d="M139.827591,112.370192 L77.2983289,112.370192 C79.8424,126.894231 92.8670044,138.742788 108.563342,138.742788 C124.258916,138.742788 137.28352,126.894231 139.827591,112.370192 Z" id="Fill-65"></path>
                        <path d="M88.9767467,96.478601 C93.0328889,96.478601 96.32,93.1915817 96.32,89.1355529 C96.32,85.0802885 93.0328889,81.7932692 88.9767467,81.7932692 C84.9213689,81.7932692 81.6342578,85.0802885 81.6342578,89.1355529 C81.6342578,93.1915817 84.9213689,96.478601 88.9767467,96.478601" id="Fill-66"></path>
                        <path d="M128.728622,96.478601 C132.784,96.478601 136.071111,93.1915817 136.071111,89.1355529 C136.071111,85.0802885 132.784,81.7932692 128.728622,81.7932692 C124.67248,81.7932692 121.385369,85.0802885 121.385369,89.1355529 C121.385369,93.1915817 124.67248,96.478601 128.728622,96.478601" id="Fill-67"></path>
                    </g>
                    <g id="BOY" transform="translate(164.000000, 14.000000)">
                        <path d="M63.487759,136.557947 C33.1393494,136.557947 8.4493253,111.930079 8.4493253,81.6578947 C8.4493253,77.1987632 8.99863855,72.8678421 10.0085181,68.7147368 C23.9716325,66.3161316 65.011759,57.4390789 83.667753,33.5789474 C83.667753,33.5789474 95.0755663,62.6064211 118.018193,74.3125 C119.462627,75.0497105 120.952964,75.7205263 122.489205,76.3089211 C120.952964,75.7205263 119.462627,75.0497105 118.018193,74.3125 C118.342578,76.7172105 118.525428,79.1661842 118.525428,81.6578947 C118.525428,111.930079 93.8354036,136.557947 63.487759,136.557947 M92.2088855,25.2467895 C94.5423193,20.3992105 100.987952,18.0608947 100.987952,18.0608947 C95.7625904,16.5719737 91.9969639,17.8693421 89.5074578,19.5872105 C90.2434458,13.8146842 89.1639458,5.66797368 79.6320602,0 C79.6320602,0 87.808259,10.1278684 81.0849096,20.8578684 C75.4930843,19.2445526 69.5937048,18.3631053 63.487759,18.3631053 C28.499259,18.3631053 0.0336626506,46.7571579 0.0336626506,81.6578947 C0.0336626506,116.558632 28.499259,144.953447 63.487759,144.953447 C98.476259,144.953447 126.94109,116.558632 126.94109,81.6578947 C126.94109,57.0651316 112.798952,35.7203684 92.2088855,25.2467895" id="Fill-68"></path>
                        <path d="M63.486994,124.776316 C79.196741,124.776316 92.2310723,112.947368 94.7771928,98.4473684 L32.1975602,98.4473684 C34.7436807,112.947368 47.7787771,124.776316 63.486994,124.776316" id="Fill-69"></path>
                        <path d="M43.5954277,82.5820789 C47.6540723,82.5820789 50.9445964,79.3005 50.9445964,75.2511842 C50.9445964,71.2026316 47.6540723,67.9210526 43.5954277,67.9210526 C39.5375482,67.9210526 36.2470241,71.2026316 36.2470241,75.2511842 C36.2470241,79.3005 39.5375482,82.5820789 43.5954277,82.5820789" id="Fill-70"></path>
                        <path d="M83.3785602,82.5820789 C87.4372048,82.5820789 90.7277289,79.3005 90.7277289,75.2511842 C90.7277289,71.2026316 87.4372048,67.9210526 83.3785602,67.9210526 C79.3206807,67.9210526 76.0301566,71.2026316 76.0301566,75.2511842 C76.0301566,79.3005 79.3206807,82.5820789 83.3785602,82.5820789" id="Fill-71"></path>
                    </g>
                </g>
            </g>
        </g>
    </g>
</svg>