<?xml version="1.0" encoding="UTF-8"?>
<svg width="182px" height="27px" viewBox="0 0 182 27" version="1.1" xmlns="http://www.w3.org/2000/svg" xmlns:xlink="http://www.w3.org/1999/xlink">
    <!-- Generator: Sketch 59.1 (86144) - https://sketch.com -->
    <title>dmv_logo</title>
    <desc>Created with Sketch.</desc>
    <defs>
        <linearGradient x1="50%" y1="100%" x2="50%" y2="3.061617e-15%" id="linearGradient-1">
            <stop stop-color="#AC0101" offset="0%"></stop>
            <stop stop-color="#F50000" offset="100%"></stop>
        </linearGradient>
    </defs>
    <g id="DMV" stroke="none" stroke-width="1" fill="none" fill-rule="evenodd">
        <g transform="translate(-1139.000000, -717.000000)" id="BANNER">
            <g transform="translate(0.000000, -55.000000)">
                <g id="text" transform="translate(720.000000, 362.000000)">
                    <g id="Group-2" transform="translate(419.000000, 410.000000)">
                        <g id="dmv_logo">
                            <g id="Group-3">
                                <path d="M6.409713,-2.58960077e-16 L53.590287,2.58960077e-16 C55.8190838,-1.50463262e-16 56.6272994,0.232064028 57.4421143,0.667831759 C58.2569291,1.10359949 58.8964005,1.74307093 59.3321682,2.55788574 C59.767936,3.37270056 60,4.18091615 60,6.409713 L60,20.590287 C60,22.8190838 59.767936,23.6272994 59.3321682,24.4421143 C58.8964005,25.2569291 58.2569291,25.8964005 57.4421143,26.3321682 C56.6272994,26.767936 55.8190838,27 53.590287,27 L6.409713,27 C4.18091615,27 3.37270056,26.767936 2.55788574,26.3321682 C1.74307093,25.8964005 1.10359949,25.2569291 0.667831759,24.4421143 C0.232064028,23.6272994 1.00308841e-16,22.8190838 -1.72640051e-16,20.590287 L1.72640051e-16,6.409713 C-1.00308841e-16,4.18091615 0.232064028,3.37270056 0.667831759,2.55788574 C1.10359949,1.74307093 1.74307093,1.10359949 2.55788574,0.667831759 C3.37270056,0.232064028 4.18091615,1.50463262e-16 6.409713,-2.58960077e-16 Z" id="Rectangle" fill="url(#linearGradient-1)" fill-rule="nonzero"></path>
                                <path d="M9.55555556,20.025 L9.55555556,6.075 L14.1759406,6.075 C15.2169816,6.075 16.1722899,6.24757732 17.0418654,6.59273196 C17.9114409,6.9378866 18.6432314,7.41726804 19.2372372,8.03087629 C19.8312431,8.64448454 20.2920567,9.38273196 20.6196785,10.2456186 C20.9473003,11.1085052 21.1111111,12.0512886 21.1111111,13.0739691 C21.1111111,14.0966495 20.953424,15.0362372 20.6380498,15.892732 C20.3226757,16.7492268 19.8756403,17.4826804 19.296944,18.0930928 C18.7182477,18.7035052 17.9956427,19.1780928 17.1291291,19.5168557 C16.2626156,19.8556185 15.2965907,20.025 14.2310546,20.025 L9.55555556,20.025 Z M12.6666667,17.1 L14.032645,17.1 C14.4789249,17.1 14.8980663,17.0328199 15.2900688,16.8984597 C15.6820714,16.7640995 16.028843,16.573756 16.3303835,16.3274289 C16.6319239,16.0811018 16.8912488,15.7931872 17.1083579,15.4636848 C17.3254671,15.1341825 17.4913143,14.764692 17.6058997,14.3552133 C17.7204851,13.9457345 17.7777778,13.5170617 17.7777778,13.0691943 C17.7777778,12.3014218 17.6254999,11.6072275 17.320944,10.9866114 C17.016388,10.3659952 16.5927237,9.87973939 16.0499508,9.5278436 C15.507178,9.17594782 14.904097,9 14.240708,9 L12.6666667,9 L12.6666667,17.1 Z M33.9358717,6.075 L37.1111111,6.075 L37.1111111,20.025 L33.9818897,20.025 L33.9818897,12.3357216 L33.9450753,12.3357216 L31.2300156,17.4651031 L29.2144289,17.4651031 L26.4993691,12.3453093 L26.4625547,12.3453093 L26.4625547,20.025 L23.3333333,20.025 L23.3333333,6.075 L26.5085727,6.075 L30.2084168,13.4670619 L30.2636384,13.4670619 L33.9358717,6.075 Z M47.9216545,6.075 L51.3333333,6.075 L46.3961071,20.025 L43.6223844,20.025 L38.6666667,6.075 L42.096837,6.075 L44.9815085,15.3654124 L45.0092457,15.3654124 L47.9216545,6.075 Z" id="DMV" fill="#FFFFFF"></path>
                            </g>
                            <path d="M82.1445006,5.2006689 L85.4820464,5.2006689 L85.4820464,19.7993311 L82.1928708,19.7993311 L82.1928708,11.7525084 L82.1541747,11.7525084 L79.3003312,17.1204013 L77.1817152,17.1204013 L74.3278717,11.7625418 L74.2891755,11.7625418 L74.2891755,19.7993311 L71,19.7993311 L71,5.2006689 L74.3375458,5.2006689 L78.2265121,12.9364548 L78.2845564,12.9364548 L82.1445006,5.2006689 Z M93.5888966,20 C92.7182325,20 91.9265732,19.8612041 91.2139184,19.583612 C90.5012637,19.30602 89.8901866,18.9046822 89.3806868,18.3795987 C88.871187,17.8545151 88.4777759,17.1939799 88.2004532,16.3979933 C87.9231305,15.6020067 87.7844692,14.7056856 87.7844692,13.7090301 L87.7844692,5.2006689 L91.122015,5.2006689 L91.122015,13.4882943 C91.122015,13.9431438 91.1752222,14.367893 91.2816367,14.7625418 C91.3880512,15.1571906 91.5412236,15.5050167 91.7411539,15.8060201 C91.9410842,16.1070234 92.1990587,16.3444817 92.5150776,16.5183946 C92.8310964,16.6923076 93.1890361,16.7792642 93.5888966,16.7792642 C94.3305735,16.7792642 94.9352014,16.4849499 95.4027802,15.8963211 C95.870359,15.3076923 96.1041485,14.5050167 96.1041485,13.4882943 L96.1041485,5.2006689 L99.4320202,5.2006689 L99.4320202,13.7090301 C99.4320202,14.9799332 99.2079048,16.0869565 98.759674,17.0301003 C98.3114433,17.9732441 97.6455464,18.7040133 96.7619836,19.222408 C95.8784208,19.7408027 94.8207251,20 93.5888966,20 Z M106.039393,20 C105.104236,20 104.190038,19.8060201 103.296801,19.4180602 C102.403565,19.0301003 101.586108,18.4481605 100.844431,17.6722408 L102.798588,15.1638796 C103.308088,15.7391304 103.857896,16.1739131 104.448013,16.4682274 C105.03813,16.7625418 105.594387,16.909699 106.116786,16.909699 C106.4844,16.909699 106.790744,16.8545151 107.03582,16.7441472 C107.280896,16.6337793 107.453416,16.4916387 107.553382,16.3177258 C107.653347,16.1438128 107.703329,15.9431439 107.703329,15.7157191 C107.703329,15.3210703 107.558219,15.0083612 107.267997,14.777592 C106.977776,14.5468227 106.423131,14.2909699 105.604061,14.0100334 C105.262245,13.8896321 104.957513,13.7742475 104.689864,13.6638796 C104.422215,13.5535117 104.133606,13.4163879 103.824037,13.2525084 C103.514467,13.0886288 103.245207,12.9214047 103.016254,12.7508361 C102.787302,12.5802676 102.561574,12.3762542 102.339071,12.138796 C102.116568,11.9013377 101.935986,11.6488295 101.797324,11.3812709 C101.658663,11.1137123 101.545799,10.8060201 101.458733,10.458194 C101.371666,10.1103678 101.328133,9.73578595 101.328133,9.33444816 C101.328133,8.53846159 101.532901,7.81103684 101.942435,7.15217391 C102.35197,6.49331099 102.90984,5.97491644 103.616045,5.59698997 C104.32225,5.21906349 105.097786,5.02341132 105.942653,5.01003344 C107.703329,4.98327754 109.335018,5.61872915 110.83772,6.91638796 L108.951281,9.46488294 C107.829092,8.52842814 106.861687,8.06020067 106.049067,8.06020067 C105.655656,8.06020067 105.344475,8.16053512 105.115522,8.36120401 C104.88657,8.56187291 104.768869,8.83946493 104.762419,9.19397993 C104.75597,9.51505017 104.896244,9.78428089 105.18324,10.0016722 C105.470237,10.2190636 106.013596,10.4882943 106.813317,10.8093645 C108,11.2842809 108.799721,11.6421405 109.21248,11.8829431 C110.076695,12.3846154 110.647464,13.013378 110.924786,13.7692308 C111.086021,14.2173914 111.166638,14.7324415 111.166638,15.3143813 C111.166638,15.9765886 111.060223,16.5785953 110.847394,17.1204013 C110.634565,17.6622074 110.35563,18.1070234 110.010589,18.4548495 C109.665548,18.8026756 109.265688,19.09699 108.811007,19.3377926 C108.356327,19.5785953 107.898423,19.7491639 107.437293,19.8494983 C106.976163,19.9498328 106.510197,20 106.039393,20 Z M113.024054,19.7993311 L113.024054,5.2006689 L116.371274,5.2006689 L116.371274,19.7993311 L113.024054,19.7993311 Z M125.648684,19.9799331 C124.868311,19.9799331 124.120185,19.8779264 123.404305,19.673913 C122.688426,19.4698997 122.027366,19.1622074 121.421126,18.7508361 C120.814886,18.3394649 120.28765,17.8411371 119.83942,17.2558528 C119.391189,16.6705686 119.039698,15.9749163 118.784949,15.1688963 C118.530199,14.3628763 118.402824,13.4882943 118.402824,12.5451505 C118.402824,11.7090302 118.504401,10.9130434 118.707556,10.1571906 C118.910711,9.40133784 119.215444,8.71070229 119.621754,8.08528428 C120.028063,7.45986627 120.518215,6.91638796 121.092208,6.4548495 C121.666202,5.99331104 122.341773,5.63545145 123.118921,5.3812709 C123.896069,5.12709035 124.739324,5 125.648684,5 C126.312968,5 126.970804,5.09531773 127.622189,5.28595318 C128.273575,5.47658863 128.926573,5.78762542 129.581184,6.21906355 C130.235794,6.65050167 130.814624,7.18394654 131.317675,7.81939799 L128.889489,9.96655518 C128.502527,9.49163885 128.026887,9.09197319 127.462568,8.76755853 C126.898248,8.44314386 126.29362,8.28093645 125.648684,8.28093645 C125.306868,8.28093645 124.974725,8.32441466 124.652257,8.41137124 C124.329789,8.49832781 124.029894,8.62374587 123.752571,8.78762542 C123.475248,8.95150497 123.220499,9.15719058 122.988321,9.40468227 C122.756144,9.65217396 122.557826,9.93143813 122.393368,10.2424749 C122.228909,10.5535117 122.101534,10.9046823 122.011243,11.2959866 C121.920952,11.687291 121.875806,12.1036789 121.875806,12.5451505 C121.875806,13.3143813 122.028979,14.0133779 122.335323,14.6421405 C122.641668,15.2709031 123.085062,15.770903 123.665505,16.1421405 C124.245947,16.5133779 124.907007,16.6989967 125.648684,16.6989967 C126.267823,16.6989967 126.866001,16.5468227 127.443219,16.2424749 C128.020438,15.9381271 128.502527,15.5351171 128.889489,15.0334448 L131.317675,17.1906355 C130.672738,18.0267558 129.863343,18.7006689 128.889489,19.2123746 C127.915635,19.7240803 126.835367,19.9799331 125.648684,19.9799331 Z M132.952588,19.7993311 L132.952588,5.2006689 L138.302336,5.2006689 C139.147202,5.2006689 139.893716,5.32608696 140.541877,5.57692308 C141.190038,5.8277592 141.714049,6.18060206 142.11391,6.63545151 C142.51377,7.09030095 142.813666,7.62040139 143.013596,8.22575251 C143.213526,8.83110363 143.313491,9.50167229 143.313491,10.2374582 C143.313491,11.3010033 143.094213,12.2006689 142.655656,12.9364548 C142.2171,13.6722408 141.607635,14.2157191 140.827262,14.5668896 C140.046889,14.9180602 139.121405,15.0936455 138.050811,15.0936455 L136.212742,15.0936455 L136.212742,19.7993311 L132.952588,19.7993311 Z M136.212742,12.0735786 L137.605804,12.0735786 C138.328133,12.0735786 138.887615,11.9046823 139.284251,11.5668896 C139.680887,11.2290969 139.879205,10.7591973 139.879205,10.1571906 C139.879205,9.58862871 139.688949,9.12709025 139.308436,8.77257525 C138.927924,8.41806025 138.376503,8.24080268 137.654175,8.24080268 L136.212742,8.24080268 L136.212742,12.0735786 Z M145.006449,19.7993311 L145.006449,5.2006689 L148.334321,5.2006689 L148.334321,16.7391304 L154.235489,16.7391304 L154.235489,19.7993311 L145.006449,19.7993311 Z M161.529719,20 C160.659055,20 159.867396,19.8612041 159.154741,19.583612 C158.442086,19.30602 157.831009,18.9046822 157.321509,18.3795987 C156.81201,17.8545151 156.418599,17.1939799 156.141276,16.3979933 C155.863953,15.6020067 155.725292,14.7056856 155.725292,13.7090301 L155.725292,5.2006689 L159.062838,5.2006689 L159.062838,13.4882943 C159.062838,13.9431438 159.116045,14.367893 159.222459,14.7625418 C159.328874,15.1571906 159.482046,15.5050167 159.681977,15.8060201 C159.881907,16.1070234 160.139881,16.3444817 160.4559,16.5183946 C160.771919,16.6923076 161.129859,16.7792642 161.529719,16.7792642 C162.271396,16.7792642 162.876024,16.4849499 163.343603,15.8963211 C163.811182,15.3076923 164.044971,14.5050167 164.044971,13.4882943 L164.044971,5.2006689 L167.372843,5.2006689 L167.372843,13.7090301 C167.372843,14.9799332 167.148728,16.0869565 166.700497,17.0301003 C166.252266,17.9732441 165.586369,18.7040133 164.702806,19.222408 C163.819244,19.7408027 162.761548,20 161.529719,20 Z M176.408402,19.9598662 C175.595782,19.9598662 174.825083,19.8561873 174.096305,19.6488294 C173.367527,19.4414715 172.703242,19.1287626 172.103451,18.7107023 C171.50366,18.2926421 170.984487,17.7892977 170.54593,17.2006689 C170.107373,16.6120401 169.767169,15.9197324 169.525318,15.1237458 C169.283467,14.3277592 169.162541,13.464883 169.162541,12.5351171 C169.162541,11.4715719 169.325388,10.4816053 169.651081,9.56521739 C169.976774,8.64882948 170.437903,7.85284276 171.034469,7.17725753 C171.631035,6.50167229 172.380774,5.96989972 173.283685,5.5819398 C174.186596,5.19397988 175.186247,5 176.282639,5 C177.333885,5 178.37062,5.22575251 179.392845,5.67725753 C180.415069,6.12876254 181.274447,6.7725753 181.970978,7.60869565 L179.629859,9.67558528 C178.675353,8.71237458 177.556388,8.23076923 176.272965,8.23076923 C175.776364,8.23076923 175.307173,8.32775925 174.865391,8.52173913 C174.42361,8.71571901 174.036648,8.99331104 173.704506,9.35451505 C173.372364,9.71571906 173.10794,10.1705685 172.911234,10.7190635 C172.714529,11.2675586 172.616176,11.8729097 172.616176,12.5351171 C172.616176,13.1237459 172.703242,13.6789298 172.877375,14.2006689 C173.051508,14.722408 173.298196,15.1772575 173.617439,15.5652174 C173.936683,15.9531773 174.336543,16.2608695 174.817021,16.4882943 C175.297499,16.7157191 175.827959,16.8294314 176.408402,16.8294314 C177.246819,16.8294314 178.049765,16.6120401 178.817239,16.1772575 L178.817239,14.5217391 L176.11818,14.5217391 L176.11818,11.6220736 L182,11.6220736 L182,18.1839465 C181.355064,18.7123746 180.527933,19.1404682 179.518607,19.4682274 C178.509282,19.7959867 177.472547,19.9598662 176.408402,19.9598662 Z" id="MUSICPLUG" fill="#FFFFFF"></path>
                        </g>
                    </g>
                </g>
            </g>
        </g>
    </g>
</svg>