<svg width="546" height="453" viewBox="0 0 546 453" fill="none" xmlns="http://www.w3.org/2000/svg">
<mask id="mask0_133_12" style="mask-type:alpha" maskUnits="userSpaceOnUse" x="0" y="0" width="546" height="453">
<rect width="546" height="453" fill="#D9D9D9"/>
</mask>
<g mask="url(#mask0_133_12)">
<path d="M377.748 159.012V262.485C377.748 266.615 374.444 269.994 370.314 269.994H193.328C189.198 269.994 185.895 266.615 185.895 262.485V159.012C185.895 154.957 189.198 151.578 193.328 151.578H370.314C374.444 151.578 377.748 154.957 377.748 159.012Z" fill="#F0F3F5"/>
<path d="M377.748 159.012V164.419H185.895V159.012C185.895 154.957 189.198 151.578 193.328 151.578H370.314C374.444 151.578 377.748 154.957 377.748 159.012Z" fill="#6BC2EC"/>
<path d="M351.405 157.961C351.405 159.538 350.204 160.739 348.702 160.739C347.2 160.739 345.924 159.538 345.924 157.961C345.924 156.459 347.2 155.258 348.702 155.258C350.204 155.258 351.405 156.459 351.405 157.961Z" fill="white"/>
<path d="M359.896 157.961C359.896 159.538 358.62 160.739 357.118 160.739C355.616 160.739 354.34 159.538 354.34 157.961C354.34 156.459 355.616 155.258 357.118 155.258C358.62 155.258 359.896 156.459 359.896 157.961Z" fill="white"/>
<path d="M368.312 157.961C368.312 159.538 367.11 160.739 365.533 160.739C364.032 160.739 362.83 159.538 362.83 157.961C362.83 156.459 364.032 155.258 365.533 155.258C367.11 155.258 368.312 156.459 368.312 157.961Z" fill="white"/>
<path d="M248.036 193.321H203.282V186.488H248.036V193.321Z" fill="#6BC2EC"/>
<path fill-rule="evenodd" clip-rule="evenodd" d="M300.21 193.4H253.955V186.417H300.21V193.4ZM255.457 191.899H298.708V187.919H255.457V191.899Z" fill="#6BC2EC"/>
<path d="M343.775 202.485H203.282V201.133H343.775V202.485Z" fill="#6BC2EC"/>
<path d="M309.008 210.972H203.282V209.62H309.008V210.972Z" fill="#6BC2EC"/>
<path d="M270.412 219.455H203.282V218.104H270.412V219.455Z" fill="#6BC2EC"/>
<path d="M343.765 219.455H275.283V218.104H343.765V219.455Z" fill="#6BC2EC"/>
<path d="M343.769 210.972H314.033V209.621H343.769V210.972Z" fill="#6BC2EC"/>
<path d="M289.185 228.017H203.282V226.59H289.185V228.017Z" fill="#6BC2EC"/>
<path d="M343.775 236.127H203.282V234.776H343.775V236.127Z" fill="#6BC2EC"/>
<path d="M64.619 125.674H55.5332V115.161H64.619V125.674Z" fill="#0F93D3"/>
<path d="M76.9334 125.673H67.7725V97.6644H76.9334V125.673Z" fill="#0F93D3"/>
<path d="M89.1717 125.673H80.0107V86.5511H89.1717V125.673Z" fill="#0F93D3"/>
<path d="M101.412 125.673H92.251V97.6644H101.412V125.673Z" fill="#0F93D3"/>
<path d="M113.647 125.672H104.562V64.399H113.647V125.672Z" fill="#0F93D3"/>
<path d="M125.433 125.673H116.347V54.4879H125.433V125.673Z" fill="#0F93D3"/>
<path d="M188.766 110.129H197.927V116.361H188.766V110.129Z" fill="#54BFF3"/>
<path d="M176.525 110.129H185.686V126.648H176.525V110.129Z" fill="#54BFF3"/>
<path d="M164.287 110.129H173.448V133.181H164.287V110.129Z" fill="#54BFF3"/>
<path d="M152.046 110.129H161.207V126.648H152.046V110.129Z" fill="#54BFF3"/>
<path d="M139.807 110.129H148.892V146.247H139.807V110.129Z" fill="#54BFF3"/>
<path d="M127.959 110.129H137.12V152.104H127.959V110.129Z" fill="#54BFF3"/>
<g opacity="0.8">
<path d="M513.346 114.034V163.443C513.346 165.47 511.77 167.047 509.742 167.047H425.266C423.314 167.047 421.662 165.47 421.662 163.443V114.034C421.662 112.081 423.314 110.505 425.266 110.505H509.742C511.77 110.505 513.346 112.081 513.346 114.034Z" fill="#DCF2FC"/>
<path d="M513.346 114.034V116.587H421.662V114.034C421.662 112.081 423.314 110.505 425.266 110.505H509.742C511.77 110.505 513.346 112.081 513.346 114.034Z" fill="#54BFF3"/>
<path d="M500.809 113.583C500.809 114.258 500.209 114.859 499.458 114.859C498.707 114.859 498.182 114.258 498.182 113.583C498.182 112.832 498.707 112.231 499.458 112.231C500.209 112.231 500.809 112.832 500.809 113.583Z" fill="white"/>
<path d="M504.787 113.583C504.787 114.259 504.186 114.859 503.51 114.859C502.76 114.859 502.159 114.259 502.159 113.583C502.159 112.832 502.76 112.232 503.51 112.232C504.186 112.232 504.787 112.832 504.787 113.583Z" fill="white"/>
<path d="M508.841 113.582C508.841 114.258 508.241 114.859 507.49 114.859C506.814 114.859 506.214 114.258 506.214 113.582C506.214 112.832 506.814 112.231 507.49 112.231C508.241 112.231 508.841 112.832 508.841 113.582Z" fill="white"/>
<g opacity="0.8">
<path d="M456.886 160.666C449.828 157.136 445.473 150.003 445.473 142.118C445.473 130.705 454.784 121.394 466.197 121.394V128.227C458.538 128.227 452.306 134.459 452.306 142.118C452.306 147.45 455.234 152.18 459.965 154.583L456.886 160.666Z" fill="#052B3E"/>
<path d="M481.437 156.235C477.532 160.44 471.976 162.843 466.194 162.843C462.965 162.843 459.811 162.092 456.883 160.665L459.961 154.583C461.914 155.559 464.016 156.01 466.194 156.01C470.099 156.01 473.778 154.433 476.406 151.579L481.437 156.235Z" fill="#B9E8FF"/>
<path d="M481.434 156.235L476.403 151.579C478.806 149.026 480.083 145.647 480.083 142.118H486.916C486.916 147.374 484.964 152.405 481.434 156.235Z" fill="#8DD4F8"/>
<path d="M486.923 142.118H480.09C480.09 134.459 473.857 128.227 466.198 128.227V121.394C477.612 121.394 486.923 130.705 486.923 142.118Z" fill="#54BFF3"/>
</g>
</g>
<path fill-rule="evenodd" clip-rule="evenodd" d="M404.381 355.297H40.9482V121.769C40.9482 115.161 46.2796 109.755 52.9626 109.755H392.367C398.975 109.755 404.381 115.161 404.381 121.769V355.297ZM41.6991 354.546H403.631V121.769C403.631 115.612 398.524 110.506 392.367 110.506H52.9626C46.7301 110.506 41.6991 115.612 41.6991 121.769V354.546Z" fill="#0F93D3"/>
<path fill-rule="evenodd" clip-rule="evenodd" d="M389.285 342.531H55.9631C53.0346 342.531 50.5566 340.128 50.5566 337.124V130.779C50.5566 127.775 53.0346 125.297 55.9631 125.297H389.285C392.289 125.297 394.692 127.775 394.692 130.779V337.124C394.692 340.128 392.289 342.531 389.285 342.531ZM55.9631 126.048C53.41 126.048 51.3075 128.15 51.3075 130.779V337.124C51.3075 339.677 53.41 341.78 55.9631 341.78H389.285C391.838 341.78 393.941 339.677 393.941 337.124V130.779C393.941 128.15 391.838 126.048 389.285 126.048H55.9631Z" fill="#0F93D3"/>
<path fill-rule="evenodd" clip-rule="evenodd" d="M222.649 121.241C221.073 121.241 219.871 120.039 219.871 118.537C219.871 117.036 221.073 115.759 222.649 115.759C224.151 115.759 225.353 117.036 225.353 118.537C225.353 120.039 224.151 121.241 222.649 121.241ZM222.649 116.51C221.523 116.51 220.622 117.411 220.622 118.537C220.622 119.664 221.523 120.49 222.649 120.49C223.701 120.49 224.602 119.664 224.602 118.537C224.602 117.411 223.701 116.51 222.649 116.51Z" fill="#0F93D3"/>
<path fill-rule="evenodd" clip-rule="evenodd" d="M425.406 366.334H21.4243C15.4923 366.334 1 361.378 1 354.92V354.545H445.83V354.92C445.83 361.378 431.338 366.334 425.406 366.334ZM1.75089 355.295C2.35161 361.002 16.093 365.583 21.4243 365.583H425.406C430.662 365.583 444.479 361.002 445.004 355.295H1.75089Z" fill="#0F93D3"/>
<path fill-rule="evenodd" clip-rule="evenodd" d="M256.848 359.651H190.168C187.615 359.651 185.513 357.548 185.513 354.92V354.545H261.503V354.92C261.503 357.548 259.401 359.651 256.848 359.651ZM186.264 355.295C186.414 357.323 188.141 358.9 190.168 358.9H256.848C258.875 358.9 260.527 357.323 260.752 355.295H186.264Z" fill="#0F93D3"/>
<path fill-rule="evenodd" clip-rule="evenodd" d="M535.865 366.334H467.608C463.028 366.334 459.349 362.655 459.349 358.075V196.332C459.349 191.826 463.028 188.147 467.608 188.147H535.865C540.37 188.147 544.05 191.826 544.05 196.332V358.075C544.05 362.655 540.37 366.334 535.865 366.334ZM467.608 188.898C463.479 188.898 460.1 192.277 460.1 196.332V358.075C460.1 362.204 463.479 365.583 467.608 365.583H535.865C539.995 365.583 543.299 362.204 543.299 358.075V196.332C543.299 192.277 539.995 188.898 535.865 188.898H467.608Z" fill="#0F97DA"/>
<path fill-rule="evenodd" clip-rule="evenodd" d="M536.015 356.798H467.384C464.23 356.798 461.677 354.245 461.677 351.166V203.315C461.677 200.161 464.23 197.608 467.384 197.608H536.015C539.169 197.608 541.722 200.161 541.722 203.315V351.166C541.722 354.245 539.169 356.798 536.015 356.798ZM467.384 198.359C464.68 198.359 462.428 200.612 462.428 203.315V351.166C462.428 353.869 464.68 356.047 467.384 356.047H536.015C538.719 356.047 540.971 353.869 540.971 351.166V203.315C540.971 200.612 538.719 198.359 536.015 198.359H467.384Z" fill="#0F97DA"/>
<path d="M546.001 250.32H545.25V228.394H546.001V250.32Z" fill="#0F97DA"/>
<path d="M546.001 268.944H545.25V258.506H546.001V268.944Z" fill="#0F97DA"/>
<path fill-rule="evenodd" clip-rule="evenodd" d="M521.449 196.03C520.473 196.03 519.722 195.204 519.722 194.228C519.722 193.252 520.473 192.426 521.449 192.426C522.5 192.426 523.251 193.252 523.251 194.228C523.251 195.204 522.5 196.03 521.449 196.03ZM521.449 193.026C520.773 193.026 520.247 193.552 520.247 194.228C520.247 194.904 520.773 195.429 521.449 195.429C522.125 195.429 522.725 194.904 522.725 194.228C522.725 193.552 522.125 193.026 521.449 193.026Z" fill="#0F97DA"/>
<path fill-rule="evenodd" clip-rule="evenodd" d="M506.94 195.505H496.428C495.752 195.505 495.151 194.904 495.151 194.229C495.151 193.553 495.752 192.952 496.428 192.952H506.94C507.616 192.952 508.217 193.553 508.217 194.229C508.217 194.904 507.616 195.505 506.94 195.505ZM496.428 193.478C496.052 193.478 495.752 193.853 495.752 194.229C495.752 194.604 496.052 194.904 496.428 194.904H506.94C507.316 194.904 507.616 194.604 507.616 194.229C507.616 193.853 507.316 193.478 506.94 193.478H496.428Z" fill="#0F97DA"/>
<path fill-rule="evenodd" clip-rule="evenodd" d="M505.813 353.042H497.553C496.802 353.042 496.201 352.366 496.201 351.615C496.201 350.864 496.802 350.264 497.553 350.264H505.813C506.564 350.264 507.164 350.864 507.164 351.615C507.164 352.366 506.564 353.042 505.813 353.042ZM497.553 351.015C497.252 351.015 496.952 351.315 496.952 351.615C496.952 351.991 497.252 352.291 497.553 352.291H505.813C506.113 352.291 506.413 351.991 506.413 351.615C506.413 351.315 506.113 351.015 505.813 351.015H497.553Z" fill="#0F97DA"/>
<g filter="url(#filter0_d_133_12)">
<path d="M232.047 178.838V298.756C232.047 303.486 228.142 307.391 223.412 307.391H18.4175C13.6118 307.391 9.78223 303.486 9.78223 298.756V178.838C9.78223 174.107 13.6118 170.202 18.4175 170.202H223.412C228.142 170.202 232.047 174.107 232.047 178.838Z" fill="white"/>
</g>
<path d="M232.047 178.838V185.07H9.78223V178.838C9.78223 174.107 13.6118 170.202 18.4175 170.202H223.412C228.142 170.202 232.047 174.107 232.047 178.838Z" fill="#0F93D4"/>
<path d="M201.547 177.634C201.547 179.436 200.12 180.863 198.318 180.863C196.591 180.863 195.164 179.436 195.164 177.634C195.164 175.907 196.591 174.48 198.318 174.48C200.12 174.48 201.547 175.907 201.547 177.634Z" fill="white"/>
<path d="M211.295 177.634C211.295 179.436 209.868 180.863 208.066 180.863C206.339 180.863 204.912 179.436 204.912 177.634C204.912 175.907 206.339 174.48 208.066 174.48C209.868 174.48 211.295 175.907 211.295 177.634Z" fill="white"/>
<path d="M221.078 177.634C221.078 179.436 219.651 180.863 217.849 180.863C216.122 180.863 214.695 179.436 214.695 177.634C214.695 175.907 216.122 174.48 217.849 174.48C219.651 174.48 221.078 175.907 221.078 177.634Z" fill="white"/>
<path d="M104.303 241.839C104.303 263.465 86.7324 280.961 65.1066 280.961C64.4558 280.961 63.8051 280.961 63.1543 280.961V241.839H104.303Z" fill="#A9CDDE"/>
<path d="M63.1497 202.711V280.954C54.0639 280.504 45.8041 276.9 39.3464 271.268C34.3905 266.988 30.5609 261.431 28.3082 255.124C26.8065 250.994 25.9805 246.488 25.9805 241.833C25.9805 237.478 26.6563 233.273 28.0079 229.368C32.9638 214.425 46.7052 203.537 63.1497 202.711Z" fill="#0F93D3"/>
<path d="M104.303 241.839H63.1543L91.8385 213.154C99.4977 220.288 104.303 230.5 104.303 241.839Z" fill="#6BC2EC"/>
<path d="M91.8385 213.154L63.1543 241.839V202.717C63.8051 202.667 64.4558 202.642 65.1066 202.642C75.2437 202.642 84.4797 206.472 91.388 212.779C91.5381 212.929 91.6883 213.054 91.8385 213.154Z" fill="#1E9FDE"/>
<path d="M167.454 214.43H126.905V206.921H167.454V214.43Z" fill="#0F93D3"/>
<path d="M216.262 224.569H126.905V223.068H216.262V224.569Z" fill="#0F93D3"/>
<path d="M216.262 233.955H126.905V232.453H216.262V233.955Z" fill="#0F93D3"/>
<path d="M216.262 243.341H126.905V241.839H216.262V243.341Z" fill="#0F93D3"/>
<path d="M181.495 252.727H126.905V251.225H181.495V252.727Z" fill="#0F93D3"/>
<path d="M364.636 7.85698V89.1789C364.636 92.4829 362.008 95.111 358.779 95.111H219.563C216.334 95.111 213.706 92.4829 213.706 89.1789V7.85698C213.706 4.55304 216.334 2 219.563 2H358.779C362.008 2 364.636 4.55304 364.636 7.85698Z" fill="#DCF2FC"/>
<path d="M364.636 7.85698V12.062H213.706V7.85698C213.706 4.55304 216.334 2 219.563 2H358.779C362.008 2 364.636 4.55304 364.636 7.85698Z" fill="#0F93D3"/>
<path d="M343.898 7.03135C343.898 8.23279 342.922 9.13386 341.721 9.13386C340.519 9.13386 339.543 8.23279 339.543 7.03135C339.543 5.82992 340.519 4.85376 341.721 4.85376C342.922 4.85376 343.898 5.82992 343.898 7.03135Z" fill="white"/>
<path d="M350.514 7.03135C350.514 8.23279 349.538 9.13386 348.412 9.13386C347.211 9.13386 346.234 8.23279 346.234 7.03135C346.234 5.82992 347.211 4.85376 348.412 4.85376C349.538 4.85376 350.514 5.82992 350.514 7.03135Z" fill="white"/>
<path d="M357.187 7.03135C357.187 8.23279 356.211 9.13386 355.01 9.13386C353.808 9.13386 352.832 8.23279 352.832 7.03135C352.832 5.82992 353.808 4.85376 355.01 4.85376C356.211 4.85376 357.187 5.82992 357.187 7.03135Z" fill="white"/>
<path d="M222.195 86.3243C222.195 82.2695 222.195 47.503 222.195 47.503C222.195 47.503 236.012 65.6747 253.508 64.1729C263.269 63.3469 269.201 41.8713 281.216 32.0346C294.957 20.7712 313.579 56.739 322.965 57.4148C336.707 58.3159 356.08 26.1776 356.08 26.1776V86.3243H222.195Z" fill="#86D0F4"/>
<path d="M222.95 86.5518L221.448 86.0262C221.523 85.876 226.704 70.4827 232.862 57.7174C236.917 49.3074 240.671 45.2526 244.651 44.802C249.757 44.2764 254.112 49.9081 258.693 55.8402C263.423 61.9225 268.229 68.23 274.161 68.3801C274.211 68.3801 274.236 68.3801 274.236 68.3801C277.765 68.3801 281.895 59.4445 285.875 50.8092C290.606 40.5219 295.486 29.9343 301.343 28.2824C303.095 27.7818 304.823 28.1071 306.525 29.2585C312.532 33.2383 314.784 42.0988 316.887 49.9081C318.839 57.4171 320.491 63.8748 324.771 63.3492C329.051 62.8986 332.731 58.3932 335.96 54.4886C339.714 49.833 343.243 45.4779 347.373 48.3313C353.155 52.3861 354.957 69.2812 356.159 80.4696C356.459 82.7973 356.684 84.8248 356.91 86.1764L355.333 86.4016C355.107 85.05 354.882 83.0226 354.582 80.6948C353.606 71.0834 351.653 53.2872 346.472 49.6078C343.694 47.7305 341.141 50.5839 337.161 55.4648C333.782 59.6698 329.877 64.4004 324.921 64.926C319.29 65.6018 317.488 58.4683 315.31 50.2836C313.358 42.7746 311.105 34.2144 305.623 30.535C304.347 29.7091 303.07 29.4838 301.794 29.7841C296.688 31.2859 291.657 42.0237 287.302 51.485C282.646 61.4719 278.591 70.1823 274.086 70.0321C267.478 69.7318 262.372 63.199 257.416 56.8164C253.136 51.2597 249.081 46.0035 244.801 46.3789C241.422 46.7544 237.968 50.659 234.289 58.3932C228.131 71.0834 223.025 86.4016 222.95 86.5518Z" fill="#0F93D3"/>
<path fill-rule="evenodd" clip-rule="evenodd" d="M486.006 244.838C475.568 244.838 467.158 236.353 467.158 225.915C467.158 215.478 475.568 206.993 486.006 206.993C496.443 206.993 504.928 215.478 504.928 225.915C504.928 236.353 496.443 244.838 486.006 244.838ZM486.006 214.502C479.773 214.502 474.667 219.608 474.667 225.915C474.667 232.223 479.773 237.329 486.006 237.329C492.313 237.329 497.419 232.223 497.419 225.915C497.419 219.608 492.313 214.502 486.006 214.502Z" fill="#0F97DA"/>
<path fill-rule="evenodd" clip-rule="evenodd" d="M486.006 290.72C475.568 290.72 467.158 282.235 467.158 271.797C467.158 261.435 475.568 252.95 486.006 252.95C496.443 252.95 504.928 261.435 504.928 271.797C504.928 282.235 496.443 290.72 486.006 290.72ZM486.006 260.459C479.773 260.459 474.667 265.565 474.667 271.797C474.667 278.105 479.773 283.211 486.006 283.211C492.313 283.211 497.419 278.105 497.419 271.797C497.419 265.565 492.313 260.459 486.006 260.459Z" fill="#54BFF3"/>
<path d="M532.479 217.807H511.078V212.926H532.479V217.807Z" fill="#0F97DA"/>
<path d="M534.88 223.663H511.076V222.537H534.88V223.663Z" fill="#0F97DA"/>
<path d="M534.88 228.92H511.076V227.793H534.88V228.92Z" fill="#0F97DA"/>
<path d="M534.88 234.177H511.076V233.05H534.88V234.177Z" fill="#0F97DA"/>
<path d="M525.568 239.433H511.076V238.307H525.568V239.433Z" fill="#0F97DA"/>
<path d="M532.477 262.186H511.076V257.305H532.477V262.186Z" fill="#54BFF3"/>
<path d="M534.88 267.966H511.076V266.84H534.88V267.966Z" fill="#54BFF3"/>
<path d="M534.88 273.222H511.076V272.096H534.88V273.222Z" fill="#54BFF3"/>
<path d="M534.88 278.479H511.076V277.353H534.88V278.479Z" fill="#54BFF3"/>
<path d="M525.568 283.735H511.076V282.609H525.568V283.735Z" fill="#54BFF3"/>
<path d="M496.441 308.591H467.531V303.71H496.441V308.591Z" fill="#0F97DA"/>
<path fill-rule="evenodd" clip-rule="evenodd" d="M520.919 308.665H501.171V303.634H520.919V308.665ZM502.297 307.538H519.793V304.76H502.297V307.538Z" fill="#0F97DA"/>
<path d="M534.887 314.447H467.531V313.321H534.887V314.447Z" fill="#0F97DA"/>
<path d="M534.887 319.702H467.531V318.576H534.887V319.702Z" fill="#0F97DA"/>
<path d="M534.887 324.959H467.531V323.833H534.887V324.959Z" fill="#0F97DA"/>
<path d="M508.53 330.214H467.531V329.088H508.53V330.214Z" fill="#0F97DA"/>
<path fill-rule="evenodd" clip-rule="evenodd" d="M432.011 276.153C432.011 294.249 417.294 308.967 399.197 308.967C381.176 308.967 366.458 294.249 366.458 276.153C366.458 258.131 381.176 243.414 399.197 243.414C417.294 243.414 432.011 258.131 432.011 276.153ZM417.819 276.153C417.819 265.941 409.484 257.606 399.197 257.606C388.91 257.606 380.575 265.941 380.575 276.153C380.575 286.44 388.91 294.775 399.197 294.775C409.484 294.775 417.819 286.44 417.819 276.153Z" fill="#0F97DA"/>
<g filter="url(#filter1_d_133_12)">
<path fill-rule="evenodd" clip-rule="evenodd" d="M444.11 269.318V283.059L436.451 285.762C434.799 289.742 433.973 291.77 432.321 295.749L435.775 303.033C430.969 307.914 430.969 307.914 426.088 312.795L418.805 309.265C414.825 310.917 412.798 311.743 408.818 313.395L406.115 321.055H392.373L389.67 313.395C385.69 311.743 383.663 310.917 379.683 309.265L372.324 312.795C367.519 307.914 367.519 307.914 362.638 303.033L366.167 295.749C364.44 291.77 363.689 289.742 362.037 285.762L354.378 283.059V269.318L362.037 266.615C363.689 262.635 364.44 260.608 366.167 256.628L362.638 249.269L372.324 239.582L379.683 243.112C383.663 241.46 385.69 240.559 389.67 238.907L392.373 231.323H406.115L408.818 238.907C412.798 240.559 414.825 241.46 418.805 243.112L426.088 239.582C430.969 244.463 430.969 244.463 435.775 249.269L432.321 256.628C433.973 260.608 434.799 262.635 436.451 266.615L444.11 269.318ZM432.02 276.151C432.02 258.054 417.303 243.412 399.281 243.412C381.185 243.412 366.467 258.054 366.467 276.151C366.467 294.248 381.185 308.965 399.281 308.965C417.303 308.965 432.02 294.248 432.02 276.151Z" fill="#54BFF3"/>
</g>
<path style="mix-blend-mode:multiply" fill-rule="evenodd" clip-rule="evenodd" d="M441.487 60.267L408.672 89.4017L408.372 89.0263L422.189 76.7116C421.237 77.1622 420.336 77.3874 419.485 77.3874C418.684 77.3874 417.934 77.1872 417.233 76.7867C415.731 75.8856 414.83 74.0084 414.83 71.5304C414.83 66.4994 418.434 60.267 422.864 57.714C425.042 56.4375 427.144 56.2873 428.721 57.1884C430.223 58.0894 431.124 59.9667 431.124 62.4446C431.124 65.4482 429.848 68.8272 427.895 71.6055L441.111 59.8916L441.487 60.267ZM422.864 75.7355C427.144 73.3326 430.599 67.3254 430.599 62.4446C430.599 60.1168 429.848 58.3898 428.421 57.6389C427.87 57.2885 427.245 57.1133 426.544 57.1133C425.492 57.1133 424.366 57.4887 423.165 58.1645C418.885 60.6425 415.431 66.6496 415.431 71.5304C415.431 73.7831 416.181 75.5102 417.533 76.3362C418.96 77.1622 420.837 76.9369 422.864 75.7355Z" fill="url(#paint0_linear_133_12)"/>
<path d="M443.053 53.51L479.847 25.2013L439.899 61.7699L443.053 53.51Z" fill="#54BFF3"/>
<path d="M457.17 61.7699L427.134 42.622L479.847 25.2013L457.17 61.7699Z" fill="#54BFF3"/>
<path d="M479.866 25.2015L445.475 54.2612L439.918 61.7701L438.642 49.906L479.866 25.2015Z" fill="#0F93D3"/>
<g filter="url(#filter2_d_133_12)">
<path style="mix-blend-mode:multiply" fill-rule="evenodd" clip-rule="evenodd" d="M220.142 392.931L127.181 475.455L126.205 474.328L165.327 439.562C162.699 440.763 160.07 441.364 157.668 441.364C155.415 441.364 153.312 440.838 151.51 439.787C147.08 437.159 144.602 431.903 144.602 424.769C144.602 410.427 154.814 392.856 167.354 385.648C173.511 382.043 179.444 381.443 183.874 384.071C188.304 386.624 190.782 391.955 190.782 399.014C190.782 407.499 187.178 417.11 181.696 425.07L219.091 391.805L220.142 392.931ZM167.354 436.859C179.444 429.875 189.28 412.905 189.28 399.014C189.28 392.481 187.178 387.6 183.198 385.347C181.621 384.446 179.744 383.996 177.792 383.996C174.788 383.996 171.559 384.972 168.105 386.924C156.016 393.908 146.179 410.878 146.179 424.769C146.179 431.302 148.356 436.183 152.261 438.436C156.241 440.763 161.647 440.163 167.354 436.859Z" fill="url(#paint1_linear_133_12)"/>
<path d="M224.649 373.709L329.023 293.438L215.788 396.987L224.649 373.709Z" fill="#54BFF3"/>
<path d="M264.598 396.987L179.446 342.772L329.025 293.438L264.598 396.987Z" fill="#54BFF3"/>
<path d="M329.003 293.438L231.462 375.886L215.768 396.987L212.014 363.497L329.003 293.438Z" fill="#0F93D3"/>
</g>
<g opacity="0.5">
<path fill-rule="evenodd" clip-rule="evenodd" d="M195.196 68.9039V75.5118L191.516 76.7883C190.765 78.6656 190.39 79.6417 189.564 81.519L191.216 85.0482C188.888 87.3009 188.888 87.376 186.635 89.6286L183.106 87.9767C181.229 88.8027 180.253 89.1781 178.376 89.929L177.024 93.6084H170.491L169.215 89.929C167.337 89.1781 166.361 88.8027 164.484 87.9767L160.955 89.6286C158.627 87.376 158.627 87.3009 156.374 85.0482L158.026 81.519C157.2 79.6417 156.825 78.6656 155.999 76.7883L152.395 75.5118V68.9039L155.999 67.6274C156.825 65.7502 157.2 64.774 158.026 62.8968L156.374 59.3676C158.627 57.1149 158.627 57.0398 160.955 54.7871L164.484 56.4391C166.361 55.6131 167.337 55.2376 169.215 54.4868L170.491 50.8074H177.024L178.376 54.4868C180.253 55.2376 181.229 55.6131 183.106 56.4391L186.635 54.7871C188.888 57.0398 188.888 57.1149 191.216 59.3676L189.564 62.8968C190.39 64.774 190.765 65.7502 191.516 67.6274L195.196 68.9039ZM182.731 72.2079C182.731 67.3271 178.751 63.3473 173.795 63.3473C168.914 63.3473 164.934 67.3271 164.934 72.2079C164.934 77.0887 168.914 81.0684 173.795 81.0684C178.751 81.0684 182.731 77.0887 182.731 72.2079Z" fill="#0F93D4"/>
<path fill-rule="evenodd" clip-rule="evenodd" d="M173.775 88.5791C164.764 88.5791 157.405 81.2203 157.405 72.2096C157.405 63.1989 164.764 55.8401 173.775 55.8401C182.786 55.8401 190.144 63.1989 190.144 72.2096C190.144 81.2203 182.786 88.5791 173.775 88.5791ZM173.775 56.591C165.139 56.591 158.156 63.5743 158.156 72.2096C158.156 80.8449 165.139 87.8282 173.775 87.8282C182.41 87.8282 189.393 80.8449 189.393 72.2096C189.393 63.5743 182.41 56.591 173.775 56.591Z" fill="#54BFF3"/>
</g>
</g>
<defs>
<filter id="filter0_d_133_12" x="-20.2178" y="144.202" width="282.265" height="197.189" filterUnits="userSpaceOnUse" color-interpolation-filters="sRGB">
<feFlood flood-opacity="0" result="BackgroundImageFix"/>
<feColorMatrix in="SourceAlpha" type="matrix" values="0 0 0 0 0 0 0 0 0 0 0 0 0 0 0 0 0 0 127 0" result="hardAlpha"/>
<feOffset dy="4"/>
<feGaussianBlur stdDeviation="15"/>
<feComposite in2="hardAlpha" operator="out"/>
<feColorMatrix type="matrix" values="0 0 0 0 0 0 0 0 0 0 0 0 0 0 0 0 0 0 0.15 0"/>
<feBlend mode="normal" in2="BackgroundImageFix" result="effect1_dropShadow_133_12"/>
<feBlend mode="normal" in="SourceGraphic" in2="effect1_dropShadow_133_12" result="shape"/>
</filter>
<filter id="filter1_d_133_12" x="324.378" y="205.323" width="149.731" height="149.732" filterUnits="userSpaceOnUse" color-interpolation-filters="sRGB">
<feFlood flood-opacity="0" result="BackgroundImageFix"/>
<feColorMatrix in="SourceAlpha" type="matrix" values="0 0 0 0 0 0 0 0 0 0 0 0 0 0 0 0 0 0 127 0" result="hardAlpha"/>
<feOffset dy="4"/>
<feGaussianBlur stdDeviation="15"/>
<feComposite in2="hardAlpha" operator="out"/>
<feColorMatrix type="matrix" values="0 0 0 0 0 0 0 0 0 0 0 0 0 0 0 0 0 0 0.15 0"/>
<feBlend mode="normal" in2="BackgroundImageFix" result="effect1_dropShadow_133_12"/>
<feBlend mode="normal" in="SourceGraphic" in2="effect1_dropShadow_133_12" result="shape"/>
</filter>
<filter id="filter2_d_133_12" x="96.2051" y="267.438" width="262.819" height="242.016" filterUnits="userSpaceOnUse" color-interpolation-filters="sRGB">
<feFlood flood-opacity="0" result="BackgroundImageFix"/>
<feColorMatrix in="SourceAlpha" type="matrix" values="0 0 0 0 0 0 0 0 0 0 0 0 0 0 0 0 0 0 127 0" result="hardAlpha"/>
<feOffset dy="4"/>
<feGaussianBlur stdDeviation="15"/>
<feComposite in2="hardAlpha" operator="out"/>
<feColorMatrix type="matrix" values="0 0 0 0 0 0 0 0 0 0 0 0 0 0 0 0 0 0 0.15 0"/>
<feBlend mode="normal" in2="BackgroundImageFix" result="effect1_dropShadow_133_12"/>
<feBlend mode="normal" in="SourceGraphic" in2="effect1_dropShadow_133_12" result="shape"/>
</filter>
<linearGradient id="paint0_linear_133_12" x1="452.9" y1="60.267" x2="413.553" y2="93.3064" gradientUnits="userSpaceOnUse">
<stop stop-color="#0F93D3"/>
<stop offset="1" stop-color="white"/>
</linearGradient>
<linearGradient id="paint1_linear_133_12" x1="245.522" y1="384.446" x2="133.939" y2="478.083" gradientUnits="userSpaceOnUse">
<stop stop-color="#54BFF3"/>
<stop offset="1" stop-color="white"/>
</linearGradient>
</defs>
</svg>
