<?xml version="1.0" encoding="UTF-8"?>
<svg width="602px" height="147px" viewBox="0 0 602 147" version="1.1" xmlns="http://www.w3.org/2000/svg" xmlns:xlink="http://www.w3.org/1999/xlink">
    <title>oota</title>
    <desc>Created with Sketch.</desc>
    <g id="Page-1" stroke="none" stroke-width="1" fill="none" fill-rule="evenodd" opacity="0.0199999996">
        <g id="oota" transform="translate(-100.000000, -1090.000000)" fill="#000000" fill-rule="nonzero">
            <g id="Group-10" transform="translate(17.000000, 592.000000)">
                <g id="TEXT">
                    <g id="oota" transform="translate(83.045000, 498.079000)">
                        <path d="M71.958,146.73 C57.351927,146.73 44.6220543,143.74853 33.768,137.7855 C22.9139457,131.82247 14.5725291,123.280056 8.7435,112.158 C2.91447085,101.035944 -1.98951966e-13,88.0380744 -1.98951966e-13,73.164 C-1.98951966e-13,58.2899256 2.94797052,45.3590549 8.844,34.371 C14.7400295,23.3829451 23.0814461,14.9075298 33.8685,8.9445 C44.6555539,2.98147018 57.351927,-2.27373675e-13 71.958,-2.27373675e-13 C86.564073,-2.27373675e-13 99.2604461,2.98147018 110.0475,8.9445 C120.834554,14.9075298 129.108971,23.3829451 134.871,34.371 C140.633029,45.3590549 143.514,58.2899256 143.514,73.164 C143.514,88.0380744 140.633029,101.035944 134.871,112.158 C129.108971,123.280056 120.834554,131.82247 110.0475,137.7855 C99.2604461,143.74853 86.564073,146.73 71.958,146.73 Z M71.958,117.987 C82.6780536,117.987 91.0864695,114.168038 97.1835,106.53 C103.28053,98.8919618 106.329,87.770073 106.329,73.164 C106.329,58.6919276 103.28053,47.6705379 97.1835,40.0995 C91.0864695,32.5284621 82.6780536,28.743 71.958,28.743 C61.2379464,28.743 52.8630301,32.4949625 46.833,39.999 C40.8029698,47.5030375 37.788,58.557927 37.788,73.164 C37.788,87.9040737 40.8029698,99.0594621 46.833,106.6305 C52.8630301,114.201538 61.2379464,117.987 71.958,117.987 Z M233.763,146.73 C219.156927,146.73 206.427054,143.74853 195.573,137.7855 C184.718946,131.82247 176.377529,123.280056 170.5485,112.158 C164.719471,101.035944 161.805,88.0380744 161.805,73.164 C161.805,58.2899256 164.752971,45.3590549 170.649,34.371 C176.545029,23.3829451 184.886446,14.9075298 195.6735,8.9445 C206.460554,2.98147018 219.156927,-2.27373675e-13 233.763,-2.27373675e-13 C248.369073,-2.27373675e-13 261.065446,2.98147018 271.8525,8.9445 C282.639554,14.9075298 290.913971,23.3829451 296.676,34.371 C302.438029,45.3590549 305.319,58.2899256 305.319,73.164 C305.319,88.0380744 302.438029,101.035944 296.676,112.158 C290.913971,123.280056 282.639554,131.82247 271.8525,137.7855 C261.065446,143.74853 248.369073,146.73 233.763,146.73 Z M233.763,117.987 C244.483054,117.987 252.89147,114.168038 258.9885,106.53 C265.08553,98.8919618 268.134,87.770073 268.134,73.164 C268.134,58.6919276 265.08553,47.6705379 258.9885,40.0995 C252.89147,32.5284621 244.483054,28.743 233.763,28.743 C223.042946,28.743 214.66803,32.4949625 208.638,39.999 C202.60797,47.5030375 199.593,58.557927 199.593,73.164 C199.593,87.9040737 202.60797,99.0594621 208.638,106.6305 C214.66803,114.201538 223.042946,117.987 233.763,117.987 Z M359.589,32.361 L316.977,32.361 L316.977,1.809 L440.391,1.809 L440.391,32.361 L397.779,32.361 L397.779,144.921 L359.589,144.921 L359.589,32.361 Z" id="OOTA"></path>
                        <path d="M534.861,1.809 L601.995,144.921 L564.81,144.921 L552.147,115.374 L488.631,115.374 L475.968,144.921 L438.18,144.921 L505.113,1.809 L534.861,1.809 Z M520.389,41.808 L500.892,87.033 L539.886,87.033 L520.389,41.808 Z" id="Combined-Shape"></path>
                    </g>
                </g>
            </g>
        </g>
    </g>
</svg>