<?xml version="1.0" encoding="UTF-8"?>
<svg width="61px" height="59px" viewBox="0 0 61 59" version="1.1" xmlns="http://www.w3.org/2000/svg" xmlns:xlink="http://www.w3.org/1999/xlink">
    <!-- Generator: Sketch 52.6 (67491) - http://www.bohemiancoding.com/sketch -->
    <title>Shape</title>
    <desc>Created with Sketch.</desc>
    <g id="Page-1" stroke="none" stroke-width="1" fill="none" fill-rule="evenodd" opacity="0.100000001">
        <g id="Drop-app" transform="translate(-1197.000000, -2669.000000)" fill="#F18D85">
            <path d="M1254.86722,2684.91742 C1252.8606,2681.22653 1249.95889,2678.06565 1246.41278,2675.70784 C1242.86501,2673.34577 1238.70838,2671.63782 1233.94287,2670.58397 C1228.99162,2669.50863 1223.93154,2668.97754 1218.85806,2669.00073 L1200.30116,2669.00073 C1198.47798,2669.00073 1197,2670.43616 1197,2672.20686 C1197,2673.97756 1198.47798,2675.41299 1200.30116,2675.41299 L1211.76847,2675.41299 L1211.76847,2675.98534 C1211.76847,2679.21064 1209.07636,2681.82526 1205.75547,2681.82526 L1199.41592,2681.82526 C1198.08164,2681.82526 1197,2682.87576 1197,2684.17163 C1197,2685.4675 1198.08164,2686.518 1199.41592,2686.518 L1236.31542,2686.518 C1238.1386,2686.518 1239.61658,2687.95344 1239.61658,2689.72414 C1239.61658,2691.49483 1238.1386,2692.93027 1236.31542,2692.93027 L1211.49295,2692.93027 C1210.60391,2692.93027 1209.88319,2693.63024 1209.88319,2694.49369 C1209.88319,2695.35715 1210.60391,2696.05712 1211.49295,2696.05712 L1242.52231,2696.05712 C1244.34549,2696.05712 1245.82347,2697.49255 1245.82347,2699.26325 C1245.82347,2701.03395 1244.34549,2702.46938 1242.52231,2702.46938 L1211.49295,2702.46938 C1210.60391,2702.46938 1209.88319,2703.16935 1209.88319,2704.0328 C1209.88251,2704.44788 1210.05181,2704.84618 1210.35378,2705.13991 C1210.65574,2705.43365 1211.06558,2705.5987 1211.49295,2705.5987 L1236.76697,2705.5987 C1238.59015,2705.5987 1240.06813,2707.03414 1240.06813,2708.80484 C1240.06813,2710.57553 1238.59015,2712.01097 1236.76697,2712.01097 L1211.49295,2712.01097 C1210.60391,2712.01097 1209.88319,2712.71094 1209.88319,2713.57439 C1209.88319,2714.43785 1210.60391,2715.13782 1211.49295,2715.13782 L1227.13136,2715.13782 C1228.95454,2715.13782 1230.43252,2716.57325 1230.43252,2718.34395 C1230.43252,2720.11465 1228.95454,2721.55008 1227.13136,2721.55008 L1200.30116,2721.55008 C1198.47798,2721.55008 1197,2722.98551 1197,2724.75621 C1197,2726.56408 1198.47798,2727.99951 1200.30116,2727.99951 L1220.81987,2727.99951 C1225.59177,2728.02035 1230.34201,2727.37535 1234.92506,2726.08426 C1239.19206,2724.90911 1243.20916,2723.00453 1246.7878,2720.4599 C1250.17289,2718.02731 1252.96092,2714.89645 1254.9514,2711.29244 C1256.9838,2707.65023 1258,2703.44229 1258,2698.6686 C1258,2693.28045 1256.95574,2688.69672 1254.86722,2684.91742 Z" id="Shape" style="mix-blend-mode: multiply;"></path>
        </g>
    </g>
</svg>