<?xml version="1.0" encoding="utf-8"?>
<!-- Generator: Adobe Illustrator 24.0.1, SVG Export Plug-In . SVG Version: 6.00 Build 0)  -->
<svg version="1.1" id="Layer_1" xmlns="http://www.w3.org/2000/svg" xmlns:xlink="http://www.w3.org/1999/xlink" x="0px" y="0px"
	 viewBox="0 0 927 644" style="enable-background:new 0 0 927 644;" xml:space="preserve">
<style type="text/css">
	.st0{fill-rule:evenodd;clip-rule:evenodd;fill:url(#path-2_3_);}
	.st1{filter:url(#Adobe_OpacityMaskFilter);}
	.st2{fill-rule:evenodd;clip-rule:evenodd;fill:#FFFFFF;}
	
		.st3{opacity:0.1;mask:url(#mask-3_1_);fill-rule:evenodd;clip-rule:evenodd;fill:url(#Risposta_pattren_1_);enable-background:new    ;}
</style>
<title>COLOR BG</title>
<desc>Created with Sketch.</desc>
<g id="Risposta">
	<g id="case_study_risposta" transform="translate(-439.000000, 0.000000)">
		<g id="BANNER" transform="translate(0.000000, -1.000000)">
			<g id="COLOR-BG" transform="translate(439.000000, 0.000000)">
				<g id="BG">
					
						<linearGradient id="path-2_3_" gradientUnits="userSpaceOnUse" x1="0.9989" y1="643.5" x2="1.9989" y2="643.5" gradientTransform="matrix(931 0 0 -645 -930 415380)">
						<stop  offset="0" style="stop-color:#BF156D"/>
						<stop  offset="0.3915" style="stop-color:#E31E28"/>
						<stop  offset="1" style="stop-color:#EE6C03"/>
					</linearGradient>
					<rect id="path-2_1_" class="st0" width="931" height="645"/>
				</g>
				<defs>
					<filter id="Adobe_OpacityMaskFilter" filterUnits="userSpaceOnUse" x="213.6" y="-2.1" width="717.4" height="592.5">
						<feColorMatrix  type="matrix" values="1 0 0 0 0  0 1 0 0 0  0 0 1 0 0  0 0 0 1 0"/>
					</filter>
				</defs>
				<mask maskUnits="userSpaceOnUse" x="213.6" y="-2.1" width="717.4" height="592.5" id="mask-3_1_">
					<g class="st1">
						<rect id="path-2_2_" x="0.9" y="0" class="st2" width="931" height="645"/>
					</g>
				</mask>
				
					<linearGradient id="Risposta_pattren_1_" gradientUnits="userSpaceOnUse" x1="1.8711" y1="642.752" x2="1.1147" y2="644.0809" gradientTransform="matrix(830 0 0 -834.4295 -607 537128.625)">
					<stop  offset="0" style="stop-color:#000000;stop-opacity:0"/>
					<stop  offset="1" style="stop-color:#FFFFFF"/>
				</linearGradient>
				<path id="Risposta_pattren_2_" class="st3" d="M931,0c-0.1,34.8,0,465.5,0,465.5c-16.9,15.8-53.1,43.1-95.3,71.2
					C759.4,585,713.9,600.7,614.5,584L429,527.2c-78.4-24-138.1-88.1-156.5-168l-43.6-189.2c-18.4-80-30.6-120.1,28.1-172"/>
			</g>
		</g>
	</g>
</g>
</svg>
