<svg xmlns="http://www.w3.org/2000/svg" width="67" height="73" viewBox="0 0 67 73">
    <g fill="none" fill-rule="evenodd">
        <path stroke="#FFF" d="M33.187.626L66.374 18.16V53.85L33.187 72.01.627 53.85V18.16z"/>
        <path fill="#FFF" fill-rule="nonzero" stroke="#0C323C" stroke-width="5" d="M33.56 5.964L5.63 21.004v30.381l27.93 15.577 28.493-15.59V21.017L33.561 5.964z"/>
        <path stroke="#667A7E" stroke-width="4" d="M33.558 5.398L5.131 20.705v30.974l28.428 15.854 28.994-15.865V20.715L33.558 5.398z"/>
        <path fill="#0C323C" fill-rule="nonzero" d="M3.131 26.299H7v20.037H3.131z"/>
        <path fill="#0C323C" fill-rule="nonzero" d="M6.262 28.178h55.103v16.28H6.262z"/>
        <path stroke="#667A7E" stroke-linecap="square" d="M11.271 26.3h45.084M11.271 46.336h45.084"/>
        <path fill="#0C323C" fill-rule="nonzero" d="M60.626 26.299h3.869v20.037h-3.869z"/>
        <g fill-rule="nonzero">
            <path fill="#FFF" d="M26.455 31.935h1.452v9.072h-1.452zM32.987 38.113c0 1.388-1.167 1.499-1.515 1.499-.867 0-1.025-.812-1.025-1.302v-3.472h-1.452v3.465c0 .86.27 1.57.743 2.043.418.418 1.045.647 1.723.647.482 0 1.163-.15 1.526-.481v.495h1.452v-6.17h-1.452v3.276zM37.342 32.66H35.89v2.178h-1.088v1.451h1.088v4.718h1.452v-4.718h1.088v-1.451h-1.088zM43.002 39.162a1.763 1.763 0 0 1-1.192.442c-1.01 0-1.75-.741-1.75-1.76 0-1.017.717-1.727 1.75-1.727.45 0 .876.15 1.2.434l.22.189.979-.978-.245-.221a3.203 3.203 0 0 0-2.154-.812c-1.814 0-3.132 1.31-3.132 3.108 0 1.791 1.35 3.147 3.132 3.147.829 0 1.601-.291 2.17-.82l.236-.22-.994-.978-.22.196zM49.39 35.376c-.418-.419-.908-.647-1.587-.647-.481 0-1.026.15-1.389.48v-3.274h-1.451v9.072h1.451v-3.399c0-1.388.986-1.498 1.334-1.498.867 0 .843.812.843 1.301v3.596h1.452v-3.588c0-.86-.18-1.57-.653-2.043"/>
            <path fill="#FF1515" d="M41.763 36.811a1.05 1.05 0 1 1 0 2.099 1.05 1.05 0 0 1 0-2.099"/>
            <path fill="#FFF" d="M24.423 38.728a2.898 2.898 0 0 1-2.09.876c-1.618 0-2.794-1.27-2.794-3.014 0-1.75 1.176-3.021 2.793-3.021.781 0 1.523.307 2.083.868l.22.22.971-.97-.213-.22a4.224 4.224 0 0 0-3.06-1.278c-2.383 0-4.174 1.893-4.174 4.41 0 2.508 1.799 4.393 4.173 4.393a4.236 4.236 0 0 0 3.07-1.285l.212-.221-.962-.986-.23.228z"/>
        </g>
        <path fill="#0F0B0B" d="M31.371 16.28h-.438v-2.306h-.79v-.376h2.017v.376h-.789v2.306zm3.756-1.344c0 .436-.109.776-.327 1.018-.218.242-.528.363-.927.363-.405 0-.716-.12-.933-.36-.217-.24-.326-.582-.326-1.025 0-.443.11-.783.328-1.02.218-.237.53-.356.934-.356.399 0 .707.12.925.362.217.24.326.58.326 1.018zm-2.047 0c0 .33.067.58.2.75.133.172.33.257.593.257.26 0 .457-.085.59-.253.132-.17.198-.42.198-.754 0-.33-.065-.579-.197-.749-.131-.17-.327-.255-.588-.255-.263 0-.461.085-.595.255-.134.17-.201.42-.201.749zm4.65-.527c0 .28-.092.495-.276.644-.183.15-.444.224-.783.224h-.279v1.003h-.438v-2.682h.772c.335 0 .586.069.753.206.167.137.25.339.25.605zm-1.338.5h.233c.225 0 .39-.04.496-.118.105-.078.157-.2.157-.367 0-.154-.047-.27-.141-.345-.094-.076-.24-.114-.44-.114h-.305v.943zm-18.218 5.463a5.304 5.304 0 0 1-.128.578l-.444 1.592h-.477l-.347-1.343-.352-1.339h.448l.383 1.563c.06.25.103.472.129.664a5.243 5.243 0 0 1 .134-.66l.436-1.567h.435l.448 1.574c.042.146.088.363.135.653.019-.175.063-.397.132-.668l.382-1.559h.444l-.699 2.682h-.477l-.455-1.6a6.18 6.18 0 0 1-.126-.576l-.001.006zm3.905 2.17h-1.517V19.86h1.517v.37h-1.078v.73h1.01v.368h-1.01v.842h1.078v.372zm.83-2.682h.797c.369 0 .636.054.8.161.165.108.247.278.247.51 0 .157-.04.287-.121.391a.541.541 0 0 1-.349.197v.018c.189.035.327.105.416.21a.635.635 0 0 1 .133.425c0 .24-.084.43-.252.566-.168.136-.402.204-.702.204h-.969V19.86zm.439 1.108h.422c.183 0 .317-.029.402-.087.084-.058.126-.157.126-.296 0-.126-.045-.217-.137-.274-.09-.056-.235-.084-.433-.084h-.38v.741zm0 .356v.85h.466c.183 0 .322-.036.415-.106.094-.07.14-.181.14-.333 0-.14-.047-.243-.142-.31-.096-.067-.24-.101-.435-.101h-.444zm5.7-.149c0 .443-.123.782-.369 1.016-.246.234-.6.351-1.062.351h-.75V19.86h.829c.427 0 .759.115.996.345.237.23.356.553.356.97zm-.463.015c0-.642-.3-.963-.9-.963h-.38v1.946h.312c.646 0 .968-.327.968-.983zm2.806 1.352h-1.517V19.86h1.517v.37h-1.078v.73h1.01v.368h-1.01v.842h1.078v.372zm2.359-2.682h.455l-.94 2.682h-.462l-.936-2.682h.452l.56 1.668c.029.08.06.182.093.307s.054.218.064.28c.016-.093.04-.2.073-.323.033-.123.06-.213.081-.272l.56-1.66zm2.576 2.682H34.81V19.86h1.517v.37h-1.078v.73h1.01v.368h-1.01v.842h1.078v.372zm.83 0V19.86h.439v2.306h1.135v.376h-1.574zm4.593-1.345c0 .437-.11.776-.327 1.019-.219.242-.528.363-.928.363-.405 0-.716-.12-.933-.36-.217-.241-.325-.583-.325-1.025 0-.443.109-.783.327-1.02.219-.238.53-.356.935-.356.399 0 .707.12.924.361.218.241.327.58.327 1.018zm-2.047 0c0 .33.066.581.2.752.133.17.33.256.592.256.26 0 .457-.085.59-.254.133-.168.2-.42.2-.754 0-.329-.067-.578-.198-.748-.132-.17-.328-.255-.588-.255-.263 0-.461.085-.595.255-.134.17-.201.42-.201.748zm4.65-.526c0 .28-.092.495-.276.644-.183.149-.444.224-.783.224h-.279v1.003h-.438V19.86h.772c.335 0 .586.069.753.206.167.136.25.338.25.605zm-1.338.499h.233c.225 0 .39-.04.495-.118.105-.078.158-.2.158-.366 0-.155-.047-.27-.141-.345-.094-.076-.241-.114-.44-.114h-.305v.943zm3.64 1.372h-1.517V19.86h1.518v.37h-1.08v.73h1.012v.368h-1.011v.842h1.079v.372zm1.27-1.435h.304c.204 0 .352-.037.444-.113.091-.076.137-.189.137-.338 0-.151-.05-.26-.148-.326-.1-.066-.249-.1-.448-.1h-.29v.877zm0 .364v1.071h-.44V19.86h.758c.346 0 .603.065.769.195.166.13.25.325.25.587 0 .333-.174.571-.522.713l.758 1.187h-.499l-.642-1.071h-.433zm3.759.343a.675.675 0 0 1-.259.561c-.172.136-.41.204-.713.204-.304 0-.552-.047-.745-.142v-.414c.122.057.252.103.39.136.137.033.265.05.384.05.174 0 .302-.034.384-.1a.323.323 0 0 0 .124-.266c0-.1-.038-.185-.114-.255-.075-.07-.232-.152-.47-.248-.244-.099-.416-.212-.516-.339a.718.718 0 0 1-.15-.459c0-.223.079-.4.238-.528.159-.128.372-.192.64-.192.257 0 .512.056.767.168l-.14.358c-.238-.1-.451-.15-.638-.15-.142 0-.25.03-.323.092a.304.304 0 0 0-.11.245c0 .07.015.13.044.179a.45.45 0 0 0 .145.14c.067.044.188.102.363.175.197.082.341.158.433.229.092.07.159.151.202.24.043.09.064.195.064.316zM31.006 55.729h-1.818v-.327l.692-.695c.204-.209.34-.357.406-.445.067-.087.115-.17.146-.246a.665.665 0 0 0 .046-.248.378.378 0 0 0-.11-.286.418.418 0 0 0-.301-.105.805.805 0 0 0-.298.057 1.395 1.395 0 0 0-.333.206l-.233-.285c.15-.126.294-.215.435-.268.14-.052.29-.079.45-.079.249 0 .449.066.599.196a.66.66 0 0 1 .226.525.922.922 0 0 1-.065.345c-.044.11-.11.221-.2.337a4.57 4.57 0 0 1-.449.469l-.466.45v.02h1.273v.379zm2.395-1.341c0 .466-.075.812-.225 1.038-.15.227-.378.34-.687.34-.298 0-.524-.117-.678-.35-.154-.234-.231-.577-.231-1.028 0-.473.074-.822.224-1.047.15-.224.378-.336.685-.336.3 0 .527.117.681.352.154.235.231.578.231 1.031zm-1.385 0c0 .366.038.627.113.783.075.157.195.235.36.235.166 0 .286-.08.363-.238.076-.16.114-.42.114-.78 0-.36-.038-.62-.114-.78-.077-.161-.197-.242-.363-.242-.165 0-.285.079-.36.237-.075.158-.113.42-.113.785zm3.228 1.341h-.431v-1.732c0-.206.005-.37.015-.491a1.55 1.55 0 0 1-.104.097c-.041.035-.178.148-.412.337l-.216-.273.788-.62h.36v2.682zm2.035-2.717c.255 0 .456.059.604.175a.567.567 0 0 1 .222.469c0 .275-.165.494-.495.657.21.105.36.216.448.332a.625.625 0 0 1 .133.389.653.653 0 0 1-.244.532c-.163.133-.383.2-.66.2-.291 0-.517-.063-.677-.187-.16-.125-.24-.302-.24-.53 0-.15.041-.284.125-.403.084-.12.221-.226.412-.319a1.036 1.036 0 0 1-.35-.31.666.666 0 0 1-.105-.366c0-.195.076-.35.23-.466.152-.115.352-.173.597-.173zm-.497 2.022c0 .127.045.226.134.296.09.07.21.105.363.105.158 0 .28-.036.368-.109a.365.365 0 0 0 .131-.296c0-.099-.04-.19-.12-.271a1.142 1.142 0 0 0-.368-.228l-.053-.024a.944.944 0 0 0-.348.234.444.444 0 0 0-.107.293zm.494-1.69c-.123 0-.221.03-.296.091a.3.3 0 0 0-.112.247c0 .063.014.12.04.17.028.05.067.096.118.137.052.04.138.09.26.148a.865.865 0 0 0 .312-.205.376.376 0 0 0 .09-.25.3.3 0 0 0-.112-.247.464.464 0 0 0-.3-.09z"/>
    </g>
</svg>
