<svg xmlns="http://www.w3.org/2000/svg" width="127" height="30" viewBox="0 0 127 30">
    <g fill="none" fill-rule="evenodd">
        <path stroke="#FFF" stroke-linecap="square" d="M52.75 3.26v23.48"/>
        <path fill="#6DC314" d="M8.15 12.463c2.035 0 3.655.573 4.86 1.72 1.204 1.146 1.806 2.717 1.806 4.711 0 2.36-.725 4.177-2.174 5.448-1.45 1.272-3.522 1.908-6.22 1.908-2.341 0-4.232-.38-5.672-1.142V21.25c.758.404 1.641.734 2.65.99 1.007.255 1.962.383 2.864.383 2.716 0 4.074-1.118 4.074-3.353 0-2.13-1.406-3.194-4.218-3.194-.509 0-1.07.05-1.684.152-.615.1-1.114.21-1.498.325l-1.77-.954.791-10.767h11.417V8.62H5.861l-.389 4.147.504-.1c.586-.136 1.31-.203 2.174-.203zm23.77 2.934c0 3.69-.603 6.421-1.807 8.194-1.205 1.773-3.06 2.659-5.565 2.659-2.428 0-4.259-.915-5.492-2.746-1.233-1.83-1.85-4.533-1.85-8.107 0-3.729.6-6.477 1.8-8.245 1.2-1.768 3.047-2.652 5.542-2.652 2.429 0 4.264.925 5.507 2.775 1.243 1.85 1.865 4.557 1.865 8.122zm-10.294 0c0 2.591.223 4.448.67 5.57.446 1.123 1.197 1.684 2.252 1.684 1.037 0 1.786-.568 2.246-1.705.461-1.137.691-2.987.691-5.55 0-2.591-.232-4.453-.698-5.585-.465-1.132-1.212-1.698-2.239-1.698-1.046 0-1.794.566-2.246 1.698-.45 1.132-.676 2.994-.676 5.586zm27.124 0c0 3.69-.602 6.421-1.807 8.194-1.204 1.773-3.06 2.659-5.564 2.659-2.429 0-4.26-.915-5.493-2.746-1.233-1.83-1.85-4.533-1.85-8.107 0-3.729.6-6.477 1.8-8.245 1.2-1.768 3.047-2.652 5.543-2.652 2.428 0 4.264.925 5.507 2.775 1.243 1.85 1.864 4.557 1.864 8.122zm-10.294 0c0 2.591.223 4.448.67 5.57.446 1.123 1.197 1.684 2.253 1.684 1.036 0 1.785-.568 2.246-1.705.46-1.137.69-2.987.69-5.55 0-2.591-.232-4.453-.698-5.585-.465-1.132-1.211-1.698-2.238-1.698-1.047 0-1.795.566-2.246 1.698-.451 1.132-.677 2.994-.677 5.586z"/>
        <g fill-rule="nonzero">
            <path fill="#86BC24" d="M123.051 10.965c0-.985.83-1.785 1.85-1.785 1.021 0 1.849.8 1.849 1.785 0 .986-.828 1.785-1.85 1.785-1.02 0-1.849-.8-1.849-1.785"/>
            <path fill="#FFF" d="M64.077 5.977c0-1.12-.226-1.953-.677-2.495-.452-.541-1.137-.811-2.057-.811h-.98v6.856h.75c1.022 0 1.771-.291 2.248-.875.477-.583.716-1.475.716-2.675m3.491-.116c0 2.042-.572 3.616-1.716 4.721-1.144 1.105-2.752 1.658-4.824 1.658H57V0h4.309c1.998 0 3.541.502 4.629 1.507 1.087 1.005 1.63 2.455 1.63 4.354M78.665 12.24h3.17V0h-3.17zM86.231 7.885c0 .803.11 1.416.328 1.837.22.422.586.632 1.102.632.51 0 .87-.21 1.08-.632.211-.421.315-1.034.315-1.837 0-.8-.106-1.402-.319-1.809-.213-.408-.577-.612-1.093-.612-.505 0-.866.203-1.085.607-.218.405-.328 1.01-.328 1.814m6.172 0c0 1.53-.418 2.724-1.256 3.58-.839.857-2.012 1.285-3.52 1.285-1.446 0-2.597-.438-3.452-1.314-.855-.876-1.283-2.059-1.283-3.551 0-1.526.419-2.712 1.257-3.557.84-.845 2.015-1.268 3.53-1.268.935 0 1.762.196 2.48.587a4.035 4.035 0 0 1 1.66 1.681c.39.729.584 1.582.584 2.557M93.989 12.75h3.17V3.57h-3.17zM93.989 2.55h3.17V0h-3.17zM103.513 10.244c.44 0 .962-.106 1.572-.317v2.312a6.51 6.51 0 0 1-1.251.393 7.22 7.22 0 0 1-1.394.118c-1.092 0-1.879-.261-2.362-.783-.482-.522-.723-1.323-.723-2.404V5.775h-1.14V3.399h1.14V1.053l3.277-.543V3.4h2.075v2.375h-2.075v3.577c0 .595.294.892.881.892M110.911 10.244c.439 0 .962-.106 1.572-.317v2.312a6.497 6.497 0 0 1-1.252.393c-.396.079-.86.118-1.393.118-1.092 0-1.879-.261-2.361-.783-.482-.522-.724-1.323-.724-2.404V5.775h-1.14V3.399h1.14V1.017L110.03.51V3.4h2.076v2.375h-2.076v3.577c0 .595.294.892.881.892M116.32 6.745c.045-.513.194-.888.448-1.128.256-.24.571-.36.948-.36.412 0 .739.135.982.406.244.27.371.63.381 1.082h-2.758zm4.529-2.582c-.763-.735-1.846-1.103-3.247-1.103-1.473 0-2.606.423-3.4 1.268s-1.19 2.058-1.19 3.639c0 1.53.429 2.711 1.285 3.54.857.828 2.06 1.243 3.61 1.243.743 0 1.383-.05 1.92-.15a5.625 5.625 0 0 0 1.55-.531l-.493-2.11c-.364.147-.71.259-1.037.333-.473.108-.991.162-1.556.162-.618 0-1.107-.149-1.465-.446-.358-.298-.549-.708-.57-1.231h5.738V7.339c0-1.382-.381-2.441-1.145-3.176zM71.74 6.745c.041-.513.181-.888.42-1.128.24-.24.538-.36.894-.36.386 0 .694.135.923.406.23.27.349.63.36 1.082H71.74zm4.262-2.582c-.719-.735-1.737-1.103-3.056-1.103-1.387 0-2.453.423-3.2 1.268-.747.845-1.121 2.058-1.121 3.639 0 1.53.403 2.711 1.21 3.54.806.828 1.938 1.243 3.397 1.243.7 0 1.303-.05 1.808-.15a5.095 5.095 0 0 0 1.46-.531l-.465-2.11a6.245 6.245 0 0 1-.976.333 6.23 6.23 0 0 1-1.465.162c-.582 0-1.042-.149-1.379-.446-.337-.298-.516-.708-.537-1.231h5.402V7.339c0-1.382-.36-2.441-1.078-3.176z"/>
        </g>
        <path fill="#FFF" d="M59.233 21.448h-.798v-4.603H57v-.75h3.668v.75h-1.435v4.603zm3.711.073c-.574 0-1.023-.183-1.347-.55-.323-.368-.485-.874-.485-1.519 0-.661.15-1.181.45-1.56.3-.378.713-.567 1.239-.567.487 0 .872.162 1.154.487.283.324.424.771.424 1.34v.465h-2.46c.012.393.108.695.29.907.183.21.44.316.772.316.218 0 .42-.022.609-.067.188-.046.39-.12.606-.226v.7c-.192.1-.385.17-.581.212-.196.042-.42.062-.67.062zm-.143-3.544a.753.753 0 0 0-.6.26c-.15.173-.24.426-.268.758h1.675c-.004-.335-.078-.588-.22-.76-.142-.172-.338-.258-.587-.258zm3.958 3.544c-.559 0-.983-.178-1.273-.536-.29-.358-.436-.871-.436-1.54 0-.681.152-1.205.456-1.571.303-.366.742-.55 1.316-.55.39 0 .74.08 1.052.239l-.237.692c-.332-.142-.606-.213-.821-.213-.639 0-.958.466-.958 1.396 0 .454.08.795.238 1.023.16.229.393.343.7.343.349 0 .68-.096.99-.286v.75c-.14.091-.289.156-.448.195-.16.039-.352.058-.58.058zm5.143-.073h-.788v-2.49c0-.312-.057-.546-.172-.7-.114-.153-.296-.23-.545-.23-.33 0-.572.108-.726.324-.155.216-.232.578-.232 1.086v2.01h-.784V15.75h.784v1.447a7.4 7.4 0 0 1-.04.743h.05c.107-.195.255-.347.445-.454.19-.108.413-.161.666-.161.895 0 1.342.494 1.342 1.483v2.64zm4.339 0h-.788v-2.49c0-.312-.057-.546-.172-.7-.114-.153-.296-.23-.546-.23-.331 0-.574.107-.727.322-.154.215-.23.575-.23 1.08v2.018h-.785v-4.05h.614l.11.531h.04c.112-.193.27-.342.475-.447a1.47 1.47 0 0 1 .68-.157c.886 0 1.329.494 1.329 1.483v2.64zm4.365-2.032c0 .661-.154 1.178-.464 1.549-.31.37-.74.556-1.291.556-.345 0-.65-.085-.915-.256a1.645 1.645 0 0 1-.61-.736 2.715 2.715 0 0 1-.214-1.113c0-.657.153-1.17.46-1.538.307-.369.74-.553 1.299-.553.534 0 .956.188 1.268.566.311.377.467.885.467 1.525zm-2.687 0c0 .935.315 1.402.945 1.402.623 0 .934-.467.934-1.402 0-.926-.313-1.388-.94-1.388-.33 0-.569.12-.717.359-.148.239-.222.582-.222 1.029zm4.373 2.032h-.785V15.75h.785v5.698zm4.395-2.032c0 .661-.155 1.178-.464 1.549-.31.37-.74.556-1.291.556-.345 0-.65-.085-.915-.256a1.645 1.645 0 0 1-.61-.736 2.715 2.715 0 0 1-.214-1.113c0-.657.153-1.17.46-1.538.307-.369.74-.553 1.299-.553.534 0 .956.188 1.268.566.311.377.467.885.467 1.525zm-2.687 0c0 .935.315 1.402.945 1.402.623 0 .934-.467.934-1.402 0-.926-.313-1.388-.94-1.388-.33 0-.569.12-.717.359-.148.239-.222.582-.222 1.029zm6.705-2.018v.472l-.63.129c.057.085.105.19.143.314.038.125.057.257.057.396 0 .417-.131.746-.394.985-.263.24-.624.359-1.085.359-.118 0-.224-.01-.32-.03-.17.115-.254.25-.254.404 0 .092.04.162.119.208.079.047.224.07.435.07h.644c.408 0 .717.095.928.285.212.19.317.466.317.824 0 .46-.172.813-.517 1.062-.345.25-.843.374-1.495.374-.503 0-.887-.098-1.152-.293-.264-.195-.397-.474-.397-.835a.94.94 0 0 1 .216-.628c.143-.17.344-.287.602-.353a.606.606 0 0 1-.259-.237.636.636 0 0 1-.102-.342c0-.151.04-.28.117-.385.078-.104.194-.208.347-.31a1.062 1.062 0 0 1-.465-.442 1.394 1.394 0 0 1-.179-.716c0-.44.127-.78.38-1.022.252-.241.611-.362 1.079-.362.104 0 .214.008.328.024.115.015.201.032.26.049h1.277zm-2.9 4.68c0 .186.076.328.229.429.152.1.366.15.642.15.427 0 .746-.067.955-.202.209-.134.313-.312.313-.534 0-.176-.057-.301-.171-.376-.115-.074-.328-.111-.64-.111h-.594c-.224 0-.403.058-.535.174a.594.594 0 0 0-.199.47zm.337-3.369c0 .254.06.45.179.586.119.137.29.205.512.205.454 0 .68-.266.68-.798 0-.264-.055-.467-.168-.61-.112-.143-.283-.214-.512-.214-.227 0-.399.07-.516.212-.116.142-.175.348-.175.619zm2.687-1.311h.854l.751 2.296c.114.327.19.635.227.923h.027c.02-.134.057-.297.11-.489s.336-1.102.848-2.73h.847l-1.578 4.589c-.287.842-.766 1.263-1.435 1.263-.174 0-.343-.02-.508-.062v-.681c.118.029.253.044.404.044.379 0 .644-.24.798-.722l.137-.38-1.482-4.051zm7.072 4.05h-1.018v-5.354h2.797v.93h-1.779v1.381h1.655v.927h-1.655v2.116zm5.023 0l-.197-.556h-.027c-.17.236-.347.4-.529.492-.18.092-.417.137-.709.137-.358 0-.64-.112-.846-.336-.206-.225-.309-.545-.309-.96 0-.434.139-.755.416-.961.277-.207.695-.32 1.253-.343l.648-.022v-.179c0-.415-.194-.623-.581-.623-.298 0-.649.1-1.051.297l-.338-.754c.43-.247.906-.37 1.429-.37.5 0 .884.12 1.151.359s.4.603.4 1.091v2.728h-.71zm-.3-1.897l-.394.015c-.296.01-.516.068-.661.176-.145.107-.217.27-.217.49 0 .315.165.473.494.473a.743.743 0 0 0 .566-.224c.141-.148.212-.346.212-.593v-.337zm4.662.681c0 .42-.133.74-.399.96-.266.22-.663.33-1.193.33-.271 0-.503-.02-.694-.06-.191-.041-.37-.1-.537-.179v-.922c.189.097.402.179.639.245s.445.099.626.099c.369 0 .554-.117.554-.352a.31.31 0 0 0-.074-.214 1.066 1.066 0 0 0-.254-.187c-.12-.07-.28-.15-.48-.243-.287-.132-.498-.254-.633-.366a1.015 1.015 0 0 1-.293-.387 1.384 1.384 0 0 1-.092-.536c0-.364.128-.645.385-.844.257-.2.622-.299 1.093-.299.45 0 .887.108 1.312.322l-.307.806a5.343 5.343 0 0 0-.524-.216 1.512 1.512 0 0 0-.497-.084c-.3 0-.45.089-.45.267 0 .1.048.187.144.26.097.073.31.182.636.326.292.13.505.25.64.363.137.112.237.241.301.388.065.146.097.32.097.523zm2.366.4c.178 0 .392-.043.641-.129v.832c-.253.124-.565.186-.934.186-.407 0-.704-.112-.89-.338-.186-.226-.278-.565-.278-1.016v-1.974h-.488v-.473l.561-.373.294-.865h.65v.872h1.045v.839h-1.044v1.974c0 .158.04.275.121.351a.453.453 0 0 0 .322.114zm4.686-2.604c.472 0 .847.145 1.127.436.279.29.419.688.419 1.193 0 .599-.168 1.059-.504 1.381-.336.322-.817.483-1.442.483-.543 0-.981-.096-1.315-.289v-.978c.176.103.38.187.614.251.234.065.455.097.664.097.63 0 .945-.283.945-.85 0-.539-.326-.809-.978-.809-.118 0-.248.013-.39.039a2.64 2.64 0 0 0-.348.082l-.41-.241.183-2.729h2.647v.96h-1.742l-.09 1.05.116-.025a2.1 2.1 0 0 1 .504-.051zm5.51.743c0 .935-.14 1.627-.418 2.077-.28.449-.71.673-1.29.673-.563 0-.988-.231-1.274-.695-.286-.464-.428-1.149-.428-2.055 0-.945.139-1.641.417-2.089.278-.448.706-.672 1.285-.672.563 0 .988.234 1.276.703.288.469.432 1.155.432 2.058zm-2.386 0c0 .657.052 1.128.155 1.412.104.284.278.427.523.427.24 0 .414-.144.52-.433.107-.288.16-.756.16-1.406 0-.657-.053-1.128-.161-1.415-.108-.287-.281-.43-.52-.43-.242 0-.415.143-.52.43-.105.287-.157.758-.157 1.415zm6.288 0c0 .935-.14 1.627-.419 2.077-.28.449-.71.673-1.29.673-.563 0-.987-.231-1.273-.695-.286-.464-.429-1.149-.429-2.055 0-.945.14-1.641.417-2.089.278-.448.707-.672 1.285-.672.563 0 .989.234 1.277.703.288.469.432 1.155.432 2.058zm-2.386 0c0 .657.051 1.128.155 1.412.103.284.277.427.522.427.24 0 .414-.144.52-.433.108-.288.161-.756.161-1.406 0-.657-.054-1.128-.162-1.415-.108-.287-.28-.43-.519-.43-.242 0-.416.143-.52.43-.105.287-.157.758-.157 1.415zM76.31 27.645h-1.832l-.63 1.545H73.5l1.813-4.395h.2l1.777 4.395h-.355l-.626-1.545zm-1.718-.275h1.613l-.614-1.578a7.516 7.516 0 0 1-.185-.515 4.706 4.706 0 0 1-.182.52l-.632 1.573zm6.05-1.3c0 .424-.148.748-.444.973-.296.226-.715.339-1.258.339h-.697v1.808h-.315v-4.377h1.104c1.074 0 1.61.419 1.61 1.257zm-2.399 1.048h.62c.508 0 .875-.081 1.1-.244.227-.162.34-.426.34-.792 0-.337-.107-.587-.32-.75-.214-.162-.545-.244-.994-.244h-.746v2.03zm5.551.527h-1.832l-.629 1.545h-.348l1.813-4.395h.2l1.777 4.395h-.355l-.626-1.545zm-1.718-.275h1.613l-.614-1.578a7.516 7.516 0 0 1-.185-.515 4.706 4.706 0 0 1-.182.52l-.632 1.573zm5.261-2.345c-.565 0-1.01.176-1.335.527-.325.352-.487.833-.487 1.444 0 .624.153 1.11.46 1.455.306.345.744.518 1.313.518.378 0 .726-.047 1.042-.141v.27c-.298.101-.67.152-1.116.152-.633 0-1.132-.199-1.496-.596-.364-.397-.546-.952-.546-1.664 0-.446.087-.838.261-1.177.174-.34.424-.601.75-.786a2.266 2.266 0 0 1 1.136-.277c.44 0 .834.08 1.181.24l-.126.275a2.344 2.344 0 0 0-1.037-.24zM57.03 29.097l1.679-1.891c.135-.15.243-.303.323-.455.08-.153.12-.329.12-.526 0-.235-.067-.422-.2-.561a.658.658 0 0 0-.495-.208.609.609 0 0 0-.504.243 1.194 1.194 0 0 0-.234.61L57 26.182c.02-.207.072-.397.154-.571a1.59 1.59 0 0 1 .313-.452 1.409 1.409 0 0 1 1.002-.409c.189 0 .37.03.544.092a1.326 1.326 0 0 1 .787.737c.08.181.12.392.12.632 0 .16-.018.309-.055.448-.037.139-.087.27-.15.391a2.419 2.419 0 0 1-.222.35 3.83 3.83 0 0 1-.274.32l-1.254 1.377h1.961v.776h-2.895v-.776zm6.738-1.722c0 .405-.033.77-.101 1.094-.068.324-.166.6-.295.825-.13.226-.289.4-.48.523-.19.122-.408.183-.654.183a1.2 1.2 0 0 1-.658-.183 1.487 1.487 0 0 1-.486-.523 2.76 2.76 0 0 1-.298-.825 5.383 5.383 0 0 1-.101-1.094c0-.405.033-.77.101-1.094.068-.324.167-.6.298-.825.131-.226.293-.4.486-.523a1.2 1.2 0 0 1 .658-.183c.246 0 .464.061.654.183.191.123.35.297.48.523.129.225.227.5.295.825.068.325.101.69.101 1.094zm-.756 0c0-.174-.009-.372-.027-.593a3.36 3.36 0 0 0-.111-.628 1.458 1.458 0 0 0-.237-.497.48.48 0 0 0-.4-.201.486.486 0 0 0-.405.2c-.102.135-.181.3-.237.498a3.535 3.535 0 0 0-.113.628c-.02.221-.031.419-.031.593s.01.372.03.593c.021.22.059.428.114.62.056.194.135.357.237.491a.486.486 0 0 0 .406.201.48.48 0 0 0 .4-.2c.102-.135.18-.298.236-.491.055-.193.092-.4.11-.621.02-.221.028-.419.028-.593zm2.81-1.468l-.86.812-.431-.586 1.358-1.256h.67v4.996h-.737v-3.966zm3.91-1.157c.188 0 .366.03.534.092.168.06.315.15.44.268.125.117.223.26.295.427.072.167.108.356.108.568 0 .292-.064.534-.191.727a1.006 1.006 0 0 1-.486.402v.014a.993.993 0 0 1 .32.159c.098.073.184.162.258.268a1.355 1.355 0 0 1 .24.787c0 .249-.04.469-.12.66-.08.19-.188.351-.326.483-.137.132-.298.23-.482.296a1.742 1.742 0 0 1-.59.099c-.21 0-.406-.033-.59-.099a1.338 1.338 0 0 1-.483-.296 1.422 1.422 0 0 1-.326-.484c-.08-.19-.12-.41-.12-.66 0-.16.023-.307.068-.444.045-.136.105-.256.181-.36a1.103 1.103 0 0 1 .569-.409v-.014a1.09 1.09 0 0 1-.486-.388c-.127-.179-.19-.414-.19-.706 0-.212.035-.403.107-.575a1.283 1.283 0 0 1 .732-.716c.166-.066.345-.099.538-.099zm0 .699a.586.586 0 0 0-.452.19c-.117.127-.175.299-.175.515a.8.8 0 0 0 .169.515.555.555 0 0 0 .458.212.558.558 0 0 0 .245-.056.63.63 0 0 0 .203-.156.737.737 0 0 0 .136-.233.813.813 0 0 0 .049-.282.782.782 0 0 0-.052-.293.674.674 0 0 0-.142-.222.632.632 0 0 0-.203-.141.588.588 0 0 0-.236-.05zm0 2.152a.706.706 0 0 0-.299.063.75.75 0 0 0-.4.441 1.005 1.005 0 0 0-.058.35c0 .263.072.468.216.614a.727.727 0 0 0 .54.218.72.72 0 0 0 .535-.218c.144-.146.216-.35.216-.614a.984.984 0 0 0-.059-.343.83.83 0 0 0-.16-.271.726.726 0 0 0-.531-.24z"/>
    </g>
</svg>
