<svg xmlns="http://www.w3.org/2000/svg" width="24" height="17" viewBox="0 0 24 17">
    <g fill="none" fill-rule="nonzero">
        <path fill="#F5F5F5" d="M23.54 16.445H.413A.413.413 0 0 1 0 16.032V1.164C0 .936.185.751.413.751H23.54c.228 0 .413.185.413.413v14.868a.413.413 0 0 1-.413.413z"/>
        <g fill="#FF4B55">
            <path d="M23.953 1.959H0v-.795C0 .936.185.751.413.751H23.54c.228 0 .413.185.413.413v.795zM0 5.58h23.953v1.208H0zM0 3.166h23.953v1.207H0zM23.953 9.202H.413A.413.413 0 0 1 0 8.789v-.794h23.953v1.207zM0 12.824h23.953v1.207H0zM23.54 16.445H.413A.413.413 0 0 1 0 16.032v-.794h23.953v.794a.413.413 0 0 1-.413.413zM0 10.41h23.953v1.207H0z"/>
        </g>
        <path fill="#41479B" d="M10.738.751H.413A.413.413 0 0 0 0 1.164V8.79c0 .228.185.413.413.413h10.325a.413.413 0 0 0 .413-.413V1.164a.413.413 0 0 0-.413-.413z"/>
        <g fill="#F5F5F5">
            <path d="M1.16 1.7l.091.274.29.002c.037 0 .052.048.022.07l-.233.172.088.275a.039.039 0 0 1-.06.044l-.235-.168-.235.168a.039.039 0 0 1-.06-.044l.087-.275-.232-.172a.039.039 0 0 1 .022-.07l.29-.002.09-.275a.039.039 0 0 1 .075 0zM1.16 3.133l.091.275.29.002c.037 0 .052.048.022.07l-.233.172.088.275a.039.039 0 0 1-.06.044l-.235-.168-.235.168a.039.039 0 0 1-.06-.044l.087-.275-.232-.172a.039.039 0 0 1 .022-.07l.29-.002.09-.274a.039.039 0 0 1 .075 0zM1.16 4.568l.091.274.29.002c.037 0 .052.048.022.07l-.233.172.088.275a.039.039 0 0 1-.06.044l-.235-.168-.235.168a.039.039 0 0 1-.06-.044l.087-.275-.232-.172a.039.039 0 0 1 .022-.07l.29-.002.09-.274a.039.039 0 0 1 .075 0zM1.16 6.002l.091.274.29.002c.037 0 .052.048.022.07l-.233.172.088.276a.039.039 0 0 1-.06.043l-.235-.168-.235.168a.039.039 0 0 1-.06-.043l.087-.276-.232-.172a.039.039 0 0 1 .022-.07l.29-.002.09-.274a.039.039 0 0 1 .075 0zM1.16 7.436l.091.274.29.002c.037 0 .052.048.022.07l-.233.172.088.276a.039.039 0 0 1-.06.043l-.235-.168-.235.168a.039.039 0 0 1-.06-.043l.087-.276-.232-.171a.039.039 0 0 1 .022-.07l.29-.003.09-.274a.039.039 0 0 1 .075 0zM2.273 2.402l.091.275.29.002c.037 0 .052.048.022.07l-.232.172.087.275a.039.039 0 0 1-.06.044l-.235-.168L2 3.24a.039.039 0 0 1-.06-.044l.087-.275-.232-.172a.039.039 0 0 1 .023-.07l.289-.002.091-.275a.039.039 0 0 1 .074 0zM2.273 3.837l.091.274.29.002c.037 0 .052.048.022.07l-.232.172.087.275a.039.039 0 0 1-.06.044l-.235-.168L2 4.674a.039.039 0 0 1-.06-.044l.087-.275-.232-.172a.039.039 0 0 1 .023-.07l.289-.002.091-.274a.039.039 0 0 1 .074 0zM2.273 5.27l.091.275.29.002c.037 0 .052.048.022.07l-.232.172.087.276a.039.039 0 0 1-.06.043l-.235-.168L2 6.108a.039.039 0 0 1-.06-.043l.087-.276-.232-.172a.039.039 0 0 1 .023-.07l.289-.002.091-.274a.039.039 0 0 1 .074 0zM2.273 6.705l.091.274.29.002c.037 0 .052.048.022.07l-.232.172.087.276a.039.039 0 0 1-.06.043l-.235-.168L2 7.542a.039.039 0 0 1-.06-.043l.087-.276-.232-.172a.039.039 0 0 1 .023-.07l.289-.002.091-.274a.039.039 0 0 1 .074 0zM3.386 1.7l.091.274.29.002c.037 0 .052.048.022.07l-.232.172.087.275a.039.039 0 0 1-.06.044l-.235-.168-.235.168a.039.039 0 0 1-.06-.044l.087-.275-.232-.172a.039.039 0 0 1 .023-.07l.289-.002.091-.275a.039.039 0 0 1 .074 0zM3.386 3.133l.091.275.29.002c.037 0 .052.048.022.07l-.232.172.087.275a.039.039 0 0 1-.06.044l-.235-.168-.235.168a.039.039 0 0 1-.06-.044l.087-.275-.232-.172a.039.039 0 0 1 .023-.07l.289-.002.091-.275a.039.039 0 0 1 .074 0zM3.386 4.568l.091.274.29.002c.037 0 .052.048.022.07l-.232.172.087.275a.039.039 0 0 1-.06.044l-.235-.168-.235.168a.039.039 0 0 1-.06-.044l.087-.275-.232-.172a.039.039 0 0 1 .023-.07l.289-.002.091-.274a.039.039 0 0 1 .074 0zM3.386 6.002l.091.274.29.002c.037 0 .052.048.022.07l-.232.172.087.276a.039.039 0 0 1-.06.043l-.235-.168-.235.168a.039.039 0 0 1-.06-.043l.087-.276-.232-.172a.039.039 0 0 1 .023-.07l.289-.002.091-.274a.039.039 0 0 1 .074 0zM3.386 7.436l.091.274.29.002c.037 0 .052.048.022.07l-.232.172.087.276a.039.039 0 0 1-.06.043l-.235-.168-.235.168a.039.039 0 0 1-.06-.043l.087-.276-.232-.172a.039.039 0 0 1 .023-.07l.289-.002.091-.274a.039.039 0 0 1 .074 0zM4.5 2.402l.09.275.29.002c.037 0 .052.048.022.07l-.232.172.087.275a.039.039 0 0 1-.06.044l-.235-.168-.235.168a.039.039 0 0 1-.06-.044l.088-.275-.233-.172a.039.039 0 0 1 .023-.07l.289-.002.091-.275a.039.039 0 0 1 .074 0zM4.5 3.837l.09.274.29.002c.037 0 .052.048.022.07l-.232.172.087.275a.039.039 0 0 1-.06.044l-.235-.168-.235.168a.039.039 0 0 1-.06-.044l.088-.275-.233-.172a.039.039 0 0 1 .023-.07l.289-.002.091-.274a.039.039 0 0 1 .074 0zM4.5 5.27l.09.275.29.002c.037 0 .052.048.022.07l-.232.172.087.276a.039.039 0 0 1-.06.043l-.235-.168-.235.168a.039.039 0 0 1-.06-.043l.088-.276-.233-.172a.039.039 0 0 1 .023-.07l.289-.002.091-.274a.039.039 0 0 1 .074 0zM4.5 6.705l.09.274.29.002c.037 0 .052.048.022.07l-.232.172.087.276a.039.039 0 0 1-.06.043l-.235-.168-.235.168a.039.039 0 0 1-.06-.043l.088-.276-.233-.172a.039.039 0 0 1 .023-.07l.289-.002.091-.274a.039.039 0 0 1 .074 0zM5.612 1.7l.092.274.289.002c.037 0 .053.048.022.07l-.232.172.087.275a.039.039 0 0 1-.06.044l-.235-.168-.235.168a.039.039 0 0 1-.06-.044l.088-.275-.233-.172a.039.039 0 0 1 .023-.07l.289-.002.091-.275a.039.039 0 0 1 .074 0zM5.612 3.133l.092.275.289.002c.037 0 .053.048.022.07l-.232.172.087.275a.039.039 0 0 1-.06.044l-.235-.168-.235.168a.039.039 0 0 1-.06-.044l.088-.275-.233-.172a.039.039 0 0 1 .023-.07l.289-.002.091-.275a.039.039 0 0 1 .074 0zM5.612 4.568l.092.274.289.002c.037 0 .053.048.022.07l-.232.172.087.275a.039.039 0 0 1-.06.044l-.235-.168-.235.168a.039.039 0 0 1-.06-.044l.088-.275-.233-.172a.039.039 0 0 1 .023-.07l.289-.002.091-.274a.039.039 0 0 1 .074 0zM5.612 6.002l.092.274.289.002c.037 0 .053.048.022.07l-.232.172.087.276a.039.039 0 0 1-.06.043l-.235-.168-.235.168a.039.039 0 0 1-.06-.043l.088-.276-.233-.172a.039.039 0 0 1 .023-.07l.289-.002.091-.274a.039.039 0 0 1 .074 0zM5.612 7.436l.092.274.289.002c.037 0 .053.048.022.07l-.232.172.087.276a.039.039 0 0 1-.06.043l-.235-.168-.235.168a.039.039 0 0 1-.06-.043l.088-.276-.233-.172a.039.039 0 0 1 .023-.07l.289-.002.091-.274a.039.039 0 0 1 .074 0zM6.725 2.402l.092.275.289.002c.037 0 .053.048.023.07l-.233.172.087.275a.039.039 0 0 1-.06.044l-.235-.168-.235.168a.039.039 0 0 1-.06-.044l.088-.275-.233-.172a.039.039 0 0 1 .023-.07l.29-.002.09-.275a.039.039 0 0 1 .074 0zM6.725 3.837l.092.274.289.002c.037 0 .053.048.023.07l-.233.172.087.275a.039.039 0 0 1-.06.044l-.235-.168-.235.168a.039.039 0 0 1-.06-.044l.088-.275-.233-.172a.039.039 0 0 1 .023-.07l.29-.002.09-.274a.039.039 0 0 1 .074 0zM6.725 5.27l.092.275.289.002c.037 0 .053.048.023.07l-.233.172.087.276a.039.039 0 0 1-.06.043l-.235-.168-.235.168a.039.039 0 0 1-.06-.043l.088-.276-.233-.172a.039.039 0 0 1 .023-.07l.29-.002.09-.274a.039.039 0 0 1 .074 0zM6.725 6.705l.092.274.289.002c.037 0 .053.048.023.07l-.233.172.087.276a.039.039 0 0 1-.06.043l-.235-.168-.235.168a.039.039 0 0 1-.06-.043l.088-.276-.233-.172a.039.039 0 0 1 .023-.07l.29-.002.09-.274a.039.039 0 0 1 .074 0zM7.839 1.7l.091.274.289.002c.037 0 .053.048.023.07l-.233.172.088.275a.039.039 0 0 1-.06.044l-.235-.168-.235.168a.039.039 0 0 1-.06-.044l.087-.275-.233-.172a.039.039 0 0 1 .023-.07l.29-.002.09-.275a.039.039 0 0 1 .075 0zM7.839 3.133l.091.275.289.002c.037 0 .053.048.023.07l-.233.172.088.275a.039.039 0 0 1-.06.044l-.235-.168-.235.168a.039.039 0 0 1-.06-.044l.087-.275-.233-.172a.039.039 0 0 1 .023-.07l.29-.002.09-.275a.039.039 0 0 1 .075 0zM7.839 4.568l.091.274.289.002c.037 0 .053.048.023.07l-.233.172.088.275a.039.039 0 0 1-.06.044l-.235-.168-.235.168a.039.039 0 0 1-.06-.044l.087-.275-.233-.172a.039.039 0 0 1 .023-.07l.29-.002.09-.274a.039.039 0 0 1 .075 0zM7.839 6.002l.091.274.289.002c.037 0 .053.048.023.07l-.233.172.088.276a.039.039 0 0 1-.06.043l-.235-.168-.235.168a.039.039 0 0 1-.06-.043l.087-.276-.233-.172a.039.039 0 0 1 .023-.07l.29-.002.09-.274a.039.039 0 0 1 .075 0zM7.839 7.436l.091.274.289.002c.037 0 .053.048.023.07l-.233.172.088.276a.039.039 0 0 1-.06.043l-.235-.168-.235.168a.039.039 0 0 1-.06-.043l.087-.276-.233-.172a.039.039 0 0 1 .023-.07l.29-.002.09-.274a.039.039 0 0 1 .075 0zM8.952 2.402l.091.275.29.002c.036 0 .052.048.022.07l-.233.172.088.275a.039.039 0 0 1-.06.044l-.235-.168-.235.168a.039.039 0 0 1-.06-.044l.087-.275-.232-.172a.039.039 0 0 1 .022-.07l.29-.002.09-.275a.039.039 0 0 1 .075 0zM8.952 3.837l.091.274.29.002c.036 0 .052.048.022.07l-.233.172.088.275a.039.039 0 0 1-.06.044l-.235-.168-.235.168a.039.039 0 0 1-.06-.044l.087-.275-.232-.172a.039.039 0 0 1 .022-.07l.29-.002.09-.274a.039.039 0 0 1 .075 0zM8.952 5.27l.091.275.29.002c.036 0 .052.048.022.07l-.233.172.088.276a.039.039 0 0 1-.06.043l-.235-.168-.235.168a.039.039 0 0 1-.06-.043l.087-.276-.232-.172a.039.039 0 0 1 .022-.07l.29-.002.09-.274a.039.039 0 0 1 .075 0zM8.952 6.705l.091.274.29.002c.036 0 .052.048.022.07l-.233.172.088.276a.039.039 0 0 1-.06.043l-.235-.168-.235.168a.039.039 0 0 1-.06-.043l.087-.276-.232-.172a.039.039 0 0 1 .022-.07l.29-.002.09-.274a.039.039 0 0 1 .075 0zM10.065 1.7l.091.274.29.002c.037 0 .052.048.022.07l-.232.172.087.275a.039.039 0 0 1-.06.044l-.235-.168-.235.168a.039.039 0 0 1-.06-.044l.087-.275-.232-.172a.039.039 0 0 1 .023-.07l.289-.002.091-.275a.039.039 0 0 1 .074 0zM10.065 3.133l.091.275.29.002c.037 0 .052.048.022.07l-.232.172.087.275a.039.039 0 0 1-.06.044l-.235-.168-.235.168a.039.039 0 0 1-.06-.044l.087-.275-.232-.172a.039.039 0 0 1 .023-.07l.289-.002.091-.275a.039.039 0 0 1 .074 0zM10.065 4.568l.091.274.29.002c.037 0 .052.048.022.07l-.232.172.087.275a.039.039 0 0 1-.06.044l-.235-.168-.235.168a.039.039 0 0 1-.06-.044l.087-.275-.232-.172a.039.039 0 0 1 .023-.07l.289-.002.091-.274a.039.039 0 0 1 .074 0zM10.065 6.002l.091.274.29.002c.037 0 .052.048.022.07l-.232.172.087.276a.039.039 0 0 1-.06.043l-.235-.168-.235.168a.039.039 0 0 1-.06-.043l.087-.276-.232-.172a.039.039 0 0 1 .023-.07l.289-.002.091-.274a.039.039 0 0 1 .074 0zM10.065 7.436l.091.274.29.002c.037 0 .052.048.022.07l-.232.172.087.276a.039.039 0 0 1-.06.043l-.235-.168-.235.168a.039.039 0 0 1-.06-.043l.087-.276-.232-.172a.039.039 0 0 1 .023-.07L9.9 7.71l.091-.274a.039.039 0 0 1 .074 0z"/>
        </g>
    </g>
</svg>
