<?xml version="1.0" encoding="UTF-8"?>
<svg width="64px" height="251px" viewBox="0 0 64 251" version="1.1" xmlns="http://www.w3.org/2000/svg" xmlns:xlink="http://www.w3.org/1999/xlink">
    <!-- Generator: Sketch 59.1 (86144) - https://sketch.com -->
    <title>xpary_1LOGO</title>
    <desc>Created with Sketch.</desc>
    <defs>
        <polygon id="path-1" points="0.13489866 0.0972340685 39.8806305 0.0972340685 39.8806305 26.4173592 0.13489866 26.4173592"></polygon>
        <polygon id="path-3" points="0 0.500595676 25.7517242 0.500595676 25.7517242 40.5983289 0 40.5983289"></polygon>
    </defs>
    <g id="xpary" stroke="none" stroke-width="1" fill="none" fill-rule="evenodd" opacity="0.0327380952">
        <g transform="translate(-1173.000000, -1643.000000)" id="Group-24">
            <g transform="translate(98.000000, 1425.000000)">
                <g id="service" transform="translate(0.000000, 82.000000)">
                    <g id="xpary_1LOGO" transform="translate(1106.802120, 261.802120) rotate(-270.000000) translate(-1106.802120, -261.802120) translate(981.802120, 229.802120)">
                        <g id="Group-2">
                            <polygon id="Fill-1" fill="#444445" points="75.8196721 47.1902428 87.8411969 29.4939441 76.3366333 12.3104981 87.6146634 12.3104981 93.4994528 22.4314153 99.2484673 12.3104981 110.202671 12.3104981 98.6342129 29.3333175 110.655738 47.1902428 99.1838472 47.1902428 93.1211708 36.6846861 87.000409 47.1902428"></polygon>
                            <g id="Group-20">
                                <path d="M138.075799,21.9808213 C136.822892,19.8774948 134.791642,18.824735 131.982049,18.824735 C128.604869,18.824735 126.284375,20.4192275 125.021294,23.6082125 C124.367951,25.2999391 124.040916,27.4478616 124.040916,30.0505179 C124.040916,34.1723651 125.14048,37.0681857 127.338881,38.7387109 C128.645567,39.714707 130.192805,40.2023395 131.979869,40.2023395 C134.572892,40.2023395 136.549637,39.205142 137.912282,37.2092848 C139.273474,35.2134276 139.95516,32.5559401 139.95516,29.2368222 C139.95516,26.5040331 139.328706,24.0848788 138.075799,21.9808213 M145.150654,15.3104179 C148.026381,18.3692701 149.464608,22.8595833 149.464608,28.7813574 C149.464608,35.0291946 148.059084,39.7907396 145.248765,43.0659924 C142.438445,46.3419764 138.818532,47.9796028 134.391933,47.9796028 C131.569985,47.9796028 129.225509,47.2741075 127.35923,45.864579 C126.339608,45.0837821 125.341061,43.9447545 124.364317,42.4482271 L124.364317,60.9292799 L115.242951,60.9292799 L115.242951,11.5029365 L124.072892,11.5029365 L124.072892,16.7418789 C125.071439,15.2022176 126.134666,13.9871573 127.263299,13.0981601 C129.325073,11.5146338 131.777108,10.7228707 134.620858,10.7228707 C138.76548,10.7228707 142.274927,12.2515657 145.150654,15.3104179" id="Fill-2" fill="#444445"></path>
                                <path d="M175.567733,29.7249665 C174.977616,30.0941635 174.381686,30.3924455 173.780669,30.6198124 C173.178924,30.8479103 172.35407,31.0591934 171.305378,31.2543926 L169.206541,31.644791 C167.239971,31.9920556 165.82718,32.4153527 164.969622,32.9139515 C163.517587,33.7598148 162.79157,35.0728403 162.79157,36.8515657 C162.79157,38.435092 163.234884,39.5792372 164.121512,40.2840015 C165.008866,40.9894968 166.086628,41.3418789 167.356977,41.3418789 C169.371512,41.3418789 171.226163,40.7555501 172.923837,39.5843548 C174.620785,38.4131595 175.501599,36.2762032 175.567733,33.1742171 L175.567733,29.7249665 Z M169.931105,25.3976849 C171.646221,25.1812843 172.873692,24.9093213 173.612791,24.5839893 C174.938372,24.0203241 175.600436,23.1415621 175.600436,21.9484343 C175.600436,20.4950408 175.092442,19.4912636 174.075727,18.9385646 C173.059738,18.3851346 171.567006,18.1087852 169.600436,18.1087852 C167.392587,18.1087852 165.830087,18.6512489 164.911483,19.7354454 C164.255959,20.5389058 163.818459,21.6231022 163.600436,22.9894968 L154.705087,22.9894968 C154.899855,19.8875107 155.766134,17.3389546 157.303924,15.3430974 C159.750872,12.2191787 163.952907,10.6568539 169.908576,10.6568539 C173.785029,10.6568539 177.228343,11.4274156 180.239244,12.967808 C183.249419,14.5082003 184.754506,17.4149872 184.754506,21.6881686 L184.754506,37.9576947 C184.754506,39.0857561 184.775581,40.4521506 184.818459,42.0576094 C184.883866,43.2726697 185.066279,44.0966005 185.368605,44.5301328 C185.670203,44.9643962 186.122965,45.322627 186.72689,45.6040941 L186.72689,46.9704886 L176.700727,46.9704886 C176.420203,46.2547581 176.225436,45.5828927 176.117878,44.95343 C176.009593,44.3246984 175.923837,43.6082369 175.859157,42.8062386 C174.580087,44.1945656 173.10407,45.3767272 171.434738,46.3527233 C169.439099,47.5019861 167.183285,48.0773486 164.667297,48.0773486 C161.456541,48.0773486 158.806105,47.1605702 156.713081,45.3277446 C154.619331,43.4941879 153.57282,40.8973803 153.57282,37.5343975 C153.57282,33.1742171 155.256686,30.0181309 158.623692,28.0654076 C160.470349,27.0031437 163.186192,26.2435482 166.770494,25.7880833 L169.931105,25.3976849 Z" id="Fill-4" fill="#444445"></path>
                                <path d="M212.393895,10.6736688 C212.511628,10.6846351 212.776163,10.70145 213.186047,10.7226514 L213.186047,20.2238089 C212.603924,20.1587425 212.086483,20.1156086 211.633721,20.0936761 C211.180959,20.0724747 210.813953,20.0607774 210.53343,20.0607774 C206.824855,20.0607774 204.334302,21.2758377 203.061773,23.7052272 C202.351017,25.0723529 201.994186,27.1764104 201.994186,30.0181309 L201.994186,46.9704886 L192.711483,46.9704886 L192.711483,11.5034483 L201.509448,11.5034483 L201.509448,17.685488 C202.932413,15.3211649 204.172238,13.7054709 205.229651,12.8376752 C206.954215,11.3842817 209.196948,10.657585 211.957122,10.657585 C212.12936,10.657585 212.275436,10.6627026 212.393895,10.6736688" id="Fill-6" fill="#444445"></path>
                                <path d="M219.978634,53.7714634 L221.143605,53.8365298 C222.049128,53.8796637 222.911047,53.847496 223.730814,53.7392957 C224.550581,53.6303643 225.240262,53.3810649 225.801308,52.9906665 C226.339826,52.6214695 226.841279,51.8516388 227.304942,50.6797124 C227.768605,49.5085171 227.968459,48.7927866 227.903779,48.532521 L214.948837,11.5031558 L225.202471,11.5031558 L232.900872,37.6649689 L240.179215,11.5031558 L249.97936,11.5031558 L237.892151,46.3845985 C235.556395,53.109102 233.709012,57.2799318 232.348547,58.8963568 C230.988081,60.5120507 228.268605,61.3198976 224.188663,61.3198976 C223.368169,61.3198976 222.709738,61.314049 222.213372,61.3038138 C221.717006,61.2928476 220.971366,61.2548312 219.978634,61.1897648 L219.978634,53.7714634 Z" id="Fill-8" fill="#444445"></path>
                                <g id="Group-12" transform="translate(18.895349, 0.000000)">
                                    <mask id="mask-2" fill="white">
                                        <use xlink:href="#path-1"></use>
                                    </mask>
                                    <g id="Clip-11"></g>
                                    <path d="M3.13488372,15.3396613 L6.0934593,19.0762276 L10.8514535,25.0857317 C10.8616279,25.0981601 10.8718023,25.1098574 10.88125,25.1215548 C10.9008721,25.1449494 10.9197674,25.1683441 10.9386628,25.1910077 C10.9582849,25.2136713 10.977907,25.2363348 10.9975291,25.2582673 C11.0171512,25.2794687 11.0360465,25.2999391 11.0556686,25.3204094 C11.0767442,25.343073 11.0978198,25.3650055 11.1188953,25.3862069 C11.1392442,25.4059461 11.1588663,25.4249543 11.1784884,25.4439625 C11.2010174,25.465895 11.2228198,25.4863653 11.2453488,25.5068356 C11.2656977,25.5251127 11.2860465,25.5433898 11.3063953,25.5609358 C11.3289244,25.580675 11.3521802,25.6004143 11.375436,25.6194224 C11.3965116,25.6369684 11.418314,25.6545144 11.4401163,25.6713294 C11.4626453,25.6896064 11.4859012,25.7071524 11.5084302,25.7246984 C11.5324128,25.7422444 11.5556686,25.7583283 11.5789244,25.7751432 C11.6014535,25.791227 11.6239826,25.8065797 11.6465116,25.8219325 C11.6712209,25.8387474 11.696657,25.8548312 11.7213663,25.8709151 C11.7446221,25.8848057 11.7664244,25.8994273 11.7882267,25.9125868 C11.8151163,25.9286706 11.8420058,25.9440234 11.8696221,25.9593761 C11.8906977,25.9718046 11.9117733,25.984233 11.9335756,25.9959303 C11.9619186,26.0112831 11.9917151,26.0259047 12.0207849,26.0405264 C12.0411337,26.0514926 12.0614826,26.0624589 12.0825581,26.071963 C12.1130814,26.0865846 12.1436047,26.1004752 12.1741279,26.1143658 C12.1944767,26.1231388 12.2140988,26.1319118 12.2344477,26.1406848 C12.2664244,26.1538443 12.2991279,26.1670038 12.3318314,26.1794322 C12.3514535,26.186743 12.3696221,26.1947849 12.3885174,26.2020958 C12.4226744,26.2145242 12.4575581,26.2262215 12.4917151,26.2371878 C12.5098837,26.2437675 12.5280523,26.2496162 12.5462209,26.2554648 C12.5825581,26.2671622 12.6181686,26.2766663 12.6545058,26.2869014 C12.6712209,26.292019 12.6886628,26.2971366 12.7061047,26.3022542 C12.7438953,26.3117583 12.781686,26.3205313 12.8202035,26.3293043 C12.8361919,26.3329597 12.8514535,26.3366151 12.8681686,26.3402705 C12.909593,26.3497746 12.9517442,26.3570854 12.9931686,26.3643962 C13.00625,26.3665895 13.0186047,26.3687827 13.0302326,26.370976 C13.0847384,26.3804801 13.1399709,26.3877909 13.1952035,26.3943707 C13.2518895,26.4009504 13.3093023,26.406068 13.3667151,26.4104545 C13.3805233,26.4111856 13.3936047,26.4111856 13.4074128,26.4119167 C13.4510174,26.4141099 13.4953488,26.4163032 13.5389535,26.4170342 C13.5563953,26.4177653 13.5731105,26.4170342 13.5905523,26.4170342 C13.6305233,26.4170342 13.6712209,26.4170342 13.7119186,26.4155721 C13.730814,26.414841 13.7497093,26.4133788 13.7693314,26.4126477 C13.8078488,26.4111856 13.8456395,26.4089923 13.884157,26.406068 C13.9045058,26.4046058 13.9255814,26.4016815 13.9452035,26.3994882 C13.9822674,26.3965639 14.0200581,26.3929085 14.0563953,26.3877909 C14.0781977,26.3848666 14.0992733,26.3812112 14.1210756,26.3782868 C14.156686,26.3724382 14.1922965,26.3673206 14.227907,26.3607408 C14.2497093,26.3570854 14.2722384,26.3519678 14.2947674,26.3475813 C14.3289244,26.3402705 14.3630814,26.3336908 14.3965116,26.3256488 C14.4204942,26.3205313 14.4452035,26.3139515 14.4684593,26.3073718 C14.5011628,26.2993298 14.5331395,26.2905568 14.5651163,26.2817838 C14.5898256,26.2752041 14.6145349,26.2664311 14.6392442,26.2591203 C14.6697674,26.2496162 14.7002907,26.2401121 14.730814,26.2298769 C14.7569767,26.2203729 14.7824128,26.2108688 14.8078488,26.2013647 C14.8376453,26.1911295 14.8659884,26.1801633 14.8950581,26.169197 C14.9219477,26.1582308 14.9481105,26.1465334 14.975,26.1355672 C15.0018895,26.1231388 15.0287791,26.1114415 15.0556686,26.0997441 C15.0832849,26.0865846 15.1109012,26.0734251 15.1385174,26.0602656 C15.1639535,26.0471061 15.1893895,26.0346777 15.2148256,26.0215182 C15.2424419,26.0068966 15.2700581,25.9915438 15.2969477,25.9761911 C15.3223837,25.9630316 15.347093,25.949141 15.3710756,25.9345193 C15.3979651,25.9184355 15.4255814,25.9016206 15.4524709,25.8848057 C15.4764535,25.8694529 15.5011628,25.8541002 15.5244186,25.8387474 C15.5505814,25.8212014 15.5767442,25.8036554 15.602907,25.7846473 C15.6268895,25.7678323 15.6515988,25.7510174 15.6755814,25.7327403 C15.7002907,25.7144633 15.7242733,25.6961862 15.7489826,25.677178 C15.7744186,25.6574388 15.7991279,25.6369684 15.8238372,25.6172292 C15.8354651,25.6077251 15.847093,25.5989521 15.8587209,25.589448 L38.628343,6.33490922 C40.1130814,5.07890825 40.3049419,2.85056659 39.0571221,1.35696357 C37.8085756,-0.136639454 35.5927326,-0.330376508 34.1079942,0.925624467 L14.0992733,17.8458145 L14.062936,17.8004874 L6.3943314,8.11509687 C6.28604651,7.97765322 6.1690407,7.85044474 6.04476744,7.73420251 C4.79331395,6.55569636 2.83982558,6.44603387 1.45901163,7.55289387 C-0.0584302326,8.76795419 -0.308430233,10.9911783 0.900145349,12.51768 L3.13488372,15.3396613 Z" id="Fill-10" fill="#444445" mask="url(#mask-2)"></path>
                                </g>
                                <path d="M60.8946948,53.1960278 L44.087282,33.0576094 L43.6337936,32.5144145 C43.7907703,32.6920677 43.9571948,32.860948 44.1330669,33.0210552 L53.7646076,25.3125137 C53.9019622,25.2028512 54.027689,25.0851468 54.143968,24.9608627 C55.3162064,23.7026685 55.4259448,21.7375168 54.3271076,20.3484586 C53.1199855,18.8212258 50.9099564,18.568271 49.3925145,19.7826002 L46.5858285,22.029219 L42.868532,25.0032655 L36.8925145,29.7860119 C36.8801599,29.795516 36.8678052,29.8057512 36.8561773,29.8159864 C36.8336483,29.8349945 36.8103924,29.8540027 36.7878634,29.8737419 C36.7653343,29.8927501 36.7428052,29.9132204 36.7210029,29.9329597 C36.6999273,29.9526989 36.6795785,29.9717071 36.6585029,29.9914463 C36.6367006,30.0126477 36.6148983,30.0338492 36.5930959,30.0550506 C36.5734738,30.0747898 36.5545785,30.0945291 36.5349564,30.1142683 C36.5146076,30.1362008 36.493532,30.1588644 36.4731831,30.181528 C36.4550145,30.2019983 36.4375727,30.2224686 36.4186773,30.242939 C36.399782,30.2663336 36.3801599,30.2889972 36.3612645,30.3123919 C36.3438227,30.3343244 36.3263808,30.3555258 36.3096657,30.3774583 C36.2914971,30.4008529 36.2740552,30.4235165 36.2573401,30.4469112 C36.2391715,30.4703058 36.2231831,30.4937005 36.206468,30.5170952 C36.1904797,30.5397587 36.1744913,30.5624223 36.1599564,30.5850859 C36.1425145,30.6099427 36.1272529,30.6355306 36.1105378,30.6611186 C36.0967297,30.6830511 36.0829215,30.7057146 36.0698401,30.7276471 C36.053125,30.7546972 36.0378634,30.7817473 36.0226017,30.8087974 C36.0109738,30.8307299 35.9978924,30.8526624 35.9869913,30.8738638 C35.9710029,30.902376 35.9571948,30.9316193 35.9419331,30.9608627 C35.9317587,30.9820641 35.9215843,31.0025344 35.9106831,31.0237358 C35.896875,31.0537102 35.8830669,31.0851468 35.868532,31.1158523 C35.8605378,31.1363227 35.8510901,31.1560619 35.8423692,31.1758011 C35.8292878,31.2086999 35.8162064,31.2415986 35.8038517,31.2744974 C35.7965843,31.2935055 35.7885901,31.3125137 35.7813227,31.3315219 C35.7696948,31.3658828 35.7580669,31.4009748 35.746439,31.4353357 C35.740625,31.4536128 35.7340843,31.4718899 35.7282703,31.4901669 C35.7166424,31.52599 35.7071948,31.5625442 35.6970203,31.5983672 C35.6919331,31.6159132 35.6861192,31.6334592 35.6824855,31.6510052 C35.672311,31.6890216 35.6635901,31.7270379 35.6548692,31.7657853 C35.6519622,31.7811381 35.6476017,31.7972219 35.643968,31.8133057 C35.6345203,31.8557085 35.6272529,31.8981114 35.6199855,31.9397831 C35.6178052,31.9522115 35.6148983,31.9646399 35.6134448,31.9770684 C35.6039971,32.0318996 35.5960029,32.0867308 35.590189,32.1422932 C35.5836483,32.2000487 35.5778343,32.2570732 35.5742006,32.3148288 C35.5734738,32.3287194 35.5734738,32.34261 35.5720203,32.3565005 C35.5698401,32.4003655 35.5676599,32.4449616 35.5669331,32.4888266 C35.5662064,32.5056415 35.5669331,32.5231875 35.5669331,32.5400024 C35.5669331,32.5809431 35.5669331,32.6218838 35.5676599,32.6628244 C35.5683866,32.6818326 35.5698401,32.7008407 35.5712936,32.7198489 C35.5727471,32.7585963 35.5749273,32.7973437 35.5778343,32.8360911 C35.5792878,32.8565615 35.5821948,32.8770318 35.584375,32.8975021 C35.5880087,32.9347874 35.5916424,32.9720726 35.5952762,33.0093579 C35.5981831,33.0305593 35.6025436,33.0524918 35.6054506,33.0744243 C35.6112645,33.1095163 35.6163517,33.1453393 35.6228924,33.1811624 C35.6265262,33.203826 35.6316134,33.2264896 35.6359738,33.2491532 C35.6432413,33.2835141 35.649782,33.317875 35.6570494,33.3515048 C35.6628634,33.3756306 35.6694041,33.3997563 35.6759448,33.4238821 C35.683939,33.4560497 35.6919331,33.4882174 35.7013808,33.520385 C35.7079215,33.5459729 35.7159157,33.5708298 35.7231831,33.5956866 C35.7333576,33.6263921 35.7428052,33.6570976 35.7529797,33.6878031 C35.7617006,33.7141221 35.7711483,33.73971 35.7805959,33.766029 C35.7914971,33.7945412 35.8023983,33.8237846 35.8132994,33.8522968 C35.8242006,33.8793469 35.8358285,33.906397 35.8460029,33.932716 C35.8583576,33.9604971 35.8692587,33.9875472 35.8823401,34.0153284 C35.8946948,34.0423785 35.9077762,34.0701596 35.9215843,34.0972097 C35.9332122,34.1235287 35.9462936,34.1491166 35.959375,34.1747045 C35.9739099,34.2024857 35.9884448,34.2302668 36.0037064,34.258048 C36.0182413,34.2821738 36.0313227,34.3070306 36.0458576,34.3318874 C36.0618459,34.3589375 36.078561,34.3867187 36.0952762,34.4144998 C36.109811,34.4378945 36.1250727,34.4620202 36.1403343,34.486146 C36.1585029,34.512465 36.1759448,34.538784 36.1948401,34.565834 C36.2108285,34.5899598 36.2289971,34.6140855 36.2457122,34.6382113 C36.2638808,34.6630681 36.2827762,34.6879249 36.3016715,34.7120507 C36.3212936,34.7376386 36.3409157,34.7624954 36.3605378,34.7873523 C36.3707122,34.7990496 36.3794331,34.811478 36.3888808,34.8224443 L55.5153343,57.73971 C56.7617006,59.2340441 58.9775436,59.4285122 60.4630087,58.1739734 C61.9484738,56.9194346 62.1425145,54.6903619 60.8946948,53.1960278" id="Fill-13" fill="#444445"></path>
                                <path d="M40.6076308,47.7100524 L37.5763808,44.0319727 L32.7028343,38.1175094 C32.6926599,38.105081 32.6824855,38.0941148 32.672311,38.0824174 C32.652689,38.0590228 32.6330669,38.0363592 32.6134448,38.0144267 C32.5938227,37.9917631 32.5734738,37.9698306 32.553125,37.9478981 C32.5335029,37.9274278 32.5138808,37.9069575 32.4942587,37.8864871 C32.4731831,37.8645546 32.4506541,37.8433532 32.4288517,37.8221518 C32.4092297,37.8031437 32.3888808,37.7841355 32.3692587,37.7651273 C32.3467297,37.744657 32.3242006,37.7241867 32.3009448,37.7037163 C32.2805959,37.6861703 32.2595203,37.6686243 32.2384448,37.6510783 C32.215189,37.6320702 32.1926599,37.6123309 32.1694041,37.5940539 C32.146875,37.5772389 32.1250727,37.560424 32.1032703,37.5436091 C32.0800145,37.5260631 32.056032,37.5085171 32.0327762,37.4917022 C32.0095203,37.4748873 31.9862645,37.4588035 31.962282,37.4427196 C31.9390262,37.4273669 31.9164971,37.4120141 31.893968,37.3966614 C31.868532,37.3805776 31.8423692,37.3652248 31.8169331,37.349141 C31.7951308,37.3359815 31.7726017,37.3220909 31.7500727,37.3089314 C31.7224564,37.2935787 31.6955669,37.2782259 31.6679506,37.2636042 C31.646875,37.2519069 31.6250727,37.2402096 31.6032703,37.2285122 C31.5742006,37.2138906 31.5444041,37.2 31.5153343,37.1853783 C31.4949855,37.1758743 31.4746366,37.1656391 31.4528343,37.1554039 C31.422311,37.1415133 31.391061,37.1283538 31.359811,37.1151943 C31.340189,37.1071524 31.3205669,37.0976483 31.2994913,37.0903375 C31.2667878,37.077178 31.234811,37.0647496 31.2013808,37.0530523 C31.1817587,37.0457414 31.1628634,37.0384306 31.143968,37.0318509 C31.109811,37.0201535 31.0749273,37.0091873 31.0407703,36.9989521 C31.0226017,36.9931034 31.0037064,36.9865237 30.9855378,36.9814061 C30.9492006,36.971171 30.9128634,36.9609358 30.8765262,36.9521628 C30.859811,36.9470452 30.8416424,36.9419276 30.8249273,36.9382722 C30.7864099,36.9287681 30.7486192,36.9207262 30.7101017,36.9126843 C30.6941134,36.90976 30.6788517,36.9061045 30.6621366,36.9024491 C30.6207122,36.8951383 30.5778343,36.8878275 30.5364099,36.8812477 C30.5240552,36.8797855 30.5109738,36.8768612 30.4993459,36.875399 C30.4448401,36.8673571 30.3896076,36.8607774 30.334375,36.8549287 C30.2769622,36.8498111 30.2195494,36.8461557 30.1621366,36.8432314 C30.1483285,36.8425003 30.1352471,36.8425003 30.121439,36.8417692 C30.0778343,36.8403071 30.0335029,36.8388449 29.9898983,36.8388449 C29.9724564,36.8388449 29.9557413,36.8403071 29.9382994,36.8403071 C29.8983285,36.8410381 29.8576308,36.8417692 29.8169331,36.8439625 C29.7980378,36.8446936 29.7791424,36.8468868 29.7602471,36.848349 C29.7217297,36.8505422 29.6832122,36.8534666 29.6446948,36.857122 C29.6243459,36.8593152 29.6039971,36.8622396 29.5836483,36.8644328 C29.5465843,36.8688193 29.5095203,36.8732058 29.4739099,36.8790545 C29.4513808,36.8819788 29.4303052,36.8863653 29.4092297,36.8900207 C29.3736192,36.8958694 29.3380087,36.901718 29.3023983,36.9090289 C29.2805959,36.9134154 29.2580669,36.919264 29.2355378,36.9243816 C29.2021076,36.9316925 29.1679506,36.9390033 29.1337936,36.9477763 C29.1105378,36.953625 29.0865552,36.9602047 29.0625727,36.9675155 C29.0305959,36.9762885 28.9986192,36.9850615 28.9666424,36.9945656 C28.9419331,37.0026075 28.9172238,37.0106494 28.8932413,37.0186914 C28.862718,37.0289265 28.8321948,37.0391617 28.8016715,37.0501279 C28.7762355,37.059632 28.7507994,37.0698672 28.7246366,37.0793713 C28.6962936,37.0910686 28.6672238,37.1020348 28.6396076,37.1144633 C28.612718,37.1254295 28.5865552,37.1378579 28.5603924,37.1495553 C28.5335029,37.1612526 28.5066134,37.173681 28.4797238,37.1868405 C28.4521076,37.2 28.425218,37.2138906 28.3983285,37.2277812 C28.3728924,37.2409407 28.3474564,37.2541002 28.3227471,37.2679907 C28.2951308,37.2826124 28.2682413,37.2986962 28.2398983,37.314049 C28.2159157,37.3286706 28.1919331,37.3425612 28.1679506,37.357914 C28.141061,37.3747289 28.1141715,37.3915438 28.0865552,37.4090898 C28.0632994,37.4251736 28.0400436,37.4405264 28.016061,37.4566102 C27.990625,37.4748873 27.9644622,37.4931644 27.9382994,37.5121725 C27.9143169,37.5297185 27.891061,37.5472645 27.8678052,37.5655416 C27.8430959,37.5838187 27.8183866,37.6035579 27.7944041,37.6232972 C27.7704215,37.6430364 27.7457122,37.6635068 27.7217297,37.6839771 C27.7101017,37.6934812 27.6977471,37.7029853 27.6868459,37.7124893 L5.29585756,57.4115267 C3.83582849,58.69604 3.68757267,60.928037 4.96446221,62.3967832 C6.24135174,63.8655294 8.46082849,64.0154015 9.92013081,62.7301572 L29.5967297,45.4202997 L30.1265262,44.9531376 C29.953561,45.1139759 29.7885901,45.2857804 29.6330669,45.4648958 L37.4884448,54.9974899 C37.6003634,55.1327403 37.7195494,55.2570245 37.8460029,55.3710735 C39.1199855,56.5247228 41.0756541,56.5956379 42.4346657,55.4624589 C43.9273983,54.2174242 44.1352471,51.9898136 42.8961483,50.4874376 L40.6076308,47.7100524 Z" id="Fill-15" fill="#444445"></path>
                                <g id="Group-19" transform="translate(0.000000, 3.655416)">
                                    <mask id="mask-4" fill="white">
                                        <use xlink:href="#path-3"></use>
                                    </mask>
                                    <g id="Clip-18"></g>
                                    <path d="M17.683939,27.2390642 C17.5305959,27.0584867 17.3663517,26.8874132 17.1941134,26.7236505 L7.43030523,34.2618496 C7.29149709,34.3693189 7.16286337,34.48483 7.04513081,34.607652 C5.85109012,35.8446448 5.70792151,37.8076033 6.78204942,39.2164006 C7.96300872,40.7641038 10.1679506,41.055806 11.706468,39.8677958 L14.5516715,37.6716218 L18.3191134,34.7626416 L24.3779797,30.0851712 C24.3903343,30.0756671 24.4019622,30.0654319 24.4143169,30.0559279 C24.4375727,30.0369197 24.4608285,30.0179115 24.4833576,29.9989034 C24.5066134,29.9798952 24.5291424,29.960887 24.5509448,29.9411478 C24.5727471,29.9221396 24.5938227,29.9031315 24.6148983,29.8841233 C24.6367006,29.8629219 24.6599564,29.8424516 24.6817587,29.8212502 C24.7006541,29.8015109 24.7210029,29.7825027 24.7398983,29.7627635 C24.7609738,29.740831 24.7827762,29.7188985 24.803125,29.6962349 C24.8220203,29.6764957 24.840189,29.6567564 24.8583576,29.635555 C24.8779797,29.6136225 24.8983285,29.5909589 24.9172238,29.5682954 C24.9361192,29.5470939 24.9528343,29.5251614 24.9702762,29.50396 C24.9891715,29.4805654 25.0066134,29.4586329 25.024782,29.4352382 C25.0422238,29.4125746 25.058939,29.38918 25.0763808,29.3657853 C25.0916424,29.3431217 25.1083576,29.3211892 25.1236192,29.2985256 C25.141061,29.2736688 25.1570494,29.248812 25.1737645,29.2239552 C25.1882994,29.2020227 25.2028343,29.1800902 25.2159157,29.1581577 C25.2333576,29.1311076 25.2486192,29.1040575 25.2646076,29.0770074 C25.2769622,29.055806 25.2900436,29.0346046 25.3016715,29.0134032 C25.3176599,28.9848909 25.3321948,28.9556476 25.3481831,28.9271354 C25.3590843,28.905934 25.3692587,28.8854636 25.3801599,28.8649933 C25.3946948,28.8342878 25.4092297,28.8035823 25.4230378,28.7728768 C25.4324855,28.7531376 25.4419331,28.7333983 25.4513808,28.7136591 C25.465189,28.6807603 25.4782703,28.6485927 25.4913517,28.6156939 L25.5146076,28.5586694 C25.527689,28.5250396 25.5400436,28.4899476 25.5516715,28.4563178 L25.5712936,28.4014865 C25.5829215,28.3656635 25.5930959,28.3298404 25.6039971,28.2932862 C25.6090843,28.2757402 25.6148983,28.2589253 25.6199855,28.2421104 C25.6301599,28.203363 25.6396076,28.1653467 25.6490552,28.1273303 C25.652689,28.1112465 25.6570494,28.0958937 25.6614099,28.0798099 C25.6701308,28.0381382 25.6788517,27.9957353 25.6868459,27.9533325 C25.6897529,27.9409041 25.6926599,27.9284757 25.6941134,27.9167784 C25.7042878,27.8619471 25.7130087,27.8071159 25.7210029,27.7515536 C25.7275436,27.6945291 25.7340843,27.6367735 25.7391715,27.5790179 C25.7398983,27.5658584 25.740625,27.5519678 25.7413517,27.5380773 C25.7449855,27.4942123 25.7478924,27.4503473 25.7493459,27.4057512 C25.7500727,27.3889363 25.7500727,27.3713903 25.7500727,27.3545754 C25.7507994,27.3136347 25.7522529,27.272694 25.7517242,27.2317534 C25.7507994,27.2127452 25.7500727,27.1937371 25.7493459,27.1747289 C25.7478924,27.1359815 25.7471657,27.0972341 25.7442587,27.0584867 C25.743532,27.0380163 25.7413517,27.017546 25.7391715,26.9963446 C25.7362645,26.9597904 25.7333576,26.9225052 25.7289971,26.8852199 C25.7268169,26.8632874 25.7239099,26.842086 25.7210029,26.8201535 C25.7166424,26.7843304 25.7115552,26.7485074 25.7057413,26.7126843 C25.7021076,26.6900207 25.6970203,26.6673571 25.6933866,26.6446936 C25.6875727,26.6103326 25.681032,26.5759717 25.6737645,26.5416108 C25.6686773,26.5174851 25.6628634,26.4933593 25.6570494,26.4692336 C25.6490552,26.4363348 25.6417878,26.4041672 25.6330669,26.3712684 C25.6265262,26.3464116 25.6192587,26.3215548 25.6119913,26.2959669 C25.6025436,26.2652614 25.5938227,26.2345559 25.584375,26.2038504 C25.5756541,26.1775314 25.5669331,26.1512124 25.5574855,26.1256245 C25.547311,26.0963811 25.5378634,26.0671378 25.5269622,26.0378945 C25.516061,26.0108444 25.5058866,25.9837943 25.4949855,25.9567442 L25.4608285,25.8741318 C25.4492006,25.8463507 25.4361192,25.8193006 25.4230378,25.7915194 C25.4114099,25.7652004 25.3990552,25.7396125 25.3867006,25.7132935 C25.3721657,25.6855124 25.3583576,25.6570001 25.3430959,25.629219 C25.3300145,25.6043621 25.3162064,25.5795053 25.3023983,25.5546485 C25.2871366,25.5268673 25.2704215,25.4990861 25.2544331,25.4720361 C25.2398983,25.4471792 25.2253634,25.4230535 25.209375,25.3989277 C25.1933866,25.3718777 25.1759448,25.3448276 25.1577762,25.3185086 C25.1417878,25.2936518 25.1243459,25.269526 25.1076308,25.2446692 C25.0894622,25.2198124 25.0720203,25.1949555 25.0538517,25.1693676 C25.0342297,25.1445108 25.0153343,25.1189229 24.9957122,25.093335 C24.9862645,25.0816376 24.9775436,25.0699403 24.9673692,25.058243 L6.24135174,1.80979652 C5.01969477,0.293529913 2.80821221,0.0603143658 1.30094477,1.28853418 C-0.20559593,2.51748507 -0.43815407,4.7429024 0.783502907,6.25843792 L17.240625,26.6885585 L17.683939,27.2390642 Z" id="Fill-17" fill="#444445" mask="url(#mask-4)"></path>
                                </g>
                            </g>
                        </g>
                    </g>
                </g>
            </g>
        </g>
    </g>
</svg>