<?xml version="1.0" encoding="UTF-8"?>
<svg width="293px" height="106px" viewBox="0 0 293 106" version="1.1" xmlns="http://www.w3.org/2000/svg" xmlns:xlink="http://www.w3.org/1999/xlink">
    <!-- Generator: Sketch 59.1 (86144) - https://sketch.com -->
    <title>logo</title>
    <desc>Created with Sketch.</desc>
    <defs>
        <polygon id="path-1" points="0.15810123 0.114746502 46.740099 0.114746502 46.740099 31.1752825 0.15810123 31.1752825"></polygon>
        <polygon id="path-3" points="0 0.590755931 30.1810208 0.590755931 30.1810208 47.9103292 0 47.9103292"></polygon>
    </defs>
    <g id="xpary" stroke="none" stroke-width="1" fill="none" fill-rule="evenodd" opacity="0.049999997">
        <g transform="translate(-876.000000, -4699.000000)" id="Group-30">
            <g transform="translate(876.000000, 4699.000000)">
                <g id="logo">
                    <g id="Group-25">
                        <g id="Group-2" transform="translate(-0.000000, -0.000000)">
                            <polygon id="Fill-1" fill="#FFFFFF" points="88.8606557 55.6894859 102.949883 34.8059787 89.4665342 14.527692 102.684385 14.527692 109.581359 26.4714464 116.319204 14.527692 129.15753 14.527692 115.599298 34.6164223 129.688525 55.6894859 116.243469 55.6894859 109.138012 43.291816 101.964479 55.6894859"></polygon>
                            <g id="Group-20">
                                <path d="M161.824837,25.9396977 C160.35643,23.4575497 157.975805,22.2151816 154.682962,22.2151816 C150.724907,22.2151816 148.005288,24.0968517 146.524956,27.8601918 C145.759238,29.8566084 145.375953,32.3913845 145.375953,35.4627946 C145.375953,40.327011 146.664642,43.7443862 149.241168,45.7157828 C150.772604,46.8675616 152.585968,47.4430196 154.680407,47.4430196 C157.71943,47.4430196 160.036174,46.2662209 161.633194,43.910898 C163.228511,41.5555751 164.027447,38.4194583 164.027447,34.5025476 C164.027447,31.277567 163.293244,28.4227085 161.824837,25.9396977 M170.116567,18.0679152 C173.486918,21.6776848 175.17252,26.97673 175.17252,33.9650508 C175.17252,41.3381606 173.525247,46.9572882 170.231552,50.8224335 C166.937857,54.6884416 162.695319,56.6210143 157.507346,56.6210143 C154.200023,56.6210143 151.452296,55.7884551 149.265017,54.1250622 C148.07002,53.2036391 146.899724,51.8594658 145.754979,50.093405 L145.754979,71.9030052 L135.064738,71.9030052 L135.064738,13.5746837 L145.41343,13.5746837 L145.41343,19.7571907 C146.583726,17.9402273 147.829828,16.5063274 149.152587,15.4572166 C151.568985,13.5884878 154.44277,12.6541234 157.775645,12.6541234 C162.633142,12.6541234 166.746215,14.4581455 170.116567,18.0679152" id="Fill-2" fill="#FFFFFF"></path>
                                <path d="M205.765383,35.0786096 C205.073766,35.5143012 204.375336,35.8663055 203.670944,36.1346225 C202.965699,36.4038022 201.99897,36.6531386 200.769903,36.8834944 L198.310066,37.3442059 C196.005246,37.7540148 194.349455,38.2535504 193.344397,38.8419497 C191.642612,39.840158 190.79172,41.3896672 190.79172,43.4887517 C190.79172,45.3574804 191.311284,46.707693 192.350412,47.5393895 C193.390391,48.3719487 194.653528,48.7877969 196.142377,48.7877969 C198.503412,48.7877969 200.677063,48.0958669 202.666737,46.7137323 C204.65556,45.3315977 205.687874,42.809763 205.765383,39.1490907 L205.765383,35.0786096 Z M199.159255,29.9719588 C201.169371,29.7165832 202.607967,29.3956381 203.474191,29.0117118 C205.027772,28.3465272 205.803711,27.3094949 205.803711,25.9014777 C205.803711,24.1863194 205.208342,23.0017559 204.016752,22.3495126 C202.826013,21.6964066 201.076531,21.370285 198.771711,21.370285 C196.184112,21.370285 194.352862,22.0104497 193.276258,23.2899163 C192.507984,24.2380848 191.995234,25.5175514 191.739711,27.1300417 L181.314362,27.1300417 C181.54263,23.4693695 182.557909,20.4618033 184.360199,18.1064803 C187.228022,14.4199254 192.152807,12.5762166 199.132851,12.5762166 C203.676054,12.5762166 207.711618,13.4855611 211.240394,15.3033872 C214.768319,17.1212134 216.532281,20.5515299 216.532281,25.5943367 L216.532281,44.794101 C216.532281,46.1253329 216.556981,47.7378233 216.607234,49.6324347 C216.683891,51.0663346 216.897679,52.0386602 217.252005,52.5502743 C217.605478,53.0627511 218.136115,53.4855014 218.843915,53.8176623 L218.843915,55.4301527 L207.093252,55.4301527 C206.764478,54.5855149 206.536211,53.7926424 206.410153,53.0498098 C206.283243,52.3078399 206.182737,51.4623394 206.106932,50.5158965 C204.607862,52.1542694 202.87797,53.5493453 200.921513,54.7011241 C198.582624,56.057376 195.93881,56.7363647 192.990072,56.7363647 C189.227066,56.7363647 186.120755,55.6544691 183.667731,53.4915407 C181.213856,51.3277495 179.987345,48.2632414 179.987345,44.2945654 C179.987345,39.1490907 181.960836,35.4245746 185.906967,33.1201542 C188.071249,31.8665703 191.254217,30.9701671 195.455019,30.4326704 L199.159255,29.9719588 Z" id="Fill-4" fill="#FFFFFF"></path>
                                <path d="M248.925645,12.59606 C249.063628,12.6090013 249.373663,12.6288447 249.854047,12.6538646 L249.854047,23.8662371 C249.171799,23.7894518 248.565358,23.7385492 248.034721,23.7126666 C247.504084,23.6876467 247.073953,23.6738426 246.74518,23.6738426 C242.39873,23.6738426 239.479802,25.1077425 237.988398,27.9746795 C237.155392,29.5880326 236.737186,32.0710433 236.737186,35.4245746 L236.737186,55.4301527 L225.857858,55.4301527 L225.857858,13.5752877 L236.169073,13.5752877 L236.169073,20.8707495 C237.836788,18.0805977 239.289863,16.1739077 240.529151,15.1498167 C242.55034,13.4346585 245.178823,12.5770794 248.413747,12.5770794 C248.61561,12.5770794 248.786811,12.5831187 248.925645,12.59606" id="Fill-6" fill="#FFFFFF"></path>
                                <path d="M257.814959,63.4560234 L259.180305,63.5328087 C260.241578,63.5837112 261.251747,63.54575 262.212514,63.4180622 C263.173281,63.2895116 263.981587,62.9953119 264.639133,62.5346004 C265.270276,62.0989088 265.857979,61.1904271 266.401392,59.8074297 C266.944805,58.4252952 267.179034,57.5806574 267.103229,57.2735164 L251.920037,13.5749426 L263.937296,13.5749426 L272.959822,44.4486536 L281.49004,13.5749426 L292.97581,13.5749426 L278.809601,54.7387403 C276.072095,62.6743668 273.906962,67.5963878 272.312497,69.5039405 C270.718031,71.4106305 267.530805,72.3639755 262.749113,72.3639755 C261.787494,72.3639755 261.015813,72.3570735 260.434072,72.3449949 C259.852331,72.3320536 258.978441,72.2871903 257.814959,72.210405 L257.814959,63.4560234 Z" id="Fill-8" fill="#FFFFFF"></path>
                                <g id="Group-12" transform="translate(22.145349, 0.000000)">
                                    <mask id="mask-2" fill="white">
                                        <use xlink:href="#path-1"></use>
                                    </mask>
                                    <g id="Clip-11"></g>
                                    <path d="M3.67408372,18.1024254 L7.1415343,22.5119695 L12.7179035,29.603821 C12.7298279,29.6184879 12.7417523,29.6322919 12.752825,29.646096 C12.7758221,29.6737042 12.7979674,29.7013124 12.8201128,29.7280578 C12.8431099,29.7548032 12.866107,29.7815487 12.8891041,29.8074313 C12.9121012,29.8324513 12.9342465,29.8566084 12.9572436,29.8807656 C12.9819442,29.907511 13.0066448,29.9333937 13.0313453,29.9584136 C13.0551942,29.981708 13.0781913,30.0041396 13.1011884,30.0265713 C13.1275924,30.0524539 13.1531448,30.0766111 13.1795488,30.1007683 C13.2033977,30.1223372 13.2272465,30.143906 13.2510953,30.1646122 C13.2774994,30.1879066 13.3047552,30.211201 13.332011,30.2336326 C13.3567116,30.2543388 13.382264,30.2750449 13.4078163,30.2948883 C13.4342203,30.3164572 13.4614762,30.3371633 13.4878802,30.3578694 C13.5159878,30.3785756 13.5432436,30.3975562 13.5704994,30.4173996 C13.5969035,30.4363802 13.6233076,30.4544981 13.6497116,30.4726159 C13.6786709,30.4924593 13.708482,30.51144 13.7374413,30.5304206 C13.7646971,30.5468129 13.7902494,30.564068 13.8158017,30.5795976 C13.8473163,30.5985783 13.8788308,30.6166961 13.9111971,30.634814 C13.9358977,30.6494809 13.9605983,30.6641477 13.9861506,30.6779518 C14.0193686,30.6960697 14.0542901,30.7133248 14.0883599,30.7305799 C14.1122087,30.7435212 14.1360576,30.7564626 14.1607581,30.7676784 C14.1965314,30.7849335 14.2323047,30.8013259 14.2680779,30.8177182 C14.2919267,30.8280713 14.3149238,30.8384243 14.3387727,30.8487774 C14.3762494,30.864307 14.4145779,30.8798366 14.4529064,30.8945035 C14.4759035,30.903131 14.4971971,30.9126213 14.5193424,30.9212489 C14.5593744,30.9359157 14.6002581,30.9497198 14.6402901,30.9626612 C14.6615837,30.970426 14.6828773,30.977328 14.7041709,30.9842301 C14.7467581,30.9980341 14.7884936,31.00925 14.8310808,31.0213285 C14.8506709,31.0273678 14.8711128,31.0334071 14.8915547,31.0394464 C14.9358453,31.0506622 14.980136,31.0610153 15.0252785,31.0713684 C15.0440169,31.0756821 15.0619035,31.0799959 15.0814936,31.0843097 C15.130043,31.0955255 15.1794442,31.1041531 15.2279936,31.1127806 C15.243325,31.1153689 15.2578047,31.1179572 15.2714326,31.1205454 C15.3353134,31.1317613 15.4000459,31.1403888 15.4647785,31.1481536 C15.5312145,31.1559184 15.5985023,31.1619577 15.6657901,31.1671342 C15.6819733,31.167997 15.6973047,31.167997 15.7134878,31.1688598 C15.7645924,31.171448 15.8165488,31.1740363 15.8676535,31.1748991 C15.8880953,31.1757618 15.9076855,31.1748991 15.9281273,31.1748991 C15.9749733,31.1748991 16.0226709,31.1748991 16.0703686,31.1731735 C16.092514,31.1723108 16.1146593,31.1705853 16.1376564,31.1697225 C16.1827988,31.167997 16.2270895,31.1654087 16.272232,31.1619577 C16.2960808,31.1602322 16.3207814,31.1567812 16.3437785,31.1541929 C16.3872174,31.1507419 16.4315081,31.1464281 16.4740953,31.1403888 C16.4996477,31.1369378 16.5243483,31.132624 16.5499006,31.129173 C16.591636,31.122271 16.6333715,31.1162317 16.675107,31.1084669 C16.7006593,31.1041531 16.7270634,31.0981138 16.7534674,31.0929373 C16.7934994,31.0843097 16.8335314,31.0765449 16.8727116,31.0670546 C16.9008192,31.0610153 16.9297785,31.0532505 16.9570343,31.0454857 C16.9953628,31.0359954 17.0328395,31.0256423 17.0703163,31.0152893 C17.0992756,31.0075245 17.1282349,30.9971714 17.1571942,30.9885438 C17.1929674,30.977328 17.2287407,30.9661122 17.264514,30.9540336 C17.2951767,30.9428178 17.3249878,30.931602 17.3547988,30.9203861 C17.3897203,30.9083076 17.4229384,30.8953662 17.4570081,30.8824249 C17.4885227,30.8694835 17.5191855,30.8556795 17.5507,30.8427381 C17.5822145,30.8280713 17.6137291,30.8142672 17.6452436,30.8004631 C17.6776099,30.7849335 17.7099762,30.7694039 17.7423424,30.7538743 C17.7721535,30.7383447 17.8019645,30.7236778 17.8317756,30.7081482 C17.8641419,30.6908931 17.8965081,30.6727753 17.9280227,30.6546574 C17.9578337,30.6391278 17.986793,30.6227354 18.0149006,30.6054803 C18.0464151,30.5864997 18.0787814,30.5666563 18.1102959,30.5468129 C18.1384035,30.5286951 18.1673628,30.5105772 18.1946186,30.4924593 C18.2252814,30.4717532 18.2559442,30.4510471 18.286607,30.4286154 C18.3147145,30.408772 18.3436738,30.3889286 18.3717814,30.3673598 C18.4007407,30.3457909 18.4288483,30.324222 18.4578076,30.3017903 C18.4876186,30.2784959 18.5165779,30.2543388 18.5455372,30.2310444 C18.5591651,30.2198285 18.572793,30.2094755 18.5864209,30.1982597 L45.272418,7.47586401 C47.0125314,5.9936498 47.2373919,3.36397057 45.7749471,1.60136077 C44.3116506,-0.161249032 41.7146826,-0.38987928 39.9745692,1.09233493 L16.5243483,21.0599518 L16.481761,21.0064609 L7.4941564,9.57667403 C7.36724651,9.41447596 7.2301157,9.26435648 7.08446744,9.12717833 C5.61776395,7.73641622 3.32827558,7.60700287 1.70996163,8.91321493 C-0.0684802326,10.3471148 -0.361480233,12.9707548 1.05497035,14.7721886 L3.67408372,18.1024254 Z" id="Fill-10" fill="#FFFFFF" mask="url(#mask-2)"></path>
                                </g>
                                <path d="M71.3685823,62.7769484 L51.6702945,39.0114812 L51.1388061,38.3704537 C51.3227828,38.5801034 51.5178323,38.7793999 51.7239544,38.9683434 L63.0121201,29.8714478 C63.1730997,29.7420345 63.3204515,29.6031308 63.4567305,29.4564623 C64.8305939,27.9716599 64.9592073,25.6525727 63.6713701,24.0133369 C62.256623,22.2110404 59.6664689,21.9125269 57.888027,23.345564 L54.598591,25.9968122 L50.2419195,29.5065022 L43.238027,35.1506497 C43.2235474,35.1618655 43.2090677,35.1739441 43.1954398,35.1860226 C43.1690358,35.2084543 43.1417799,35.2308859 43.1153759,35.2541803 C43.0889718,35.276612 43.0625677,35.3007691 43.0370154,35.3240635 C43.0123148,35.3473579 42.988466,35.3697896 42.9637654,35.393084 C42.9382131,35.4181039 42.9126608,35.4431238 42.8871084,35.4681437 C42.8641113,35.4914381 42.841966,35.5147325 42.8189689,35.5380269 C42.7951201,35.5639096 42.7704195,35.590655 42.7465706,35.6174005 C42.725277,35.6415576 42.7048352,35.6657148 42.6826898,35.6898719 C42.6605445,35.7174801 42.6375474,35.7442255 42.615402,35.7718337 C42.5949602,35.7977164 42.5745183,35.8227363 42.5549282,35.848619 C42.5336346,35.8762272 42.5131927,35.9029726 42.4936026,35.9305808 C42.472309,35.9581889 42.4535706,35.9857971 42.4339805,36.0134053 C42.4152422,36.0401507 42.3965038,36.0668962 42.3794689,36.0936416 C42.359027,36.1229753 42.3411404,36.1531717 42.3215503,36.1833682 C42.3053672,36.2092508 42.289184,36.2359963 42.2738526,36.2618789 C42.2542625,36.2938009 42.2363759,36.3257229 42.2184892,36.3576448 C42.2048613,36.3835275 42.1895299,36.4094101 42.1767538,36.4344301 C42.1580154,36.4680775 42.1418323,36.5025878 42.1239456,36.537098 C42.1120212,36.5621179 42.1000968,36.5862751 42.0873206,36.611295 C42.0711375,36.646668 42.0549544,36.6837664 42.0379195,36.7200022 C42.0285503,36.7441593 42.0174776,36.7674537 42.0072567,36.7907481 C41.9919253,36.8295722 41.9765939,36.8683962 41.9621142,36.9072202 C41.9535968,36.9296518 41.9442276,36.9520835 41.9357102,36.9745151 C41.9220823,37.0150646 41.9084544,37.0564769 41.8948265,37.0970264 C41.8880125,37.1185953 41.8803468,37.1401642 41.8735328,37.1617331 C41.8599049,37.2040081 41.8488323,37.2471459 41.8369078,37.2894209 C41.8309456,37.3101271 41.8241317,37.3308332 41.819873,37.3515393 C41.8079485,37.3964026 41.7977276,37.4412659 41.7875067,37.486992 C41.7840997,37.5051098 41.7789892,37.5240905 41.7747305,37.5430711 C41.7636578,37.5931109 41.7551404,37.6431507 41.746623,37.6923278 C41.7440677,37.7069947 41.7406608,37.7216615 41.7389573,37.7363283 C41.7278846,37.801035 41.7185154,37.8657417 41.7117015,37.9313111 C41.7040358,37.9994688 41.6972218,38.0667638 41.6929631,38.1349215 C41.6921113,38.1513138 41.6921113,38.1677062 41.6904078,38.1840985 C41.6878526,38.2358639 41.6852974,38.288492 41.6844456,38.3402573 C41.6835939,38.3601007 41.6844456,38.3808068 41.6844456,38.4006502 C41.6844456,38.4489645 41.6844456,38.4972788 41.6852974,38.5455931 C41.6861491,38.5680248 41.6878526,38.5904564 41.6895561,38.6128881 C41.6912596,38.6586141 41.6938148,38.7043402 41.6972218,38.7500662 C41.6989253,38.7742234 41.7023323,38.7983806 41.7048875,38.8225377 C41.7091462,38.8665382 41.7134049,38.9105388 41.7176637,38.9545393 C41.7210706,38.9795592 41.7261811,39.0054419 41.7295881,39.0313246 C41.736402,39.0727369 41.7423642,39.1150119 41.7500299,39.1572869 C41.7542887,39.1840323 41.7602509,39.2107778 41.7653613,39.2375232 C41.7738788,39.2780727 41.7815445,39.3186222 41.7900619,39.358309 C41.7968759,39.3867799 41.8045416,39.4152508 41.8122073,39.4437218 C41.8215765,39.481683 41.8309456,39.5196443 41.8420183,39.5576055 C41.849684,39.587802 41.8590532,39.6171357 41.8675706,39.6464694 C41.8794951,39.6827051 41.8905677,39.7189408 41.9024922,39.7551766 C41.9127131,39.7862358 41.9237858,39.8164322 41.9348584,39.8474914 C41.9476346,39.8811389 41.9604108,39.9156491 41.9731869,39.9492966 C41.9859631,39.9812186 41.999591,40.0131405 42.0115154,40.0441997 C42.0259951,40.0769844 42.0387712,40.1089064 42.0541026,40.1416911 C42.0685823,40.1736131 42.0839137,40.2063978 42.1000968,40.2383197 C42.1137247,40.2693789 42.1290561,40.2995754 42.1443875,40.3297718 C42.1614224,40.3625566 42.1784573,40.3953413 42.1963439,40.428126 C42.2133788,40.4565969 42.2287102,40.4859306 42.2457451,40.5152643 C42.2644834,40.5471863 42.2840735,40.579971 42.3036637,40.6127557 C42.3206985,40.6403639 42.3385852,40.6688348 42.3564718,40.6973057 C42.3777654,40.7283649 42.3982073,40.7594242 42.4203526,40.7913461 C42.439091,40.819817 42.4603846,40.848288 42.4799747,40.8767589 C42.5012683,40.9060926 42.5234137,40.9354263 42.545559,40.9638972 C42.5685561,40.9940937 42.5915532,41.0234274 42.6145503,41.0527611 C42.6264747,41.0665652 42.6366956,41.081232 42.6477683,41.0941733 L65.0639718,68.1389748 C66.5247131,69.9024474 69.1216811,70.1319404 70.8626462,68.6514517 C72.6036113,67.170963 72.831027,64.540421 71.3685823,62.7769484" id="Fill-13" fill="#FFFFFF"></path>
                                <path d="M47.5921433,56.3029163 L44.0395183,51.9623926 L38.3277218,44.9826994 C38.3157974,44.9680325 38.303873,44.9550912 38.2919485,44.9412871 C38.2689515,44.9136789 38.2459544,44.8869335 38.2229573,44.8610508 C38.1999602,44.8343054 38.1761113,44.8084227 38.1522625,44.78254 C38.1292654,44.7583829 38.1062683,44.7342257 38.0832712,44.7100686 C38.0585706,44.6841859 38.0321666,44.659166 38.0066142,44.6341461 C37.9836172,44.6117144 37.9597683,44.5892828 37.9367712,44.5668511 C37.9103672,44.542694 37.8839631,44.5185368 37.8567073,44.4943797 C37.8328584,44.4736735 37.8081578,44.4529674 37.7834573,44.4322612 C37.7562015,44.4098296 37.7297974,44.3865352 37.7025416,44.3649663 C37.6761375,44.3451229 37.6505852,44.3252795 37.6250328,44.3054362 C37.597777,44.28473 37.5696695,44.2640239 37.5424137,44.2441805 C37.5151578,44.2243371 37.487902,44.2053565 37.4597945,44.1863759 C37.4325387,44.168258 37.4061346,44.1501401 37.3797305,44.1320223 C37.3499195,44.1130417 37.3192567,44.0949238 37.2894456,44.0759432 C37.2638933,44.0604136 37.2374892,44.0440212 37.2110852,44.0284916 C37.1787189,44.0103737 37.1472044,43.9922559 37.1148381,43.9750007 C37.0901375,43.9611967 37.0645852,43.9473926 37.0390328,43.9335885 C37.0049631,43.9163334 36.9700416,43.899941 36.9359718,43.8826859 C36.912123,43.8714701 36.8882741,43.8593915 36.8627218,43.8473129 C36.8269485,43.8309206 36.7903235,43.815391 36.7536985,43.7998614 C36.7307015,43.790371 36.7077044,43.7791552 36.6830038,43.7705277 C36.6446753,43.7549981 36.6071985,43.7403312 36.5680183,43.7265271 C36.5450212,43.7178996 36.5228759,43.709272 36.5007305,43.7015072 C36.4606985,43.6877031 36.4198148,43.6747618 36.3797828,43.6626832 C36.3584892,43.6557812 36.3363439,43.6480164 36.3150503,43.6419771 C36.2724631,43.6298985 36.2298759,43.6178199 36.1872887,43.6074668 C36.1676985,43.6014276 36.1464049,43.5953883 36.1268148,43.5910745 C36.0816724,43.5798587 36.0373817,43.5703683 35.9922392,43.560878 C35.9735009,43.557427 35.9556142,43.5531132 35.9360241,43.5487995 C35.8874747,43.5401719 35.8372218,43.5315443 35.7886724,43.5237795 C35.7741927,43.522054 35.7588613,43.518603 35.7452334,43.5168775 C35.6813526,43.5073872 35.6166201,43.4996224 35.5518875,43.4927203 C35.4845997,43.486681 35.4173119,43.4823673 35.3500241,43.4789162 C35.333841,43.4780535 35.3185096,43.4780535 35.3023265,43.4771907 C35.2512218,43.4754652 35.1992654,43.4737397 35.1481608,43.4737397 C35.1277189,43.4737397 35.1081288,43.4754652 35.0876869,43.4754652 C35.040841,43.476328 34.9931433,43.4771907 34.9454456,43.479779 C34.9233003,43.4806418 34.9011549,43.48323 34.8790096,43.4849555 C34.8338672,43.4875438 34.7887247,43.4909948 34.7435823,43.4953086 C34.7197334,43.4978969 34.6958846,43.5013479 34.6720358,43.5039362 C34.6285968,43.5091127 34.5851578,43.5142892 34.5434224,43.5211913 C34.5170183,43.5246423 34.4923177,43.5298188 34.4676172,43.5341326 C34.4258817,43.5410347 34.3841462,43.5479367 34.3424108,43.5565643 C34.3168584,43.5617408 34.2904544,43.5686428 34.2640503,43.5746821 C34.2248701,43.5833097 34.1848381,43.5919372 34.1448061,43.6022903 C34.1175503,43.6091924 34.0894427,43.6169572 34.0613352,43.6255847 C34.0238584,43.6359378 33.9863817,43.6462908 33.9489049,43.6575067 C33.9199456,43.666997 33.8909863,43.6764873 33.8628788,43.6859776 C33.8271055,43.6980562 33.7913323,43.7101348 33.755559,43.7230761 C33.725748,43.7342919 33.6959369,43.7463705 33.6652741,43.7575863 C33.6320561,43.7713904 33.5979863,43.7843317 33.5656201,43.7989986 C33.5341055,43.8119399 33.5034427,43.8266068 33.4727799,43.8404109 C33.4412654,43.854215 33.4097509,43.8688818 33.3782363,43.8844114 C33.3458701,43.899941 33.3143555,43.9163334 33.282841,43.9327257 C33.2530299,43.9482553 33.2232189,43.9637849 33.1942596,43.9801773 C33.1618933,43.9974324 33.1303788,44.016413 33.0971608,44.0345309 C33.0690532,44.051786 33.0409456,44.0681784 33.0128381,44.0862962 C32.9813235,44.1061396 32.949809,44.125983 32.9174427,44.1466891 C32.8901869,44.1656697 32.8629311,44.1837876 32.8348235,44.2027682 C32.8050125,44.2243371 32.7743497,44.245906 32.7436869,44.2683377 C32.7155794,44.2890438 32.6883235,44.3097499 32.6610677,44.3313188 C32.6321084,44.3528877 32.6031491,44.3761821 32.5750416,44.3994765 C32.546934,44.4227709 32.5179747,44.4469281 32.4898672,44.4710852 C32.4762392,44.4823011 32.4617596,44.4935169 32.4489834,44.5047327 L6.20674506,67.7516838 C4.49559099,69.2675455 4.32183517,71.9015385 5.81834971,73.6348146 C7.31486424,75.3680907 9.91609099,75.5449556 11.6263933,74.0282312 L34.6873672,53.6007656 L35.3082887,53.0494647 C35.1055735,53.239271 34.9122276,53.4420185 34.7299544,53.6533937 L43.9364573,64.9028646 C44.0676259,65.0624744 44.2073119,65.2091429 44.3555154,65.3437328 C45.848623,66.7051612 48.1406666,66.7888485 49.7334282,65.4515772 C51.4829108,63.9823043 51.7265096,61.3534879 50.2742858,59.580525 L47.5921433,56.3029163 Z" id="Fill-15" fill="#FFFFFF"></path>
                                <g id="Group-19" transform="translate(0.000000, 4.313778)">
                                    <mask id="mask-4" fill="white">
                                        <use xlink:href="#path-3"></use>
                                    </mask>
                                    <g id="Clip-18"></g>
                                    <path d="M20.7255765,32.1449815 C20.5458584,31.9318809 20.3533642,31.729996 20.1515009,31.5367388 L8.70831773,40.4326123 C8.54563459,40.5594374 8.39487587,40.6957528 8.25689331,40.8406957 C6.85747762,42.3004783 6.68968401,44.6169772 7.94856192,46.2795074 C9.33264622,48.1059611 11.9168381,48.4502006 13.7199805,47.0482227 L17.054559,44.4565047 L21.4700009,41.0235999 L28.5709922,35.5036893 C28.5854718,35.4924734 28.5990997,35.4803949 28.6135794,35.469179 C28.6408352,35.4467474 28.668091,35.4243157 28.6944951,35.4018841 C28.7217509,35.3794525 28.7481549,35.3570208 28.7737073,35.3337264 C28.7992596,35.3112948 28.8239602,35.2888631 28.8486608,35.2664315 C28.8742131,35.2414115 28.9014689,35.2172544 28.9270212,35.1922345 C28.9491666,35.1689401 28.9730154,35.1465084 28.9951608,35.123214 C29.0198613,35.0973314 29.0454137,35.0714487 29.0692625,35.0447033 C29.0914078,35.0214089 29.1127015,34.9981145 29.1339951,34.9730945 C29.1569922,34.9472119 29.180841,34.9204664 29.2029863,34.893721 C29.2251317,34.8687011 29.2447218,34.8428184 29.2651637,34.8177985 C29.287309,34.7901903 29.3077509,34.7643077 29.3290445,34.7366995 C29.3494863,34.7099541 29.3690765,34.6823459 29.3895183,34.6547377 C29.4074049,34.6279923 29.4269951,34.6021096 29.4448817,34.5753642 C29.4653235,34.5460305 29.4840619,34.5166968 29.503652,34.4873631 C29.5206869,34.4614804 29.5377218,34.4355978 29.5530532,34.4097151 C29.5734951,34.3777931 29.5913817,34.3458712 29.6101201,34.3139492 C29.6245997,34.2889293 29.6399311,34.2639094 29.653559,34.2388895 C29.6722974,34.205242 29.6893323,34.1707318 29.7080706,34.1370843 C29.7208468,34.1120644 29.7327712,34.0879072 29.7455474,34.0637501 C29.7625823,34.0275143 29.7796172,33.9912786 29.7958003,33.9550429 C29.806873,33.9317485 29.8179456,33.9084541 29.8290183,33.8851597 C29.8452015,33.8463357 29.8605328,33.8083744 29.8758642,33.7695504 L29.9031201,33.7022555 C29.9184515,33.6625687 29.9329311,33.6211564 29.946559,33.5814697 L29.9695561,33.516763 C29.983184,33.474488 29.9951084,33.4322129 30.0078846,33.3890752 C30.0138468,33.368369 30.0206608,33.3485256 30.026623,33.3286823 C30.0385474,33.2829562 30.0496201,33.2380929 30.0606927,33.1932296 C30.0649515,33.174249 30.0700619,33.1561311 30.0751724,33.1371505 C30.0853933,33.0879734 30.0956142,33.0379336 30.1049834,32.9878938 C30.1083904,32.9732269 30.1117974,32.9585601 30.1135009,32.944756 C30.1254253,32.8800493 30.1356462,32.8153426 30.1450154,32.7497732 C30.1526811,32.6824783 30.1603468,32.6143206 30.166309,32.5461629 C30.1671608,32.5306333 30.1680125,32.5142409 30.1688642,32.4978486 C30.173123,32.4460832 30.1765299,32.3943179 30.1782334,32.3416898 C30.1790852,32.3218464 30.1790852,32.3011403 30.1790852,32.2812969 C30.1799369,32.2329826 30.1816404,32.1846683 30.1810208,32.136354 C30.1799369,32.1139223 30.1790852,32.0914907 30.1782334,32.069059 C30.1765299,32.023333 30.1756782,31.9776069 30.1722712,31.9318809 C30.1714195,31.9077237 30.1688642,31.8835665 30.166309,31.8585466 C30.162902,31.8154088 30.1594951,31.7714083 30.1543846,31.7274078 C30.1518294,31.7015251 30.1484224,31.6765052 30.1450154,31.6506225 C30.1399049,31.6083475 30.1339427,31.5660725 30.1271288,31.5237974 C30.1228701,31.497052 30.1169078,31.4703066 30.1126491,31.4435612 C30.1058352,31.4030116 30.0981695,31.3624621 30.089652,31.3219126 C30.0836898,31.2934417 30.0768759,31.2649707 30.0700619,31.2364998 C30.0606927,31.1976758 30.0521753,31.1597146 30.0419544,31.1208905 C30.0342887,31.0915569 30.0257712,31.0622232 30.0172538,31.0320267 C30.0061811,30.995791 29.9959602,30.9595552 29.9848875,30.9233195 C29.9746666,30.8922603 29.9644456,30.8612011 29.953373,30.8310046 C29.9414485,30.7964944 29.9303759,30.7619842 29.9175997,30.727474 C29.9048235,30.695552 29.8928991,30.66363 29.880123,30.6317081 L29.840091,30.5342167 C29.8264631,30.501432 29.8111317,30.46951 29.7958003,30.4367253 C29.7821724,30.4056661 29.7676927,30.3754697 29.7532131,30.3444105 C29.7361782,30.3116257 29.7199951,30.2779783 29.7021084,30.2451936 C29.686777,30.2158599 29.6705939,30.1865262 29.6544108,30.1571925 C29.6365241,30.1244078 29.616934,30.0916231 29.5981956,30.0597011 C29.5811608,30.0303674 29.5641259,30.0018965 29.5453875,29.9734255 C29.5266491,29.9415036 29.5062073,29.9095816 29.4849137,29.8785224 C29.4661753,29.8491887 29.4457334,29.8207178 29.4261433,29.7913841 C29.4048497,29.7620504 29.3844078,29.7327167 29.3631142,29.7025203 C29.3401172,29.6731866 29.3179718,29.6429901 29.2949747,29.6127937 C29.283902,29.5989896 29.2736811,29.5851855 29.2617567,29.5713814 L7.31486424,2.13575162 C5.88308227,0.346396395 3.29122471,0.0711773414 1.52470727,1.52060684 C-0.24095843,2.97089909 -0.51351657,5.5971273 0.918265407,7.38561977 L20.2060125,31.4953265 L20.7255765,32.1449815 Z" id="Fill-17" fill="#FFFFFF" mask="url(#mask-4)"></path>
                                </g>
                            </g>
                        </g>
                        <path d="M15.9134042,88.1495449 L15.9134042,91.611647 L8.05847812,91.611647 L8.05847812,94.8017268 L14.5441969,94.8017268 L14.5441969,98.2638289 L8.05847812,98.2638289 L8.05847812,102.022683 L15.8413407,102.022683 L15.8413407,105.484785 L4.69551282,105.484785 L4.69551282,88.1495449 L15.9134042,88.1495449 Z M35.4906665,88.1495449 L29.5093925,96.8295294 L35.4906665,105.484785 L31.3590234,105.484785 L27.4435709,99.8217748 L23.5281185,105.484785 L19.3964754,105.484785 L25.3777494,96.8295294 L19.3964754,88.1495449 L23.5281185,88.1495449 L27.4435709,93.837284 L31.3590234,88.1495449 L35.4906665,88.1495449 Z M38.9256953,88.1495449 L44.3785033,88.1495449 C47.1649603,88.1495449 49.4229513,90.4988284 49.4229513,93.3674273 C49.4229513,96.2360262 47.1649603,98.5605805 44.3785033,98.5605805 L42.2886606,98.5605805 L42.2886606,105.484785 L38.9256953,105.484785 L38.9256953,88.1495449 Z M42.2886606,95.0984784 L44.3785033,95.0984784 C45.2913082,95.0984784 46.059986,94.33187 46.059986,93.3674273 C46.059986,92.4029846 45.2913082,91.611647 44.3785033,91.611647 L42.2886606,91.611647 L42.2886606,95.0984784 Z M64.4842316,88.1495449 L64.4842316,91.611647 L56.6293055,91.611647 L56.6293055,94.8017268 L63.1150243,94.8017268 L63.1150243,98.2638289 L56.6293055,98.2638289 L56.6293055,102.022683 L64.412168,102.022683 L64.412168,105.484785 L53.2663402,105.484785 L53.2663402,88.1495449 L64.4842316,88.1495449 Z M80.3382108,105.484785 L76.7590549,105.484785 L73.6122802,98.5358512 L71.9307976,98.5358512 L71.9307976,105.460055 L68.5678323,105.460055 L68.5678323,88.1248156 L74.909424,88.1248156 C77.6958809,88.1248156 79.9538719,90.4740991 79.9538719,93.342698 C79.9538719,95.4446886 78.7528129,97.2499275 76.9992667,98.0659945 L80.3382108,105.484785 Z M74.909424,91.5869177 L71.9307976,91.5869177 L71.9307976,95.0737491 L74.909424,95.0737491 C75.84625,95.0737491 76.5909066,94.3071407 76.5909066,93.342698 C76.5909066,92.3782553 75.84625,91.5869177 74.909424,91.5869177 Z M90.7634032,91.611647 L88.9858359,91.611647 L88.9858359,102.022683 L90.7634032,102.022683 L90.7634032,105.484785 L83.821282,105.484785 L83.821282,102.022683 L85.6228706,102.022683 L85.6228706,91.611647 L83.821282,91.611647 L83.821282,88.1495449 L90.7634032,88.1495449 L90.7634032,91.611647 Z M106.305107,88.1495449 L106.305107,91.611647 L98.4501811,91.611647 L98.4501811,94.8017268 L104.9359,94.8017268 L104.9359,98.2638289 L98.4501811,98.2638289 L98.4501811,102.022683 L106.233044,102.022683 L106.233044,105.484785 L95.0872158,105.484785 L95.0872158,88.1495449 L106.305107,88.1495449 Z M123.45623,105.484785 L113.991885,95.3705007 L113.991885,105.484785 L110.62892,105.484785 L110.62892,88.1495449 L111.685852,88.1495449 L120.982049,97.8434308 L120.982049,88.1495449 L124.345014,88.1495449 L124.345014,105.484785 L123.45623,105.484785 Z M142.769259,89.7816787 L140.607353,92.353526 C137.340473,90.1773475 132.416131,92.2051502 132.416131,96.8542587 C132.416131,101.725931 137.628727,103.679546 140.799523,101.206616 L142.961429,103.753734 C141.448094,105.039657 139.502379,105.830995 137.388515,105.830995 C132.584279,105.830995 128.668826,101.800119 128.668826,96.8542587 C128.668826,91.9083986 132.584279,87.8775225 137.388515,87.8775225 C139.406294,87.8775225 141.279946,88.5946723 142.769259,89.7816787 Z M158.503133,88.1495449 L158.503133,91.611647 L150.648207,91.611647 L150.648207,94.8017268 L157.133925,94.8017268 L157.133925,98.2638289 L150.648207,98.2638289 L150.648207,102.022683 L158.431069,102.022683 L158.431069,105.484785 L147.285241,105.484785 L147.285241,88.1495449 L158.503133,88.1495449 Z M168.303775,98.1649117 L168.183669,98.1401824 C167.631181,97.9918066 166.598271,97.7197843 165.637423,97.0520931 C164.292237,96.137109 163.547581,94.8017268 163.475517,93.1448636 C163.403454,91.7600228 163.835835,90.548287 164.700597,89.6085736 C165.949699,88.2731914 167.751287,87.9022518 168.61605,87.9022518 C171.06621,87.9022518 172.435418,88.817236 173.660498,89.6333029 L174.212985,90.0042424 L172.459439,92.9470292 L171.858909,92.5513604 C170.777956,91.8342107 170.081342,91.364354 168.61605,91.364354 C168.399859,91.364354 167.559118,91.5374591 167.126737,92.0073158 C166.98261,92.1556916 166.814461,92.4277139 166.838482,92.9964878 C166.862504,93.8867426 167.463033,94.3813286 169.000389,94.7769975 C169.192558,94.8264561 169.336685,94.8759147 169.480812,94.9253733 C171.090231,95.4941472 172.339333,96.2607555 173.204095,97.2251982 C174.068858,98.2143703 174.52526,99.3766474 174.52526,100.613112 C174.52526,101.824848 174.020816,103.086043 173.180074,104.050485 C172.195206,105.188033 170.825998,105.830995 169.312664,105.830995 C168.568007,105.830995 167.559118,105.781536 166.358059,105.410597 C164.844724,104.916011 163.499538,104.050485 162.346522,102.789291 L164.796682,100.415278 C166.57425,102.368893 168.568007,102.368893 169.312664,102.368893 C170.705893,102.368893 171.162295,101.05824 171.162295,100.613112 C171.162295,99.673399 170.129384,98.8078735 168.375838,98.189641 L168.303775,98.1649117 Z M177.888226,105.484785 L177.888226,102.245246 L181.035,102.245246 L181.035,105.484785 L177.888226,105.484785 Z M184.830347,88.1495449 L190.283155,88.1495449 C193.069612,88.1495449 195.327603,90.4988284 195.327603,93.3674273 C195.327603,96.2360262 193.069612,98.5605805 190.283155,98.5605805 L188.193312,98.5605805 L188.193312,105.484785 L184.830347,105.484785 L184.830347,88.1495449 Z M188.193312,95.0984784 L190.283155,95.0984784 C191.19596,95.0984784 191.964637,94.33187 191.964637,93.3674273 C191.964637,92.4029846 191.19596,91.611647 190.283155,91.611647 L188.193312,91.611647 L188.193312,95.0984784 Z M210.076608,105.484785 L208.611316,102.269976 L201.645173,102.269976 L200.059775,105.484785 L196.28845,105.484785 L204.864012,88.1495449 L205.84888,88.1495449 L213.799891,105.484785 L210.076608,105.484785 Z M203.374698,98.8078735 L207.025918,98.8078735 L205.272372,94.9501026 L203.374698,98.8078735 Z M228.452811,105.484785 L224.873655,105.484785 L221.72688,98.5358512 L220.045398,98.5358512 L220.045398,105.460055 L216.682432,105.460055 L216.682432,88.1248156 L223.024024,88.1248156 C225.810481,88.1248156 228.068472,90.4740991 228.068472,93.342698 C228.068472,95.4446886 226.867413,97.2499275 225.113867,98.0659945 L228.452811,105.484785 Z M223.024024,91.5869177 L220.045398,91.5869177 L220.045398,95.0737491 L223.024024,95.0737491 C223.96085,95.0737491 224.705507,94.3071407 224.705507,93.342698 C224.705507,92.3782553 223.96085,91.5869177 223.024024,91.5869177 Z M230.374505,88.1495449 L243.08171,88.1495449 L243.08171,91.611647 L238.421601,91.611647 L238.421601,105.484785 L235.058636,105.484785 L235.058636,91.611647 L230.374505,91.611647 L230.374505,88.1495449 Z M253.987326,91.611647 L252.209759,91.611647 L252.209759,102.022683 L253.987326,102.022683 L253.987326,105.484785 L247.045205,105.484785 L247.045205,102.022683 L248.846793,102.022683 L248.846793,91.611647 L247.045205,91.611647 L247.045205,88.1495449 L253.987326,88.1495449 L253.987326,91.611647 Z M269.52903,88.1495449 L269.52903,91.611647 L261.674104,91.611647 L261.674104,94.8017268 L268.159823,94.8017268 L268.159823,98.2638289 L261.674104,98.2638289 L261.674104,102.022683 L269.456966,102.022683 L269.456966,105.484785 L258.311139,105.484785 L258.311139,88.1495449 L269.52903,88.1495449 Z M279.329672,98.1649117 L279.209566,98.1401824 C278.657079,97.9918066 277.624168,97.7197843 276.663321,97.0520931 C275.318134,96.137109 274.573478,94.8017268 274.501414,93.1448636 C274.429351,91.7600228 274.861732,90.548287 275.726495,89.6085736 C276.975596,88.2731914 278.777185,87.9022518 279.641947,87.9022518 C282.092107,87.9022518 283.461315,88.817236 284.686395,89.6333029 L285.238882,90.0042424 L283.485336,92.9470292 L282.884806,92.5513604 C281.803853,91.8342107 281.107239,91.364354 279.641947,91.364354 C279.425756,91.364354 278.585015,91.5374591 278.152634,92.0073158 C278.008507,92.1556916 277.840358,92.4277139 277.86438,92.9964878 C277.888401,93.8867426 278.48893,94.3813286 280.026286,94.7769975 C280.218455,94.8264561 280.362582,94.8759147 280.50671,94.9253733 C282.116129,95.4941472 283.36523,96.2607555 284.229993,97.2251982 C285.094755,98.2143703 285.551157,99.3766474 285.551157,100.613112 C285.551157,101.824848 285.046713,103.086043 284.205971,104.050485 C283.221103,105.188033 281.851896,105.830995 280.338561,105.830995 C279.593905,105.830995 278.585015,105.781536 277.383956,105.410597 C275.870622,104.916011 274.525436,104.050485 273.372419,102.789291 L275.822579,100.415278 C277.600147,102.368893 279.593905,102.368893 280.338561,102.368893 C281.73179,102.368893 282.188192,101.05824 282.188192,100.613112 C282.188192,99.673399 281.155281,98.8078735 279.401735,98.189641 L279.329672,98.1649117 Z M288.914123,105.484785 L288.914123,102.245246 L292.060897,102.245246 L292.060897,105.484785 L288.914123,105.484785 Z" id="Experiences.Parties." fill="#FFFFFF"></path>
                    </g>
                </g>
            </g>
        </g>
    </g>
</svg>